<svg width="296" height="190" viewBox="0 0 296 190" fill="none" xmlns="http://www.w3.org/2000/svg">
<path fill-rule="evenodd" clip-rule="evenodd" d="M22.542 156.629C18.4043 162.671 16.0705 169.902 16.0597 177.47C16.0652 178.598 16.121 179.725 16.2285 180.848H282.127C281.381 171.367 277.832 162.322 271.933 154.864C276.239 147.966 278.531 140.002 278.55 131.871C278.529 114.904 268.669 99.4905 253.274 92.3587C255.488 87.1626 256.63 81.5731 256.632 75.9253C256.632 64.7984 252.211 54.1272 244.344 46.2594C236.476 38.3915 225.805 33.9715 214.678 33.9715C210.31 33.9892 205.971 34.6879 201.818 36.044C193.934 25.5479 180.837 19.2603 166.826 19.2449C158.858 19.2515 151.265 21.2826 144.759 24.8876C144.878 25.1299 145.004 25.3567 145.121 25.604C145.501 26.4105 145.866 27.2433 146.208 28.0987C146.551 28.9538 146.87 29.8315 147.162 30.7282C147.307 31.1764 147.445 31.6295 147.576 32.0866C147.706 32.544 147.828 33.0053 147.942 33.4705C148.055 33.9358 148.159 34.4049 148.254 34.8774C148.349 35.3495 148.433 35.8253 148.508 36.304C148.582 36.7823 148.646 37.264 148.698 37.7476C148.751 38.2315 148.791 38.7177 148.82 39.2062C148.849 39.6944 148.866 40.1846 148.869 40.6761C148.874 41.1679 148.862 41.661 148.839 42.1554C148.816 42.6495 148.778 43.1449 148.726 43.6407C148.673 44.1364 148.607 44.6328 148.525 45.1292C148.442 45.6259 148.344 46.1223 148.229 46.6187C148.115 47.1151 147.984 47.6112 147.836 48.1062C147.54 49.0967 147.235 50.0377 146.924 50.9335C146.613 51.8295 146.295 52.6807 145.974 53.4908C145.652 54.3013 145.327 55.0708 145 55.804C144.674 56.5371 144.346 57.2341 144.019 57.8987C143.692 58.5633 143.367 59.1958 143.045 59.8007C142.723 60.4056 142.404 60.9823 142.092 61.5358C141.468 62.6426 140.868 63.6554 140.312 64.6085C139.756 65.562 139.246 66.4554 138.799 67.3236C138.576 67.7577 138.368 68.1856 138.179 68.6118C137.991 69.0377 137.821 69.4613 137.671 69.8876C137.523 70.3138 137.395 70.7423 137.29 71.1771C137.186 71.6125 137.105 72.0538 137.05 72.5066C136.996 72.9587 136.967 73.4223 136.967 73.901C136.967 74.3797 136.995 74.8735 137.055 75.3866C137.293 77.44 137.555 79.4567 137.813 81.3276C138.072 83.198 138.329 84.922 138.555 86.3892C139.008 89.324 139.342 91.2321 139.342 91.2321L133.21 106.949C133.21 106.949 133.001 107.4 132.586 108.175C132.378 108.563 132.119 109.032 131.808 109.565C131.496 110.099 131.133 110.698 130.719 111.346C130.305 111.994 129.838 112.692 129.32 113.422C128.802 114.153 128.233 114.917 127.612 115.699C126.991 116.48 126.318 117.279 125.594 118.08C125.232 118.48 124.858 118.88 124.47 119.279C124.082 119.678 123.682 120.076 123.268 120.47C122.855 120.863 122.429 121.254 121.99 121.638C121.55 122.023 121.099 122.402 120.634 122.774C120.169 123.145 119.691 123.509 119.201 123.863C118.711 124.218 118.208 124.563 117.692 124.896C117.176 125.229 116.647 125.551 116.106 125.859C115.564 126.167 115.01 126.462 114.442 126.741C113.875 127.021 113.295 127.284 112.703 127.53C112.11 127.777 111.504 128.006 110.886 128.214C110.268 128.424 109.637 128.613 108.993 128.782C108.35 128.95 107.693 129.097 107.024 129.22C106.354 129.343 105.672 129.443 104.977 129.518C104.283 129.592 103.575 129.641 102.855 129.663C102.135 129.685 101.402 129.678 100.656 129.643C99.9108 129.608 99.1525 129.543 98.381 129.446C97.6098 129.351 96.8262 129.223 96.0295 129.062C95.2331 128.901 94.4243 128.707 93.6023 128.477C92.7803 128.247 91.9895 128.055 91.2269 127.899C90.4639 127.743 89.7305 127.623 89.0233 127.536C88.3164 127.45 87.6357 127.397 86.979 127.377C86.3229 127.356 85.6911 127.367 85.082 127.408C84.4721 127.448 83.8846 127.519 83.3177 127.618C82.7505 127.717 82.2036 127.843 81.6751 127.996C81.1462 128.148 80.6351 128.326 80.14 128.528C79.6452 128.731 79.1666 128.956 78.701 129.204C78.2361 129.452 77.7846 129.722 77.3449 130.012C76.9053 130.301 76.4771 130.611 76.0587 130.939C75.6403 131.266 75.2311 131.611 74.8298 131.973C74.4282 132.334 74.0341 132.711 73.6456 133.103C73.2567 133.494 72.8731 133.899 72.4928 134.316C72.1125 134.733 71.7357 135.163 71.3597 135.602C70.6075 136.479 69.8597 137.398 69.0987 138.339C68.338 139.281 67.5649 140.247 66.7613 141.221C65.9584 142.195 65.1256 143.176 64.2462 144.151C63.8062 144.637 63.3551 145.123 62.8895 145.603C62.4243 146.084 61.9452 146.561 61.4498 147.033C60.9551 147.504 60.4439 147.969 59.9148 148.426C59.3856 148.883 58.8387 149.332 58.2715 149.772C57.7043 150.211 57.1167 150.641 56.5072 151.058C55.8974 151.475 55.2649 151.881 54.6085 152.272C53.9521 152.665 53.2715 153.042 52.5639 153.404C51.8564 153.766 51.1223 154.112 50.3597 154.44C49.597 154.768 48.8056 155.078 47.9833 155.369C47.161 155.659 46.3082 155.929 45.4226 156.178C44.5364 156.426 43.6177 156.653 42.6639 156.856C41.7095 157.059 40.721 157.238 39.6951 157.391C38.6689 157.544 37.6636 157.663 36.6784 157.749C35.6931 157.835 34.7279 157.889 33.7833 157.912C32.8384 157.935 31.9131 157.929 31.0082 157.893C30.103 157.857 29.2177 157.793 28.3515 157.703C27.4856 157.612 26.639 157.495 25.8118 157.354C24.9846 157.213 24.1761 157.047 23.3866 156.859C23.098 156.79 22.8252 156.703 22.542 156.629Z" fill="#E1E1FD"/>
<path fill-rule="evenodd" clip-rule="evenodd" d="M211.727 168.232C208.15 168.236 204.815 170.044 202.861 173.042C200.817 171.251 198.192 170.261 195.474 170.259C189.522 170.261 184.606 174.906 184.267 180.848H249.169C248.138 177.373 244.946 174.989 241.322 174.987C238.289 174.989 235.505 176.667 234.087 179.348C233.046 175.528 229.576 172.877 225.617 172.876C224.063 172.88 222.538 173.295 221.198 174.081C219.402 170.497 215.737 168.233 211.727 168.232Z" fill="#C3C3FC"/>
<path fill-rule="evenodd" clip-rule="evenodd" d="M22.542 156.629C22.8252 156.704 23.0987 156.79 23.3872 156.859C24.1764 157.048 24.9846 157.213 25.8121 157.354C26.6397 157.496 27.4856 157.612 28.3518 157.703C29.218 157.793 30.1033 157.857 31.0085 157.893C31.9134 157.928 32.8387 157.936 33.7833 157.913C34.7282 157.89 35.6934 157.836 36.6784 157.749C37.6636 157.663 38.6692 157.544 39.6951 157.391C40.7213 157.238 41.7102 157.059 42.6639 156.856C43.618 156.654 44.5367 156.427 45.423 156.178C46.3089 155.93 47.1616 155.659 47.9836 155.369C48.8059 155.079 49.597 154.769 50.3597 154.441C51.1223 154.112 51.8567 153.767 52.5643 153.404C53.2715 153.043 53.9525 152.665 54.6092 152.273C55.2656 151.881 55.8977 151.476 56.5072 151.058C57.1167 150.641 57.7046 150.212 58.2718 149.772C58.8393 149.333 59.3859 148.884 59.9154 148.427C60.4443 147.969 60.9554 147.504 61.4502 147.033C61.9452 146.562 62.4246 146.085 62.8898 145.604C63.3554 145.123 63.8066 144.638 64.2466 144.151C65.1259 143.177 65.959 142.195 66.7623 141.221C67.5652 140.247 68.3387 139.282 69.099 138.34C69.86 137.398 70.6079 136.48 71.36 135.602C71.7357 135.163 72.1128 134.734 72.4931 134.317C72.8734 133.9 73.2571 133.495 73.6459 133.103C74.0344 132.712 74.4285 132.335 74.8302 131.973C75.2315 131.612 75.6407 131.267 76.059 130.939C76.4774 130.612 76.9056 130.302 77.3452 130.012C77.7849 129.723 78.2361 129.453 78.7016 129.205C79.1669 128.957 79.6452 128.731 80.1403 128.529C80.6354 128.327 81.1462 128.149 81.6751 127.996C82.2039 127.844 82.7508 127.717 83.318 127.619C83.8849 127.52 84.4721 127.449 85.082 127.408C85.6915 127.367 86.3233 127.356 86.9797 127.377C87.6357 127.398 88.3164 127.451 89.0236 127.537C89.7308 127.624 90.4649 127.744 91.2272 127.9C91.9895 128.056 92.7807 128.248 93.6026 128.478C94.4246 128.707 95.2334 128.902 96.0298 129.063C96.8266 129.224 97.6102 129.351 98.3816 129.448C99.1525 129.544 99.9108 129.608 100.656 129.644C101.402 129.679 102.135 129.685 102.855 129.664C103.576 129.642 104.283 129.593 104.978 129.519C105.672 129.444 106.355 129.344 107.024 129.221C107.693 129.098 108.35 128.951 108.993 128.783C109.637 128.614 110.268 128.425 110.887 128.215C111.505 128.006 112.11 127.777 112.703 127.532C113.295 127.285 113.876 127.022 114.443 126.742C115.01 126.463 115.564 126.168 116.106 125.86C116.648 125.552 117.176 125.23 117.692 124.897C118.208 124.564 118.711 124.219 119.202 123.864C119.692 123.51 120.17 123.146 120.634 122.774C121.099 122.403 121.551 122.024 121.99 121.639C122.429 121.255 122.855 120.864 123.268 120.471C123.682 120.077 124.083 119.679 124.47 119.28C124.858 118.881 125.233 118.481 125.595 118.08C126.318 117.28 126.991 116.481 127.612 115.699C128.233 114.918 128.803 114.154 129.32 113.424C129.838 112.693 130.305 111.995 130.72 111.347C131.134 110.699 131.497 110.1 131.808 109.566C132.119 109.032 132.379 108.564 132.586 108.176C133.002 107.401 133.21 106.95 133.21 106.95L139.342 91.2331C139.342 91.2331 139.008 89.3249 138.555 86.3902C138.329 84.9226 138.073 83.1987 137.814 81.3285C137.555 79.4577 137.293 77.4407 137.055 75.3876C136.995 74.8745 136.967 74.3804 136.967 73.902C136.967 73.4233 136.996 72.9597 137.05 72.5072C137.105 72.0548 137.186 71.6131 137.291 71.1781C137.395 70.743 137.523 70.3148 137.672 69.8885C137.821 69.4623 137.991 69.0384 138.18 68.6128C138.369 68.1866 138.576 67.7587 138.799 67.3246C139.246 66.4564 139.757 65.5626 140.312 64.6095C140.868 63.6564 141.468 62.6433 142.092 61.5367C142.404 60.9833 142.723 60.4066 143.045 59.8017C143.367 59.1967 143.693 58.5643 144.019 57.8994C144.346 57.2351 144.674 56.5384 145.001 55.8049C145.328 55.0715 145.653 54.3023 145.974 53.4918C146.295 52.6813 146.613 51.8305 146.924 50.9345C147.235 50.0387 147.54 49.0977 147.837 48.1072C147.985 47.6122 148.115 47.1161 148.23 46.6197C148.344 46.1233 148.442 45.6269 148.525 45.1302C148.607 44.6338 148.674 44.1374 148.726 43.6413C148.778 43.1456 148.816 42.6505 148.839 42.1561C148.862 41.662 148.872 41.1689 148.869 40.6771C148.863 40.1856 148.849 39.6951 148.821 39.2072C148.791 38.7187 148.751 38.2325 148.699 37.7485C148.646 37.2649 148.582 36.7833 148.508 36.3049C148.433 35.8263 148.349 35.3505 148.254 34.8781C148.159 34.4056 148.055 33.9367 147.942 33.4715C147.829 33.0063 147.706 32.5449 147.576 32.0876C147.446 31.6302 147.308 31.1774 147.162 30.7292C146.871 29.8325 146.551 28.9548 146.208 28.0994C145.866 27.2443 145.501 26.4115 145.121 25.6049C145.004 25.3577 144.878 25.1308 144.759 24.8885C137.097 29.1338 130.942 35.5626 127.474 43.4633C119.036 40.3889 110.128 38.7997 101.147 38.7669C80.5282 38.7669 60.7538 46.9577 46.1741 61.5374C20.3771 90.5695 21.6348 114.918 34.4141 145.572C29.603 148.378 25.5862 152.184 22.542 156.629Z" fill="#363D63"/>
<path fill-rule="evenodd" clip-rule="evenodd" d="M220.264 144.177L207.995 150.443C201.741 153.297 198.881 156.784 201.794 161.535L209.274 173.391L202.677 180.848H216.258L213.645 161.525L232.328 158.187C235.645 165.744 239.268 173.157 242.866 180.583L247.039 179.698L261.47 176.502L257.182 180.848H267.826L267.414 169.877L247.046 170.012L246.836 144.177C238.03 144.437 229.043 143.57 220.264 144.177C222.594 144.015 222.594 144.015 220.264 144.177Z" fill="#363D63"/>
<path fill-rule="evenodd" clip-rule="evenodd" d="M231.279 98.7584L226.01 103.459C226.01 103.459 223.292 104.553 220.159 106.224C217.027 107.894 215.878 109.722 215.878 109.722L211.702 117.5L200.161 110.593L197.696 114.875C202.123 119.116 210.585 129.161 215.824 125.801L220.264 121.471V144.177H246.836V134.294C246.836 134.294 250.734 134.673 253.5 132.69C256.268 130.706 255.693 126.634 255.693 126.634C255.693 126.634 253.398 116.77 252.667 113.95C251.936 111.131 250.213 109.722 250.213 109.722L244.293 103.367L238.95 98.7584V100.09L235.456 103.584H233.297L231.279 100.09V98.7584Z" fill="#00CCBB"/>
<path fill-rule="evenodd" clip-rule="evenodd" d="M231.279 97.7246V100.09L233.297 103.584H235.456L238.95 100.09V93.4567C238.95 93.4567 238.777 93.6462 238.441 93.9502C238.273 94.102 238.064 94.2826 237.815 94.482C237.568 94.6813 237.28 94.9003 236.953 95.1285C236.627 95.3567 236.262 95.5941 235.861 95.8325C235.459 96.0705 235.02 96.3089 234.546 96.5377C234.071 96.7666 233.561 96.9862 233.016 97.1872C232.471 97.3882 231.892 97.5705 231.279 97.7246Z" fill="#FEB8CA"/>
<path fill-rule="evenodd" clip-rule="evenodd" d="M231.662 99.6184C232.251 99.3899 232.804 99.1374 233.32 98.8709C233.836 98.6043 234.315 98.3233 234.757 98.0374C235.2 97.7518 235.606 97.461 235.975 97.1755C236.345 96.8896 236.677 96.6089 236.972 96.342C237.268 96.0755 237.527 95.8227 237.749 95.5941C237.97 95.3653 238.156 95.1607 238.304 94.9892C238.6 94.6463 238.748 94.4368 238.748 94.4368C239.155 93.7122 239.422 92.9515 239.496 92.1774L241.746 91.8981C243.257 91.7099 244.323 90.3417 244.135 88.8296C243.948 87.3174 242.579 86.2515 241.067 86.4397L238.927 86.7056L238.516 83.3977C238.005 79.284 234.294 76.382 230.197 76.8915C226.1 77.4007 223.214 81.1227 223.725 85.2364L224.137 88.5443C222.628 88.7361 221.565 90.1023 221.752 91.6122C221.94 93.124 223.309 94.1899 224.821 94.002H224.833C225.423 97.6328 226.767 100.309 230.533 99.8404C230.901 99.7955 231.279 99.7197 231.662 99.6184Z" fill="#FEB8CA"/>
<path fill-rule="evenodd" clip-rule="evenodd" d="M225.431 85.4682L234.938 84.2863C234.938 84.2863 236.373 83.9768 236.754 84.9286C237.135 85.8807 235.973 86.4725 236.089 87.405L236.414 90.0214C236.414 90.0214 236.414 91.0735 237.582 90.9545C238.751 90.8355 240.113 86.5581 240.113 86.5581L241.693 86.3617C241.693 86.3617 243.964 85.503 244.263 82.6758C244.563 79.8486 243.441 78.9092 242.393 78.7046C241.345 78.5004 240.394 77.9325 240.394 77.9325C240.394 77.9325 240.751 74.5486 237.708 73.3486C234.666 72.1482 232.88 75.1322 230.397 74.4148C227.914 73.6977 224.439 71.8112 222.312 75.0214C220.186 78.2292 219.446 80.882 219.808 81.884C220.018 82.4676 221.796 85.7774 221.796 85.7774C221.796 85.7774 221.757 88.0591 222.606 89.1997C223.454 90.3404 224.398 90.5951 224.398 90.5951L223.79 85.7046C223.79 85.7046 224.184 85.6233 225.431 85.4682Z" fill="#363D63"/>
<path fill-rule="evenodd" clip-rule="evenodd" d="M236.336 104.642C236.143 104.642 235.965 104.75 235.874 104.922C235.784 105.093 235.797 105.301 235.907 105.461L239.09 110.24C239.185 110.383 239.344 110.47 239.515 110.473C239.686 110.477 239.848 110.396 239.949 110.258L243.252 105.695C243.369 105.544 243.393 105.342 243.317 105.167C243.241 104.992 243.076 104.873 242.887 104.855C242.697 104.838 242.513 104.925 242.406 105.082L239.543 109.035L236.777 104.882C236.68 104.732 236.514 104.642 236.336 104.642Z" fill="#363D63"/>
<path fill-rule="evenodd" clip-rule="evenodd" d="M225.987 102.93C225.802 102.937 225.635 103.041 225.547 103.203C225.46 103.366 225.464 103.562 225.558 103.72L229.313 110.212C229.404 110.369 229.569 110.468 229.75 110.473C229.93 110.479 230.101 110.391 230.201 110.24L233.385 105.461C233.49 105.306 233.504 105.105 233.421 104.936C233.339 104.768 233.171 104.656 232.984 104.645C232.796 104.633 232.617 104.724 232.514 104.881L229.797 108.961L226.462 103.197C226.367 103.026 226.183 102.923 225.987 102.93Z" fill="#363D63"/>
<path fill-rule="evenodd" clip-rule="evenodd" d="M219.619 114.041C219.434 114.048 219.267 114.152 219.179 114.314C219.091 114.476 219.095 114.673 219.19 114.831L220.267 116.697V144.178C220.265 144.366 220.364 144.541 220.527 144.635C220.689 144.73 220.89 144.73 221.053 144.635C221.216 144.541 221.315 144.366 221.312 144.178V116.557C221.312 116.465 221.288 116.375 221.243 116.296L220.095 114.309C220 114.137 219.815 114.033 219.619 114.041Z" fill="#363D63"/>
<path fill-rule="evenodd" clip-rule="evenodd" d="M232.95 104.648C232.661 104.648 232.426 104.882 232.426 105.171C232.426 105.46 232.661 105.694 232.95 105.694H236.342C236.631 105.694 236.865 105.46 236.865 105.171C236.865 104.882 236.631 104.648 236.342 104.648H232.95Z" fill="#363D63"/>
<path fill-rule="evenodd" clip-rule="evenodd" d="M235.851 96.7839C235.715 96.7846 235.585 96.8377 235.488 96.9331C233.685 98.6403 231.551 99.1069 231.551 99.1069C231.549 99.1089 231.546 99.1108 231.544 99.1128C231.544 99.1128 230.692 99.3082 229.779 99.3718C228.997 99.4266 228.028 99.0423 228.028 99.0423C227.855 98.9639 227.653 98.9849 227.501 99.098C227.348 99.2105 227.269 99.3971 227.293 99.5852C227.317 99.7734 227.442 99.9338 227.618 100.004C227.618 100.004 228.704 100.495 229.851 100.414C230.867 100.344 231.777 100.131 231.778 100.13C231.791 100.125 234.177 99.6157 236.205 97.6948C236.364 97.5489 236.417 97.3203 236.338 97.1193C236.259 96.9184 236.066 96.7866 235.851 96.7839Z" fill="#363D63"/>
<path fill-rule="evenodd" clip-rule="evenodd" d="M227.055 89.1122C227.026 89.1112 226.996 89.1128 226.966 89.1174L226.234 89.2082C226.045 89.2269 225.881 89.3466 225.806 89.521C225.73 89.6951 225.755 89.8967 225.871 90.0472C225.987 90.1977 226.175 90.2738 226.363 90.2456L227.096 90.1544C227.368 90.1236 227.57 89.8882 227.559 89.6148C227.549 89.3413 227.329 89.1223 227.055 89.1122Z" fill="#363D63"/>
<path fill-rule="evenodd" clip-rule="evenodd" d="M227.045 89.1049C226.776 89.099 226.547 89.2971 226.514 89.5636L226.021 93.1033C225.999 93.2646 226.053 93.4266 226.167 93.5423C226.281 93.658 226.443 93.7141 226.604 93.6938L228.736 93.4292C228.922 93.4062 229.081 93.2862 229.154 93.1141C229.227 92.9416 229.202 92.7436 229.09 92.5948C228.976 92.4456 228.793 92.3679 228.608 92.3912L227.151 92.5725L227.549 89.7069C227.572 89.5584 227.53 89.4069 227.433 89.2918C227.336 89.1764 227.195 89.1082 227.045 89.1049Z" fill="#363D63"/>
<path fill-rule="evenodd" clip-rule="evenodd" d="M141.464 86.9181L174.987 95.9007C176.916 96.4174 178.052 98.3859 177.535 100.314L174.229 112.654C173.712 114.583 171.744 115.719 169.815 115.203L136.293 106.22C134.364 105.704 133.228 103.735 133.744 101.807L137.051 89.4666C137.568 87.5381 139.536 86.4014 141.464 86.9181Z" fill="white"/>
<path fill-rule="evenodd" clip-rule="evenodd" d="M182.766 113.453H191.961C192.742 113.453 193.37 114.082 193.37 114.863V130.873C193.37 131.653 192.742 132.282 191.961 132.282H182.766C181.986 132.282 181.357 131.653 181.357 130.873V114.863C181.357 114.082 181.986 113.453 182.766 113.453Z" fill="white"/>
<path fill-rule="evenodd" clip-rule="evenodd" d="M177.641 99.74C177.622 99.9308 177.587 100.123 177.535 100.314L174.229 112.655C174.177 112.846 174.111 113.029 174.033 113.204L196.554 119.239C198.482 119.755 200.45 118.619 200.968 116.69L202.71 110.189C203.226 108.26 202.09 106.291 200.161 105.774L177.641 99.74Z" fill="#00CCBB"/>
<path fill-rule="evenodd" clip-rule="evenodd" d="M202.78 108.632C202.868 109.134 202.85 109.662 202.71 110.189L200.968 116.69C200.827 117.216 200.577 117.682 200.25 118.073L226.673 125.082C228.603 125.593 230.57 124.462 231.087 122.533L231.751 120.055C232.268 118.127 231.132 116.153 229.203 115.641L202.78 108.632Z" fill="white"/>
<path fill-rule="evenodd" clip-rule="evenodd" d="M174.967 95.3764C174.706 95.383 174.49 95.5813 174.461 95.841C174.432 96.1003 174.599 96.3417 174.852 96.4059C176.51 96.8498 177.474 98.5217 177.03 100.179L173.724 112.519C173.28 114.177 171.608 115.142 169.95 114.698L140.248 106.739L136.428 105.715C136.247 105.666 136.052 105.716 135.919 105.849C135.786 105.981 135.734 106.175 135.784 106.356C135.832 106.538 135.975 106.679 136.157 106.726L139.977 107.749L169.68 115.708C171.879 116.297 174.145 114.99 174.734 112.79L178.04 100.45C178.63 98.2505 177.322 95.9849 175.122 95.3958C175.072 95.3813 175.02 95.3748 174.967 95.3764Z" fill="#363D63"/>
<path fill-rule="evenodd" clip-rule="evenodd" d="M139.368 83.9646L142.001 84.6702C142.755 84.8721 143.2 85.642 142.998 86.3961L137.569 106.658C137.367 107.412 136.597 107.857 135.843 107.654L133.21 106.949C132.455 106.747 132.011 105.977 132.213 105.223L137.642 84.961C137.844 84.2069 138.614 83.7626 139.368 83.9646Z" fill="#7F90FF"/>
<path fill-rule="evenodd" clip-rule="evenodd" d="M200.142 105.25C199.88 105.256 199.664 105.454 199.635 105.714C199.605 105.974 199.772 106.216 200.026 106.28C201.683 106.724 202.649 108.395 202.205 110.053L200.462 116.555C200.018 118.212 198.347 119.178 196.689 118.733L174.715 112.846C174.721 112.826 174.729 112.809 174.734 112.79C174.785 112.609 174.734 112.415 174.601 112.282C174.469 112.149 174.275 112.097 174.094 112.146C173.912 112.195 173.771 112.337 173.724 112.519C173.681 112.683 173.624 112.84 173.556 112.99C173.493 113.13 173.495 113.291 173.561 113.429C173.627 113.567 173.75 113.67 173.898 113.71L196.419 119.744C198.618 120.333 200.884 119.025 201.473 116.826L203.214 110.324C203.804 108.124 202.497 105.859 200.297 105.269C200.247 105.255 200.194 105.248 200.142 105.25Z" fill="#363D63"/>
<path fill-rule="evenodd" clip-rule="evenodd" d="M229.183 115.116C228.922 115.123 228.705 115.321 228.676 115.58C228.647 115.84 228.814 116.082 229.068 116.146C230.725 116.59 231.69 118.262 231.246 119.92L230.582 122.398C230.137 124.055 228.467 125.017 226.807 124.576L200.385 117.568C200.204 117.518 200.011 117.57 199.878 117.703C199.746 117.835 199.694 118.029 199.743 118.21C199.793 118.39 199.935 118.531 200.116 118.579L226.539 125.587C228.738 126.17 231.002 124.868 231.592 122.669L232.256 120.19C232.846 117.99 231.538 115.726 229.338 115.136C229.288 115.122 229.236 115.115 229.183 115.116Z" fill="#363D63"/>
<path fill-rule="evenodd" clip-rule="evenodd" d="M141.981 84.1456C141.72 84.1518 141.503 84.3502 141.474 84.6098C141.445 84.8698 141.612 85.1111 141.866 85.1751C142.349 85.3046 142.623 85.778 142.493 86.261L137.064 106.523C136.934 107.006 136.461 107.279 135.978 107.15L133.345 106.444C133.162 106.389 132.964 106.438 132.828 106.571C132.692 106.705 132.639 106.901 132.691 107.085C132.742 107.269 132.889 107.41 133.073 107.453L135.708 108.16C136.733 108.434 137.799 107.819 138.073 106.793L143.503 86.5311C143.777 85.5062 143.162 84.4397 142.137 84.1649C142.086 84.1505 142.034 84.1439 141.981 84.1456Z" fill="#363D63"/>
<path fill-rule="evenodd" clip-rule="evenodd" d="M221.887 106.946L223.643 107.416C224.822 107.732 225.517 108.936 225.201 110.115L223.488 116.509C223.171 117.688 221.968 118.383 220.789 118.067L219.033 117.596C217.854 117.28 217.158 116.077 217.474 114.897L219.188 108.504C219.504 107.325 220.708 106.63 221.887 106.946Z" fill="white"/>
<path fill-rule="evenodd" clip-rule="evenodd" d="M197.087 104.947C197.087 104.947 197.909 103.651 198.88 103.361C199.851 103.07 200.638 103.799 200.638 103.799L199.275 105.539L197.087 104.947Z" fill="#FEB8CA"/>
<path fill-rule="evenodd" clip-rule="evenodd" d="M197.088 104.946L195.773 104.614L194.123 110.355C191.503 109.428 188.477 106.641 189.31 103.34C190.173 99.9256 198.062 100.516 197.088 104.946Z" fill="#FEB8CA"/>
<path fill-rule="evenodd" clip-rule="evenodd" d="M193.363 117.819C193.224 117.821 193.092 117.878 192.995 117.977C192.898 118.076 192.845 118.21 192.847 118.349V130.872C192.847 131.372 192.461 131.759 191.961 131.759H182.767C182.58 131.758 182.407 131.858 182.313 132.02C182.22 132.182 182.22 132.381 182.313 132.543C182.407 132.705 182.58 132.804 182.767 132.804H191.961C193.022 132.804 193.893 131.934 193.893 130.872V118.349C193.895 118.208 193.839 118.072 193.74 117.972C193.64 117.872 193.504 117.817 193.363 117.819Z" fill="#363D63"/>
<path fill-rule="evenodd" clip-rule="evenodd" d="M180.918 127.834H193.578C194.359 127.834 194.987 128.463 194.987 129.243V130.872C194.987 131.653 194.359 132.281 193.578 132.281H180.918C180.137 132.281 179.509 131.653 179.509 130.872V129.243C179.509 128.463 180.137 127.834 180.918 127.834Z" fill="#00CCBB"/>
<path fill-rule="evenodd" clip-rule="evenodd" d="M179.501 128.713C179.213 128.717 178.982 128.955 178.987 129.243V130.872C178.987 131.933 179.857 132.804 180.918 132.804H193.578C194.639 132.804 195.51 131.933 195.51 130.872V129.243C195.511 129.056 195.412 128.882 195.25 128.788C195.088 128.694 194.888 128.694 194.726 128.788C194.563 128.882 194.464 129.056 194.465 129.243V130.872C194.465 131.372 194.078 131.759 193.578 131.759H180.918C180.418 131.759 180.032 131.372 180.032 130.872V129.243C180.034 129.102 179.979 128.966 179.879 128.866C179.779 128.766 179.643 128.711 179.501 128.713Z" fill="#363D63"/>
<path fill-rule="evenodd" clip-rule="evenodd" d="M53.2682 168.232C49.6905 168.236 46.3561 170.044 44.4023 173.042C42.358 171.251 39.7331 170.262 37.0151 170.259C31.0636 170.261 26.1472 174.906 25.8079 180.848H90.7098C89.6797 177.373 86.4872 174.989 82.8623 174.987C79.8295 174.989 77.0459 176.667 75.6282 179.348C74.5866 175.528 71.1174 172.877 67.158 172.876C65.6039 172.88 64.079 173.295 62.7387 174.081C60.9423 170.497 57.2777 168.233 53.2682 168.232Z" fill="#C3C3FC"/>
<path fill-rule="evenodd" clip-rule="evenodd" d="M181.331 131.752C181.103 131.765 180.909 131.924 180.852 132.146L167.89 180.523C167.834 180.706 167.882 180.904 168.016 181.041C168.15 181.178 168.347 181.231 168.531 181.179C168.715 181.128 168.857 180.979 168.9 180.793L181.862 132.417C181.908 132.254 181.873 132.08 181.767 131.948C181.662 131.816 181.5 131.743 181.331 131.752Z" fill="#363D63"/>
<path fill-rule="evenodd" clip-rule="evenodd" d="M193.38 131.751C193.214 131.748 193.056 131.823 192.954 131.954C192.853 132.085 192.82 132.257 192.865 132.417L205.827 180.794C205.875 180.974 206.017 181.115 206.197 181.164C206.378 181.212 206.571 181.161 206.703 181.028C206.835 180.896 206.886 180.703 206.838 180.523L193.875 132.146C193.818 131.918 193.615 131.757 193.38 131.751Z" fill="#363D63"/>
<path fill-rule="evenodd" clip-rule="evenodd" d="M187.279 131.97C186.99 131.974 186.76 132.212 186.764 132.5V180.629C186.763 180.816 186.863 180.99 187.025 181.084C187.187 181.178 187.387 181.178 187.55 181.084C187.712 180.99 187.811 180.816 187.81 180.629V132.5C187.812 132.359 187.757 132.223 187.657 132.123C187.556 132.023 187.42 131.968 187.279 131.97Z" fill="#363D63"/>
<path fill-rule="evenodd" clip-rule="evenodd" d="M231.755 127.353L231.501 122.957C231.081 124.079 229.194 125.831 228.205 125.56L224.052 122.316C222.721 124.755 222.48 128.575 225.071 130.748C226.766 132.085 230.501 132.011 230.501 132.011L231.755 127.353Z" fill="#FEB8CA"/>
<path fill-rule="evenodd" clip-rule="evenodd" d="M230.501 132.011L231.755 127.353L234.241 127.163L233.806 132.546L230.501 132.011Z" fill="#363D63"/>
<path fill-rule="evenodd" clip-rule="evenodd" d="M245.13 120.028C244.964 120.024 244.806 120.098 244.704 120.23C244.603 120.36 244.569 120.532 244.614 120.691L245.739 124.941L233.513 127.233C233.328 127.266 233.175 127.395 233.112 127.572C233.049 127.75 233.086 127.947 233.209 128.089C233.331 128.231 233.521 128.297 233.706 128.261L246.485 125.865C246.628 125.838 246.753 125.753 246.83 125.63C246.908 125.507 246.931 125.357 246.894 125.217L245.624 120.424C245.567 120.195 245.365 120.033 245.13 120.028Z" fill="#363D63"/>
<path fill-rule="evenodd" clip-rule="evenodd" d="M85.1797 58.5331C85.1797 66.1115 79.0367 72.2548 71.4584 72.2548C67.8187 72.2548 64.3289 70.8092 61.7554 68.2361C59.182 65.6626 57.7361 62.1725 57.7361 58.5331C57.7361 54.8938 59.182 51.4036 61.7551 48.8302C64.3289 46.2571 67.8187 44.8112 71.4584 44.8112C79.0367 44.8112 85.1797 50.9548 85.1797 58.5331Z" fill="#7F90FF"/>
<path fill-rule="evenodd" clip-rule="evenodd" d="M85.5652 53.2603C105.359 65.4092 33.7236 61.1131 57.9738 53.2747C52.9941 54.5961 50.1082 56.5613 50.1016 58.6354C50.1016 62.4816 59.8134 65.5993 71.7934 65.5993C83.7734 65.5993 93.4849 62.4813 93.4852 58.6354C93.4803 56.5534 90.5754 54.5813 85.5652 53.2603Z" fill="white"/>
<path fill-rule="evenodd" clip-rule="evenodd" d="M85.5436 52.7374C85.2636 52.7492 85.0426 52.9797 85.0426 53.26C85.0397 53.5214 85.2302 53.7446 85.4889 53.7833C87.9252 54.4312 89.8423 55.2351 91.1085 56.0945C92.3856 56.9614 92.9603 57.8374 92.9626 58.6355C92.9626 59.3768 92.4889 60.1518 91.4643 60.9296C90.4397 61.7076 88.8977 62.444 86.9721 63.062C83.1203 64.2987 77.7377 65.0764 71.7931 65.0764C65.8482 65.0764 60.4666 64.2987 56.6148 63.062C54.6892 62.444 53.1472 61.7076 52.1226 60.9296C51.0987 60.1525 50.6246 59.3781 50.6239 58.6368C50.6239 58.6364 50.6239 58.6368 50.6239 58.6368C50.6295 57.842 51.1987 56.9699 52.4666 56.1063C53.7357 55.242 55.6554 54.4322 58.1075 53.7817C58.2889 53.7345 58.4308 53.5938 58.4803 53.4132C58.5295 53.2322 58.4784 53.0391 58.3462 52.9063C58.2138 52.7738 58.0203 52.7217 57.8397 52.7705C55.3125 53.4414 53.299 54.2745 51.8787 55.2417C50.4584 56.2089 49.583 57.3564 49.5787 58.6355C49.5787 59.8168 50.3197 60.8738 51.4905 61.7627C52.6613 62.6509 54.2961 63.4158 56.2954 64.0577C60.2948 65.3417 65.7577 66.122 71.7931 66.122C77.8282 66.122 83.2925 65.3417 87.2918 64.0577C89.2908 63.4158 90.9259 62.6509 92.0964 61.7627C93.2672 60.8738 94.0082 59.8168 94.0082 58.6355C94.0026 57.3515 93.1249 56.2004 91.6961 55.2302C90.2669 54.2604 88.2416 53.4253 85.6984 52.7545C85.6479 52.741 85.5961 52.7351 85.5436 52.7374Z" fill="#363D63"/>
<path fill-rule="evenodd" clip-rule="evenodd" d="M47.3705 74.5951C47.3705 74.8095 47.2852 75.0148 47.1334 75.1663C46.982 75.3181 46.7767 75.4033 46.5623 75.4033C46.3479 75.4033 46.1423 75.3181 45.9908 75.1663C45.8393 75.0148 45.7541 74.8095 45.7541 74.5951C45.7541 74.1486 46.1161 73.7869 46.5623 73.7869C47.0085 73.7869 47.3705 74.1486 47.3705 74.5951Z" fill="#7F90FF"/>
<path fill-rule="evenodd" clip-rule="evenodd" d="M103.952 61.4102C103.952 61.6246 103.867 61.8302 103.716 61.9816C103.564 62.1331 103.359 62.2184 103.144 62.2184C102.93 62.2184 102.724 62.1331 102.573 61.9816C102.421 61.8302 102.336 61.6246 102.336 61.4102C102.336 60.9639 102.698 60.6023 103.144 60.6023C103.59 60.6023 103.952 60.9639 103.952 61.4102Z" fill="#7F90FF"/>
<path fill-rule="evenodd" clip-rule="evenodd" d="M56.978 138.103C56.978 138.549 56.6161 138.911 56.1702 138.911C55.9557 138.911 55.7502 138.826 55.5987 138.675C55.4469 138.523 55.3616 138.317 55.3616 138.103C55.3616 137.889 55.4469 137.683 55.5987 137.532C55.7502 137.38 55.9557 137.295 56.1702 137.295C56.3843 137.295 56.5898 137.38 56.7416 137.532C56.8931 137.683 56.978 137.889 56.978 138.103Z" fill="#7F90FF"/>
<path fill-rule="evenodd" clip-rule="evenodd" d="M185.245 64.2784C185.245 67.6577 183.903 70.8987 181.513 73.2882C179.124 75.6777 175.882 77.0203 172.503 77.0203C165.466 77.0203 159.762 71.3154 159.762 64.2784C159.762 57.2413 165.466 51.5367 172.503 51.5367C179.54 51.5367 185.245 57.2413 185.245 64.2784Z" fill="#363D63"/>
<path fill-rule="evenodd" clip-rule="evenodd" d="M178.6 59.4436C178.6 59.6584 178.514 59.864 178.363 60.0151C178.211 60.1666 178.006 60.2518 177.791 60.2518C177.345 60.2518 176.983 59.8902 176.983 59.4436C176.983 58.9974 177.345 58.6354 177.791 58.6354C178.006 58.6354 178.211 58.7207 178.363 58.8725C178.514 59.024 178.6 59.2295 178.6 59.4436Z" fill="#7F90FF"/>
<path fill-rule="evenodd" clip-rule="evenodd" d="M171.317 65.1941C171.317 65.4085 171.232 65.6141 171.08 65.7656C170.929 65.9171 170.723 66.0023 170.509 66.0023C170.063 66.0023 169.701 65.6407 169.701 65.1941C169.701 64.7479 170.063 64.3859 170.509 64.3859C170.723 64.3859 170.929 64.4712 171.08 64.6226C171.232 64.7744 171.317 64.98 171.317 65.1941Z" fill="#7F90FF"/>
<path fill-rule="evenodd" clip-rule="evenodd" d="M118.766 107.38C118.766 107.595 118.68 107.8 118.529 107.952C118.377 108.103 118.171 108.189 117.957 108.189C117.743 108.189 117.537 108.103 117.386 107.952C117.234 107.8 117.149 107.595 117.149 107.38C117.149 107.166 117.234 106.96 117.386 106.809C117.538 106.657 117.743 106.572 117.957 106.572C118.171 106.572 118.377 106.657 118.529 106.809C118.68 106.96 118.766 107.166 118.766 107.38Z" fill="#7F90FF"/>
<path fill-rule="evenodd" clip-rule="evenodd" d="M30.0259 86.2469C28.1105 90.9 26.8511 95.5108 26.1715 100.134L81.301 114.906C85.1567 115.939 89.0928 113.667 90.1259 109.81C91.159 105.955 88.8869 102.019 85.0305 100.986L30.0259 86.2469Z" fill="white"/>
<path fill-rule="evenodd" clip-rule="evenodd" d="M54.1036 127.469C54.1036 130.964 51.2702 133.798 47.7744 133.798C46.0957 133.798 44.4859 133.131 43.299 131.944C42.1118 130.757 41.4452 129.148 41.4452 127.469C41.4452 125.791 42.1121 124.18 43.299 122.993C44.4859 121.806 46.0957 121.14 47.7744 121.14C51.2702 121.14 54.1036 123.973 54.1036 127.469Z" fill="#00CCBB"/>
<path fill-rule="evenodd" clip-rule="evenodd" d="M74.0823 100.865C73.2492 100.642 72.4056 101.107 72.1911 101.907C71.977 102.707 72.4734 103.53 73.3046 103.754L75.2066 104.264C76.0397 104.487 76.5377 105.312 76.3233 106.112C76.1085 106.913 75.2652 107.377 74.4321 107.154L69.8957 105.939C69.0623 105.715 68.219 106.18 68.0043 106.981C67.7898 107.782 68.2882 108.606 69.1213 108.829L73.1485 109.908L73.6577 110.045L81.2177 112.071C83.7171 112.74 86.2472 111.346 86.8908 108.944C87.5344 106.542 86.0403 104.069 83.5413 103.4L78.6184 102.081L75.4721 101.237L74.0823 100.865Z" fill="#00CCBB"/>
<path fill-rule="evenodd" clip-rule="evenodd" d="M73.4016 100.305C72.6036 100.407 71.9043 100.96 71.6866 101.772C71.3971 102.853 72.0774 103.964 73.1682 104.259C73.3492 104.31 73.543 104.259 73.6764 104.127C73.8098 103.994 73.862 103.801 73.8131 103.62C73.7646 103.438 73.6223 103.297 73.441 103.25C72.8695 103.095 72.5574 102.56 72.6961 102.043C72.8351 101.524 73.3744 101.216 73.9472 101.37L75.3371 101.743L78.4833 102.585L83.4059 103.904C85.6443 104.504 86.9534 106.689 86.3856 108.809C85.8177 110.929 83.5918 112.165 81.3531 111.566L73.7928 109.54L73.2843 109.404L46.518 102.232C46.3351 102.176 46.1364 102.224 45.9993 102.358C45.8626 102.491 45.8098 102.689 45.8616 102.873C45.9134 103.057 46.0616 103.198 46.2479 103.241L73.0134 110.413L73.5226 110.55L81.0826 112.576C83.8423 113.315 86.6767 111.763 87.3957 109.079C88.1151 106.395 86.4361 103.634 83.6767 102.895L78.7538 101.576L75.6069 100.732L74.218 100.36C73.9446 100.287 73.6672 100.271 73.4016 100.305Z" fill="#363D63"/>
<path fill-rule="evenodd" clip-rule="evenodd" d="M57.0803 99.262C56.819 99.2682 56.602 99.4666 56.5731 99.7263C56.5439 99.9863 56.7108 100.228 56.9646 100.292L64.1059 102.205C64.2882 102.259 64.4856 102.211 64.6213 102.077C64.7571 101.944 64.8098 101.748 64.759 101.564C64.7082 101.381 64.5616 101.239 64.3767 101.195L57.2354 99.2823C57.1852 99.2676 57.1328 99.261 57.0803 99.262Z" fill="#363D63"/>
<path fill-rule="evenodd" clip-rule="evenodd" d="M36.2623 154.149C36.2623 154.595 35.9003 154.957 35.4541 154.957C35.24 154.957 35.0344 154.872 34.8826 154.72C34.7311 154.569 34.6459 154.363 34.6459 154.149C34.6459 153.934 34.7311 153.729 34.8826 153.578C35.0344 153.426 35.24 153.341 35.4541 153.341C35.9003 153.341 36.2623 153.703 36.2623 154.149Z" fill="#7F90FF"/>
<path fill-rule="evenodd" clip-rule="evenodd" d="M123.004 68.3875C123.004 68.6016 122.919 68.8075 122.768 68.959C122.616 69.1105 122.41 69.1954 122.196 69.1954C121.749 69.1954 121.388 68.8338 121.388 68.3875C121.388 67.9413 121.749 67.5793 122.196 67.5793C122.41 67.5793 122.616 67.6646 122.768 67.8161C122.919 67.9675 123.004 68.1731 123.004 68.3875Z" fill="#7F90FF"/>
<path fill-rule="evenodd" clip-rule="evenodd" d="M44.4298 115.434C44.4298 115.88 44.0682 116.242 43.6216 116.242C43.1754 116.242 42.8138 115.88 42.8138 115.434C42.8138 114.987 43.1754 114.626 43.6216 114.626C43.8364 114.626 44.042 114.711 44.1934 114.863C44.3446 115.014 44.4298 115.219 44.4298 115.434Z" fill="white"/>
<path fill-rule="evenodd" clip-rule="evenodd" d="M119.024 75.723C119.024 77.9551 117.214 79.7649 114.982 79.7649C112.749 79.7649 110.94 77.9554 110.94 75.723C110.94 74.6508 111.365 73.6226 112.123 72.8646C112.881 72.1062 113.91 71.6807 114.982 71.6807C117.214 71.6807 119.024 73.4905 119.024 75.723Z" fill="#00CCBB"/>
<path fill-rule="evenodd" clip-rule="evenodd" d="M33.8184 126.783C33.8184 126.997 33.7331 127.203 33.5816 127.354C33.4302 127.506 33.2246 127.591 33.0102 127.591C32.7957 127.591 32.5902 127.506 32.4387 127.354C32.2872 127.203 32.202 126.997 32.202 126.783C32.202 126.337 32.5639 125.975 33.0102 125.975C33.4564 125.975 33.8184 126.337 33.8184 126.783Z" fill="#7F90FF"/>
<path fill-rule="evenodd" clip-rule="evenodd" d="M49.8744 147.864C49.8744 148.31 49.5125 148.672 49.0662 148.672C48.8518 148.672 48.6462 148.587 48.4944 148.435C48.343 148.283 48.258 148.078 48.258 147.864C48.258 147.65 48.343 147.444 48.4944 147.292C48.6462 147.14 48.8518 147.055 49.0662 147.055C49.5125 147.055 49.8744 147.417 49.8744 147.864Z" fill="white"/>
<path fill-rule="evenodd" clip-rule="evenodd" d="M69.1508 124.028C69.1508 124.242 69.0656 124.448 68.9141 124.599C68.7626 124.751 68.557 124.836 68.3426 124.836C67.8961 124.836 67.5344 124.474 67.5344 124.028C67.5344 123.582 67.8961 123.22 68.3426 123.22C68.557 123.22 68.7626 123.305 68.9141 123.457C69.0656 123.608 69.1508 123.813 69.1508 124.028Z" fill="white"/>
<path fill-rule="evenodd" clip-rule="evenodd" d="M78.5207 85.3148C78.5207 85.5292 78.4354 85.7348 78.2839 85.8866C78.1325 86.038 77.9269 86.123 77.7125 86.123C77.498 86.123 77.2925 86.038 77.141 85.8866C76.9895 85.7348 76.9043 85.5292 76.9043 85.3148C76.9043 85.1003 76.9895 84.8948 77.141 84.7433C77.2928 84.5918 77.498 84.5069 77.7125 84.5069C78.1587 84.5069 78.5207 84.8685 78.5207 85.3148Z" fill="#7F90FF"/>
<path fill-rule="evenodd" clip-rule="evenodd" d="M103.767 97.339C103.767 97.5534 103.682 97.759 103.53 97.9105C103.378 98.062 103.173 98.1472 102.958 98.1472C102.744 98.1472 102.539 98.062 102.387 97.9105C102.235 97.759 102.15 97.5534 102.15 97.339C102.15 97.1249 102.235 96.919 102.387 96.7675C102.539 96.6161 102.744 96.5308 102.958 96.5308C103.405 96.5308 103.767 96.8928 103.767 97.339Z" fill="white"/>
<path fill-rule="evenodd" clip-rule="evenodd" d="M122.364 96.0646C122.364 96.2787 122.279 96.4843 122.127 96.6361C121.975 96.7876 121.77 96.8728 121.556 96.8728C121.341 96.8728 121.136 96.7876 120.984 96.6361C120.832 96.4843 120.748 96.2787 120.748 96.0646C120.748 95.618 121.109 95.2564 121.556 95.2564C122.002 95.2564 122.364 95.618 122.364 96.0646Z" fill="#7F90FF"/>
<path fill-rule="evenodd" clip-rule="evenodd" d="M141.886 39.3593C141.886 39.8059 141.525 40.1675 141.078 40.1675C140.864 40.1675 140.658 40.0826 140.507 39.9308C140.355 39.7793 140.27 39.5738 140.27 39.3593C140.27 39.1452 140.355 38.9393 140.507 38.7879C140.658 38.6364 140.864 38.5511 141.078 38.5511C141.292 38.5511 141.498 38.6364 141.65 38.7879C141.801 38.9393 141.886 39.1452 141.886 39.3593Z" fill="white"/>
<path fill-rule="evenodd" clip-rule="evenodd" d="M166.929 52.8312C162.548 54.9627 159.766 59.4063 159.762 64.2784C159.763 67.1318 160.722 69.9017 162.484 72.1453C166.865 70.0135 169.647 65.5702 169.651 60.6981C169.65 57.8446 168.691 55.0748 166.929 52.8312Z" fill="#00CCBB"/>
<path fill-rule="evenodd" clip-rule="evenodd" d="M74.8718 172.912H103.375V176.815L101.443 180.848H76.9341L74.8718 176.733V172.912Z" fill="white"/>
<path fill-rule="evenodd" clip-rule="evenodd" d="M74.8639 172.382C74.5754 172.388 74.3449 172.624 74.3492 172.912V176.733C74.3495 176.815 74.3689 176.894 74.4049 176.968L76.4669 180.873C76.7738 181.513 77.7308 181.033 77.4016 180.405L75.3944 176.61V172.912C75.3987 172.618 75.1587 172.378 74.8639 172.382Z" fill="#363D63"/>
<path fill-rule="evenodd" clip-rule="evenodd" d="M103.367 172.382C103.078 172.388 102.848 172.624 102.852 172.912V176.696L100.971 180.413C100.67 181.042 101.614 181.493 101.915 180.865L103.847 177.041C103.88 176.971 103.897 176.893 103.897 176.815V172.912C103.902 172.617 103.661 172.378 103.367 172.382Z" fill="#363D63"/>
<path fill-rule="evenodd" clip-rule="evenodd" d="M103.175 123.799C105.373 123.812 107.383 125.041 108.398 126.99C109.413 128.939 109.266 131.291 108.016 133.098C108.016 133.098 107.563 133.725 106.584 135.889C107.593 136.581 108.196 137.726 108.198 138.949C108.196 140.623 107.075 142.09 105.461 142.531C106.028 143.202 106.339 144.052 106.339 144.93C106.337 146.512 105.335 147.919 103.84 148.438C104.705 149.143 105.207 150.199 105.207 151.315C105.207 152.301 104.816 153.247 104.119 153.944C103.421 154.642 102.475 155.033 101.489 155.033C101.117 155.032 100.747 154.974 100.391 154.863C100.347 155.044 100.303 155.22 100.258 155.404C99.7898 157.492 98.2315 159.166 96.182 159.782C94.1321 160.399 91.9095 159.863 90.3662 158.379C88.8233 156.896 88.1997 154.696 88.7351 152.624C88.8633 152.092 88.9915 151.572 89.12 151.059C87.4229 150.68 86.2157 149.174 86.2138 147.435C86.2141 145.664 87.4646 144.138 89.2023 143.791C88.4325 143.087 87.9931 142.093 87.9915 141.051C87.9915 140.064 88.3836 139.119 89.081 138.422C89.7784 137.724 90.7239 137.332 91.7098 137.332C91.7325 137.334 91.7551 137.336 91.7774 137.338C91.3144 136.703 91.0646 135.939 91.0633 135.153C91.0633 133.1 92.7279 131.435 94.7813 131.435C95.042 131.437 95.3026 131.466 95.5577 131.522C97.0246 128.267 98.1715 126.498 98.1715 126.498C99.2718 124.806 101.157 123.791 103.175 123.799Z" fill="#00CCBB"/>
<path fill-rule="evenodd" clip-rule="evenodd" d="M99.1334 137.991C98.9233 137.992 98.7351 138.12 98.6551 138.314C98.6551 138.314 92.0171 153.723 91.3479 171.634C91.3407 171.821 91.4338 171.997 91.5918 172.097C91.7498 172.197 91.9495 172.204 92.1148 172.117C92.2803 172.03 92.3859 171.86 92.3928 171.674C93.0531 153.999 99.6151 138.727 99.6151 138.727C99.6875 138.564 99.6728 138.376 99.5754 138.227C99.478 138.078 99.3115 137.989 99.1334 137.991Z" fill="#363D63"/>
<path fill-rule="evenodd" clip-rule="evenodd" d="M60.8908 132.95C58.821 133.688 57.3292 135.511 57.0154 137.687C56.7016 139.862 57.6174 142.033 59.3948 143.326C59.3948 143.326 60.0295 143.768 61.6682 145.486C60.9446 146.473 60.7531 147.753 61.1561 148.909C61.7108 150.488 63.2528 151.501 64.923 151.385C64.6095 152.205 64.5967 153.11 64.8869 153.939C65.4108 155.431 66.8223 156.428 68.4039 156.424C67.8213 157.376 67.6967 158.538 68.0646 159.591C68.3902 160.522 69.0725 161.286 69.9607 161.713C70.8492 162.141 71.8711 162.198 72.802 161.872C73.1531 161.748 73.4839 161.572 73.7826 161.349C73.8843 161.505 73.9839 161.656 74.0866 161.815C75.219 163.631 77.2423 164.696 79.3807 164.601C81.5187 164.505 83.4393 163.265 84.4056 161.355C85.3718 159.445 85.2338 157.163 84.0443 155.384C83.7472 154.924 83.4544 154.476 83.1639 154.034C84.64 153.115 85.282 151.296 84.7098 149.654C84.1239 147.982 82.4393 146.955 80.6843 147.201C81.1787 146.283 81.2646 145.2 80.9216 144.215C80.5961 143.285 79.9138 142.521 79.0252 142.093C78.1367 141.666 77.1148 141.609 76.1839 141.934C76.1626 141.942 76.142 141.951 76.121 141.959C76.3482 141.207 76.3311 140.402 76.0731 139.661C75.3944 137.723 73.2734 136.702 71.3357 137.38C71.0895 137.468 70.8534 137.581 70.6311 137.719C68.1708 135.131 66.5039 133.84 66.5039 133.84C64.9066 132.607 62.7915 132.271 60.8908 132.95Z" fill="#6767E5"/>
<path fill-rule="evenodd" clip-rule="evenodd" d="M73.5361 151.514C73.3134 151.517 73.1167 151.659 73.0462 151.87C72.9754 152.081 73.0459 152.314 73.2216 152.45C73.2216 152.45 83.7256 160.916 85.4039 171.648C85.4321 171.832 85.5574 171.989 85.7318 172.056C85.9062 172.124 86.1039 172.093 86.2492 171.975C86.3951 171.858 86.4666 171.671 86.437 171.486C84.6702 160.187 73.8748 151.633 73.8748 151.633C73.7793 151.555 73.6593 151.512 73.5361 151.514Z" fill="#363D63"/>
<path fill-rule="evenodd" clip-rule="evenodd" d="M76.7141 168.58C75.4039 168.58 74.3492 169.634 74.3492 170.945V173.905H103.898V170.945C103.898 169.634 102.843 168.58 101.532 168.58H76.7141Z" fill="#7F90FF"/>
<path fill-rule="evenodd" clip-rule="evenodd" d="M99.1239 120.297C99.1239 120.511 99.0387 120.717 98.8872 120.869C98.7357 121.02 98.5302 121.106 98.3157 121.106C98.1013 121.106 97.8957 121.02 97.7443 120.869C97.5928 120.717 97.5075 120.511 97.5075 120.297C97.5075 120.083 97.5928 119.877 97.7443 119.726C97.8957 119.574 98.1013 119.489 98.3157 119.489C98.762 119.489 99.1239 119.851 99.1239 120.297Z" fill="#7F90FF"/>
<path fill-rule="evenodd" clip-rule="evenodd" d="M222.022 106.44C220.572 106.052 219.071 106.919 218.683 108.369L216.97 114.762C216.914 114.945 216.962 115.144 217.096 115.281C217.23 115.417 217.427 115.47 217.611 115.419C217.795 115.367 217.937 115.219 217.979 115.032L219.692 108.639C219.936 107.731 220.843 107.208 221.751 107.451L223.508 107.921C223.688 107.971 223.882 107.92 224.015 107.788C224.148 107.655 224.199 107.462 224.15 107.281C224.101 107.1 223.96 106.959 223.778 106.911L222.022 106.44Z" fill="#363D63"/>
<path fill-rule="evenodd" clip-rule="evenodd" d="M90.2534 71.1246C90.2534 71.339 90.1682 71.5443 90.0167 71.6958C89.8652 71.8476 89.6597 71.9328 89.4452 71.9328C89.2311 71.9328 89.0256 71.8476 88.8741 71.6958C88.7223 71.5443 88.637 71.339 88.637 71.1246C88.637 70.6784 88.999 70.3164 89.4452 70.3164C89.8915 70.3164 90.2534 70.6784 90.2534 71.1246Z" fill="white"/>
<path fill-rule="evenodd" clip-rule="evenodd" d="M108.966 49.9866C108.966 50.2007 108.881 50.4062 108.729 50.5577C108.578 50.7095 108.372 50.7944 108.158 50.7944C107.944 50.7944 107.738 50.7095 107.587 50.5577C107.435 50.4062 107.35 50.2007 107.35 49.9866C107.35 49.7718 107.435 49.5662 107.587 49.4148C107.738 49.2633 107.944 49.178 108.158 49.178C108.372 49.178 108.578 49.2633 108.729 49.4148C108.881 49.5662 108.966 49.7718 108.966 49.9866Z" fill="white"/>
<path fill-rule="evenodd" clip-rule="evenodd" d="M101.147 38.7659C100.434 38.7659 99.7223 38.7767 99.0121 38.7964C99.5456 42.4217 102.654 45.1092 106.318 45.1125C109.603 45.1099 112.492 42.94 113.41 39.7863C109.363 39.124 105.262 38.7813 101.147 38.7659Z" fill="#6767E5"/>
<path fill-rule="evenodd" clip-rule="evenodd" d="M201.81 35.5141C201.522 35.5184 201.291 35.7557 201.296 36.0443V54.4823C201.296 54.7708 201.53 55.0046 201.818 55.0049H253.884C254.075 55.0115 254.254 54.9135 254.352 54.7489C254.449 54.5846 254.449 54.38 254.352 54.2157C254.254 54.0515 254.075 53.9531 253.884 53.96H202.341V36.0443C202.344 35.903 202.288 35.7666 202.188 35.6669C202.088 35.5669 201.951 35.5118 201.81 35.5141Z" fill="#363D63"/>
<path fill-rule="evenodd" clip-rule="evenodd" d="M206.74 33.0784V50.5538H250.903C250.903 50.5538 238.034 28.7433 206.74 33.0784Z" fill="#00CCBB"/>
<path fill-rule="evenodd" clip-rule="evenodd" d="M141.548 162.198C141.548 167.876 146.151 172.478 151.829 172.478C157.506 172.478 162.109 167.876 162.109 162.198C162.109 159.472 161.026 156.857 159.097 154.929C157.17 153.001 154.555 151.918 151.829 151.918C149.102 151.918 146.487 153.001 144.559 154.929C142.631 156.857 141.548 159.472 141.548 162.198Z" fill="#7F90FF"/>
<path fill-rule="evenodd" clip-rule="evenodd" d="M148.968 162.198C148.968 164.925 147.885 167.54 145.957 169.468C144.029 171.395 141.414 172.478 138.688 172.478C133.01 172.478 128.408 167.876 128.408 162.198C128.408 159.472 129.491 156.857 131.419 154.929C133.346 153.001 135.961 151.918 138.688 151.918C141.414 151.918 144.029 153.001 145.957 154.929C147.885 156.857 148.968 159.472 148.968 162.198Z" fill="#6767E5"/>
<path fill-rule="evenodd" clip-rule="evenodd" d="M135.771 159.796C135.51 159.792 135.285 159.983 135.247 160.242C135.209 160.501 135.368 160.748 135.619 160.821C135.619 160.821 136.67 161.129 137.799 162.43C138.927 163.73 140.093 166.008 140.093 170.008C140.086 170.199 140.184 170.378 140.349 170.475C140.513 170.573 140.718 170.573 140.882 170.475C141.046 170.378 141.145 170.199 141.138 170.008C141.138 165.803 139.883 163.237 138.589 161.745C137.295 160.253 135.925 159.82 135.925 159.82C135.875 159.805 135.823 159.796 135.771 159.796Z" fill="#363D63"/>
<path fill-rule="evenodd" clip-rule="evenodd" d="M154.73 159.796C154.683 159.797 154.637 159.806 154.592 159.82C154.592 159.82 153.222 160.253 151.928 161.745C150.634 163.236 149.378 165.802 149.378 170.007C149.377 170.194 149.477 170.367 149.639 170.461C149.801 170.554 150 170.554 150.162 170.461C150.325 170.367 150.424 170.194 150.424 170.007C150.424 166.008 151.59 163.73 152.718 162.429C153.846 161.129 154.897 160.82 154.897 160.82C155.152 160.747 155.313 160.494 155.27 160.233C155.227 159.971 154.995 159.783 154.73 159.796Z" fill="#363D63"/>
<path fill-rule="evenodd" clip-rule="evenodd" d="M141.889 162.954C141.716 162.951 141.553 163.034 141.453 163.175L139.848 165.375C139.737 165.525 139.715 165.724 139.79 165.895C139.866 166.066 140.028 166.184 140.213 166.204C140.399 166.224 140.582 166.143 140.692 165.991L142.298 163.792C142.416 163.635 142.436 163.425 142.35 163.248C142.264 163.071 142.086 162.957 141.889 162.954Z" fill="#363D63"/>
<path fill-rule="evenodd" clip-rule="evenodd" d="M162.895 169.887C162.895 172.613 163.978 175.228 165.906 177.156C167.834 179.084 170.449 180.167 173.175 180.167C175.901 180.167 178.516 179.084 180.444 177.156C182.372 175.228 183.455 172.613 183.455 169.887C183.455 167.16 182.372 164.546 180.444 162.617C178.516 160.69 175.901 159.606 173.175 159.606C170.449 159.606 167.834 160.69 165.906 162.617C163.978 164.546 162.895 167.16 162.895 169.887Z" fill="#B7D0F9"/>
<path fill-rule="evenodd" clip-rule="evenodd" d="M177.112 173.926C179.105 175.919 184.194 174.06 188.48 169.775C190.537 167.717 192.131 165.363 192.91 163.231C193.688 161.099 193.588 159.364 192.631 158.407C190.638 156.414 185.549 158.273 181.263 162.559C179.206 164.617 177.612 166.971 176.833 169.102C176.055 171.234 176.155 172.969 177.112 173.926Z" fill="#7F90FF"/>
<path fill-rule="evenodd" clip-rule="evenodd" d="M181.028 172.296C178.54 173.62 174.217 170.354 171.372 165.003C168.527 159.651 168.237 154.241 170.726 152.918C171.92 152.282 173.609 152.694 175.42 154.062C177.231 155.43 179.016 157.642 180.382 160.212C181.749 162.782 182.584 165.499 182.705 167.765C182.827 170.032 182.223 171.661 181.028 172.296Z" fill="#6767E5"/>
<path fill-rule="evenodd" clip-rule="evenodd" d="M173.577 157.46C173.384 157.469 173.211 157.584 173.128 157.759C173.045 157.934 173.065 158.14 173.181 158.295C173.181 158.295 176.832 163.326 178.972 170.852C179.021 171.035 179.164 171.178 179.347 171.225C179.53 171.272 179.725 171.217 179.855 171.081C179.986 170.944 180.033 170.748 179.978 170.567C177.786 162.857 174.027 157.682 174.027 157.682C173.925 157.536 173.755 157.453 173.577 157.46Z" fill="#363D63"/>
<path fill-rule="evenodd" clip-rule="evenodd" d="M187.357 163.586C187.221 163.593 187.094 163.652 187.001 163.751C187.001 163.751 182.569 168.361 179.338 175.698C179.26 175.869 179.28 176.07 179.391 176.222C179.502 176.374 179.686 176.455 179.873 176.434C180.06 176.413 180.222 176.292 180.295 176.119C183.448 168.957 187.754 164.475 187.754 164.475C187.905 164.321 187.947 164.091 187.859 163.895C187.771 163.698 187.572 163.575 187.357 163.586Z" fill="#363D63"/>
<path fill-rule="evenodd" clip-rule="evenodd" d="M126.446 168.58C125.136 168.58 124.037 169.635 124.081 170.945V173.905H196.179V170.945C196.179 169.634 195.124 168.58 193.814 168.58H126.446Z" fill="white"/>
<path fill-rule="evenodd" clip-rule="evenodd" d="M124.081 180.848H196.179V173.905H124.081V180.848Z" fill="#00CCBB"/>
<path fill-rule="evenodd" clip-rule="evenodd" d="M124.081 173.382C123.894 173.382 123.722 173.481 123.629 173.643C123.535 173.805 123.535 174.004 123.629 174.166C123.722 174.328 123.894 174.428 124.081 174.428H195.657V180.848C195.654 181.036 195.753 181.212 195.915 181.307C196.078 181.402 196.28 181.402 196.443 181.307C196.606 181.212 196.705 181.036 196.702 180.848V173.905C196.702 173.616 196.469 173.382 196.18 173.382H124.081Z" fill="#363D63"/>
<path fill-rule="evenodd" clip-rule="evenodd" d="M8.81934 180.325C8.63115 180.323 8.45639 180.423 8.36164 180.585C8.26721 180.748 8.26721 180.949 8.36164 181.111C8.45639 181.273 8.63115 181.373 8.81934 181.371H287.181C287.369 181.373 287.543 181.273 287.638 181.111C287.732 180.949 287.732 180.748 287.638 180.585C287.543 180.423 287.369 180.323 287.181 180.325H8.81934Z" fill="#363D63"/>
</svg>
