<svg width="280" height="163" viewBox="0 0 280 163" fill="none" xmlns="http://www.w3.org/2000/svg">
<path fill-rule="evenodd" clip-rule="evenodd" d="M157.211 0.269775C139.862 0.283839 124.275 9.87672 117.863 24.485C109.425 21.4107 100.518 19.8218 91.5379 19.7889C70.9215 19.7889 51.1489 27.9789 36.571 42.5571C10.7765 71.5863 12.0336 95.932 24.8123 126.583C13.464 133.201 6.47804 145.342 6.45982 158.479C6.46493 159.607 6.52119 160.734 6.6289 161.856H272.5C271.754 152.377 268.206 143.333 262.307 135.875C266.613 128.978 268.905 121.015 268.924 112.884C268.903 95.9195 259.043 80.507 243.65 73.3763C245.864 68.1806 247.006 62.5918 247.008 56.9442C247.008 45.8187 242.588 35.1486 234.721 27.2815C226.854 19.4143 216.184 14.9947 205.058 14.9947C200.691 15.012 196.352 15.711 192.2 17.0672C184.317 6.57233 171.221 0.285118 157.211 0.269775Z" fill="#E1E1FD"/>
<path fill-rule="evenodd" clip-rule="evenodd" d="M63.7332 149.607C60.1556 149.611 56.8215 151.419 54.8679 154.416C52.8238 152.625 50.1993 151.636 47.4814 151.633C41.5305 151.635 36.6148 156.28 36.2753 162.221H101.171C100.141 158.747 96.9484 156.362 93.3244 156.361C90.2917 156.362 87.508 158.04 86.0904 160.721C85.049 156.901 81.5804 154.251 77.6214 154.25C76.0676 154.254 74.543 154.67 73.2024 155.456C71.4064 151.872 67.7418 149.608 63.7332 149.607Z" fill="#C3C3FC"/>
<path fill-rule="evenodd" clip-rule="evenodd" d="M65.8809 104.131L64.3332 154.47L58.4276 162.221H69.2795L73.7087 139.927L78.5074 121.25L85.0778 140.001L90.5599 162.221H101.171L94.6748 154.765L92.4511 104.131H65.8809Z" fill="#363D63"/>
<path fill-rule="evenodd" clip-rule="evenodd" d="M28.7342 41.0664C27.5199 41.0664 26.5421 42.0445 26.5421 43.2591V54.4297C26.5421 55.6443 27.5199 56.6224 28.7342 56.6224H39.8974L49.7604 60.9598C51.334 61.633 53.2761 61.6832 53.2761 59.797V56.6224H58.1754C59.3904 56.6224 60.3681 55.6443 60.3681 54.4297V43.2591C60.3681 42.0445 59.3904 41.0664 58.1754 41.0664H28.7342Z" fill="white"/>
<path fill-rule="evenodd" clip-rule="evenodd" d="M73.7666 58.7159L68.4248 63.3238L59.617 69.6781C59.617 69.6781 57.8945 71.0874 57.1635 73.9063C56.4328 76.7251 54.1381 86.589 54.1381 86.589C54.1381 86.589 53.9687 87.7992 54.2615 89.2209C54.4005 90.8696 54.6962 93.1364 55.3237 95.5717C56.5642 100.388 61.234 112.282 61.234 112.282H67.7287L66.7787 104.131H92.4511V81.3998L95.7501 86.7259C95.7501 86.7259 99.0232 91.7495 102.155 88.3042C105.287 84.8589 114.608 73.283 114.608 73.283L111.903 68.9801L101.012 77.4558L96.8362 69.6781C96.8362 69.6781 95.6874 67.8511 92.5557 66.1807C89.4236 64.51 86.7051 63.4162 86.7051 63.4162L81.4368 58.7159V60.0469L79.4196 63.5411H77.2608L73.7666 60.0469V58.7159Z" fill="#7F90FF"/>
<path fill-rule="evenodd" clip-rule="evenodd" d="M80.087 34.9508C75.9586 34.9508 72.6351 38.2878 72.6351 42.4328V45.7656H70.4791C68.9558 45.7656 67.7293 46.9924 67.7293 48.5158C67.7293 50.0392 68.9558 51.2656 70.4791 51.2656H72.7453C72.9141 52.0244 73.2731 52.7461 73.7666 53.4148V60.0469L77.2608 63.5412H79.4193L81.4369 60.0469V57.6823C81.8294 57.7344 82.2136 57.7619 82.5843 57.7619C86.3794 57.7619 87.383 54.9411 87.5198 51.2656H87.532C89.0557 51.2656 90.2818 50.0392 90.2818 48.5158C90.2818 46.9943 89.0589 45.7688 87.538 45.766V42.4328C87.538 38.2878 84.2148 34.9508 80.087 34.9508Z" fill="#FEB8CA"/>
<path fill-rule="evenodd" clip-rule="evenodd" d="M85.8737 42.8729H76.2949C76.2949 42.8733 74.8332 42.7425 74.5724 43.7343C74.3112 44.7262 75.538 45.1701 75.538 46.1096V48.7456C75.538 48.7456 75.6684 49.7898 74.4941 49.8157C73.3194 49.8419 71.4403 45.7656 71.4403 45.7656H69.8482C69.8485 45.7656 67.4893 45.1938 66.8436 42.4254C66.1973 39.6568 67.1942 38.5866 68.2091 38.2542C69.2242 37.9221 70.0978 37.2413 70.0978 37.2413C70.0978 37.2413 69.3262 33.9276 72.1972 32.3614C75.0681 30.7955 77.2087 33.5361 79.5836 32.518C81.9588 31.5 85.1743 29.1993 87.6796 32.1223C90.1856 35.0432 91.2468 37.5843 91.0121 38.6231C90.8753 39.2281 89.5188 42.7313 89.5188 42.7313C89.5191 42.7313 89.8391 44.9905 89.1381 46.2272C88.4368 47.4638 87.5323 47.8327 87.5323 47.8327V42.9052C87.5323 42.9052 87.1315 42.8729 85.8737 42.8729Z" fill="#363D63"/>
<path fill-rule="evenodd" clip-rule="evenodd" d="M113.683 67.379L114.437 61.1292C115.912 61.3082 116.123 62.4036 116.307 64.2635L120.248 60.5631C121.804 62.8645 122.406 66.6445 120.033 69.0529C118.473 70.5437 116.098 70.9237 116.098 70.9237L113.683 67.379Z" fill="#FEB8CA"/>
<path fill-rule="evenodd" clip-rule="evenodd" d="M76.3646 64.5998C76.1923 64.6046 76.0337 64.6938 75.9401 64.8386L73.1737 68.9916L70.3113 65.039C70.2046 64.8814 70.0198 64.7944 69.8306 64.8123C69.641 64.8299 69.4758 64.9495 69.3997 65.124C69.324 65.2985 69.3489 65.5008 69.4649 65.6517L72.7684 70.2139C72.869 70.3526 73.0308 70.4331 73.2018 70.4296C73.3731 70.4261 73.5316 70.3395 73.6266 70.1969L76.8098 65.4177C76.9207 65.2557 76.9313 65.045 76.8379 64.8724C76.7433 64.7002 76.5608 64.5947 76.3646 64.5998Z" fill="#363D63"/>
<path fill-rule="evenodd" clip-rule="evenodd" d="M86.7134 62.8875C86.5226 62.8856 86.3464 62.9882 86.2528 63.1547L82.9193 68.9174L80.2021 64.8385C80.0992 64.6809 79.9199 64.5908 79.7326 64.6023C79.5449 64.6138 79.3781 64.7251 79.295 64.8935C79.2122 65.0623 79.2263 65.2624 79.3317 65.4177L82.5147 70.1969C82.615 70.3471 82.7857 70.435 82.9663 70.4296C83.1469 70.4238 83.3115 70.3254 83.4023 70.1691L87.1573 63.6776C87.2529 63.5168 87.2552 63.3174 87.1637 63.1541C87.0723 62.991 86.9007 62.8894 86.7134 62.8875Z" fill="#363D63"/>
<path fill-rule="evenodd" clip-rule="evenodd" d="M93.0805 73.9973C92.8894 73.9957 92.7129 74.0983 92.6196 74.2652L91.4724 76.2514C91.4264 76.331 91.4024 76.4211 91.4024 76.5132V104.131C91.3999 104.319 91.4993 104.494 91.6616 104.589C91.8243 104.684 92.0254 104.684 92.1884 104.589C92.3508 104.494 92.4499 104.319 92.4476 104.131V76.6529L93.5251 74.7875C93.6207 74.6267 93.6232 74.4269 93.5315 74.2636C93.4398 74.1006 93.2678 73.9989 93.0805 73.9973Z" fill="#363D63"/>
<path fill-rule="evenodd" clip-rule="evenodd" d="M76.3745 64.6052C76.1875 64.6049 76.0146 64.7046 75.9212 64.8667C75.8276 65.0284 75.8276 65.2279 75.9212 65.3896C76.0146 65.5517 76.1875 65.6511 76.3745 65.6511H79.7671C79.9541 65.6511 80.1267 65.5517 80.2203 65.3896C80.314 65.2279 80.314 65.0284 80.2203 64.8667C80.1267 64.7046 79.9541 64.6049 79.7671 64.6052H76.3745Z" fill="#363D63"/>
<path fill-rule="evenodd" clip-rule="evenodd" d="M76.9671 55.3838C76.7449 55.3949 76.5544 55.5455 76.4918 55.759C76.4295 55.9725 76.509 56.202 76.6903 56.3312C78.9427 57.9897 81.3822 58.2013 81.3876 58.202C81.3931 58.2023 82.3165 58.3007 83.331 58.2461C84.4798 58.1838 85.4965 57.563 85.4965 57.563C85.6586 57.4694 85.7583 57.2965 85.7583 57.1095C85.758 56.9225 85.6576 56.7496 85.4953 56.6565C85.3332 56.5635 85.1334 56.5642 84.9717 56.6585C84.9717 56.6585 84.0575 57.1603 83.2747 57.2025C82.3606 57.252 81.4909 57.1625 81.4909 57.1625C81.488 57.1622 81.4854 57.1619 81.4832 57.1616C81.4832 57.1616 79.3094 56.9612 77.3097 55.4892C77.2116 55.4148 77.0905 55.3774 76.9671 55.3838Z" fill="#363D63"/>
<path fill-rule="evenodd" clip-rule="evenodd" d="M84.8004 46.6829C84.6095 46.6765 84.4302 46.7743 84.3331 46.9389C84.2356 47.1032 84.2356 47.3075 84.3331 47.4718C84.4302 47.6361 84.6095 47.7342 84.8004 47.7278H85.539C85.7299 47.7342 85.9092 47.6361 86.0067 47.4718C86.1042 47.3075 86.1042 47.1032 86.0067 46.9389C85.9092 46.7743 85.7299 46.6765 85.539 46.6829H84.8004Z" fill="#363D63"/>
<path fill-rule="evenodd" clip-rule="evenodd" d="M84.8106 46.6753C84.6444 46.6715 84.4868 46.7469 84.3855 46.878C84.2835 47.009 84.2506 47.181 84.2957 47.3405L85.0442 50.1347H83.5765C83.3857 50.1283 83.2063 50.2265 83.1092 50.3907C83.0117 50.555 83.0117 50.7593 83.1092 50.9236C83.2063 51.0882 83.3857 51.1863 83.5765 51.1796H85.7257C85.8881 51.1793 86.0409 51.1038 86.14 50.9754C86.2387 50.8462 86.2723 50.6791 86.2304 50.5221L85.3051 47.0704C85.2479 46.8425 85.0455 46.6807 84.8106 46.6753Z" fill="#363D63"/>
<path fill-rule="evenodd" clip-rule="evenodd" d="M116.098 70.9237L113.682 67.2697L111.903 68.98L114.608 73.2829L116.098 70.9237Z" fill="#363D63"/>
<path fill-rule="evenodd" clip-rule="evenodd" d="M227.564 149.607C223.987 149.611 220.652 151.419 218.699 154.416C216.654 152.625 214.03 151.636 211.312 151.633C205.361 151.635 200.445 156.28 200.106 162.221H265.002C263.971 158.747 260.779 156.362 257.155 156.361C254.122 156.362 251.339 158.04 249.921 160.721C248.88 156.901 245.411 154.251 241.452 154.25C239.898 154.254 238.374 154.67 237.033 155.456C235.237 151.872 231.573 149.608 227.564 149.607Z" fill="#C3C3FC"/>
<path fill-rule="evenodd" clip-rule="evenodd" d="M16.1825 143.526C15.3879 143.526 14.7486 144.117 14.7486 144.849L18.0507 162.221H31.5125L35.7435 144.849C35.917 144.137 35.1036 143.526 34.309 143.526H16.1825Z" fill="white"/>
<path fill-rule="evenodd" clip-rule="evenodd" d="M16.1828 143.004C15.1296 143.004 14.2257 143.813 14.2257 144.849C14.2257 144.882 14.2285 144.914 14.2349 144.947L17.5368 162.319C17.5841 162.566 17.7995 162.744 18.0507 162.744H31.5121C31.7532 162.744 31.9628 162.579 32.0197 162.345L36.2511 144.973C36.3901 144.401 36.1152 143.856 35.73 143.525C35.3446 143.193 34.8395 143.004 34.3086 143.004H16.1828ZM16.1828 144.049H34.309C34.572 144.049 34.8718 144.165 35.0486 144.318C35.2253 144.469 35.2698 144.586 35.2353 144.726L31.1017 161.699H18.4832L15.2782 144.834C15.2878 144.413 15.6538 144.049 16.1828 144.049Z" fill="#363D63"/>
<path fill-rule="evenodd" clip-rule="evenodd" d="M0.833287 161.699C0.642465 161.692 0.462831 161.79 0.365342 161.955C0.268173 162.119 0.268173 162.324 0.365342 162.488C0.462831 162.652 0.642465 162.75 0.833287 162.744H279.167C279.358 162.75 279.537 162.652 279.634 162.488C279.732 162.324 279.732 162.119 279.634 161.955C279.537 161.79 279.358 161.692 279.167 161.699H0.833287Z" fill="#363D63"/>
<path fill-rule="evenodd" clip-rule="evenodd" d="M170.799 31.7526C164.554 31.7526 158.954 38.2089 162.192 43.8162C162.192 50.4787 167.254 55.8795 173.499 55.8795C179.744 55.8795 181.961 50.4787 181.961 43.8162C181.961 37.1538 177.044 31.7526 170.799 31.7526Z" fill="#363D63"/>
<path fill-rule="evenodd" clip-rule="evenodd" d="M185.544 104.131L187.092 154.47L192.997 162.221H182.145L177.716 139.927L172.918 121.25L166.348 140.001L160.865 162.221H150.254L156.751 154.765L158.974 104.131H185.544Z" fill="#363D63"/>
<path fill-rule="evenodd" clip-rule="evenodd" d="M169.988 58.7159L164.72 63.4162C161.841 65.162 159.311 66.0202 157.134 68.3584C155.967 69.6721 150.076 81.4154 150.076 81.4154L149.085 83.0453L153.35 89.142C154.988 87.5889 156.387 86.5031 157.38 85.3418C158.04 84.5699 158.618 84.4945 159.193 83.4966L158.974 104.131H185.544V96.4277C185.544 96.4277 192.328 94.6279 195.095 92.6442C197.861 90.6606 197.287 86.589 197.287 86.589C197.287 86.589 194.993 76.7251 194.262 73.9063C193.531 71.0874 191.808 69.6781 191.808 69.6781L183.001 63.3238L177.659 58.7159V60.0469L174.165 63.5411H172.006L169.988 60.0469V58.7159Z" fill="#00CCBB"/>
<path fill-rule="evenodd" clip-rule="evenodd" d="M175.363 42.8681C175.222 42.8652 175.13 42.8723 175.13 42.8723H165.552C164.294 42.8723 163.893 42.9046 163.893 42.9046V47.832C163.893 47.832 163.009 47.4693 162.311 46.2642C161.604 46.7606 161.143 47.5821 161.143 48.5151C161.143 50.0385 162.369 51.2649 163.893 51.2649H163.905C164.043 54.9404 165.046 57.7615 168.841 57.7615C169.212 57.7615 169.596 57.7337 169.988 57.6819V60.0463L172.006 63.5405H174.165L177.658 60.0463V53.4145C178.152 52.7458 178.511 52.0241 178.68 51.2652H180.946C182.47 51.2652 183.696 50.0388 183.696 48.5154C183.696 46.9921 182.47 45.7653 180.946 45.7653H179.985C179.985 45.7663 178.106 49.8413 176.931 49.8151C175.757 49.7892 175.887 48.7452 175.887 48.7452V46.1089C175.887 45.1695 177.114 44.7255 176.853 43.7337C176.657 42.9899 175.786 42.8777 175.363 42.8681Z" fill="#FEB8CA"/>
<path fill-rule="evenodd" clip-rule="evenodd" d="M158.329 73.9973C158.145 74.0043 157.978 74.1082 157.89 74.27C157.801 74.4323 157.806 74.6292 157.9 74.7875L158.977 76.6528V104.131C158.977 104.318 159.076 104.491 159.238 104.585C159.4 104.678 159.6 104.678 159.762 104.585C159.924 104.491 160.024 104.318 160.023 104.131V76.5132C160.023 76.4211 159.999 76.331 159.953 76.2514L158.805 74.2652C158.71 74.0935 158.526 73.99 158.329 73.9973Z" fill="#363D63"/>
<path fill-rule="evenodd" clip-rule="evenodd" d="M173.16 94.0596L168.732 89.5847C167.677 90.6306 168.182 91.6249 169.177 93.2075L163.794 92.7005C163.976 95.4727 165.818 98.8279 169.169 99.2754C171.316 99.4966 174.595 98.6646 174.595 98.6646L173.16 94.0596Z" fill="#FEB8CA"/>
<path fill-rule="evenodd" clip-rule="evenodd" d="M174.443 55.3831C174.325 55.3805 174.21 55.4179 174.115 55.4895C172.116 56.9614 169.942 57.1615 169.942 57.1615C169.94 57.1618 169.937 57.1621 169.934 57.1625C169.934 57.1625 169.065 57.252 168.151 57.2027C167.367 57.1602 166.453 56.6587 166.453 56.6587C166.204 56.5136 165.884 56.5983 165.739 56.8483C165.593 57.0979 165.678 57.4179 165.928 57.563C165.928 57.563 166.946 58.1837 168.094 58.246C169.108 58.301 170.034 58.2026 170.038 58.2019C170.044 58.2016 172.483 57.9897 174.735 56.3314C174.919 56.2007 174.998 55.967 174.931 55.7516C174.865 55.5362 174.668 55.3875 174.443 55.3831Z" fill="#363D63"/>
<path fill-rule="evenodd" clip-rule="evenodd" d="M165.886 46.6829C165.696 46.6765 165.516 46.7743 165.419 46.9389C165.321 47.1032 165.321 47.3075 165.419 47.4718C165.516 47.6361 165.696 47.7342 165.886 47.7278H166.625C166.815 47.7342 166.995 47.6361 167.093 47.4718C167.19 47.3075 167.19 47.1032 167.093 46.9389C166.995 46.7743 166.815 46.6765 166.625 46.6829H165.886Z" fill="#363D63"/>
<path fill-rule="evenodd" clip-rule="evenodd" d="M166.599 46.6759C166.37 46.6884 166.176 46.8482 166.12 47.0703L165.195 50.5221C165.153 50.679 165.187 50.8462 165.285 50.9753C165.384 51.1038 165.537 51.1796 165.7 51.1796H167.849C168.04 51.1863 168.219 51.0881 168.316 50.9235C168.414 50.7592 168.414 50.555 168.316 50.3907C168.219 50.2264 168.04 50.1283 167.849 50.1347H166.381L167.13 47.3404C167.175 47.1781 167.14 47.0035 167.035 46.8718C166.93 46.7398 166.767 46.667 166.599 46.6759Z" fill="#363D63"/>
<path fill-rule="evenodd" clip-rule="evenodd" d="M185.551 95.9038C185.522 95.9038 185.492 95.9064 185.463 95.9115L176.525 97.3208C176.337 97.3463 176.178 97.4713 176.109 97.6474C176.04 97.8235 176.072 98.0233 176.192 98.1697C176.311 98.3161 176.501 98.3864 176.687 98.3532L185.626 96.9439C185.898 96.9052 186.093 96.6629 186.073 96.389C186.054 96.1151 185.826 95.9032 185.551 95.9038Z" fill="#363D63"/>
<path fill-rule="evenodd" clip-rule="evenodd" d="M174.595 98.6645L173.16 94.0595L175.513 92.7526L177.299 98.2672L174.595 98.6645Z" fill="#363D63"/>
<path fill-rule="evenodd" clip-rule="evenodd" d="M185.035 75.9992C184.869 75.995 184.711 76.0701 184.609 76.2015C184.507 76.3329 184.474 76.5045 184.519 76.6643L186.605 84.4481L184.986 85.5569C184.829 85.6611 184.74 85.8423 184.753 86.0303C184.767 86.2185 184.881 86.3848 185.051 86.4656C185.221 86.5462 185.422 86.5289 185.577 86.4199L187.501 85.1017C187.684 84.9768 187.768 84.7498 187.711 84.5354L185.529 76.3936C185.472 76.1657 185.27 76.0046 185.035 75.9992Z" fill="#363D63"/>
<path fill-rule="evenodd" clip-rule="evenodd" d="M161.895 96.8615C165.405 96.8615 167.858 99.6135 167.395 103.032L162.901 136.236C162.439 139.654 159.241 142.406 155.731 142.406H123.884C120.374 142.406 117.921 139.654 118.384 136.236L118.452 133.717H130.267L134.692 103.032C135.154 99.6135 138.353 96.8615 141.862 96.8615H161.895Z" fill="white"/>
<path fill-rule="evenodd" clip-rule="evenodd" d="M167.426 101.688C167.465 102.121 167.458 102.57 167.395 103.032L162.901 136.236C162.439 139.654 159.241 142.406 155.731 142.406H134.846L139.415 108.646C139.937 104.791 143.543 101.688 147.501 101.688H167.426Z" fill="#00CCBB"/>
<path fill-rule="evenodd" clip-rule="evenodd" d="M161.895 96.3389C165.678 96.3389 168.414 99.4039 167.913 103.103L163.419 136.306C162.918 140.005 159.514 142.929 155.731 142.929H123.884C120.1 142.929 117.365 139.865 117.866 136.165L117.935 135.658C117.955 135.469 118.077 135.307 118.252 135.233C118.427 135.159 118.629 135.186 118.778 135.304C118.927 135.422 119.001 135.611 118.97 135.799L118.902 136.306C118.477 139.445 120.647 141.884 123.884 141.884H155.731C158.967 141.884 161.959 139.304 162.383 136.165L166.877 102.962C167.302 99.8239 165.132 97.3838 161.895 97.3838H154.479C154.288 97.3905 154.109 97.2924 154.012 97.1281C153.914 96.9635 153.914 96.7592 154.012 96.5949C154.109 96.4307 154.288 96.3325 154.479 96.3389H161.895Z" fill="#363D63"/>
<path fill-rule="evenodd" clip-rule="evenodd" d="M136.073 76.7559L130.804 81.4561C130.804 81.4561 128.086 82.5499 124.954 84.2203C122.308 85.5001 120.655 87.82 119.997 91.4041L116.291 111.594C119.38 123.121 117.827 117.995 125.059 122.171H151.629V114.467C151.629 114.467 158.413 112.667 161.179 110.684C163.946 108.7 163.372 104.629 163.372 104.629C163.372 104.629 161.077 94.765 160.346 91.9462C159.615 89.1273 157.893 87.7181 157.893 87.7181L149.085 81.3637L143.743 76.7559V78.0868L140.249 81.5811H138.09L136.073 78.0868V76.7559Z" fill="#6767E5"/>
<path fill-rule="evenodd" clip-rule="evenodd" d="M136.073 75.7222V78.0871L138.09 81.5811H140.249L143.743 78.0871V71.4547C143.743 71.4547 143.567 71.6628 143.227 71.9891C143.057 72.1525 142.846 72.3449 142.596 72.5565C142.345 72.7678 142.056 72.9979 141.728 73.2351C141.401 73.4726 141.035 73.7171 140.633 73.9581C140.231 74.1988 139.792 74.4359 139.319 74.6581C138.845 74.8802 138.338 75.0874 137.796 75.2683C137.525 75.359 137.246 75.4428 136.959 75.5192C136.672 75.5953 136.376 75.6633 136.073 75.7222Z" fill="#FEB8CA"/>
<path fill-rule="evenodd" clip-rule="evenodd" d="M135.135 76.1264C135.444 76.1066 135.746 76.0769 136.04 76.0379C136.335 75.9992 136.622 75.9513 136.902 75.896C137.463 75.7857 137.993 75.6451 138.491 75.4852C138.989 75.3254 139.454 75.1461 139.883 74.9588C140.313 74.7712 140.707 74.5752 141.062 74.3819C141.418 74.1882 141.734 73.997 142.01 73.8193C142.285 73.6416 142.519 73.4773 142.708 73.3373C143.087 73.057 143.288 72.8729 143.288 72.8729C143.862 72.2726 144.311 71.603 144.575 70.8719L146.823 71.1609C148.334 71.3556 149.706 70.2956 149.901 68.7847C150.096 67.2738 149.036 65.9004 147.525 65.706L145.386 65.4308L145.812 62.1251C146.342 58.014 143.471 54.2804 139.377 53.7533C135.283 53.2262 131.56 56.1112 131.031 60.2224L130.605 63.5283C129.097 63.3375 127.727 64.3965 127.533 65.9055C127.339 67.4164 128.398 68.7892 129.909 68.9839L129.921 68.9851C129.588 72.6482 130.223 75.5741 133.987 76.0587C134.355 76.106 134.739 76.1277 135.135 76.1264Z" fill="#FEB8CA"/>
<path fill-rule="evenodd" clip-rule="evenodd" d="M133.33 48.3479C131.804 48.3479 130.568 49.5849 130.568 51.1105C130.568 51.1853 130.571 51.2601 130.577 51.3346C130.176 51.1191 129.728 51.0063 129.273 51.006C128.54 51.006 127.838 51.2969 127.319 51.8153C126.801 52.3334 126.51 53.036 126.51 53.7689C126.512 54.4465 126.762 55.1005 127.214 55.6055C126.509 56.1256 126.091 56.9493 126.09 57.8257C126.09 59.3516 127.327 60.5883 128.853 60.5883C128.886 60.588 128.919 60.587 128.952 60.5858C128.871 60.9569 128.752 61.6063 128.74 62.2926C127.962 62.71 127.476 63.5216 127.475 64.4047C127.475 65.0405 127.728 65.6507 128.178 66.1004C128.628 66.5501 129.238 66.8026 129.874 66.8026C129.984 66.8017 130.093 66.7934 130.202 66.7774L130.786 62.1881C130.784 62.1878 130.782 62.1874 130.78 62.1871L130.973 60.6922C130.973 60.6922 131.374 60.712 132.622 60.8721L142.122 62.0954C142.122 62.0954 143.589 62.1523 143.72 63.1694C143.734 63.2758 143.734 63.3643 143.726 63.4404C142.739 63.7607 142.07 64.68 142.068 65.7181C142.068 67.0424 143.142 68.116 144.466 68.116C145.102 68.116 145.712 67.8635 146.162 67.4138C146.611 66.9641 146.864 66.3539 146.864 65.7181C146.864 65.6491 146.861 65.58 146.854 65.5113C148.64 64.9516 148.006 62.5921 148.373 59.2784C149.622 59.1819 150.586 58.1409 150.586 56.8882C150.586 55.564 149.513 54.4903 148.188 54.4903C147.652 54.4906 147.132 54.6703 146.711 55.0005C145.046 54.373 142.431 54.1713 139.43 53.4496C139.848 52.9516 140.078 52.3219 140.078 51.6708C140.078 50.9379 139.787 50.2353 139.269 49.7172C138.751 49.1991 138.048 48.9079 137.315 48.9079C136.685 48.9082 136.074 49.1243 135.583 49.52C135.066 48.7868 134.226 48.3498 133.33 48.3479Z" fill="#363D63"/>
<path fill-rule="evenodd" clip-rule="evenodd" d="M126.196 92.0369C126.012 92.0439 125.845 92.1478 125.757 92.3098C125.669 92.4722 125.673 92.6688 125.767 92.827L126.845 94.693V116.691C126.842 116.88 126.941 117.056 127.104 117.151C127.267 117.246 127.468 117.246 127.631 117.151C127.794 117.056 127.893 116.88 127.89 116.691V94.5524C127.89 94.461 127.866 94.3712 127.82 94.2919L126.673 92.3047C126.577 92.1331 126.393 92.0295 126.196 92.0369Z" fill="#363D63"/>
<path fill-rule="evenodd" clip-rule="evenodd" d="M141.129 82.6393C140.936 82.6399 140.758 82.748 140.668 82.9196C140.578 83.0912 140.591 83.2984 140.7 83.4582L143.883 88.2374C143.978 88.3799 144.136 88.4665 144.308 88.4701C144.479 88.4733 144.641 88.3924 144.741 88.2533L148.045 83.6912C148.155 83.5397 148.176 83.3412 148.1 83.1702C148.023 82.9995 147.861 82.8825 147.675 82.8633C147.489 82.8445 147.307 82.9263 147.198 83.0785L144.336 87.0317L141.57 82.8787C141.473 82.7291 141.307 82.639 141.129 82.6393Z" fill="#363D63"/>
<path fill-rule="evenodd" clip-rule="evenodd" d="M130.78 80.927C130.596 80.9341 130.429 81.0383 130.341 81.2006C130.253 81.363 130.257 81.5596 130.352 81.7181L134.107 88.2086C134.197 88.3649 134.362 88.4637 134.543 88.4695C134.723 88.4755 134.894 88.3876 134.995 88.2374L138.178 83.4582C138.287 83.3029 138.304 83.1002 138.222 82.9286C138.139 82.7573 137.97 82.6444 137.78 82.6339C137.59 82.6237 137.409 82.7173 137.308 82.8787L134.591 86.9579L131.257 81.1943C131.161 81.0223 130.977 80.9194 130.78 80.927Z" fill="#363D63"/>
<path fill-rule="evenodd" clip-rule="evenodd" d="M137.742 82.6457C137.552 82.639 137.372 82.7371 137.275 82.9014C137.178 83.066 137.178 83.2703 137.275 83.4346C137.372 83.5989 137.552 83.697 137.742 83.6906H141.135C141.325 83.697 141.505 83.5989 141.602 83.4346C141.699 83.2703 141.699 83.066 141.602 82.9014C141.505 82.7371 141.325 82.639 141.135 82.6457H137.742Z" fill="#363D63"/>
<path fill-rule="evenodd" clip-rule="evenodd" d="M139.743 74.4093C139.66 74.4135 139.58 74.4372 139.509 74.4781C137.338 75.6824 135.156 75.6038 135.156 75.6038C135.153 75.6038 135.151 75.6038 135.148 75.6038C135.148 75.6038 134.274 75.5818 133.374 75.4156C132.603 75.274 131.76 74.6596 131.76 74.6596C131.612 74.5449 131.414 74.518 131.241 74.5896C131.067 74.6612 130.946 74.8194 130.921 75.0051C130.897 75.1912 130.975 75.3756 131.123 75.4891C131.123 75.4891 132.054 76.2354 133.185 76.4435C134.185 76.6276 135.116 76.6487 135.119 76.6487C135.127 76.649 137.571 76.7484 140.017 75.3919C140.231 75.2759 140.338 75.0266 140.272 74.791C140.206 74.5557 139.987 74.3972 139.743 74.4093Z" fill="#363D63"/>
<path fill-rule="evenodd" clip-rule="evenodd" d="M132.54 64.7034C132.257 64.6899 132.016 64.9031 131.994 65.1847C131.972 65.4663 132.177 65.7144 132.458 65.745L133.911 65.932C134.099 65.9621 134.289 65.8876 134.407 65.7374C134.524 65.5868 134.55 65.3845 134.475 65.2093C134.399 65.0339 134.234 64.9137 134.045 64.8955L132.592 64.7088C132.574 64.7062 132.557 64.7043 132.54 64.7034Z" fill="#363D63"/>
<path fill-rule="evenodd" clip-rule="evenodd" d="M151.118 94.0387C150.953 94.0349 150.795 94.1103 150.693 94.2414C150.592 94.3727 150.559 94.5441 150.604 94.7039L152.69 102.488L151.07 103.597C150.911 103.701 150.821 103.883 150.834 104.072C150.847 104.261 150.962 104.428 151.134 104.508C151.305 104.589 151.507 104.57 151.661 104.459L153.586 103.141C153.769 103.016 153.853 102.789 153.795 102.575L151.614 94.4331C151.556 94.2052 151.354 94.0438 151.118 94.0387Z" fill="#363D63"/>
<path fill-rule="evenodd" clip-rule="evenodd" d="M155.6 123.95C154.79 132.661 150.564 133.76 147.157 133.76H121.693L111.554 162.221H100.702L106.607 154.47L109.037 130.524C110.014 123.424 114.646 123.934 117.065 123.934H150.068L155.6 123.95Z" fill="#363D63"/>
<path fill-rule="evenodd" clip-rule="evenodd" d="M151.921 123.95L147.396 133.76H136.78L137.428 162.221H126.576L130.941 154.47L124.124 132.151C125.102 125.05 129.733 123.934 132.152 123.934H146.388L151.921 123.95Z" fill="#363D63"/>
<path fill-rule="evenodd" clip-rule="evenodd" d="M136.78 133.237C136.593 133.237 136.421 133.337 136.327 133.498C136.234 133.66 136.234 133.859 136.327 134.021C136.421 134.183 136.593 134.282 136.78 134.282H157.003C157.19 134.282 157.362 134.183 157.456 134.021C157.549 133.859 157.549 133.66 157.456 133.498C157.362 133.337 157.19 133.237 157.003 133.237H136.78Z" fill="#363D63"/>
<path fill-rule="evenodd" clip-rule="evenodd" d="M155.565 142.086C155.213 142.078 154.955 142.413 155.051 142.752L160.36 162.228C160.542 162.901 161.551 162.629 161.369 161.956L156.06 142.479C156.003 142.252 155.8 142.091 155.565 142.086Z" fill="#363D63"/>
<path fill-rule="evenodd" clip-rule="evenodd" d="M140.1 142.086C139.748 142.078 139.489 142.413 139.586 142.752L144.896 162.251C145.073 162.932 146.094 162.656 145.905 161.979L140.595 142.479C140.538 142.252 140.335 142.091 140.1 142.086Z" fill="#363D63"/>
<path fill-rule="evenodd" clip-rule="evenodd" d="M144.748 142.087C144.519 142.098 144.325 142.258 144.268 142.479L138.959 161.979C138.778 162.652 139.787 162.924 139.969 162.251L145.278 142.752C145.376 142.407 145.106 142.068 144.748 142.087Z" fill="#363D63"/>
<path fill-rule="evenodd" clip-rule="evenodd" d="M124.468 142.087C124.239 142.098 124.044 142.257 123.988 142.479L118.679 161.979C118.497 162.652 119.507 162.924 119.688 162.251L124.997 142.752C125.095 142.407 124.826 142.068 124.468 142.087Z" fill="#363D63"/>
<path fill-rule="evenodd" clip-rule="evenodd" d="M133.968 64.8845C133.758 64.8897 133.572 65.0197 133.494 65.2147L131.853 69.2105C131.79 69.361 131.802 69.5317 131.883 69.6724C131.965 69.813 132.108 69.9076 132.269 69.9284L134.096 70.163C134.285 70.1934 134.475 70.1189 134.592 69.9683C134.709 69.8181 134.736 69.6155 134.66 69.4403C134.584 69.2648 134.42 69.1446 134.23 69.1267L133.078 68.9784L134.461 65.6124C134.531 65.4487 134.513 65.2608 134.413 65.1137C134.313 64.9664 134.145 64.8804 133.968 64.8845Z" fill="#363D63"/>
<path fill-rule="evenodd" clip-rule="evenodd" d="M109.336 110.559H127.797C128.468 110.559 129.007 111.099 129.007 111.769V113.124C129.007 113.794 128.468 114.334 127.797 114.334H109.336C108.666 114.334 108.126 113.794 108.126 113.124V111.769C108.126 111.099 108.666 110.559 109.336 110.559Z" fill="white"/>
<path fill-rule="evenodd" clip-rule="evenodd" d="M229.307 123.304C229.141 123.3 228.983 123.376 228.882 123.507C228.78 123.638 228.747 123.81 228.793 123.97L239.091 162.24C239.137 162.424 239.278 162.569 239.46 162.619C239.643 162.669 239.838 162.616 239.971 162.481C240.104 162.347 240.153 162.151 240.101 161.969L229.802 123.698C229.744 123.47 229.542 123.309 229.307 123.304Z" fill="#363D63"/>
<path fill-rule="evenodd" clip-rule="evenodd" d="M217.835 123.304C217.669 123.3 217.511 123.376 217.41 123.507C217.308 123.638 217.276 123.81 217.321 123.97L227.619 162.24C227.666 162.423 227.807 162.565 227.988 162.614C228.17 162.663 228.364 162.611 228.496 162.478C228.628 162.344 228.679 162.15 228.629 161.969L218.33 123.698C218.273 123.47 218.07 123.309 217.835 123.304Z" fill="#363D63"/>
<path fill-rule="evenodd" clip-rule="evenodd" d="M85.3917 94.252H111.192C112.159 94.252 113.083 95.0306 113.264 95.9975L116.37 112.588C116.551 113.555 115.918 114.334 114.951 114.334H89.1512C88.1843 114.334 87.2603 113.555 87.079 112.588L83.9735 95.9975C83.7922 95.0306 84.4251 94.252 85.3917 94.252Z" fill="white"/>
<path fill-rule="evenodd" clip-rule="evenodd" d="M233.833 114.334C234.854 114.334 235.675 115.016 235.675 115.863V121.015H51.5721V115.863C51.5721 115.016 52.3939 114.334 53.4145 114.334H233.833Z" fill="#00CCBB"/>
<path fill-rule="evenodd" clip-rule="evenodd" d="M98.5664 101.438C98.312 101.438 98.0588 101.474 97.8143 101.544C98.0863 101.845 98.2375 102.236 98.2381 102.642C98.2381 103.077 98.0652 103.495 97.7571 103.803C97.4493 104.111 97.0315 104.284 96.5958 104.284C96.3305 104.283 96.0688 104.218 95.8338 104.095C95.8316 104.121 95.8297 104.148 95.8278 104.174C95.8284 105.686 97.0536 106.911 98.5648 106.911C100.076 106.911 101.301 105.686 101.301 104.174C101.301 103.449 101.013 102.753 100.5 102.239C99.9862 101.726 99.2904 101.438 98.5664 101.438Z" fill="#363D63"/>
<path fill-rule="evenodd" clip-rule="evenodd" d="M85.3917 93.729C85.2044 93.729 85.0318 93.8284 84.9381 93.9905C84.8445 94.1522 84.8445 94.352 84.9381 94.5137C85.0318 94.6754 85.2044 94.7752 85.3917 94.7748H111.192C111.878 94.7748 112.619 95.393 112.75 96.0937L115.856 112.684C115.922 113.034 115.841 113.303 115.685 113.493C115.53 113.684 115.295 113.811 114.952 113.811H108.378C108.191 113.81 108.018 113.91 107.924 114.072C107.83 114.234 107.83 114.433 107.924 114.595C108.018 114.757 108.191 114.857 108.378 114.856H114.952C115.575 114.856 116.139 114.593 116.497 114.153C116.855 113.713 116.999 113.108 116.884 112.492L113.778 95.9016C113.547 94.6681 112.439 93.729 111.192 93.729H85.3917Z" fill="#363D63"/>
<path fill-rule="evenodd" clip-rule="evenodd" d="M45.3664 122.516C45.3664 128.239 40.7275 132.878 35.0045 132.878C29.2817 132.878 24.6422 128.239 24.6422 122.516C24.6422 116.793 29.2817 112.154 35.0045 112.154C40.7275 112.154 45.3664 116.793 45.3664 122.516Z" fill="#7F90FF"/>
<path fill-rule="evenodd" clip-rule="evenodd" d="M33.4737 119.444C33.2637 119.455 33.0812 119.591 33.01 119.789C33.01 119.789 28.545 131.611 27.9204 144.923C27.9073 145.112 27.9981 145.293 28.1569 145.396C28.3158 145.5 28.5181 145.509 28.6856 145.421C28.8531 145.333 28.9599 145.161 28.965 144.971C29.5793 131.864 33.9887 120.158 33.9887 120.158C34.0539 119.992 34.0305 119.805 33.926 119.66C33.8218 119.516 33.6515 119.434 33.4737 119.444Z" fill="#363D63"/>
<path fill-rule="evenodd" clip-rule="evenodd" d="M29.5774 121.381C29.5774 127.103 24.9382 131.743 19.2155 131.743C13.4927 131.743 8.85356 127.103 8.85356 121.381C8.85356 115.658 13.4927 111.019 19.2155 111.019C24.9382 111.019 29.5774 115.658 29.5774 121.381Z" fill="#00CCBB"/>
<path fill-rule="evenodd" clip-rule="evenodd" d="M18.4445 119.444C18.2697 119.44 18.1041 119.524 18.0037 119.667C17.9037 119.811 17.882 119.995 17.9459 120.158C17.9459 120.158 22.3549 131.864 22.9696 144.971C22.9737 145.161 23.0805 145.333 23.2483 145.422C23.4164 145.511 23.6188 145.501 23.7779 145.397C23.9371 145.293 24.0273 145.112 24.0138 144.923C23.3899 131.611 18.9237 119.789 18.9237 119.789C18.8505 119.586 18.6603 119.449 18.4445 119.444Z" fill="#363D63"/>
<path fill-rule="evenodd" clip-rule="evenodd" d="M13.946 140.552H36.5461C37.661 140.552 38.5585 141.449 38.5585 142.564V145.97C38.5585 147.084 37.661 147.982 36.5461 147.982H13.946C12.8308 147.982 11.9336 147.084 11.9336 145.97V142.564C11.9336 141.449 12.8308 140.552 13.946 140.552Z" fill="#A79AFC"/>
<path fill-rule="evenodd" clip-rule="evenodd" d="M51.5721 123.834H235.675V121.015H51.5721V123.834Z" fill="white"/>
<path fill-rule="evenodd" clip-rule="evenodd" d="M49.5047 123.312C49.3136 123.305 49.1346 123.403 49.0371 123.568C48.9396 123.732 48.9396 123.936 49.0371 124.101C49.1346 124.265 49.3136 124.363 49.5047 124.356H236.758C236.949 124.363 237.128 124.265 237.226 124.101C237.323 123.936 237.323 123.732 237.226 123.568C237.128 123.403 236.949 123.305 236.758 123.312H49.5047Z" fill="#363D63"/>
<path fill-rule="evenodd" clip-rule="evenodd" d="M166.023 63.8206C165.829 63.8209 165.651 63.9283 165.562 64.0999C165.471 64.2712 165.483 64.4787 165.592 64.6385C165.593 64.6385 166.856 66.5426 169.396 67.5446C171.936 68.5467 175.763 68.6189 180.717 65.2458C180.876 65.1422 180.966 64.9613 180.953 64.7731C180.94 64.5845 180.826 64.4173 180.655 64.3361C180.485 64.2549 180.284 64.2722 180.129 64.3815C175.383 67.613 172.013 67.4535 169.779 66.5723C167.546 65.6911 166.463 64.0606 166.463 64.0606C166.367 63.9107 166.2 63.8206 166.023 63.8206Z" fill="#363D63"/>
<path fill-rule="evenodd" clip-rule="evenodd" d="M172.018 63.0125C171.846 63.01 171.683 63.0924 171.584 63.2334L169.32 66.3377C169.203 66.4882 169.177 66.6905 169.253 66.8657C169.328 67.0409 169.493 67.161 169.683 67.1793C169.872 67.1978 170.057 67.1109 170.165 66.9536L172.429 63.849C172.547 63.6917 172.566 63.4814 172.48 63.305C172.393 63.1285 172.215 63.0154 172.018 63.0125Z" fill="#363D63"/>
<path fill-rule="evenodd" clip-rule="evenodd" d="M174.173 63.0118C173.988 63.008 173.816 63.1013 173.718 63.2576C173.62 63.4143 173.613 63.6105 173.697 63.7742L175.311 67.0082C175.393 67.1789 175.56 67.2924 175.749 67.3048C175.937 67.3176 176.118 67.2275 176.221 67.069C176.325 66.9107 176.334 66.709 176.247 66.5416L174.633 63.3075C174.547 63.1301 174.369 63.016 174.173 63.0118Z" fill="#363D63"/>
<path fill-rule="evenodd" clip-rule="evenodd" d="M53.8799 123.514C53.651 123.525 53.4563 123.685 53.4001 123.907L43.1021 161.899C42.9202 162.572 43.9296 162.844 44.1115 162.171L54.4092 124.179C54.5076 123.835 54.2379 123.495 53.8799 123.514Z" fill="#363D63"/>
<path fill-rule="evenodd" clip-rule="evenodd" d="M65.3519 123.514C65.123 123.525 64.9284 123.685 64.8718 123.907L54.5744 161.899C54.3929 162.572 55.4023 162.844 55.5838 162.171L65.8812 124.179C65.9793 123.835 65.7095 123.495 65.3519 123.514Z" fill="#363D63"/>
<path fill-rule="evenodd" clip-rule="evenodd" d="M68.3251 108.415L59.7595 108.454L61.4622 112.982H69.5375L68.3251 108.415Z" fill="#363D63"/>
<path fill-rule="evenodd" clip-rule="evenodd" d="M60.589 114.334H71.1369C70.032 108.191 61.5204 107.646 60.589 114.334Z" fill="#FEB8CA"/>
<path fill-rule="evenodd" clip-rule="evenodd" d="M65.0108 83.8102C64.7823 83.822 64.5879 83.9815 64.5314 84.2037L62.8926 90.3231C62.8686 90.4116 62.8686 90.5049 62.8926 90.5932L67.1869 106.71C67.2336 106.892 67.3742 107.035 67.5558 107.085C67.7373 107.135 67.931 107.083 68.064 106.95C68.1966 106.816 68.2474 106.622 68.1969 106.44L63.9388 90.4589L65.5427 84.4744C65.5884 84.312 65.5532 84.1378 65.4481 84.0058C65.3426 83.8738 65.1802 83.8012 65.0108 83.8102Z" fill="#363D63"/>
<path fill-rule="evenodd" clip-rule="evenodd" d="M28.7339 40.5435C27.239 40.5435 26.0192 41.7638 26.0192 43.2591V54.43C26.0192 55.9249 27.239 57.1446 28.7339 57.1446H39.7875L49.5501 61.4383C49.552 61.4393 49.5536 61.4399 49.5552 61.4409C50.4096 61.8062 51.3579 62.0248 52.2133 61.8503C52.6406 61.7634 53.0558 61.5598 53.3515 61.2024C53.6469 60.8451 53.7996 60.3583 53.7996 59.797V57.1446H58.1767C59.6716 57.1446 60.8917 55.9252 60.8917 54.43C60.8917 54.243 60.7916 54.0704 60.6299 53.9771C60.4682 53.8837 60.269 53.8837 60.1073 53.9771C59.9452 54.0704 59.8455 54.243 59.8458 54.43C59.8458 55.3643 59.1104 56.0998 58.1767 56.0998H53.2764C52.9881 56.1001 52.7541 56.3337 52.7541 56.6224V59.797C52.7541 60.1786 52.6637 60.3937 52.5454 60.5363C52.4278 60.6788 52.2593 60.7738 52.0049 60.8256C51.4954 60.9294 50.6864 60.7872 49.9666 60.4791L40.1084 56.1439C40.0422 56.1148 39.9706 56.0998 39.8978 56.0998H28.7345C27.8005 56.0998 27.0657 55.364 27.0657 54.43V43.2591C27.0657 42.3251 27.8005 41.5893 28.7345 41.5893C28.9218 41.5893 29.0944 41.4899 29.1881 41.3278C29.2814 41.1661 29.2814 40.9667 29.1881 40.8046C29.0944 40.6429 28.9218 40.5431 28.7339 40.5435Z" fill="#363D63"/>
<path fill-rule="evenodd" clip-rule="evenodd" d="M37.0351 48.3544C37.0351 49.7406 35.9113 50.8645 34.525 50.8645C33.1391 50.8645 32.0153 49.7406 32.0153 48.3544C32.0153 46.9681 33.1391 45.8446 34.525 45.8446C35.9113 45.8446 37.0351 46.9681 37.0351 48.3544Z" fill="white"/>
<path fill-rule="evenodd" clip-rule="evenodd" d="M45.1267 48.3544C45.1267 49.7406 44.0028 50.8645 42.6163 50.8645C41.2303 50.8645 40.1065 49.7406 40.1065 48.3544C40.1065 46.9681 41.2303 45.8446 42.6163 45.8446C44.0028 45.8446 45.1267 46.9681 45.1267 48.3544Z" fill="#7F90FF"/>
<path fill-rule="evenodd" clip-rule="evenodd" d="M53.2173 48.3544C53.2173 49.7406 52.0934 50.8645 50.7075 50.8645C50.0417 50.8645 49.4034 50.6001 48.9329 50.1293C48.4621 49.6585 48.1974 49.0202 48.1974 48.3544C48.1974 47.6886 48.4621 47.0503 48.9329 46.5798C49.4034 46.1089 50.0417 45.8446 50.7075 45.8446C52.0934 45.8446 53.2173 46.9681 53.2173 48.3544Z" fill="#7F90FF"/>
<path fill-rule="evenodd" clip-rule="evenodd" d="M34.1296 45.3488C33.484 45.4338 32.8655 45.7257 32.3809 46.2099C31.4121 47.1787 31.2136 48.6845 31.8989 49.871C32.5836 51.0572 33.9868 51.6383 35.31 51.2838C36.6337 50.9293 37.5584 49.7243 37.5584 48.3543C37.5603 48.1661 37.4609 47.9916 37.2985 47.8969C37.1358 47.8023 36.9351 47.8023 36.7724 47.8969C36.6097 47.9916 36.5106 48.1661 36.5125 48.3543C36.5125 49.2564 35.9106 50.0411 35.0396 50.2744C34.1683 50.508 33.2548 50.1296 32.8041 49.3484C32.3531 48.5672 32.4826 47.5869 33.1202 46.9492C33.7579 46.3116 34.7376 46.1824 35.5188 46.6337C35.6805 46.7287 35.8809 46.7296 36.0436 46.6363C36.2066 46.543 36.307 46.3694 36.3067 46.1818C36.306 45.9942 36.205 45.8212 36.042 45.7285C35.4488 45.3859 34.7753 45.2635 34.1296 45.3488Z" fill="#363D63"/>
<path fill-rule="evenodd" clip-rule="evenodd" d="M123.052 30.604C123.052 32.6705 122.275 34.6522 120.891 36.1133C119.508 37.5746 117.631 38.3955 115.674 38.3955C111.599 38.3955 108.295 34.9073 108.295 30.604C108.295 26.3011 111.599 22.8126 115.674 22.8126C117.631 22.8126 119.508 23.6338 120.891 25.0948C122.275 26.5559 123.052 28.5376 123.052 30.604Z" fill="#7F90FF"/>
<path fill-rule="evenodd" clip-rule="evenodd" d="M111.946 30.0223C111.78 30.0258 111.625 30.1073 111.53 30.2429C111.434 30.3781 111.408 30.551 111.46 30.7082L113.318 36.6218L112.154 40.3241C112.104 40.483 112.133 40.6562 112.231 40.7905C112.33 40.9247 112.486 41.004 112.653 41.0043H115.932C116.118 41.0043 116.291 40.9049 116.385 40.7429C116.479 40.5811 116.479 40.3817 116.385 40.2196C116.291 40.0579 116.118 39.9582 115.932 39.9585H113.365L114.364 36.7784C114.396 36.6765 114.396 36.5672 114.364 36.4652L112.457 30.395C112.389 30.1703 112.181 30.0178 111.946 30.0223Z" fill="#363D63"/>
<path fill-rule="evenodd" clip-rule="evenodd" d="M119.901 30.0224C119.672 30.0249 119.471 30.1758 119.406 30.3951L117.499 36.4652C117.467 36.5672 117.467 36.6765 117.499 36.7785L118.498 39.9585H115.932C115.745 39.9582 115.572 40.0579 115.478 40.2197C115.385 40.3817 115.385 40.5812 115.478 40.7429C115.572 40.905 115.745 41.0044 115.932 41.0044H119.21C119.376 41.0044 119.533 40.9248 119.631 40.7905C119.73 40.6563 119.758 40.483 119.708 40.3242L118.545 36.6219L120.404 30.7083C120.456 30.5482 120.428 30.3724 120.329 30.2362C120.229 30.1004 120.07 30.0208 119.901 30.0224Z" fill="#363D63"/>
<path fill-rule="evenodd" clip-rule="evenodd" d="M114.032 39.9509C113.743 39.9553 113.513 40.1925 113.517 40.4811V43.0091C113.517 43.2974 113.751 43.5314 114.04 43.5317H117.917C118.056 43.5317 118.189 43.4767 118.287 43.3786C118.385 43.2805 118.44 43.1478 118.44 43.0091V40.5642C118.441 40.3776 118.341 40.2046 118.179 40.1113C118.017 40.018 117.818 40.018 117.656 40.1113C117.494 40.2046 117.394 40.3776 117.394 40.5642V42.4859H114.562V40.4811C114.564 40.3398 114.509 40.2037 114.409 40.104C114.309 40.0039 114.173 39.9489 114.032 39.9509Z" fill="#363D63"/>
<path fill-rule="evenodd" clip-rule="evenodd" d="M115.459 16.8182C115.171 16.8227 114.94 17.0598 114.944 17.3481V19.5667C114.938 19.7579 115.036 19.9372 115.201 20.0347C115.365 20.1318 115.569 20.1318 115.734 20.0347C115.898 19.9372 115.996 19.7579 115.989 19.5667V17.3481C115.992 17.2072 115.936 17.071 115.836 16.9713C115.737 16.8712 115.6 16.8159 115.459 16.8182Z" fill="#363D63"/>
<path fill-rule="evenodd" clip-rule="evenodd" d="M121.394 18.7553C121.203 18.7537 121.026 18.8563 120.933 19.0231L119.823 20.9444C119.728 21.1062 119.726 21.3069 119.82 21.4699C119.913 21.6329 120.087 21.7333 120.275 21.7327C120.463 21.7323 120.636 21.631 120.728 21.4677L121.838 19.546C121.934 19.3853 121.937 19.1852 121.845 19.0218C121.753 18.8585 121.581 18.7565 121.394 18.7553Z" fill="#363D63"/>
<path fill-rule="evenodd" clip-rule="evenodd" d="M125.937 22.8494C125.837 22.8462 125.739 22.8718 125.653 22.9229L123.731 24.0327C123.568 24.1254 123.467 24.2986 123.467 24.4862C123.466 24.6735 123.567 24.8468 123.729 24.9401C123.892 25.0338 124.092 25.0325 124.254 24.9379L126.176 23.8281C126.381 23.7137 126.484 23.4762 126.428 23.2483C126.372 23.0204 126.172 22.8574 125.937 22.8494Z" fill="#363D63"/>
<path fill-rule="evenodd" clip-rule="evenodd" d="M125.486 28.9129C125.295 28.9062 125.116 29.0043 125.018 29.1686C124.921 29.3329 124.921 29.5375 125.018 29.7018C125.116 29.8661 125.295 29.9642 125.486 29.9578H127.704C127.895 29.9642 128.074 29.8661 128.172 29.7018C128.27 29.5375 128.27 29.3329 128.172 29.1686C128.074 29.0043 127.895 28.9062 127.704 28.9129H125.486Z" fill="#363D63"/>
<path fill-rule="evenodd" clip-rule="evenodd" d="M110.083 18.7558C109.899 18.7632 109.732 18.8667 109.644 19.0291C109.556 19.1911 109.561 19.3877 109.655 19.5459L110.764 21.4676C110.857 21.6296 111.03 21.7297 111.217 21.7297C111.404 21.73 111.577 21.6303 111.67 21.4679C111.764 21.3058 111.763 21.1061 111.67 20.9443L110.56 19.023C110.464 18.8514 110.28 18.7478 110.083 18.7558Z" fill="#363D63"/>
<path fill-rule="evenodd" clip-rule="evenodd" d="M105.592 22.8495C105.351 22.8408 105.135 22.9984 105.069 23.2308C105.004 23.4632 105.106 23.7102 105.317 23.8282L107.239 24.938C107.401 25.0367 107.604 25.0402 107.769 24.9466C107.934 24.8529 108.036 24.6771 108.034 24.4873C108.032 24.2977 107.928 24.1235 107.761 24.0327L105.84 22.923C105.764 22.8782 105.679 22.853 105.592 22.8495Z" fill="#363D63"/>
<path fill-rule="evenodd" clip-rule="evenodd" d="M103.788 28.9129C103.597 28.9062 103.417 29.0043 103.32 29.1686C103.223 29.3329 103.223 29.5375 103.32 29.7018C103.417 29.8661 103.597 29.9642 103.788 29.9578H106.006C106.197 29.9642 106.377 29.8661 106.474 29.7018C106.571 29.5375 106.571 29.3329 106.474 29.1686C106.377 29.0043 106.197 28.9062 106.006 28.9129H103.788Z" fill="#363D63"/>
<path fill-rule="evenodd" clip-rule="evenodd" d="M125.96 34.0437C125.729 34.0578 125.534 34.2233 125.483 34.4496C125.431 34.6759 125.535 34.9093 125.738 35.0221L127.66 36.1312C127.822 36.2306 128.025 36.2341 128.191 36.1408C128.356 36.0472 128.458 35.871 128.456 35.6809C128.454 35.4907 128.349 35.3162 128.182 35.226L126.261 34.1169C126.17 34.0629 126.066 34.0373 125.96 34.0437Z" fill="#363D63"/>
<path fill-rule="evenodd" clip-rule="evenodd" d="M106.209 34.0427C106.109 34.0398 106.011 34.0657 105.925 34.1169L104.004 35.226C103.837 35.3164 103.732 35.4906 103.73 35.6805C103.729 35.8707 103.83 36.0465 103.996 36.1401C104.161 36.2335 104.364 36.2303 104.526 36.1312L106.448 35.0221C106.653 34.9079 106.757 34.6701 106.701 34.4416C106.645 34.2134 106.444 34.05 106.209 34.0427Z" fill="#363D63"/>
<path fill-rule="evenodd" clip-rule="evenodd" d="M208.221 15.1143V75.6812C208.221 80.5496 212.14 84.4689 217.009 84.4689H258.346C254.367 79.8515 249.394 76.0369 243.65 73.376C245.864 68.1806 247.006 62.5915 247.008 56.9442C247.008 45.8184 242.588 35.1483 234.721 27.2815C227.603 20.1632 218.19 15.8676 208.221 15.1143Z" fill="#7F90FF"/>
<path fill-rule="evenodd" clip-rule="evenodd" d="M213.697 13.5916V71.8996C213.697 76.1553 214.17 79.7297 219.656 79.7297H255.016C251.946 77.118 248.499 74.8927 244.731 73.1469C247.025 67.7639 248.208 61.9734 248.209 56.1221C248.209 44.5952 243.63 33.5403 235.48 25.3896C229.472 19.3817 221.886 15.3147 213.697 13.5916Z" fill="white"/>
<path fill-rule="evenodd" clip-rule="evenodd" d="M222.418 76.3173C222.231 76.3166 222.058 76.4164 221.965 76.5781C221.871 76.7401 221.871 76.9396 221.965 77.1013C222.058 77.2634 222.231 77.3628 222.418 77.3628H253.577C253.764 77.3628 253.937 77.2634 254.03 77.1013C254.124 76.9396 254.124 76.7401 254.03 76.5781C253.937 76.4164 253.764 76.3166 253.577 76.3173H222.418Z" fill="#363D63"/>
<path fill-rule="evenodd" clip-rule="evenodd" d="M204.907 107.41C204.376 107.41 203.894 107.831 203.894 108.386C203.894 108.419 203.897 108.451 203.903 108.484L205.034 114.431C205.08 114.678 205.296 114.856 205.547 114.856H210.156C210.397 114.856 210.607 114.691 210.664 114.457L212.112 108.509C212.194 108.171 212.024 107.845 211.824 107.672C211.623 107.5 211.383 107.41 211.113 107.41H204.907ZM204.962 108.456H211.05L209.745 113.811H205.98L204.962 108.456Z" fill="#363D63"/>
<path fill-rule="evenodd" clip-rule="evenodd" d="M209.646 100.64C209.646 101.927 209.134 103.161 208.224 104.071C207.314 104.981 206.08 105.493 204.793 105.493C202.113 105.493 199.94 103.32 199.94 100.64C199.94 97.96 202.113 95.7875 204.793 95.7875C206.08 95.7875 207.314 96.2986 208.224 97.2089C209.134 98.1189 209.646 99.3533 209.646 100.64Z" fill="#6767E5"/>
<path fill-rule="evenodd" clip-rule="evenodd" d="M219.271 98.1228C219.271 100.087 218.49 101.971 217.101 103.36C215.712 104.749 213.828 105.529 211.864 105.529C207.773 105.529 204.458 102.213 204.458 98.1228C204.458 94.0321 207.773 90.7162 211.864 90.7162C213.828 90.7162 215.712 91.4964 217.101 92.8855C218.49 94.2744 219.271 96.1583 219.271 98.1228Z" fill="#7F90FF"/>
<path fill-rule="evenodd" clip-rule="evenodd" d="M213.561 98.7422C213.443 98.7393 213.328 98.7761 213.234 98.8471C210.166 101.093 208.669 103.893 208.339 107.477C207.894 107.145 207.305 106.674 206.672 106.055C205.476 104.883 204.293 103.29 204.157 101.701C204.142 101.514 204.027 101.35 203.858 101.271C203.689 101.191 203.49 101.208 203.336 101.316C203.183 101.423 203.099 101.604 203.115 101.79C203.289 103.813 204.66 105.548 205.94 106.801C207.221 108.056 208.464 108.843 208.464 108.843C208.623 108.944 208.823 108.951 208.989 108.863C209.154 108.776 209.26 108.606 209.266 108.418C209.389 104.607 210.72 101.983 213.852 99.6906C214.035 99.5602 214.114 99.3268 214.048 99.1117C213.983 98.8966 213.786 98.7477 213.561 98.7422Z" fill="#363D63"/>
<path fill-rule="evenodd" clip-rule="evenodd" d="M203.057 106.915H212.964C213.27 106.915 213.517 107.161 213.517 107.468V108.906C213.517 109.212 213.27 109.458 212.964 109.458H203.057C202.751 109.458 202.504 109.212 202.504 108.906V107.468C202.504 107.161 202.751 106.915 203.057 106.915Z" fill="#00CCBB"/>
<path fill-rule="evenodd" clip-rule="evenodd" d="M189.257 113.811C189.071 113.81 188.898 113.91 188.804 114.072C188.71 114.234 188.71 114.433 188.804 114.595C188.898 114.757 189.071 114.857 189.257 114.856H226.928C227.115 114.857 227.288 114.757 227.381 114.595C227.475 114.433 227.475 114.234 227.381 114.072C227.288 113.91 227.115 113.81 226.928 113.811H189.257Z" fill="#363D63"/>
<path fill-rule="evenodd" clip-rule="evenodd" d="M217.301 15.3636C217.012 15.368 216.782 15.6052 216.786 15.8938V69.7472C216.78 69.9377 216.878 70.117 217.043 70.2142C217.207 70.3113 217.411 70.3113 217.575 70.2142C217.739 70.117 217.838 69.9377 217.831 69.7472V15.8938C217.833 15.7526 217.778 15.6167 217.678 15.5167C217.578 15.417 217.442 15.3617 217.301 15.3636Z" fill="#363D63"/>
<path fill-rule="evenodd" clip-rule="evenodd" d="M217.737 47.7279C217.55 47.7273 217.377 47.827 217.283 47.9887C217.189 48.1508 217.189 48.3506 217.283 48.5126C217.377 48.6743 217.55 48.7741 217.737 48.7734H251.99C252.178 48.7741 252.351 48.6743 252.445 48.5126C252.538 48.3506 252.538 48.1508 252.445 47.9887C252.351 47.827 252.178 47.7273 251.99 47.7279H217.737Z" fill="#363D63"/>
<path fill-rule="evenodd" clip-rule="evenodd" d="M239.091 27.4473C238.803 27.4518 238.572 27.689 238.576 27.9773V76.6302C238.576 76.8175 238.675 76.9907 238.837 77.0847C238.999 77.1783 239.199 77.1783 239.361 77.0847C239.523 76.9907 239.622 76.8175 239.622 76.6302V27.9773C239.624 27.836 239.569 27.6998 239.469 27.6001C239.369 27.5001 239.232 27.4451 239.091 27.4473Z" fill="#363D63"/>
<path fill-rule="evenodd" clip-rule="evenodd" d="M131.423 110.591C132.852 110.612 134.148 111.463 134.148 111.463L134.556 114.334H127.308C127.583 112.445 128.964 110.716 131.284 110.591C131.331 110.59 131.377 110.59 131.423 110.591Z" fill="#363D63"/>
<path fill-rule="evenodd" clip-rule="evenodd" d="M136.731 108.887C138.811 108.918 140.698 110.156 140.698 110.156L141.29 114.334H130.742C131.142 111.585 133.153 109.07 136.529 108.888C136.597 108.886 136.664 108.886 136.731 108.887Z" fill="#FEB8CA"/>
<path fill-rule="evenodd" clip-rule="evenodd" d="M140.698 110.155L141.3 114.403L144.42 114.334L143.85 109.135L140.698 110.155Z" fill="#363D63"/>
<path fill-rule="evenodd" clip-rule="evenodd" d="M114.749 113.811C114.562 113.81 114.389 113.91 114.295 114.072C114.202 114.234 114.202 114.433 114.295 114.595C114.389 114.757 114.562 114.857 114.749 114.856H152.419C152.606 114.857 152.779 114.757 152.872 114.595C152.966 114.433 152.966 114.234 152.872 114.072C152.779 113.91 152.606 113.81 152.419 113.811H114.749Z" fill="#363D63"/>
</svg>
