<svg width="296" height="190" viewBox="0 0 296 190" fill="none" xmlns="http://www.w3.org/2000/svg">
<path fill-rule="evenodd" clip-rule="evenodd" d="M166.847 19.0884C149.478 19.1019 133.87 28.7069 127.452 43.3328C119.003 40.255 110.086 38.6641 101.094 38.6309C80.4528 38.6309 60.6569 46.8309 46.0613 61.4269C20.2356 90.4909 21.4944 114.866 34.2881 145.555C22.9266 152.181 15.9322 164.336 15.9138 177.489C15.9191 178.618 15.975 179.747 16.0828 180.87H282.275C281.529 171.379 277.977 162.324 272.07 154.857C276.381 147.952 278.676 139.98 278.695 131.839C278.674 114.854 268.803 99.4228 253.391 92.2831C255.607 87.0813 256.751 81.4856 256.753 75.8313C256.753 64.6922 252.327 54.0094 244.451 46.1328C236.574 38.2559 225.891 33.8309 214.752 33.8309C210.379 33.8491 206.035 34.5484 201.878 35.9063C193.986 25.3984 180.873 19.1038 166.847 19.0884Z" fill="#E1E1FD"/>
<path fill-rule="evenodd" clip-rule="evenodd" d="M118.32 168.24C114.738 168.244 111.4 170.055 109.444 173.055C107.397 171.262 104.77 170.272 102.049 170.269C96.0909 170.271 91.169 174.922 90.8297 180.87H155.803C154.772 177.392 151.576 175.005 147.947 175.003C144.911 175.005 142.124 176.684 140.704 179.368C139.662 175.544 136.189 172.891 132.225 172.889C130.67 172.893 129.143 173.31 127.801 174.096C126.003 170.508 122.334 168.242 118.32 168.24Z" fill="#C3C3FC"/>
<path fill-rule="evenodd" clip-rule="evenodd" d="M48.0659 115.432C44.5522 115.432 42.0959 118.187 42.5594 121.61L47.0584 154.854C47.5219 158.276 50.7234 161.032 54.2375 161.032H86.1231C89.6372 161.032 92.0931 158.276 91.6297 154.854L91.5612 152.332H79.7328L75.3022 121.61C74.8387 118.187 71.6369 115.432 68.1234 115.432H48.0659Z" fill="white"/>
<path fill-rule="evenodd" clip-rule="evenodd" d="M42.5288 120.264C42.4891 120.698 42.4969 121.147 42.5594 121.61L47.0585 154.854C47.5219 158.276 50.7235 161.032 54.2375 161.032H75.1478L70.5728 127.231C70.0506 123.371 66.4403 120.264 62.4781 120.264H42.5288Z" fill="#00CCBB"/>
<path fill-rule="evenodd" clip-rule="evenodd" d="M48.0662 114.909C44.2784 114.909 41.5393 117.977 42.0403 121.681L46.5403 154.924C47.0412 158.627 50.4503 161.555 54.2378 161.555H86.1234C89.9109 161.555 92.6497 158.487 92.1481 154.783L92.0793 154.276C92.059 154.086 91.9378 153.923 91.7622 153.849C91.5865 153.775 91.3847 153.803 91.235 153.921C91.0856 154.038 91.0122 154.228 91.0425 154.416L91.1115 154.924C91.5365 158.066 89.3637 160.508 86.1234 160.508H54.2378C50.9975 160.508 48.0025 157.925 47.5768 154.783L43.0781 121.54C42.6525 118.398 44.8259 115.955 48.0662 115.955H55.4906C55.6822 115.961 55.8615 115.863 55.959 115.699C56.0565 115.534 56.0565 115.329 55.959 115.165C55.8615 115 55.6822 114.902 55.4906 114.909H48.0662Z" fill="#363D63"/>
<path fill-rule="evenodd" clip-rule="evenodd" d="M58.7628 142.553C59.5738 151.274 63.8059 152.374 67.2159 152.374H88.3169L98.4684 180.87H108.408L100.414 170.218L97.5197 149.135C96.5406 142.026 91.9038 142.537 89.4813 142.537H64.3025L58.7628 142.553Z" fill="#363D63"/>
<path fill-rule="evenodd" clip-rule="evenodd" d="M62.4468 142.552L66.9775 152.374H76.4497L72.5628 180.87H83.4278L79.0575 173.109L85.8831 150.763C84.9047 143.654 80.2675 142.537 77.8453 142.537H67.9859L62.4468 142.552Z" fill="#363D63"/>
<path fill-rule="evenodd" clip-rule="evenodd" d="M56.2025 151.852C56.0112 151.845 55.8319 151.943 55.735 152.108C55.6372 152.273 55.6372 152.477 55.735 152.641C55.8319 152.806 56.0112 152.904 56.2025 152.898H76.4497C76.6403 152.904 76.8194 152.806 76.9172 152.641C77.0147 152.477 77.0147 152.273 76.9172 152.108C76.8194 151.943 76.6403 151.845 76.4497 151.852H56.2025Z" fill="#363D63"/>
<path fill-rule="evenodd" clip-rule="evenodd" d="M54.3866 160.711C54.1578 160.723 53.9638 160.883 53.9075 161.106L48.5913 180.526C48.4106 181.2 49.4222 181.471 49.6028 180.797L54.9185 161.376C55.016 161.031 54.745 160.692 54.3866 160.711Z" fill="#363D63"/>
<path fill-rule="evenodd" clip-rule="evenodd" d="M69.8706 160.711C69.6419 160.723 69.4478 160.883 69.3915 161.106L64.0753 180.526C63.8944 181.2 64.9056 181.471 65.0865 180.797L70.4022 161.376C70.5 161.031 70.229 160.692 69.8706 160.711Z" fill="#363D63"/>
<path fill-rule="evenodd" clip-rule="evenodd" d="M65.219 160.71C64.8665 160.702 64.6078 161.037 64.7034 161.376L70.019 180.797C70.1996 181.471 71.2109 181.2 71.0303 180.526L65.7146 161.106C65.6575 160.877 65.454 160.715 65.219 160.71Z" fill="#363D63"/>
<path fill-rule="evenodd" clip-rule="evenodd" d="M85.5237 160.71C85.1715 160.702 84.9122 161.037 85.0084 161.376L90.324 180.797C90.4903 181.494 91.54 181.213 91.3347 180.526L86.019 161.106C85.9618 160.877 85.759 160.716 85.5237 160.71Z" fill="#363D63"/>
<path fill-rule="evenodd" clip-rule="evenodd" d="M73.6422 85.6378C73.6422 85.6378 59.124 86.8978 59.0272 87.4791C58.9303 88.0606 56.0847 115.797 56.0847 115.797L59.7056 116.648C59.7056 116.648 72.6734 117.558 74.3434 116.648H78.3906L80.9168 114.024C80.9165 114.024 79.949 91.7328 79.8522 91.1513C79.7553 90.5697 73.6422 85.6378 73.6422 85.6378Z" fill="#363D63"/>
<path fill-rule="evenodd" clip-rule="evenodd" d="M71.7384 79.5537C67.6053 79.5537 64.2778 82.8947 64.2778 87.0447V90.3816H62.119C58.929 90.3816 61.4528 95.8284 63.3925 95.8881H64.3878C64.5568 96.6478 64.3628 98.9978 64.8565 99.6672L65.0678 104.089L64.1721 109.484L73.0262 107.088L73.1971 104.469L72.2831 101.97C72.6762 102.022 73.2343 102.19 73.8734 102.321C73.8734 102.321 78.6487 99.3375 78.6487 95.8622C80.3565 95.3341 79.1928 92.4512 79.2 90.3819V87.0447C79.2 82.8947 75.8725 79.5537 71.7384 79.5537Z" fill="#FEB8CA"/>
<path fill-rule="evenodd" clip-rule="evenodd" d="M65.0678 104.088C55.9394 109.975 50.5284 120.846 52.5984 133.289H88.2772L98.5753 122.467L94.9353 119.853L84.4919 125.557C83.4253 120.277 82.2112 113.465 79.3331 108.963C78.175 107.232 76.1362 105.729 73.1978 104.469C71.9444 108.591 65.0684 108.63 65.0678 104.088Z" fill="#6767E5"/>
<path fill-rule="evenodd" clip-rule="evenodd" d="M71.2078 76.2103C65.2172 77.3 58.7056 80.5616 59.0119 87.8609C59.2519 88.8866 59.6528 89.4975 60.0631 89.8616L59.3781 91.1716L59.8678 98.4181L61.6794 97.4044L60.8244 104.15L59.1625 109.17C59.1625 109.17 61.0666 109.066 64.5634 108.824C67.3272 108.824 67.1841 102.533 67.1841 102.533V92.7281C67.1925 92.6184 67.1841 92.5428 67.1841 92.5428C67.1841 92.5428 71.3347 92.3244 73.4178 90.5316C74.405 89.6825 74.2034 88.6372 74.5328 87.1737C75.0928 85.26 79.1928 85.6881 79.1928 88.7987L78.9506 91.9666L78.6487 95.8622L79.5022 99.7887L80.3869 103.417L80.7584 90.9819C80.7741 90.9375 80.7875 90.8909 80.8003 90.8438C82.9378 83.3972 81.6634 82.0794 77.6325 80.4969C76.3275 79.9725 75.2144 75.99 71.2078 76.2103Z" fill="#363D63"/>
<path fill-rule="evenodd" clip-rule="evenodd" d="M68.614 100.011C68.3925 100.023 68.2019 100.174 68.1397 100.387C68.0775 100.6 68.1562 100.83 68.3369 100.959C70.5612 102.597 73.1165 103.334 73.1165 103.334C73.2959 103.387 73.49 103.34 73.6256 103.211C73.7609 103.081 73.8169 102.89 73.7725 102.707C73.7281 102.526 73.5897 102.382 73.41 102.329C73.41 102.329 70.9925 101.616 68.9572 100.117C68.8594 100.043 68.7375 100.005 68.614 100.011Z" fill="#363D63"/>
<path fill-rule="evenodd" clip-rule="evenodd" d="M76.4678 91.2925C76.3019 91.2887 76.1437 91.3641 76.0419 91.4953C75.9406 91.6269 75.9072 91.7987 75.9528 91.9584L76.7019 94.7553H75.2325C74.9434 94.7553 74.7094 94.9897 74.7094 95.2787C74.7094 95.5678 74.9434 95.8025 75.2325 95.8025H77.3834C77.5465 95.8025 77.7 95.7269 77.799 95.5975C77.8987 95.4684 77.9319 95.3006 77.8894 95.1431L76.9628 91.6872C76.9056 91.4594 76.7028 91.2981 76.4678 91.2925Z" fill="#363D63"/>
<path fill-rule="evenodd" clip-rule="evenodd" d="M78.1622 115.173C77.9781 115.182 77.8113 115.287 77.7247 115.45C77.6378 115.613 77.6431 115.809 77.7388 115.968C79.1666 118.398 79.6956 119.907 79.4203 121.478C79.145 123.05 77.9938 124.828 75.8175 127.612C75.7678 127.676 75.7341 127.75 75.7178 127.828L72.5169 143.197C72.4744 143.381 72.535 143.574 72.6759 143.702C72.8163 143.829 73.0147 143.87 73.1941 143.81C73.3738 143.749 73.5066 143.596 73.5413 143.41L76.72 128.149C78.8572 125.408 80.1206 123.545 80.4509 121.659C80.7859 119.746 80.1088 117.936 78.6416 115.438C78.5441 115.266 78.3588 115.164 78.1622 115.173Z" fill="#363D63"/>
<path fill-rule="evenodd" clip-rule="evenodd" d="M82.0137 127.837C79.9312 127.868 78.0422 129.107 78.0422 129.107L77.4493 133.29H88.0097C87.609 130.538 85.5959 128.02 82.2156 127.838C82.1478 127.838 82.0806 127.838 82.0137 127.837Z" fill="#FEB8CA"/>
<path fill-rule="evenodd" clip-rule="evenodd" d="M78.0422 129.107L77.4394 133.359L74.3159 133.29L74.7778 128.295L78.0422 129.107Z" fill="#363D63"/>
<path fill-rule="evenodd" clip-rule="evenodd" d="M62.6081 126.096C62.3356 126.097 62.1087 126.306 62.0869 126.578C62.065 126.85 62.2556 127.093 62.5247 127.137L76.1472 129.619C76.3325 129.655 76.5222 129.588 76.6447 129.445C76.7672 129.302 76.8034 129.104 76.739 128.927C76.6753 128.75 76.5206 128.621 76.335 128.589L62.7125 126.107C62.6781 126.1 62.6431 126.096 62.6081 126.096Z" fill="#363D63"/>
<path fill-rule="evenodd" clip-rule="evenodd" d="M97.3437 118.351L95.9625 111.715C97.424 111.436 97.9584 112.416 98.7006 114.134L101.332 109.404C103.517 111.124 105.244 114.546 103.714 117.566C102.68 119.463 100.8 120.616 100.8 120.616L97.3437 118.351Z" fill="#FEB8CA"/>
<path fill-rule="evenodd" clip-rule="evenodd" d="M100.8 120.616L97.3437 118.351L94.935 119.854L98.5747 122.468L100.8 120.616Z" fill="#363D63"/>
<path fill-rule="evenodd" clip-rule="evenodd" d="M99.1394 120.736C98.9856 120.73 98.8372 120.792 98.7331 120.906L87.4259 132.932C87.2972 133.068 87.2509 133.262 87.3047 133.442C87.3584 133.622 87.5044 133.759 87.6869 133.801C87.8694 133.844 88.0606 133.786 88.1884 133.649L99.4953 121.623C99.6394 121.474 99.6822 121.256 99.605 121.064C99.5281 120.872 99.3456 120.744 99.1394 120.736Z" fill="#363D63"/>
<path fill-rule="evenodd" clip-rule="evenodd" d="M261.538 115.432C265.052 115.432 267.508 118.187 267.045 121.61L262.546 154.854C262.082 158.276 258.881 161.032 255.367 161.032H223.481C219.967 161.032 217.511 158.276 217.974 154.854L218.043 152.332H229.872L234.302 121.61C234.765 118.187 237.967 115.432 241.481 115.432H261.538Z" fill="white"/>
<path fill-rule="evenodd" clip-rule="evenodd" d="M267.076 120.264C267.115 120.698 267.108 121.147 267.045 121.61L262.546 154.854C262.082 158.276 258.881 161.032 255.367 161.032H234.457L239.032 127.231C239.554 123.371 243.164 120.264 247.127 120.264H267.076Z" fill="#00CCBB"/>
<path fill-rule="evenodd" clip-rule="evenodd" d="M261.538 114.909C265.326 114.909 268.065 117.977 267.564 121.681L263.064 154.924C262.563 158.627 259.154 161.555 255.367 161.555H223.481C219.693 161.555 216.955 158.487 217.456 154.783L217.525 154.276C217.545 154.086 217.667 153.923 217.842 153.849C218.018 153.775 218.22 153.803 218.369 153.921C218.519 154.038 218.592 154.228 218.562 154.416L218.493 154.924C218.067 158.066 220.241 160.508 223.481 160.508H255.367C258.607 160.508 261.602 157.925 262.027 154.783L266.526 121.54C266.951 118.398 264.778 115.955 261.538 115.955H254.113C253.922 115.961 253.743 115.863 253.645 115.699C253.547 115.534 253.547 115.329 253.645 115.165C253.743 115 253.922 114.902 254.113 114.909H261.538Z" fill="#363D63"/>
<path fill-rule="evenodd" clip-rule="evenodd" d="M235.685 95.3016L230.41 100.007C230.41 100.008 229.001 100.577 227.053 101.512C226.28 101.883 225.447 102.296 224.552 102.773C221.377 104.23 220.346 105.846 219.777 108.941L219.026 113.037L203.311 100.493L199.731 102.866C199.731 102.866 212.087 119.841 215.223 123.291C218.359 126.74 223.083 123.666 223.083 123.666L226.503 120.514L227.053 121.065V140.769H251.259V133.057C251.259 133.057 258.052 131.255 260.822 129.269C263.592 127.283 263.017 123.206 263.017 123.206C263.017 123.206 260.719 113.331 259.987 110.508C259.256 107.686 257.531 106.275 257.531 106.275L248.713 99.9131L243.364 95.2997V96.6322L239.866 100.13H237.705L235.685 96.6322V95.3016Z" fill="#6767E5"/>
<path fill-rule="evenodd" clip-rule="evenodd" d="M235.685 94.2669V96.6344L237.705 100.133H239.866L243.364 96.6344V89.9941C243.364 89.9941 243.188 90.2022 242.848 90.5294C242.678 90.6925 242.467 90.8856 242.216 91.0972C241.965 91.3091 241.675 91.5391 241.347 91.7769C241.019 92.0144 240.653 92.2594 240.25 92.5003C239.848 92.7416 239.409 92.9788 238.935 93.2013C238.461 93.4238 237.952 93.631 237.41 93.8122C237.139 93.9031 236.86 93.9872 236.572 94.0635C236.284 94.1394 235.988 94.2078 235.685 94.2669Z" fill="#FEB8CA"/>
<path fill-rule="evenodd" clip-rule="evenodd" d="M234.665 94.3697C234.974 94.3697 235.278 94.3562 235.575 94.3337C235.872 94.3119 236.162 94.2806 236.445 94.2419C237.011 94.1634 237.549 94.0537 238.056 93.9228C238.563 93.7916 239.038 93.6394 239.478 93.4769C239.918 93.3141 240.323 93.1409 240.69 92.9681C241.057 92.7953 241.384 92.6225 241.669 92.4606C241.955 92.2991 242.198 92.1484 242.395 92.0191C242.79 91.7609 243.002 91.5884 243.002 91.5884C243.611 91.0216 244.097 90.3781 244.404 89.6625L246.634 90.0816C248.133 90.3631 249.566 89.3834 249.848 87.8841C250.129 86.385 249.15 84.9512 247.651 84.6697L245.529 84.2709L246.146 80.9916C246.912 76.9128 244.259 73.015 240.197 72.2519C236.134 71.4884 232.247 74.1572 231.481 78.2362L230.865 81.5159C229.368 81.2381 227.938 82.2175 227.657 83.7144C227.375 85.2134 228.354 86.6472 229.854 86.9287L229.865 86.9347C229.321 90.5766 229.787 93.5378 233.521 94.2394C233.886 94.3078 234.269 94.3519 234.665 94.3697Z" fill="#FEB8CA"/>
<path fill-rule="evenodd" clip-rule="evenodd" d="M241.677 68.2191C235.115 66.5587 229.399 71.5703 226.297 70.0337C223.195 68.4969 225.057 73.4522 226.079 75.5412C226.41 76.3566 227.823 78.1925 228.021 79.2325C228.571 82.1219 227.766 84.4697 229.945 84.7456C230.055 84.7509 230.165 84.7509 230.274 84.7387L231.123 80.1853H231.117L231.397 78.7019C231.397 78.7019 231.797 78.7447 233.034 78.9775L242.46 80.7484C242.46 80.7484 243.922 80.89 243.995 81.9141C244.003 82.0216 244.001 82.11 243.984 82.185L243.153 86.4244C243.53 86.7078 243.982 86.8734 244.453 86.9016C245.777 86.9778 246.912 85.9669 246.989 84.6431C246.994 84.5741 246.994 84.5047 246.989 84.4359C246.989 84.4359 249.723 79.6819 250.047 77.3819C250.37 75.0822 248.32 73.8931 248.32 73.8931C248.842 70.9806 246.097 69.3453 241.677 68.2191Z" fill="#363D63"/>
<path fill-rule="evenodd" clip-rule="evenodd" d="M203.311 100.493L204.974 94.4141C203.539 94.0222 202.929 94.9578 202.056 96.6128L199.801 91.6919C197.488 93.2372 195.501 96.5141 196.791 99.6441C197.673 101.617 199.731 102.866 199.731 102.866L203.311 100.493Z" fill="#FEB8CA"/>
<path fill-rule="evenodd" clip-rule="evenodd" d="M225.796 110.602C225.612 110.609 225.445 110.713 225.357 110.875C225.269 111.037 225.273 111.234 225.367 111.393L226.445 113.26V135.285C226.445 135.472 226.544 135.646 226.707 135.739C226.869 135.833 227.069 135.833 227.231 135.739C227.393 135.646 227.493 135.472 227.492 135.285V113.12C227.492 113.028 227.468 112.938 227.422 112.858L226.274 110.869C226.177 110.697 225.993 110.594 225.796 110.602Z" fill="#363D63"/>
<path fill-rule="evenodd" clip-rule="evenodd" d="M240.748 101.192C240.554 101.193 240.375 101.3 240.285 101.472C240.195 101.644 240.207 101.852 240.317 102.012L243.505 106.796C243.599 106.939 243.758 107.026 243.929 107.029C244.101 107.033 244.263 106.952 244.364 106.814L247.671 102.246C247.788 102.095 247.813 101.893 247.737 101.718C247.661 101.543 247.495 101.423 247.305 101.405C247.116 101.388 246.931 101.475 246.824 101.633L243.958 105.59L241.188 101.432C241.092 101.282 240.926 101.192 240.748 101.192Z" fill="#363D63"/>
<path fill-rule="evenodd" clip-rule="evenodd" d="M230.386 99.4784C230.201 99.4856 230.034 99.5894 229.946 99.7519C229.858 99.9141 229.862 100.111 229.957 100.27L233.717 106.769C233.808 106.925 233.973 107.024 234.154 107.03C234.334 107.035 234.505 106.947 234.606 106.797L237.792 102.012C237.902 101.856 237.918 101.653 237.835 101.483C237.752 101.311 237.583 101.198 237.393 101.188C237.203 101.177 237.022 101.271 236.921 101.432L234.201 105.516L230.863 99.7456C230.767 99.5741 230.582 99.4706 230.386 99.4784Z" fill="#363D63"/>
<path fill-rule="evenodd" clip-rule="evenodd" d="M237.357 101.198C237.17 101.198 236.997 101.298 236.903 101.46C236.81 101.622 236.81 101.821 236.903 101.983C236.997 102.145 237.17 102.245 237.357 102.245H240.753C240.94 102.245 241.113 102.145 241.207 101.983C241.301 101.821 241.301 101.622 241.207 101.46C241.113 101.298 240.94 101.198 240.753 101.198H237.357Z" fill="#363D63"/>
<path fill-rule="evenodd" clip-rule="evenodd" d="M231.042 92.5772C230.82 92.5716 230.618 92.7069 230.54 92.915C230.461 93.1231 230.522 93.3581 230.692 93.5013C230.692 93.5013 231.578 94.3003 232.697 94.5738C233.685 94.8153 234.613 94.8903 234.618 94.8906C234.623 94.8906 237.062 95.1331 239.586 93.9178C239.755 93.8375 239.869 93.6725 239.883 93.4853C239.898 93.2981 239.811 93.1178 239.656 93.0122C239.501 92.9066 239.301 92.8922 239.132 92.9744C236.893 94.0531 234.716 93.8491 234.716 93.8491C234.713 93.8491 234.711 93.8491 234.708 93.8491C234.707 93.8491 233.836 93.7763 232.946 93.5588C232.183 93.3722 231.376 92.7094 231.376 92.7094C231.283 92.6278 231.165 92.5813 231.042 92.5772Z" fill="#363D63"/>
<path fill-rule="evenodd" clip-rule="evenodd" d="M232.678 82.8C232.408 82.8019 232.184 83.0091 232.16 83.2781C232.137 83.5475 232.323 83.79 232.588 83.8381L234.03 84.1097C234.216 84.1497 234.41 84.0859 234.535 83.9425C234.661 83.7994 234.698 83.5991 234.633 83.4197C234.568 83.2406 234.411 83.1109 234.223 83.0812L232.781 82.81C232.747 82.8034 232.713 82.8 232.678 82.8Z" fill="#363D63"/>
<path fill-rule="evenodd" clip-rule="evenodd" d="M250.749 112.606C250.583 112.602 250.425 112.677 250.323 112.808C250.222 112.939 250.188 113.111 250.233 113.271L252.322 121.065L250.701 122.175C250.543 122.28 250.454 122.461 250.468 122.649C250.481 122.837 250.595 123.004 250.766 123.085C250.937 123.165 251.137 123.148 251.292 123.039L253.218 121.72C253.402 121.594 253.486 121.367 253.429 121.152L251.245 113.001C251.187 112.773 250.985 112.611 250.749 112.606Z" fill="#363D63"/>
<path fill-rule="evenodd" clip-rule="evenodd" d="M255.236 142.553C254.425 151.274 250.193 152.374 246.783 152.374H221.288L211.136 180.87H200.271L206.184 173.109L208.616 149.135C209.595 142.026 214.232 142.537 216.654 142.537H249.696L255.236 142.553Z" fill="#363D63"/>
<path fill-rule="evenodd" clip-rule="evenodd" d="M251.552 142.552L247.022 152.374H236.393L237.042 180.87H226.177L230.547 173.109L223.721 150.764C224.7 143.654 229.337 142.537 231.759 142.537H246.013L251.552 142.552Z" fill="#363D63"/>
<path fill-rule="evenodd" clip-rule="evenodd" d="M236.393 151.852C236.202 151.845 236.023 151.943 235.925 152.108C235.828 152.273 235.828 152.477 235.925 152.641C236.023 152.806 236.202 152.904 236.393 152.898H256.64C256.831 152.904 257.01 152.806 257.108 152.641C257.205 152.477 257.205 152.273 257.108 152.108C257.01 151.943 256.831 151.845 256.64 151.852H236.393Z" fill="#363D63"/>
<path fill-rule="evenodd" clip-rule="evenodd" d="M255.2 160.711C254.848 160.703 254.59 161.039 254.687 161.378L260.002 180.603C260.184 181.277 261.195 181.004 261.013 180.33L255.697 161.104C255.638 160.877 255.435 160.716 255.2 160.711Z" fill="#363D63"/>
<path fill-rule="evenodd" clip-rule="evenodd" d="M239.716 160.711C239.365 160.703 239.106 161.039 239.203 161.378L244.518 180.603C244.7 181.277 245.711 181.004 245.529 180.33L240.213 161.104C240.155 160.876 239.952 160.715 239.716 160.711Z" fill="#363D63"/>
<path fill-rule="evenodd" clip-rule="evenodd" d="M244.371 160.711C244.142 160.722 243.947 160.882 243.89 161.104L238.574 180.33C238.392 181.004 239.402 181.277 239.585 180.603L244.901 161.378C244.999 161.032 244.729 160.692 244.371 160.711Z" fill="#363D63"/>
<path fill-rule="evenodd" clip-rule="evenodd" d="M224.066 160.502C223.838 160.513 223.643 160.673 223.586 160.895L218.27 180.539C218.214 180.722 218.262 180.921 218.396 181.058C218.529 181.195 218.726 181.248 218.911 181.197C219.094 181.146 219.236 180.999 219.28 180.813L224.596 161.169C224.643 161.006 224.608 160.831 224.503 160.699C224.398 160.566 224.235 160.493 224.066 160.502Z" fill="#363D63"/>
<path fill-rule="evenodd" clip-rule="evenodd" d="M234.147 83.0656C233.937 83.0587 233.743 83.1781 233.655 83.3684L231.783 87.2681C231.712 87.4147 231.715 87.5856 231.788 87.7309C231.861 87.8759 231.998 87.9784 232.158 88.0087L233.971 88.3497C234.156 88.385 234.344 88.3191 234.467 88.1769C234.589 88.0347 234.626 87.8378 234.564 87.6609C234.501 87.4841 234.349 87.3544 234.164 87.3206L233.022 87.1056L234.598 83.8212C234.677 83.6619 234.67 83.4734 234.578 83.3206C234.487 83.1678 234.324 83.0716 234.147 83.0656Z" fill="#363D63"/>
<path fill-rule="evenodd" clip-rule="evenodd" d="M236.343 127.472C238.426 127.503 240.315 128.742 240.315 128.742L240.908 132.925H230.348C230.748 130.172 232.761 127.654 236.142 127.472C236.209 127.472 236.277 127.472 236.343 127.472Z" fill="#FEB8CA"/>
<path fill-rule="evenodd" clip-rule="evenodd" d="M240.315 128.742L240.918 132.994L244.042 132.925L243.471 127.72L240.315 128.742Z" fill="#363D63"/>
<path fill-rule="evenodd" clip-rule="evenodd" d="M35.3181 142.437H270.237V139.614H35.3181V142.437Z" fill="white"/>
<path fill-rule="evenodd" clip-rule="evenodd" d="M36.8494 132.925C36.0009 132.925 35.3181 133.608 35.3181 134.456V139.614H270.237V134.456C270.237 133.608 269.554 132.925 268.705 132.925H36.8494Z" fill="#00CCBB"/>
<path fill-rule="evenodd" clip-rule="evenodd" d="M101.436 141.913C101.249 141.913 101.077 142.013 100.983 142.175C100.889 142.337 100.889 142.537 100.983 142.698C101.077 142.861 101.249 142.96 101.436 142.96H191.424C191.611 142.96 191.784 142.861 191.877 142.698C191.972 142.537 191.972 142.337 191.877 142.175C191.784 142.013 191.611 141.913 191.424 141.913H101.436Z" fill="#363D63"/>
<path fill-rule="evenodd" clip-rule="evenodd" d="M35.3178 141.913C34.6197 141.913 34.6197 142.96 35.3178 142.96H272.047C272.745 142.96 272.745 141.913 272.047 141.913H35.3178Z" fill="#363D63"/>
<path fill-rule="evenodd" clip-rule="evenodd" d="M270.246 142.116C269.894 142.107 269.636 142.443 269.732 142.782L280.042 180.703C280.225 181.377 281.234 181.105 281.053 180.431L270.742 142.511C270.684 142.282 270.482 142.121 270.246 142.116Z" fill="#363D63"/>
<path fill-rule="evenodd" clip-rule="evenodd" d="M258.76 141.906C258.408 141.898 258.149 142.233 258.245 142.572L268.556 180.703C268.727 181.394 269.765 181.115 269.566 180.431L259.257 142.301C259.199 142.073 258.996 141.912 258.76 141.906Z" fill="#363D63"/>
<path fill-rule="evenodd" clip-rule="evenodd" d="M39.0709 141.907C38.8422 141.919 38.6478 142.079 38.5912 142.301L28.2806 180.641C28.2268 180.823 28.2765 181.02 28.4093 181.155C28.5425 181.291 28.7387 181.344 28.9218 181.293C29.105 181.243 29.2462 181.097 29.2915 180.912L39.6022 142.572C39.6478 142.41 39.6128 142.235 39.5075 142.103C39.4022 141.972 39.24 141.898 39.0709 141.907Z" fill="#363D63"/>
<path fill-rule="evenodd" clip-rule="evenodd" d="M50.5568 141.907C50.3278 141.919 50.1334 142.079 50.0768 142.301L39.7665 180.641C39.7147 180.822 39.7647 181.017 39.8975 181.152C40.0303 181.287 40.2253 181.338 40.4072 181.289C40.5897 181.239 40.7306 181.095 40.7768 180.912L51.0878 142.572C51.1334 142.41 51.0984 142.235 50.9931 142.103C50.8878 141.972 50.7253 141.898 50.5568 141.907Z" fill="#363D63"/>
<path fill-rule="evenodd" clip-rule="evenodd" d="M54.504 132.402C54.3128 132.395 54.1331 132.493 54.0353 132.658C53.9375 132.822 53.9375 133.027 54.0353 133.192C54.1331 133.356 54.3128 133.455 54.504 133.447H136.597C136.789 133.455 136.968 133.356 137.067 133.192C137.164 133.027 137.164 132.822 137.067 132.658C136.968 132.493 136.789 132.395 136.597 132.402H54.504Z" fill="#363D63"/>
<path fill-rule="evenodd" clip-rule="evenodd" d="M160.772 127.472C158.69 127.503 156.801 128.742 156.801 128.742L156.208 132.925H166.768C166.367 130.172 164.354 127.654 160.974 127.472C160.907 127.472 160.839 127.467 160.772 127.472Z" fill="#FEB8CA"/>
<path fill-rule="evenodd" clip-rule="evenodd" d="M136.094 92.5844C135.947 92.5828 135.805 92.6441 135.705 92.7525C135.605 92.8613 135.555 93.0066 135.568 93.1538L135.784 96.0416L134.341 95.7681C134.155 95.73 133.964 95.7947 133.84 95.9372C133.716 96.0797 133.679 96.2781 133.742 96.4563C133.805 96.6344 133.96 96.7644 134.146 96.7966L136.259 97.1966C136.419 97.2272 136.584 97.1816 136.705 97.0731C136.827 96.9647 136.891 96.8059 136.879 96.6434L136.612 93.0756C136.595 92.8016 136.369 92.5869 136.094 92.5844Z" fill="#363D63"/>
<path fill-rule="evenodd" clip-rule="evenodd" d="M132.116 80.6938C132.529 80.4166 132.474 80.1966 131.548 80.0209C129.982 79.7241 130.702 80.0094 132.116 80.6938Z" fill="#FEB8CA"/>
<path fill-rule="evenodd" clip-rule="evenodd" d="M121.356 98.8535L119.281 103.51H127.815L128.41 101.304C128.41 101.304 128.272 101.232 127.988 101.105C127.706 100.978 127.278 100.794 126.699 100.57C126.119 100.346 125.389 100.08 124.5 99.7891C123.612 99.4981 122.567 99.1813 121.356 98.8535Z" fill="#FEB8CA"/>
<path fill-rule="evenodd" clip-rule="evenodd" d="M120.149 98.0428C121.277 98.59 122.246 99.0959 123.064 99.5472C123.883 99.9984 124.551 100.395 125.079 100.723C125.606 101.052 125.992 101.312 126.246 101.489C126.501 101.667 126.623 101.763 126.623 101.763C127 101.887 129.389 102.857 129.754 102.926C133.487 103.633 134.999 101.045 135.82 97.4553L136.862 92.0484L137.931 86.4075C138.406 83.9025 134.368 81.7841 132.116 80.6938C130.716 81.6319 123.687 83.26 124.603 86.3297L125.676 89.9294L123.555 89.5275C122.056 89.2438 120.622 90.2219 120.338 91.7206C120.054 93.2191 121.032 94.6538 122.53 94.9378L124.76 95.36C124.784 96.1381 124.485 97.1816 123.669 97.3434L120.149 98.0428Z" fill="#FEB8CA"/>
<path fill-rule="evenodd" clip-rule="evenodd" d="M131.773 74.0291C133.471 74.3556 137.952 75.2487 139.349 75.6309C143.819 76.8541 143.673 74.4075 144.07 75.6862C144.467 76.965 145.041 80.0762 144.425 83.7209C143.81 87.3656 139.467 87.6769 139.467 87.6769C139.467 87.6769 138.794 92.2919 136.659 93.1053L136.863 92.0487L137.753 87.3522L135.436 86.9131C135.436 86.9131 132.562 85.8175 132.054 88.5022C131.545 91.1872 129.152 92.5247 127.792 93.4519C126.432 94.3791 125.977 93.1084 125.977 93.1084L126.548 90.0944L123.555 89.5275C122.057 89.2437 120.622 90.2216 120.338 91.7203C120.054 93.2191 121.032 94.6537 122.531 94.9378L124.545 95.3194C124.612 95.3366 124.683 95.35 124.76 95.36C125.403 98.9216 125.955 100.341 122.2 99.6516C115.527 97.2669 116.121 91.2275 117.595 83.4444C117.267 82.1753 117.16 80.9594 117.573 80.1569C118.823 77.7234 120.937 78.8762 121.46 76.1166C121.983 73.3572 124.383 72.7959 124.383 72.7959C124.383 72.7959 128.037 73.3106 131.773 74.0291Z" fill="#363D63"/>
<path fill-rule="evenodd" clip-rule="evenodd" d="M127.815 103.51L130.071 106.593L135.517 109.908C138.895 111.936 140.247 114.03 141.156 117.164L142.946 122.668L153.645 127.72L153.074 132.925H149.75C145.681 132.883 138.348 133.138 136.982 129.668L138.643 141.888H112.7C112.7 141.888 105.188 140.692 102.87 138.044C100.552 135.396 101.022 136.011 101.022 136.011L103.461 118.716C103.461 118.716 103.904 114.724 107.6 111.768C111.296 108.812 117.32 106.298 117.32 106.298L119.281 103.51H127.815Z" fill="#7F90FF"/>
<path fill-rule="evenodd" clip-rule="evenodd" d="M120.202 106.069C120.01 106.063 119.831 106.161 119.733 106.326C119.636 106.49 119.636 106.695 119.733 106.859C119.831 107.024 120.01 107.122 120.202 107.116H127.742C127.933 107.122 128.113 107.024 128.21 106.859C128.308 106.695 128.308 106.49 128.21 106.326C128.113 106.161 127.933 106.063 127.742 106.069H120.202Z" fill="#363D63"/>
<path fill-rule="evenodd" clip-rule="evenodd" d="M156.801 128.742L156.197 132.994L153.074 132.925L153.645 127.72L156.801 128.742Z" fill="#363D63"/>
<path fill-rule="evenodd" clip-rule="evenodd" d="M132.093 142.452L134.463 154.346H146.292L156.443 180.87H167.308L161.395 173.109L157.952 149.034C156.973 141.925 152.337 142.437 149.914 142.437H137.632L132.093 142.452Z" fill="#363D63"/>
<path fill-rule="evenodd" clip-rule="evenodd" d="M116.927 146.152L118.287 154.346H130.115L129.467 180.87H140.332L135.961 173.109L142.787 152.735C141.808 145.626 137.171 146.137 134.749 146.137H122.467L116.927 146.152Z" fill="#363D63"/>
<path fill-rule="evenodd" clip-rule="evenodd" d="M102.797 115.432C99.2825 115.432 96.8265 118.187 97.2897 121.61L101.789 154.853C102.252 158.276 105.454 161.032 108.968 161.032H140.854C144.367 161.032 146.823 158.276 146.361 154.853L146.292 154.346H134.463L130.032 121.61C129.57 118.187 126.367 115.432 122.853 115.432H102.797Z" fill="white"/>
<path fill-rule="evenodd" clip-rule="evenodd" d="M97.259 120.264C97.2194 120.697 97.2272 121.147 97.2897 121.61L101.789 154.853C102.252 158.276 105.454 161.032 108.968 161.032H129.878L125.303 127.23C124.781 123.371 121.171 120.264 117.208 120.264H97.259Z" fill="#6767E5"/>
<path fill-rule="evenodd" clip-rule="evenodd" d="M102.797 114.908C99.0088 114.908 96.2703 117.977 96.7713 121.68L101.27 154.923C101.771 158.627 105.181 161.555 108.968 161.555H140.854C144.641 161.555 147.38 158.486 146.878 154.783L146.81 154.276C146.786 154.09 146.665 153.931 146.491 153.86C146.317 153.788 146.119 153.815 145.971 153.93C145.823 154.045 145.747 154.23 145.773 154.416L145.842 154.923C146.267 158.066 144.094 160.508 140.854 160.508H108.968C105.728 160.508 102.733 157.925 102.307 154.783L97.8084 121.539C97.3831 118.397 99.5556 115.955 102.797 115.955H110.221C110.41 115.957 110.585 115.858 110.68 115.695C110.775 115.532 110.775 115.331 110.68 115.168C110.585 115.005 110.41 114.906 110.221 114.908H102.797Z" fill="#363D63"/>
<path fill-rule="evenodd" clip-rule="evenodd" d="M108.761 160.711C108.532 160.723 108.337 160.883 108.28 161.105L102.965 180.447C102.767 181.13 103.804 181.409 103.975 180.718L109.292 161.377C109.39 161.032 109.119 160.692 108.761 160.711Z" fill="#363D63"/>
<path fill-rule="evenodd" clip-rule="evenodd" d="M129.247 160.711C129.018 160.723 128.823 160.883 128.767 161.105L123.451 180.447C123.269 181.121 124.28 181.393 124.462 180.718L129.777 161.377C129.876 161.032 129.605 160.692 129.247 160.711Z" fill="#363D63"/>
<path fill-rule="evenodd" clip-rule="evenodd" d="M115.723 160.71C115.371 160.702 115.111 161.038 115.207 161.377L120.524 180.718C120.695 181.409 121.733 181.13 121.534 180.447L116.219 161.105C116.161 160.877 115.958 160.715 115.723 160.71Z" fill="#363D63"/>
<path fill-rule="evenodd" clip-rule="evenodd" d="M140.452 160.501C140.1 160.493 139.84 160.828 139.937 161.168L145.252 180.718C145.424 181.409 146.461 181.13 146.263 180.447L140.947 160.896C140.89 160.668 140.687 160.506 140.452 160.501Z" fill="#363D63"/>
<path fill-rule="evenodd" clip-rule="evenodd" d="M184.172 162.2C184.172 164.93 185.257 167.548 187.187 169.478C189.117 171.408 191.735 172.492 194.464 172.492C197.194 172.492 199.811 171.408 201.741 169.478C203.671 167.548 204.756 164.93 204.756 162.2C204.756 159.471 203.671 156.853 201.741 154.923C199.811 152.993 197.194 151.909 194.464 151.909C191.735 151.909 189.117 152.993 187.187 154.923C185.257 156.853 184.172 159.471 184.172 162.2Z" fill="#7F90FF"/>
<path fill-rule="evenodd" clip-rule="evenodd" d="M191.6 162.2C191.6 164.93 190.516 167.548 188.587 169.478C186.656 171.408 184.039 172.492 181.309 172.492C178.58 172.492 175.962 171.408 174.032 169.478C172.102 167.548 171.017 164.93 171.017 162.2C171.017 159.471 172.102 156.853 174.032 154.923C175.962 152.993 178.58 151.909 181.309 151.909C184.039 151.909 186.656 152.993 188.587 154.923C190.516 156.853 191.6 159.471 191.6 162.2Z" fill="#6767E5"/>
<path fill-rule="evenodd" clip-rule="evenodd" d="M178.389 159.795C178.127 159.792 177.903 159.982 177.864 160.242C177.826 160.501 177.985 160.748 178.237 160.821C178.237 160.821 179.29 161.13 180.419 162.432C181.548 163.733 182.716 166.014 182.716 170.018C182.716 170.307 182.95 170.542 183.239 170.542C183.528 170.542 183.762 170.307 183.762 170.018C183.762 165.808 182.505 163.24 181.21 161.747C179.915 160.253 178.543 159.82 178.543 159.82C178.493 159.804 178.441 159.795 178.389 159.795Z" fill="#363D63"/>
<path fill-rule="evenodd" clip-rule="evenodd" d="M197.369 159.795C197.322 159.797 197.276 159.805 197.231 159.819C197.231 159.819 195.859 160.253 194.564 161.746C193.268 163.24 192.012 165.808 192.012 170.018C192.005 170.209 192.103 170.388 192.268 170.486C192.432 170.584 192.637 170.584 192.802 170.486C192.966 170.388 193.064 170.209 193.058 170.018C193.058 166.014 194.226 163.733 195.355 162.431C196.484 161.129 197.537 160.821 197.537 160.821C197.792 160.748 197.952 160.495 197.909 160.233C197.867 159.971 197.634 159.783 197.369 159.795Z" fill="#363D63"/>
<path fill-rule="evenodd" clip-rule="evenodd" d="M184.513 162.957C184.341 162.954 184.177 163.037 184.078 163.178L182.47 165.38C182.357 165.531 182.334 165.731 182.41 165.903C182.485 166.076 182.648 166.194 182.835 166.214C183.022 166.234 183.206 166.151 183.315 165.997L184.923 163.795C185.042 163.638 185.062 163.427 184.975 163.251C184.889 163.074 184.711 162.96 184.513 162.957Z" fill="#363D63"/>
<path fill-rule="evenodd" clip-rule="evenodd" d="M205.542 169.897C205.542 175.581 210.15 180.189 215.834 180.189C218.564 180.189 221.182 179.104 223.112 177.174C225.042 175.244 226.126 172.627 226.126 169.897C226.126 167.168 225.042 164.55 223.112 162.62C221.182 160.69 218.564 159.606 215.834 159.606C210.15 159.606 205.542 164.213 205.542 169.897Z" fill="#B7D0F9"/>
<path fill-rule="evenodd" clip-rule="evenodd" d="M219.776 173.941C220.734 174.899 222.471 174.999 224.604 174.22C226.739 173.441 229.096 171.845 231.155 169.785C233.216 167.725 234.812 165.368 235.591 163.234C236.37 161.1 236.27 159.362 235.312 158.405C234.354 157.447 232.617 157.347 230.483 158.126C228.348 158.905 225.992 160.501 223.932 162.561C221.872 164.621 220.276 166.977 219.497 169.112C218.718 171.246 218.818 172.983 219.776 173.941Z" fill="#7F90FF"/>
<path fill-rule="evenodd" clip-rule="evenodd" d="M223.583 172.396C221.092 173.72 216.764 170.451 213.916 165.094C211.067 159.736 210.778 154.32 213.268 152.996C215.759 151.671 220.088 154.941 222.936 160.298C225.784 165.655 226.074 171.072 223.583 172.396Z" fill="#6767E5"/>
<path fill-rule="evenodd" clip-rule="evenodd" d="M216.237 157.457C216.043 157.465 215.87 157.58 215.787 157.756C215.704 157.931 215.725 158.138 215.841 158.293C215.84 158.293 219.495 163.329 221.638 170.864C221.687 171.047 221.83 171.19 222.013 171.238C222.197 171.285 222.391 171.23 222.522 171.093C222.653 170.956 222.7 170.759 222.645 170.578C220.45 162.859 216.687 157.679 216.687 157.679C216.585 157.533 216.415 157.449 216.237 157.457Z" fill="#363D63"/>
<path fill-rule="evenodd" clip-rule="evenodd" d="M230.032 163.589C229.896 163.596 229.768 163.655 229.676 163.755C229.676 163.755 225.238 168.37 222.004 175.714C221.929 175.886 221.951 176.084 222.061 176.235C222.172 176.386 222.354 176.466 222.54 176.446C222.726 176.426 222.888 176.308 222.963 176.136C226.119 168.966 230.43 164.479 230.43 164.479C230.581 164.326 230.623 164.095 230.535 163.898C230.447 163.702 230.247 163.579 230.032 163.589Z" fill="#363D63"/>
<path fill-rule="evenodd" clip-rule="evenodd" d="M169.054 168.588C167.742 168.588 166.642 169.645 166.686 170.956V173.919H238.863V170.956C238.863 169.645 237.808 168.588 236.496 168.588H169.054Z" fill="white"/>
<path fill-rule="evenodd" clip-rule="evenodd" d="M166.686 180.871H238.864V173.919H166.686V180.871Z" fill="#00CCBB"/>
<path fill-rule="evenodd" clip-rule="evenodd" d="M166.686 173.396C166.499 173.396 166.327 173.496 166.233 173.658C166.14 173.82 166.14 174.019 166.233 174.181C166.327 174.343 166.499 174.443 166.686 174.443H238.341V180.87C238.334 181.062 238.432 181.241 238.597 181.338C238.761 181.436 238.966 181.436 239.131 181.338C239.295 181.241 239.393 181.062 239.387 180.87V173.92C239.387 173.781 239.332 173.648 239.233 173.55C239.136 173.451 239.002 173.396 238.863 173.396H166.686Z" fill="#363D63"/>
<path fill-rule="evenodd" clip-rule="evenodd" d="M111.458 53.1766C112.674 53.1766 113.653 54.1559 113.653 55.3719V66.5563C113.653 67.7722 112.674 68.7513 111.458 68.7513H100.282L90.4065 73.0941C88.8306 73.7678 86.8865 73.8181 86.8865 71.9297V68.7513H81.9812C80.765 68.7513 79.7859 67.7722 79.7859 66.5563V55.3719C79.7859 54.1559 80.765 53.1766 81.9812 53.1766H111.458Z" fill="white"/>
<path fill-rule="evenodd" clip-rule="evenodd" d="M111.458 52.6534C112.955 52.6534 114.176 53.8747 114.176 55.3716V66.5559C114.176 68.0528 112.955 69.2747 111.458 69.2747H100.391L90.6175 73.5728C90.6156 73.5741 90.6137 73.5756 90.6118 73.5769C89.7568 73.9428 88.8075 74.1616 87.9512 73.9872C87.5228 73.8997 87.1075 73.6959 86.8115 73.3381C86.5156 72.98 86.3631 72.4931 86.3631 71.9313V69.2766H81.9812C80.484 69.2766 79.2621 68.0547 79.2621 66.5578V58.7691C79.2621 58.48 79.4965 58.2456 79.7859 58.2456C80.0746 58.2456 80.309 58.48 80.309 58.7691V66.5578C80.309 67.4928 81.0459 68.2297 81.9812 68.2297H86.8862C87.1753 68.2297 87.409 68.4638 87.4093 68.7525V71.9313C87.4093 72.3134 87.5 72.5288 87.6178 72.6713C87.7362 72.8141 87.9046 72.91 88.16 72.9619C88.6693 73.0656 89.4793 72.9222 90.2003 72.6141L100.07 68.2738C100.136 68.2444 100.208 68.2294 100.28 68.2297H111.457C112.392 68.2297 113.129 67.4928 113.129 66.5578V55.3734C113.129 54.4381 112.392 53.7013 111.457 53.7013H101.076C100.885 53.7078 100.706 53.6097 100.608 53.445C100.511 53.2806 100.511 53.0763 100.608 52.9116C100.706 52.7469 100.885 52.6488 101.076 52.655L111.458 52.6534Z" fill="#363D63"/>
<path fill-rule="evenodd" clip-rule="evenodd" d="M83.4594 56.1794H95.1722C95.3259 56.1794 95.4494 56.3028 95.4494 56.4563V57.9853C95.4494 58.1388 95.3259 58.2625 95.1722 58.2625H83.4594C83.3056 58.2625 83.1822 58.1388 83.1822 57.9853V56.4563C83.1822 56.3028 83.3056 56.1794 83.4594 56.1794Z" fill="#00CCBB"/>
<path fill-rule="evenodd" clip-rule="evenodd" d="M110.558 61.0844C110.745 61.0844 110.918 61.1841 111.011 61.3459C111.105 61.5081 111.105 61.7075 111.011 61.8697C110.918 62.0316 110.745 62.1313 110.558 62.1313H83.7569C83.5697 62.1313 83.3969 62.0316 83.3034 61.8697C83.21 61.7075 83.21 61.5081 83.3034 61.3459C83.3969 61.1841 83.5697 61.0844 83.7569 61.0844H110.558Z" fill="#363D63"/>
<path fill-rule="evenodd" clip-rule="evenodd" d="M102.091 64.5859C102.278 64.5859 102.451 64.6856 102.544 64.8475C102.637 65.0097 102.637 65.2091 102.544 65.3709C102.451 65.5328 102.278 65.6328 102.091 65.6328H83.7569C83.5697 65.6328 83.3969 65.5328 83.3034 65.3709C83.21 65.2091 83.21 65.0097 83.3034 64.8475C83.3969 64.6856 83.5697 64.5859 83.7569 64.5859H102.091Z" fill="#363D63"/>
<path fill-rule="evenodd" clip-rule="evenodd" d="M178.866 71.5906C180.082 71.5906 181.062 72.5697 181.062 73.7859V84.97C181.062 86.186 180.082 87.165 178.866 87.165H167.69L157.815 91.5078C156.239 92.1819 154.295 92.2319 154.295 90.3438V87.165H149.389C148.173 87.165 147.194 86.186 147.194 84.97V73.7859C147.194 72.5697 148.173 71.5906 149.389 71.5906H178.866Z" fill="white"/>
<path fill-rule="evenodd" clip-rule="evenodd" d="M178.866 71.0669C178.679 71.0669 178.506 71.1669 178.412 71.3288C178.319 71.4906 178.319 71.6903 178.412 71.8525C178.506 72.0141 178.679 72.1141 178.866 72.1141C179.801 72.1141 180.538 72.8506 180.538 73.786V84.97C180.538 85.9053 179.801 86.6422 178.866 86.6422H167.69C167.617 86.6419 167.546 86.6569 167.479 86.686L157.609 91.0263C156.888 91.3347 156.078 91.4772 155.569 91.3735C155.314 91.3213 155.144 91.2263 155.026 91.0835C154.908 90.941 154.818 90.7256 154.818 90.3435V87.165C154.818 87.026 154.763 86.8928 154.665 86.7947C154.567 86.6966 154.434 86.6416 154.295 86.6419H149.389C148.454 86.6419 147.717 85.905 147.717 84.97C147.724 84.7785 147.626 84.5988 147.462 84.5013C147.297 84.4035 147.092 84.4035 146.927 84.5013C146.763 84.5988 146.665 84.7785 146.672 84.97C146.672 86.4666 147.892 87.6878 149.389 87.6878H153.772V90.3435C153.772 90.9053 153.924 91.3922 154.22 91.7503C154.515 92.1081 154.931 92.3122 155.36 92.3991C156.216 92.5741 157.166 92.3541 158.021 91.9885C158.021 91.9885 158.025 91.9885 158.027 91.9885L167.801 87.6894H178.867C180.364 87.6894 181.587 86.4681 181.587 84.9716V73.7869C181.587 72.2903 180.364 71.0681 178.866 71.0669Z" fill="#363D63"/>
<path fill-rule="evenodd" clip-rule="evenodd" d="M170.555 78.8872C170.555 80.2747 171.68 81.4 173.068 81.4C173.735 81.4 174.374 81.1353 174.846 80.6641C175.317 80.1928 175.582 79.5537 175.582 78.8872C175.582 78.2206 175.317 77.5812 174.846 77.11C174.374 76.6387 173.735 76.3741 173.068 76.3741C171.68 76.3741 170.555 77.4991 170.555 78.8872Z" fill="white"/>
<path fill-rule="evenodd" clip-rule="evenodd" d="M162.455 78.8872C162.455 80.275 163.58 81.4 164.967 81.4C166.355 81.4 167.481 80.275 167.481 78.8872C167.481 77.4991 166.355 76.3741 164.967 76.3741C163.58 76.3741 162.455 77.4991 162.455 78.8872Z" fill="#7F90FF"/>
<path fill-rule="evenodd" clip-rule="evenodd" d="M154.354 78.8872C154.354 80.275 155.478 81.4 156.867 81.4C158.254 81.4 159.38 80.275 159.38 78.8872C159.38 77.4991 158.254 76.3741 156.867 76.3741C155.478 76.3741 154.354 77.4991 154.354 78.8872Z" fill="#7F90FF"/>
<path fill-rule="evenodd" clip-rule="evenodd" d="M173.465 75.8781C174.111 75.9631 174.731 76.2553 175.216 76.74C176.185 77.7103 176.384 79.2169 175.698 80.405C175.012 81.5928 173.608 82.1753 172.283 81.8203C170.958 81.4653 170.032 80.2581 170.032 78.8866C170.032 78.6997 170.132 78.5266 170.294 78.4334C170.456 78.3397 170.656 78.3397 170.817 78.4334C170.979 78.5266 171.079 78.6997 171.079 78.8866C171.079 79.7897 171.681 80.5753 172.553 80.8088C173.425 81.0425 174.34 80.6638 174.791 79.8819C175.243 79.0997 175.114 78.1191 174.476 77.4806C173.837 76.8419 172.855 76.7122 172.073 77.1638C171.911 77.2631 171.708 77.2669 171.542 77.1731C171.377 77.0794 171.275 76.9031 171.276 76.7128C171.278 76.5225 171.383 76.3481 171.55 76.2575C172.144 75.9147 172.818 75.7928 173.465 75.8781Z" fill="#363D63"/>
<path fill-rule="evenodd" clip-rule="evenodd" d="M194.281 46.7269C193.064 46.7269 192.086 47.7059 192.086 48.9222V60.1066C192.086 61.3225 193.064 62.3016 194.281 62.3016H205.457L215.332 66.6444C216.908 67.3181 218.852 67.3684 218.852 65.48V62.3016H223.758C224.973 62.3016 225.952 61.3225 225.952 60.1066V48.9222C225.952 47.7059 224.973 46.7269 223.758 46.7269H194.281Z" fill="white"/>
<path fill-rule="evenodd" clip-rule="evenodd" d="M194.28 46.2038C192.783 46.2038 191.562 47.4256 191.562 48.9225V60.1069C191.562 61.6038 192.783 62.825 194.28 62.825H205.347L215.122 67.1238H215.126C215.981 67.4894 216.931 67.7085 217.787 67.5341C218.215 67.4466 218.63 67.2428 218.927 66.8847C219.223 66.5272 219.375 66.0406 219.375 65.4788V62.8231H223.758C225.255 62.8231 226.476 61.6022 226.476 60.1053V52.3156C226.476 52.0269 226.242 51.7925 225.952 51.7925C225.663 51.7925 225.429 52.0269 225.429 52.3156V60.1053C225.429 61.0403 224.693 61.7766 223.758 61.7766H218.852C218.713 61.7766 218.58 61.8316 218.482 61.93C218.383 62.0285 218.329 62.1613 218.329 62.3003V65.4788C218.329 65.861 218.238 66.0756 218.12 66.2181C218.002 66.361 217.833 66.4566 217.578 66.5085C217.07 66.6122 216.262 66.4703 215.543 66.1635C215.543 66.1635 215.538 66.1628 215.538 66.1635L205.668 61.8228C205.602 61.7938 205.53 61.7781 205.458 61.7781H194.281C193.346 61.7781 192.61 61.0419 192.61 60.1069V48.9225C192.61 47.9872 193.346 47.2506 194.281 47.2506H204.663C204.849 47.2506 205.022 47.1506 205.116 46.9888C205.209 46.8269 205.209 46.6272 205.116 46.4653C205.022 46.3035 204.849 46.2038 204.663 46.2038H194.28Z" fill="#363D63"/>
<path fill-rule="evenodd" clip-rule="evenodd" d="M222.279 49.7294H210.566C210.412 49.7294 210.289 49.8528 210.289 50.0066V51.5353C210.289 51.6887 210.412 51.8125 210.566 51.8125H222.279C222.432 51.8125 222.556 51.6887 222.556 51.5353V50.0066C222.556 49.8528 222.432 49.7294 222.279 49.7294Z" fill="#00CCBB"/>
<path fill-rule="evenodd" clip-rule="evenodd" d="M195.18 54.6344C194.993 54.6344 194.82 54.7344 194.727 54.8962C194.633 55.0581 194.633 55.2575 194.727 55.4197C194.82 55.5816 194.993 55.6816 195.18 55.6816H221.981C222.168 55.6816 222.341 55.5816 222.435 55.4197C222.528 55.2575 222.528 55.0581 222.435 54.8962C222.341 54.7344 222.168 54.6344 221.981 54.6344H195.18Z" fill="#363D63"/>
<path fill-rule="evenodd" clip-rule="evenodd" d="M203.647 58.1356C203.46 58.1356 203.287 58.2356 203.194 58.3975C203.1 58.5594 203.1 58.7591 203.194 58.9209C203.287 59.0831 203.46 59.1828 203.647 59.1828H221.981C222.168 59.1828 222.341 59.0831 222.435 58.9209C222.528 58.7591 222.528 58.5594 222.435 58.3975C222.341 58.2356 222.168 58.1356 221.981 58.1356H203.647Z" fill="#363D63"/>
<path fill-rule="evenodd" clip-rule="evenodd" d="M208.298 129.146H226.782C227.454 129.146 227.994 129.686 227.994 130.357V131.714C227.994 132.385 227.454 132.925 226.782 132.925H208.298C207.628 132.925 207.087 132.385 207.087 131.714V130.357C207.087 129.686 207.628 129.146 208.298 129.146Z" fill="white"/>
<path fill-rule="evenodd" clip-rule="evenodd" d="M199.731 102.866L203.311 100.493L205.416 102.176L201.451 105.201L199.731 102.866Z" fill="#363D63"/>
<path fill-rule="evenodd" clip-rule="evenodd" d="M184.326 112.819H210.157C211.125 112.819 212.05 113.598 212.232 114.567L215.341 131.177C215.522 132.146 214.889 132.925 213.921 132.925H188.09C187.122 132.925 186.196 132.146 186.015 131.177L182.905 114.567C182.724 113.598 183.358 112.819 184.326 112.819Z" fill="white"/>
<path fill-rule="evenodd" clip-rule="evenodd" d="M197.516 120.014C197.262 120.014 197.008 120.05 196.763 120.12C197.036 120.421 197.187 120.813 197.187 121.219C197.187 121.655 197.014 122.073 196.706 122.382C196.398 122.69 195.98 122.863 195.544 122.863C195.277 122.862 195.016 122.797 194.781 122.674C194.778 122.7 194.777 122.727 194.775 122.753C194.775 124.267 196.002 125.493 197.515 125.493C199.028 125.493 200.255 124.267 200.255 122.753C200.255 122.027 199.967 121.33 199.452 120.816C198.939 120.302 198.242 120.014 197.516 120.014Z" fill="#363D63"/>
<path fill-rule="evenodd" clip-rule="evenodd" d="M184.326 112.296C184.135 112.289 183.956 112.388 183.859 112.552C183.762 112.717 183.762 112.921 183.859 113.086C183.956 113.25 184.135 113.348 184.326 113.342H210.157C210.844 113.342 211.586 113.962 211.717 114.663L214.827 131.273C214.892 131.624 214.811 131.893 214.656 132.084C214.501 132.275 214.265 132.402 213.921 132.402H207.339C207.152 132.4 206.977 132.5 206.883 132.662C206.788 132.825 206.788 133.025 206.883 133.188C206.977 133.351 207.152 133.45 207.339 133.448H213.921C214.546 133.448 215.11 133.185 215.468 132.744C215.827 132.303 215.972 131.699 215.856 131.081L212.746 114.47C212.515 113.235 211.406 112.296 210.157 112.296H184.326Z" fill="#363D63"/>
<path fill-rule="evenodd" clip-rule="evenodd" d="M206.683 132.402C206.492 132.395 206.312 132.493 206.215 132.658C206.117 132.822 206.117 133.027 206.215 133.192C206.312 133.356 206.492 133.455 206.683 133.447H262.642C262.834 133.455 263.013 133.356 263.111 133.192C263.209 133.027 263.209 132.822 263.111 132.658C263.013 132.493 262.834 132.395 262.642 132.402H206.683Z" fill="#363D63"/>
<path fill-rule="evenodd" clip-rule="evenodd" d="M167.418 125.802V129.01C167.418 131.179 169.164 132.925 171.333 132.925H173.834C176.002 132.925 177.748 131.179 177.748 129.01V125.802H167.418Z" fill="#7F90FF"/>
<path fill-rule="evenodd" clip-rule="evenodd" d="M144.2 132.402C144.008 132.395 143.829 132.493 143.731 132.658C143.633 132.822 143.633 133.027 143.731 133.192C143.829 133.356 144.008 133.455 144.2 133.447H177.411C177.602 133.455 177.782 133.356 177.88 133.192C177.977 133.027 177.977 132.822 177.88 132.658C177.782 132.493 177.602 132.395 177.411 132.402H144.2Z" fill="#363D63"/>
<path fill-rule="evenodd" clip-rule="evenodd" d="M169.132 117.597C168.56 117.597 168.072 117.976 167.833 118.491C167.593 119.006 167.593 119.599 167.833 120.114C168.072 120.629 168.56 121.008 169.132 121.008C169.319 121.009 169.493 120.91 169.587 120.747C169.682 120.585 169.682 120.384 169.587 120.222C169.493 120.059 169.319 119.96 169.132 119.961C169.023 119.961 168.882 119.89 168.781 119.673C168.68 119.456 168.68 119.149 168.781 118.932C168.882 118.715 169.023 118.644 169.132 118.644C169.318 118.644 169.491 118.544 169.585 118.382C169.678 118.22 169.678 118.02 169.585 117.858C169.491 117.697 169.318 117.597 169.132 117.597Z" fill="#363D63"/>
<path fill-rule="evenodd" clip-rule="evenodd" d="M169.132 119.961C168.943 119.96 168.769 120.059 168.675 120.222C168.581 120.384 168.581 120.585 168.675 120.747C168.769 120.91 168.943 121.009 169.132 121.008C169.24 121.008 169.38 121.079 169.481 121.296C169.581 121.513 169.581 121.82 169.481 122.037C169.38 122.254 169.24 122.325 169.132 122.325C168.94 122.319 168.76 122.417 168.663 122.581C168.565 122.746 168.565 122.951 168.663 123.115C168.76 123.28 168.94 123.378 169.132 123.371C169.702 123.371 170.19 122.993 170.429 122.478C170.668 121.963 170.668 121.37 170.429 120.855C170.19 120.34 169.702 119.961 169.132 119.961Z" fill="#363D63"/>
<path fill-rule="evenodd" clip-rule="evenodd" d="M172.638 117.597C172.067 117.597 171.578 117.976 171.34 118.491C171.1 119.006 171.1 119.599 171.34 120.114C171.578 120.629 172.067 121.008 172.638 121.008C172.825 121.009 172.999 120.91 173.094 120.747C173.188 120.585 173.188 120.384 173.094 120.222C172.999 120.059 172.825 119.96 172.638 119.961C172.529 119.961 172.389 119.89 172.288 119.673C172.188 119.456 172.188 119.149 172.288 118.932C172.389 118.715 172.529 118.644 172.638 118.644C172.824 118.644 172.997 118.544 173.091 118.382C173.184 118.22 173.184 118.02 173.091 117.858C172.997 117.697 172.824 117.597 172.638 117.597Z" fill="#363D63"/>
<path fill-rule="evenodd" clip-rule="evenodd" d="M172.637 119.961C172.449 119.96 172.275 120.059 172.181 120.222C172.087 120.384 172.087 120.585 172.181 120.747C172.275 120.91 172.449 121.009 172.637 121.008C172.746 121.008 172.886 121.079 172.987 121.296C173.087 121.513 173.087 121.82 172.987 122.037C172.886 122.254 172.746 122.325 172.637 122.325C172.446 122.319 172.267 122.417 172.169 122.581C172.072 122.746 172.072 122.951 172.169 123.115C172.267 123.28 172.446 123.378 172.637 123.371C173.209 123.371 173.697 122.993 173.936 122.478C174.176 121.963 174.176 121.37 173.936 120.855C173.697 120.34 173.209 119.961 172.637 119.961Z" fill="#363D63"/>
<path fill-rule="evenodd" clip-rule="evenodd" d="M176.226 117.597C175.655 117.597 175.167 117.976 174.927 118.491C174.688 119.006 174.688 119.599 174.927 120.114C175.167 120.629 175.655 121.008 176.226 121.008C176.414 121.009 176.588 120.91 176.682 120.747C176.777 120.585 176.777 120.384 176.682 120.222C176.588 120.059 176.414 119.96 176.226 119.961C176.117 119.961 175.977 119.89 175.877 119.673C175.777 119.456 175.777 119.149 175.877 118.932C175.977 118.715 176.117 118.644 176.226 118.644C176.413 118.644 176.586 118.544 176.68 118.382C176.773 118.22 176.773 118.02 176.68 117.858C176.586 117.697 176.413 117.597 176.226 117.597Z" fill="#363D63"/>
<path fill-rule="evenodd" clip-rule="evenodd" d="M176.226 119.961C176.038 119.96 175.864 120.059 175.77 120.222C175.676 120.384 175.676 120.585 175.77 120.747C175.864 120.91 176.038 121.009 176.226 121.008C176.335 121.008 176.475 121.079 176.575 121.296C176.676 121.513 176.676 121.82 176.575 122.037C176.475 122.254 176.335 122.325 176.226 122.325C176.035 122.319 175.856 122.417 175.758 122.581C175.66 122.746 175.66 122.951 175.758 123.115C175.856 123.28 176.035 123.378 176.226 123.371C176.797 123.371 177.285 122.993 177.524 122.478C177.763 121.963 177.763 121.37 177.524 120.855C177.285 120.34 176.797 119.961 176.226 119.961Z" fill="#363D63"/>
<path fill-rule="evenodd" clip-rule="evenodd" d="M33.6187 147.138C33.4056 147.143 33.2172 147.277 33.1415 147.476C33.0659 147.676 33.119 147.901 33.2753 148.045L43.529 157.842C43.6628 157.979 43.8609 158.033 44.0456 157.981C44.23 157.93 44.3719 157.781 44.4147 157.594C44.4578 157.408 44.3953 157.212 44.2519 157.085L33.9981 147.288C33.8972 147.189 33.7603 147.135 33.6187 147.138Z" fill="#363D63"/>
<path fill-rule="evenodd" clip-rule="evenodd" d="M19.5819 130.162C13.9997 130.162 9.47498 134.687 9.47467 140.269C9.47873 142.325 10.1097 144.331 11.2828 146.018C10.6244 147.69 10.2844 149.47 10.2794 151.266C10.2794 155.093 11.7994 158.764 14.5056 161.47C17.2119 164.177 20.8828 165.697 24.71 165.697C28.5372 165.697 32.2078 164.177 34.914 161.47C37.6206 158.764 39.1406 155.093 39.1406 151.266C39.1347 145.083 35.189 139.59 29.3315 137.61C28.1322 133.213 24.1394 130.163 19.5819 130.162Z" fill="#00CCBB"/>
<path fill-rule="evenodd" clip-rule="evenodd" d="M23.2812 151.939C23.0872 151.943 22.9112 152.054 22.8241 152.227C22.7366 152.401 22.7525 152.608 22.865 152.766C22.865 152.766 23.9656 154.348 24.8641 157.506C25.7634 160.662 26.4362 165.355 25.5012 171.483C25.4681 171.67 25.5397 171.86 25.6869 171.979C25.8341 172.099 26.0344 172.129 26.2103 172.059C26.3866 171.989 26.5106 171.829 26.5356 171.641C27.4941 165.36 26.8075 160.506 25.8709 157.219C24.935 153.931 23.7262 152.171 23.7262 152.171C23.6272 152.023 23.4594 151.936 23.2812 151.939Z" fill="#363D63"/>
<path fill-rule="evenodd" clip-rule="evenodd" d="M45.2703 139.814C42.6972 139.815 40.4772 141.621 39.9534 144.14C39.5338 144.085 39.1113 144.056 38.6878 144.053C32.995 144.053 28.3797 148.669 28.3797 154.361C28.38 160.055 32.995 164.67 38.6878 164.67C44.3816 164.67 48.9966 160.055 48.9966 154.361C48.9931 152.832 48.6491 151.322 47.9897 149.941C49.6663 148.972 50.7 147.183 50.7028 145.246C50.7028 143.806 50.1303 142.424 49.1116 141.405C48.0928 140.386 46.7113 139.814 45.2703 139.814Z" fill="#8A6DFE"/>
<path fill-rule="evenodd" clip-rule="evenodd" d="M38.555 151.939C38.3825 151.941 38.2218 152.028 38.1256 152.171C38.1256 152.171 36.9168 153.931 35.9809 157.219C35.0447 160.506 34.3572 165.36 35.3162 171.641C35.3409 171.829 35.4653 171.989 35.6415 172.059C35.8175 172.129 36.0178 172.099 36.1653 171.979C36.3122 171.86 36.3831 171.67 36.3509 171.483C35.4153 165.355 36.0887 160.662 36.9872 157.506C37.8865 154.348 38.9868 152.766 38.9868 152.766C39.1009 152.606 39.1153 152.395 39.0243 152.221C38.9331 152.046 38.7518 151.937 38.555 151.939Z" fill="#363D63"/>
<path fill-rule="evenodd" clip-rule="evenodd" d="M45.9284 172.927H17.3937V176.833L19.3278 180.87H43.864L45.9284 176.751V172.927Z" fill="white"/>
<path fill-rule="evenodd" clip-rule="evenodd" d="M45.9206 172.396C45.6319 172.402 45.4009 172.638 45.405 172.927V176.627L43.3959 180.427C43.0663 181.056 44.025 181.536 44.3322 180.896L46.3959 176.985C46.4331 176.913 46.4519 176.833 46.4522 176.751V172.927C46.4572 172.632 46.2156 172.391 45.9206 172.396Z" fill="#363D63"/>
<path fill-rule="evenodd" clip-rule="evenodd" d="M17.3862 172.396C17.0975 172.402 16.8668 172.638 16.8706 172.927V176.833C16.8706 176.911 16.8887 176.989 16.9218 177.059L18.8556 180.887C19.1572 181.517 20.1012 181.064 19.8 180.435L17.9168 176.714V172.927C17.9231 172.632 17.6812 172.392 17.3862 172.396Z" fill="#363D63"/>
<path fill-rule="evenodd" clip-rule="evenodd" d="M44.0837 168.588C45.3959 168.588 46.4519 169.645 46.4519 170.956V173.919H16.8706V170.956C16.8706 169.645 17.9265 168.588 19.2384 168.588H44.0837Z" fill="#7F90FF"/>
<path fill-rule="evenodd" clip-rule="evenodd" d="M8.66499 180.347C8.47655 180.345 8.30186 180.444 8.20718 180.607C8.11218 180.77 8.11218 180.971 8.20718 181.134C8.30186 181.297 8.47655 181.396 8.66499 181.394H287.335C287.523 181.396 287.698 181.297 287.793 181.134C287.888 180.971 287.888 180.77 287.793 180.607C287.698 180.444 287.523 180.345 287.335 180.347H8.66499Z" fill="#363D63"/>
</svg>
