<svg width="296" height="190" viewBox="0 0 296 190" fill="none" xmlns="http://www.w3.org/2000/svg">
<path fill-rule="evenodd" clip-rule="evenodd" d="M166.873 25.1367C150.159 25.1504 135.142 34.3917 128.965 48.4653C120.836 45.504 112.255 43.9731 103.603 43.9414C83.7413 43.9414 64.6928 51.8316 50.6484 65.876C25.7976 93.8431 27.009 117.298 39.3196 146.827C28.3871 153.203 21.6568 164.9 21.6389 177.555C21.6442 178.642 21.6978 179.728 21.8018 180.809H277.943C277.224 171.677 273.806 162.964 268.123 155.779C272.271 149.134 274.479 141.463 274.498 133.63C274.477 117.286 264.978 102.437 250.148 95.5673C252.281 90.5621 253.382 85.1776 253.383 79.7367C253.383 69.0184 249.125 58.7388 241.546 51.1594C233.967 43.5803 223.687 39.3227 212.969 39.3227C208.761 39.3393 204.581 40.013 200.581 41.3193C192.987 31.2083 180.37 25.1514 166.873 25.1367" fill="#E1E1FD"/>
<path fill-rule="evenodd" clip-rule="evenodd" d="M183.424 54C195.946 54 206.027 64.081 206.027 76.603V126.158C206.027 138.68 195.946 148.761 183.424 148.761C170.902 148.761 160.821 138.68 160.821 126.158V76.603C160.821 64.081 170.902 54 183.424 54" fill="#C3C3FC"/>
<path fill-rule="evenodd" clip-rule="evenodd" d="M178.274 76.9656V157.45C180.071 158.32 181.973 158.77 183.891 158.778C183.894 158.778 183.898 158.778 183.902 158.778V76.9662L178.274 76.9656" fill="#E1E1FD"/>
<path fill-rule="evenodd" clip-rule="evenodd" d="M183.894 76.4354C183.606 76.4397 183.375 76.6771 183.379 76.9656V180.298C183.372 180.489 183.471 180.668 183.635 180.766C183.799 180.863 184.004 180.863 184.168 180.766C184.333 180.668 184.431 180.489 184.424 180.298V76.9656C184.426 76.8246 184.371 76.6885 184.271 76.5885C184.171 76.4885 184.035 76.4334 183.894 76.4354" fill="#363D63"/>
<path fill-rule="evenodd" clip-rule="evenodd" d="M194.147 84.7367C194.011 84.7374 193.88 84.7911 193.783 84.8865L183.541 94.6718C183.405 94.8006 183.348 94.9924 183.392 95.1744C183.436 95.3567 183.574 95.5013 183.754 95.5537C183.934 95.6062 184.128 95.5583 184.263 95.4282L194.505 85.6419C194.663 85.4951 194.714 85.2669 194.635 85.0669C194.556 84.8669 194.362 84.7357 194.147 84.7367" fill="#363D63"/>
<path fill-rule="evenodd" clip-rule="evenodd" d="M173.668 118.074C173.455 118.079 173.267 118.212 173.191 118.411C173.115 118.61 173.168 118.835 173.325 118.98L183.567 128.765C183.701 128.898 183.897 128.949 184.079 128.897C184.261 128.845 184.4 128.699 184.444 128.515C184.487 128.331 184.428 128.138 184.289 128.009L174.047 118.224C173.946 118.124 173.809 118.07 173.668 118.074" fill="#363D63"/>
<path fill-rule="evenodd" clip-rule="evenodd" d="M229.119 22.0535C211.864 22.0535 197.877 36.041 197.878 53.2951C197.892 62.0722 201.597 70.4384 208.087 76.3469C201.019 78.7714 196.27 85.4143 196.261 92.886C196.261 97.5292 198.106 101.982 201.389 105.265C204.672 108.548 209.125 110.392 213.767 110.392C220.169 110.392 226.059 106.898 229.129 101.281C232.196 106.892 238.077 110.385 244.47 110.392C249.114 110.392 253.567 108.548 256.849 105.265C260.132 101.982 261.977 97.5292 261.977 92.886C261.967 85.4162 257.219 78.7748 250.153 76.35C256.644 70.4403 260.348 62.0729 260.361 53.2951C260.361 45.0095 257.069 37.063 251.21 31.204C245.351 25.3449 237.405 22.0535 229.119 22.0535" fill="#00CCBB"/>
<path fill-rule="evenodd" clip-rule="evenodd" d="M229.122 57.0939C228.844 57.098 228.622 57.3266 228.626 57.6047V181.098C228.619 181.282 228.714 181.454 228.872 181.548C229.031 181.642 229.228 181.642 229.386 181.548C229.544 181.454 229.639 181.282 229.633 181.098V57.6047C229.634 57.4685 229.582 57.3376 229.485 57.2411C229.389 57.145 229.258 57.092 229.122 57.0939" fill="#363D63"/>
<path fill-rule="evenodd" clip-rule="evenodd" d="M230.185 169.008C233.632 169.011 236.844 170.754 238.726 173.641C240.696 171.916 243.224 170.963 245.842 170.96C251.576 170.962 256.312 175.437 256.638 181.161H194.118C195.111 177.813 198.186 175.516 201.677 175.515C204.599 175.516 207.28 177.133 208.647 179.715C209.65 176.036 212.991 173.482 216.806 173.481C218.303 173.485 219.772 173.886 221.063 174.643C222.793 171.19 226.324 169.009 230.185 169.008" fill="#B7D0F9"/>
<path fill-rule="evenodd" clip-rule="evenodd" d="M51.6655 170.146C48.3895 170.146 45.7523 172.783 45.7523 176.059V181.161H147.81V176.059C147.81 172.783 145.172 170.146 141.897 170.146H51.6655" fill="white"/>
<path fill-rule="evenodd" clip-rule="evenodd" d="M65.3902 37.6743C61.8029 37.6743 58.9152 40.562 58.9152 44.1494V158.08C58.9152 158.438 58.9452 158.789 59.0004 159.131H134.502C134.557 158.789 134.588 158.438 134.588 158.08V44.1494C134.588 40.562 131.7 37.6743 128.112 37.6743H65.3902" fill="white"/>
<path fill-rule="evenodd" clip-rule="evenodd" d="M57.5787 159.131C54.3027 159.131 51.6655 161.768 51.6655 165.044V170.146H141.199V165.044C141.199 161.768 138.562 159.131 135.286 159.131H57.5787" fill="#00CCBB"/>
<path fill-rule="evenodd" clip-rule="evenodd" d="M51.6658 169.642C51.4857 169.642 51.3188 169.738 51.2289 169.894C51.1387 170.05 51.1387 170.242 51.2289 170.398C51.3188 170.554 51.4857 170.65 51.6658 170.649H141.897C144.902 170.649 147.306 173.053 147.306 176.059V181.161C147.304 181.342 147.4 181.51 147.556 181.602C147.713 181.693 147.906 181.693 148.063 181.602C148.22 181.51 148.315 181.342 148.313 181.161V176.059C148.313 172.512 145.443 169.642 141.897 169.642H51.6658" fill="#363D63"/>
<path fill-rule="evenodd" clip-rule="evenodd" d="M83.3944 158.627C83.2103 158.621 83.0374 158.715 82.9437 158.874C82.8498 159.032 82.8498 159.229 82.9437 159.387C83.0374 159.546 83.2103 159.64 83.3944 159.634H135.286C138.292 159.634 140.695 162.038 140.695 165.044V169.642H77.4906C77.3105 169.642 77.1439 169.738 77.0537 169.894C76.9632 170.049 76.9632 170.242 77.0537 170.398C77.1439 170.554 77.3105 170.65 77.4906 170.649H141.199C141.477 170.649 141.703 170.424 141.703 170.146V165.044C141.703 161.498 138.833 158.627 135.286 158.627H83.3944" fill="#363D63"/>
<path fill-rule="evenodd" clip-rule="evenodd" d="M65.3905 37.1704C61.5329 37.1704 58.4118 40.2918 58.4118 44.1491V130.053C58.4052 130.237 58.4998 130.41 58.6583 130.504C58.8165 130.598 59.0135 130.598 59.172 130.504C59.3301 130.41 59.4247 130.237 59.4184 130.053V44.1491C59.4184 40.832 62.0734 38.1777 65.3905 38.1777H128.113C131.43 38.1777 134.084 40.832 134.084 44.1491C134.083 44.3298 134.179 44.4974 134.335 44.5879C134.491 44.6787 134.684 44.6787 134.841 44.5879C134.997 44.4974 135.093 44.3298 135.091 44.1491C135.091 40.2918 131.97 37.1704 128.113 37.1704H65.3905" fill="#363D63"/>
<path fill-rule="evenodd" clip-rule="evenodd" d="M69.4361 46.0853H89.6228C91.522 46.0853 93.051 47.6144 93.051 49.5133V96.4935C93.051 98.3927 91.522 99.9214 89.6228 99.9214H69.4361C67.5369 99.9214 66.0082 98.3927 66.0082 96.4935V49.5133C66.0082 47.6144 67.5369 46.0853 69.4361 46.0853" fill="#00CCBB"/>
<path fill-rule="evenodd" clip-rule="evenodd" d="M102.025 46.0853H122.211C124.111 46.0853 125.639 47.6144 125.639 49.5133V96.4935C125.639 98.3927 124.111 99.9214 122.211 99.9214H102.025C100.126 99.9214 98.5966 98.3927 98.5966 96.4935V49.5133C98.5966 47.6144 100.126 46.0853 102.025 46.0853" fill="#00CCBB"/>
<path fill-rule="evenodd" clip-rule="evenodd" d="M69.4361 106.28H89.6228C91.522 106.28 93.051 107.809 93.051 109.708V145.511C93.051 147.41 91.522 148.939 89.6228 148.939H69.4361C67.5369 148.939 66.0082 147.41 66.0082 145.511V109.708C66.0082 107.809 67.5369 106.28 69.4361 106.28" fill="#00CCBB"/>
<path fill-rule="evenodd" clip-rule="evenodd" d="M102.025 106.28H122.211C124.111 106.28 125.639 107.809 125.639 109.708V145.511C125.639 147.41 124.111 148.939 122.211 148.939H102.025C100.126 148.939 98.5966 147.41 98.5966 145.511V109.708C98.5966 107.809 100.126 106.28 102.025 106.28" fill="#00CCBB"/>
<path fill-rule="evenodd" clip-rule="evenodd" d="M67.546 93.0044H72.2039C73.3195 93.0044 74.2177 93.9026 74.2177 95.0186V110.449C74.2177 111.565 73.3195 112.463 72.2039 112.463H67.546C66.4304 112.463 65.5321 111.565 65.5321 110.449V95.0186C65.5321 93.9026 66.4304 93.0044 67.546 93.0044" fill="white"/>
<path fill-rule="evenodd" clip-rule="evenodd" d="M73.8172 99.6251C73.4523 99.6251 73.1015 99.7661 72.8384 100.019L69.8392 102.853C68.4536 104.157 70.4377 106.223 71.7967 104.891L74.3856 102.451H80.7602C81.5522 102.467 82.2028 101.83 82.2028 101.038C82.2028 100.246 81.5522 99.6085 80.7602 99.6251H73.8172" fill="#363D63"/>
<path fill-rule="evenodd" clip-rule="evenodd" d="M69.3014 92.5008C69.1213 92.5005 68.955 92.5963 68.8645 92.7523C68.7743 92.9083 68.7743 93.1006 68.8645 93.2565C68.955 93.4125 69.1213 93.5084 69.3014 93.5084H72.2042C73.0495 93.5084 73.7141 94.1727 73.7141 95.018V110.449C73.7141 111.294 73.0495 111.96 72.2042 111.96C72.0238 111.959 71.8575 112.055 71.7673 112.211C71.6771 112.367 71.6771 112.559 71.7673 112.715C71.8575 112.871 72.0238 112.967 72.2042 112.967C73.5901 112.967 74.7213 111.835 74.7213 110.449V95.018C74.7213 93.6321 73.5901 92.5008 72.2042 92.5008H69.3014" fill="#363D63"/>
<path fill-rule="evenodd" clip-rule="evenodd" d="M33.3419 173.517H60.7991V177.276L58.9384 181.161H35.3285L33.3419 177.197V173.517" fill="white"/>
<path fill-rule="evenodd" clip-rule="evenodd" d="M33.3343 173.006C33.0562 173.01 32.8344 173.239 32.8382 173.517V177.197C32.8382 177.276 32.8567 177.353 32.8921 177.423L34.8784 181.386C34.9554 181.553 35.117 181.664 35.3002 181.677C35.4835 181.69 35.6589 181.602 35.7585 181.448C35.858 181.293 35.8659 181.097 35.7785 180.936L33.8457 177.078V173.517C33.8476 173.381 33.7944 173.249 33.6982 173.153C33.6018 173.057 33.4705 173.004 33.3343 173.006" fill="#363D63"/>
<path fill-rule="evenodd" clip-rule="evenodd" d="M60.7918 173.006C60.6581 173.008 60.5306 173.063 60.4376 173.159C60.3443 173.254 60.2932 173.383 60.2951 173.517V177.162L58.4839 180.943C58.4043 181.106 58.4178 181.298 58.5199 181.448C58.6217 181.598 58.7958 181.681 58.9762 181.667C59.1566 181.653 59.3157 181.543 59.3925 181.379L61.2532 177.494C61.2857 177.425 61.3023 177.351 61.3023 177.276V173.517C61.3042 173.381 61.251 173.25 61.1548 173.154C61.0587 173.057 60.9278 173.004 60.7918 173.006" fill="#363D63"/>
<path fill-rule="evenodd" clip-rule="evenodd" d="M60.6068 126.206C62.724 126.218 64.6602 127.401 65.638 129.279C66.6155 131.157 66.474 133.422 65.2697 135.163C65.2697 135.163 64.8331 135.767 63.8901 137.851C64.8622 138.518 65.4435 139.621 65.4451 140.8C65.4432 142.412 64.3639 143.825 62.8086 144.25C63.3545 144.896 63.6542 145.715 63.6542 146.561C63.6523 148.085 62.6867 149.44 61.2476 149.94C62.0801 150.62 62.5633 151.637 62.5643 152.712C62.5643 153.661 62.1872 154.572 61.5154 155.244C60.8439 155.916 59.9328 156.293 58.9829 156.293C58.6239 156.292 58.2672 156.237 57.9249 156.129C57.8823 156.304 57.8394 156.473 57.7968 156.65C57.3458 158.662 55.8446 160.275 53.8702 160.869C51.8955 161.463 49.7541 160.946 48.2677 159.517C46.7809 158.088 46.1805 155.969 46.6964 153.972C46.8198 153.46 46.9438 152.959 47.0672 152.465C45.4326 152.099 44.27 150.65 44.2678 148.975C44.2678 147.268 45.4727 145.798 47.1467 145.463C46.4051 144.786 45.982 143.828 45.9807 142.824C45.9807 141.874 46.3578 140.963 47.0296 140.291C47.7011 139.619 48.6122 139.242 49.5621 139.242C49.5838 139.244 49.6054 139.245 49.6273 139.247C49.1813 138.636 48.9404 137.899 48.9392 137.142C48.9392 135.164 50.5428 133.561 52.5206 133.561C52.7721 133.562 53.023 133.59 53.2685 133.644C54.682 130.509 55.7867 128.805 55.7867 128.805C56.8465 127.175 58.6628 126.197 60.6068 126.206" fill="#7F90FF"/>
<path fill-rule="evenodd" clip-rule="evenodd" d="M56.7131 139.876C56.5111 139.878 56.3294 140 56.2521 140.187C56.2521 140.187 49.8578 155.031 49.2136 172.285C49.2051 172.466 49.2944 172.637 49.4472 172.734C49.6001 172.831 49.7933 172.838 49.953 172.753C50.1128 172.668 50.2149 172.504 50.2202 172.323C50.8557 155.296 57.1773 140.586 57.1773 140.586C57.2471 140.429 57.2327 140.248 57.1388 140.104C57.0451 139.961 56.8848 139.875 56.7131 139.876" fill="#363D63"/>
<path fill-rule="evenodd" clip-rule="evenodd" d="M19.874 135.02C17.8799 135.732 16.4429 137.488 16.1407 139.583C15.8387 141.679 16.7207 143.77 18.4323 145.015C18.4323 145.015 19.0446 145.441 20.6229 147.096C19.926 148.047 19.7415 149.28 20.1296 150.393C20.6639 151.914 22.1494 152.891 23.758 152.779C23.4561 153.569 23.4435 154.441 23.7229 155.239C24.2278 156.677 25.5874 157.637 27.1108 157.633C26.5498 158.55 26.4296 159.67 26.7838 160.685C27.0976 161.581 27.7547 162.316 28.611 162.728C29.4667 163.14 30.4507 163.195 31.3477 162.881C31.686 162.762 32.0045 162.592 32.2923 162.377C32.3901 162.528 32.4859 162.673 32.5849 162.826C33.6757 164.576 35.6251 165.601 37.6847 165.51C39.7443 165.418 41.5947 164.223 42.5255 162.383C43.4563 160.544 43.3232 158.345 42.1772 156.631C41.8916 156.189 41.6091 155.757 41.3291 155.331C42.7513 154.446 43.3699 152.694 42.8183 151.112C42.2539 149.501 40.6313 148.512 38.9409 148.749C39.4167 147.864 39.4997 146.821 39.1689 145.872C38.8554 144.976 38.1983 144.241 37.3424 143.828C36.4864 143.417 35.502 143.361 34.6056 143.675C34.5853 143.683 34.5649 143.691 34.5449 143.699C34.7635 142.975 34.7475 142.2 34.4985 141.485C33.8449 139.618 31.8019 138.635 29.9349 139.288C29.6978 139.373 29.4704 139.482 29.2562 139.614C26.8865 137.122 25.2811 135.879 25.2811 135.879C23.742 134.691 21.7043 134.367 19.874 135.02" fill="#00CCBB"/>
<path fill-rule="evenodd" clip-rule="evenodd" d="M32.0549 152.904C31.841 152.907 31.6521 153.044 31.5842 153.247C31.5159 153.45 31.5835 153.673 31.7524 153.804C31.7524 153.804 41.8715 161.96 43.4882 172.298C43.5111 172.48 43.6314 172.635 43.8017 172.703C43.9721 172.77 44.166 172.74 44.3079 172.624C44.4494 172.507 44.5165 172.323 44.483 172.142C42.7804 161.257 32.3813 153.018 32.3813 153.018C32.2895 152.943 32.1736 152.902 32.0549 152.904" fill="#363D63"/>
<path fill-rule="evenodd" clip-rule="evenodd" d="M35.1168 169.343C33.8546 169.343 32.8383 170.359 32.8383 171.621V174.472H61.3024V171.621C61.3024 170.359 60.2864 169.343 59.0245 169.343H35.1168" fill="#7F90FF"/>
<path fill-rule="evenodd" clip-rule="evenodd" d="M238.998 79.7864C238.867 79.7874 238.741 79.8391 238.648 79.9308L228.781 89.3575C228.646 89.4809 228.589 89.6673 228.631 89.8448C228.673 90.0224 228.808 90.1637 228.983 90.2138C229.159 90.2636 229.348 90.2144 229.477 90.0854L239.343 80.6593C239.496 80.5181 239.545 80.2979 239.469 80.1047C239.392 79.9114 239.205 79.7852 238.998 79.7864" fill="#363D63"/>
<path fill-rule="evenodd" clip-rule="evenodd" d="M19.2485 180.658C19.0644 180.651 18.8912 180.746 18.7975 180.904C18.7032 181.062 18.7032 181.26 18.7975 181.418C18.8912 181.576 19.0644 181.671 19.2485 181.664H287.396C287.58 181.671 287.753 181.576 287.847 181.418C287.941 181.26 287.941 181.062 287.847 180.904C287.753 180.746 287.58 180.651 287.396 180.658H19.2485" fill="#363D63"/>
</svg>
