<svg xmlns="http://www.w3.org/2000/svg" width="296" height="190" fill="none" viewBox="0 0 296 190">
    <path fill="#E1E1FD" fill-rule="evenodd" d="M130.482 48.268a74.725 74.725 0 0 0-25.307-4.514A74.728 74.728 0 0 0 52.334 65.64c-24.797 27.907-23.589 51.312-11.304 80.777-10.91 6.363-27.18 18.034-27.199 30.663.006 1.084.06 2.168.163 3.247h255.59a46.086 46.086 0 0 0-9.798-24.977 41.918 41.918 0 0 0 6.361-22.101 41.918 41.918 0 0 0-24.297-37.981 40.338 40.338 0 0 0 3.228-15.797 40.328 40.328 0 0 0-40.328-40.327 40.346 40.346 0 0 0-12.361 1.992c-21.172-24.015-51.074-17.268-61.907 7.131z" clip-rule="evenodd"/>
    <path fill="#C3C3FC" fill-rule="evenodd" d="M142.483 165.35a12.873 12.873 0 0 0-10.772 5.844 13.65 13.65 0 0 0-8.976-3.382c-7.231.003-13.204 5.647-13.617 12.866h78.857a9.95 9.95 0 0 0-9.535-7.121 9.95 9.95 0 0 0-8.79 5.299 10.668 10.668 0 0 0-10.291-7.863 10.656 10.656 0 0 0-5.369 1.464 12.877 12.877 0 0 0-11.507-7.107zM226.284 168.552a10.182 10.182 0 0 0-8.522 4.623 10.797 10.797 0 0 0-7.102-2.675 10.794 10.794 0 0 0-10.772 10.179h62.386a7.873 7.873 0 0 0-7.544-5.634 7.872 7.872 0 0 0-6.954 4.192 8.44 8.44 0 0 0-8.141-6.221 8.425 8.425 0 0 0-4.248 1.159 10.185 10.185 0 0 0-9.103-5.623z" clip-rule="evenodd"/>
    <path fill="#363D63" fill-rule="evenodd" d="M90.989 40.802a.503.503 0 0 0-.495.51v49.643H33.692a.502.502 0 1 0 0 1.006h57.304a.504.504 0 0 0 .503-.503V41.312a.504.504 0 0 0-.51-.51z" clip-rule="evenodd"/>
    <path fill="#0CB" fill-rule="evenodd" d="M86.658 41.81c-6.686 0-12.544 1.25-17.665 3.337v42.847h17.665V41.81zm-22.004 5.391c-22.468 12.184-28.68 40.793-28.68 40.793h28.68V47.2z" clip-rule="evenodd"/>
    <path fill="#363D63" fill-rule="evenodd" d="M64.58 49.725a.501.501 0 0 0-.496.51v41.223a.503.503 0 1 0 1.005 0V50.235a.501.501 0 0 0-.51-.51z" clip-rule="evenodd"/>
    <path fill="#363D63" fill-rule="evenodd" d="M41.6 68.678a.503.503 0 1 0 0 1.005h49.396a.503.503 0 1 0 0-1.005H41.6z" clip-rule="evenodd"/>
    <path fill="#fff" fill-rule="evenodd" d="M153.589 71.81h15.454c1.615 0 2.915 1.3 2.915 2.915v15.454c0 1.614-1.3 2.914-2.915 2.914h-15.454a2.908 2.908 0 0 1-2.915-2.915V74.725c0-1.615 1.3-2.915 2.915-2.915z" clip-rule="evenodd"/>
    <path fill="#0CB" fill-rule="evenodd" d="M157.479 75.7h7.674c1.615 0 2.915 1.3 2.915 2.915v7.673c0 1.615-1.3 2.915-2.915 2.915h-7.674a2.909 2.909 0 0 1-2.915-2.915v-7.673c0-1.615 1.3-2.915 2.915-2.915z" clip-rule="evenodd"/>
    <path fill="#363D63" fill-rule="evenodd" d="M152.581 71.307a2.415 2.415 0 0 0-2.409 2.409v17.47a2.415 2.415 0 0 0 2.409 2.41h17.471a2.415 2.415 0 0 0 2.409-2.41.504.504 0 1 0-1.005 0 1.39 1.39 0 0 1-1.404 1.405h-17.471a1.39 1.39 0 0 1-1.404-1.404V73.716a1.39 1.39 0 0 1 1.404-1.404h6.225a.503.503 0 1 0 0-1.005h-6.225z" clip-rule="evenodd"/>
    <path fill="#fff" fill-rule="evenodd" d="M139.625 118.431h15.454c1.615 0 2.915 1.3 2.915 2.915V136.8c0 1.615-1.3 2.915-2.915 2.915h-15.454a2.909 2.909 0 0 1-2.915-2.915v-15.454c0-1.615 1.3-2.915 2.915-2.915z" clip-rule="evenodd"/>
    <path fill="#7F90FF" fill-rule="evenodd" d="M143.515 122.321h7.674c1.615 0 2.915 1.3 2.915 2.915v7.674c0 1.615-1.3 2.915-2.915 2.915h-7.674a2.91 2.91 0 0 1-2.915-2.915v-7.674a2.91 2.91 0 0 1 2.915-2.915z" clip-rule="evenodd"/>
    <path fill="#363D63" fill-rule="evenodd" d="M138.617 117.929a2.415 2.415 0 0 0-2.409 2.409v17.471a2.415 2.415 0 0 0 2.409 2.408h17.47a2.415 2.415 0 0 0 2.409-2.408.502.502 0 1 0-1.004 0 1.39 1.39 0 0 1-1.405 1.403h-17.47a1.39 1.39 0 0 1-1.404-1.403v-17.471a1.39 1.39 0 0 1 1.404-1.405h6.226a.502.502 0 1 0 0-1.004h-6.226z" clip-rule="evenodd"/>
    <path fill="#363D63" fill-rule="evenodd" d="M150.104 128.021a1.55 1.55 0 0 0-1.097.455l-3.64 3.64-.986-.986a1.546 1.546 0 0 0-2.193 0l-1.588 1.587v1.557c0 .859.692 1.551 1.551 1.551h10.402c.86 0 1.551-.692 1.551-1.551v-2.894l-2.903-2.904a1.549 1.549 0 0 0-1.097-.455z" clip-rule="evenodd"/>
    <path fill="#fff" fill-rule="evenodd" d="M145.989 125.644a1.412 1.412 0 0 1-1.409 1.408 1.408 1.408 0 1 1 1.409-1.408z" clip-rule="evenodd"/>
    <path fill="#363D63" fill-rule="evenodd" d="M154.564 82.848v3.44a2.927 2.927 0 0 0 .497 1.632 2.916 2.916 0 0 0 1.829 1.224c.191.039.387.06.589.06h7.674a2.949 2.949 0 0 0 1.137-.229 2.91 2.91 0 0 0 1.778-2.687v-1.506h-6.33c-1.756-.122-1.668-1.793-3.351-1.934h-3.823zM165.186 78.71c.741 0 1.337.596 1.337 1.337v1.407c0 .741-.596 1.337-1.337 1.337a1.334 1.334 0 0 1-1.337-1.337v-1.407c0-.742.596-1.338 1.337-1.338z" clip-rule="evenodd"/>
    <path fill="#363D63" fill-rule="evenodd" d="M165.186 81.187c.266 0 .48.596.48 1.337v2.337c0 .74-.214 1.337-.48 1.337s-.48-.596-.48-1.337v-2.337c0-.74.214-1.337.48-1.337z" clip-rule="evenodd"/>
    <path fill="#363D63" fill-rule="evenodd" d="M164.125 12.045c-25.503 0-46.05 20.547-46.05 46.05v122.584a.503.503 0 1 0 1.005 0V58.095c0-24.964 20.082-45.045 45.045-45.045 16.518 0 30.896 8.796 38.737 21.976a.503.503 0 1 0 .864-.514C195.709 21.037 181 12.045 164.125 12.045z" clip-rule="evenodd"/>
    <path fill="#0CB" fill-rule="evenodd" d="M118.446 169.982c-10.589 0-20.336 3.966-25.428 10.346h50.824c-5.087-6.373-14.819-10.338-25.396-10.346zM169.423 135.866h25.214a3.226 3.226 0 0 1 3.234 3.233v19.297a3.226 3.226 0 0 1-3.234 3.234h-25.214a3.226 3.226 0 0 1-3.233-3.234v-19.297a3.226 3.226 0 0 1 3.233-3.233z" clip-rule="evenodd"/>
    <path fill="#fff" fill-rule="evenodd" d="M224.492 117.846c3.374 0 5.732 2.646 5.288 5.932l-4.32 31.92c-.445 3.286-3.519 5.932-6.894 5.932H183.73c-3.374 0-5.732-2.646-5.287-5.932l.066-2.422h15.578l4.254-29.498c.445-3.286 3.519-5.932 6.893-5.932h19.258z" clip-rule="evenodd"/>
    <path fill="#0CB" fill-rule="evenodd" d="M229.809 122.486c.038.416.031.848-.029 1.292l-4.32 31.92c-.445 3.286-3.519 5.932-6.894 5.932h-20.077l4.393-32.455c.501-3.705 3.968-6.689 7.772-6.689h19.155z" clip-rule="evenodd"/>
    <path fill="#363D63" fill-rule="evenodd" d="M224.492 117.344c3.637 0 6.267 2.946 5.786 6.502l-4.321 31.919c-.481 3.556-3.754 6.368-7.391 6.368h-11.357a.5.5 0 0 1-.435-.252.5.5 0 0 1 0-.502.5.5 0 0 1 .435-.252h11.357c3.112 0 5.988-2.48 6.396-5.497l4.32-31.919c.408-3.017-1.678-5.362-4.79-5.362h-7.129a.504.504 0 1 1 0-1.005h7.129zM169.423 135.364a3.738 3.738 0 0 0-3.736 3.735v19.297a3.739 3.739 0 0 0 3.736 3.736h25.214a.501.501 0 1 0 0-1.004h-25.214a2.715 2.715 0 0 1-2.731-2.732v-19.297a2.714 2.714 0 0 1 2.731-2.731h25.214a2.714 2.714 0 0 1 2.731 2.731v11.39a.502.502 0 1 0 1.005 0v-11.39a3.738 3.738 0 0 0-3.736-3.735h-25.214z" clip-rule="evenodd"/>
    <path fill="#6767E5" fill-rule="evenodd" d="M199.95 100.228l-5.065 4.519s-2.613 1.051-5.624 2.658c-3.049 1.398-4.039 2.95-4.585 5.922l-.722 3.933 7.708 7.708v18.919h23.242v-7.405s6.522-1.73 9.182-3.637c2.659-1.907 2.107-5.822 2.107-5.822s-2.206-9.482-2.908-12.192c-.703-2.709-2.359-4.065-2.359-4.065l-8.467-6.108-5.136-4.43v1.28l-3.358 3.359h-2.076l-1.939-3.359v-1.28z" clip-rule="evenodd"/>
    <path fill="#FEB8CA" fill-rule="evenodd" d="M199.95 99.235v2.273l1.94 3.359h2.074l3.359-3.359v-6.376s-.169.2-.495.514a13.544 13.544 0 0 1-1.442 1.198 14.3 14.3 0 0 1-2.316 1.368 13.57 13.57 0 0 1-2.269.827c-.275.073-.56.139-.851.196z" clip-rule="evenodd"/>
    <path fill="#FEB8CA" fill-rule="evenodd" d="M200.882 100.544a12.864 12.864 0 0 0 1.584-.653 13.658 13.658 0 0 0 2.535-1.613 14.705 14.705 0 0 0 1.69-1.586c.212-.234.388-.445.529-.622a7.69 7.69 0 0 0 .423-.575c.384-.7.634-1.434.697-2.179l2.16-.29a2.636 2.636 0 0 0 2.266-2.973 2.637 2.637 0 0 0-2.972-2.267l-2.054.276-.427-3.176c-.532-3.949-4.126-6.701-8.059-6.172-3.933.53-6.671 4.134-6.14 8.083l.428 3.176a2.637 2.637 0 0 0-2.262 2.972 2.638 2.638 0 0 0 2.972 2.267h.012c.602 3.485 1.92 6.043 5.535 5.557a8.16 8.16 0 0 0 1.083-.225z" clip-rule="evenodd"/>
    <path fill="#363D63" fill-rule="evenodd" d="M199.387 74.591c-6.482.466-10.181 6.758-13.473 6.293-3.291-.466-.099 3.49 1.463 5.086.548.644 2.389 1.89 2.884 2.78 1.373 2.467 1.346 4.85 3.416 4.445.101-.028.201-.064.298-.105l-.599-4.407h-.005l-.193-1.437s.378-.081 1.576-.243l9.126-1.228s1.376-.312 1.751.6a.992.992 0 0 1 .071.25l.522 4.115a2.301 2.301 0 0 0 2.898-2.97s1.06-5.158.66-7.352c-.398-2.194-2.626-2.66-2.626-2.66-.403-2.812-3.397-3.475-7.769-3.167zM190.455 114.919a.503.503 0 0 0-.412.759l1.035 1.794v21.147a.504.504 0 0 0 .755.439.504.504 0 0 0 .25-.439v-21.282a.502.502 0 0 0-.067-.251l-1.103-1.91a.503.503 0 0 0-.458-.257zM204.811 105.884a.5.5 0 1 0-.413.787l3.06 4.595a.503.503 0 0 0 .825.016l3.175-4.386a.501.501 0 0 0-.352-.801.505.505 0 0 0-.461.211l-2.752 3.801-2.658-3.993a.504.504 0 0 0-.424-.23zM194.862 104.239a.502.502 0 0 0-.412.759l3.61 6.24a.501.501 0 0 0 .853.028l3.061-4.595a.504.504 0 1 0-.837-.557l-2.612 3.921-3.205-5.54a.502.502 0 0 0-.458-.256z" clip-rule="evenodd"/>
    <path fill="#363D63" fill-rule="evenodd" d="M201.555 105.89a.503.503 0 0 0 0 1.005h3.261a.502.502 0 1 0 0-1.005h-3.261zM204.882 97.78a.5.5 0 0 0-.348.145c-1.717 1.659-3.762 2.129-3.762 2.129h-.008s-.817.197-1.694.267c-.751.06-1.687-.3-1.687-.3a.501.501 0 0 0-.693.53.505.505 0 0 0 .308.399s1.05.461 2.152.373c.972-.078 1.836-.289 1.844-.29.005 0 2.301-.515 4.236-2.385a.502.502 0 0 0-.348-.868zM197.16 90.381a.49.49 0 0 0-.086.007l-1.395.187a.502.502 0 1 0 .135.996l1.395-.188a.503.503 0 0 0-.049-1.002zM214.414 116.843a.502.502 0 0 0-.495.639l1.999 7.464-10.128 6.168a.5.5 0 0 0 .013.878.504.504 0 0 0 .51-.02l10.45-6.364a.501.501 0 0 0 .224-.559l-2.097-7.827a.503.503 0 0 0-.476-.379zM218.441 143.887c-.779 8.375-4.842 9.431-8.117 9.431h-24.479l-9.747 27.36h-10.433l5.677-7.451 2.336-23.02c.94-6.826 5.392-6.335 7.718-6.335h31.726l5.319.015z" clip-rule="evenodd"/>
    <path fill="#363D63" fill-rule="evenodd" d="M214.904 143.887l-4.35 9.43h-10.206l.623 27.361h-10.432l4.196-7.451-6.554-21.456c.94-6.826 5.393-7.899 7.718-7.899h13.686l5.319.015z" clip-rule="evenodd"/>
    <path fill="#363D63" fill-rule="evenodd" d="M200.348 152.815a.503.503 0 1 0 0 1.005h19.441a.501.501 0 0 0 .448-.758.503.503 0 0 0-.448-.247h-19.441zM222.908 161.322a.503.503 0 0 0-.494.64l5.104 18.558c.164.663 1.161.395.97-.261l-5.104-18.559a.502.502 0 0 0-.476-.378zM208.042 161.322a.502.502 0 0 0-.495.64l5.104 18.558c.165.663 1.161.395.971-.261l-5.105-18.559a.502.502 0 0 0-.475-.378zM204.967 161.322a.503.503 0 0 0-.46.378l-5.105 18.559c-.19.656.806.924.971.261l5.104-18.558a.502.502 0 0 0-.51-.64zM184.755 161.322a.502.502 0 0 0-.461.378l-5.113 18.556c-.19.656.806.924.97.261l5.113-18.556a.502.502 0 0 0-.509-.639zM197.149 90.375a.504.504 0 0 0-.506.445l-.53 4.12a.5.5 0 0 0 .565.561l1.756-.235a.503.503 0 1 0-.134-.997l-1.106.15.446-3.47a.5.5 0 0 0-.491-.574z" clip-rule="evenodd"/>
    <path fill="#FEB8CA" fill-rule="evenodd" d="M183.871 127.278c-.273 2.77-2.05 4.862-3.969 4.673-.921-.091-1.753-.707-2.311-1.712-.559-1.004-.799-2.316-.668-3.646.273-2.77 2.05-4.862 3.969-4.672 1.918.189 3.253 2.587 2.979 5.357z" clip-rule="evenodd"/>
    <path fill="#7F90FF" fill-rule="evenodd" d="M177.853 119.885l1.219-10.803c.17-1.513 2.631-2.22 4.394.192l12.388 16.948c.927 1.268 3.074 2.215 1.724 2.918l-10.185 5.305c-1.351.703-2.627.005-3.268-1.431l-5.065-11.328c-.094-.21-1.378-.288-1.207-1.801z" clip-rule="evenodd"/>
    <path fill="#0CB" fill-rule="evenodd" d="M178.635 118.991l10.63-10.073s.637-.747 1.473-.617c.836.129 1.215.945 1.215.945s1.106 5.193 1.391 5.193c.285 0-14.709 4.552-14.709 4.552z" clip-rule="evenodd"/>
    <path fill="#fff" fill-rule="evenodd" d="M179.475 117.585l12.775-6.712c1.348-.708 2.806-.07 3.268 1.431l4.897 15.889c.463 1.5-.251 3.279-1.598 3.988l-12.775 6.712c-1.348.708-2.806.07-3.268-1.431l-4.896-15.889c-.463-1.5.249-3.279 1.597-3.988z" clip-rule="evenodd"/>
    <path fill="#363D63" fill-rule="evenodd" d="M188.735 129.161a.504.504 0 0 0-.228.055l-4.448 2.196a.502.502 0 1 0 .446.901l4.448-2.196a.502.502 0 0 0-.218-.956zM194.142 129.724a.503.503 0 0 0-.228.054l-8.952 4.392a.501.501 0 0 0-.059.869c.149.1.34.113.502.034l8.952-4.393a.502.502 0 0 0-.215-.956z" clip-rule="evenodd"/>
    <path fill="#FEB8CA" fill-rule="evenodd" d="M183.317 129.404c.349 1.29.328 2.623-.058 3.706-.386 1.084-1.105 1.828-1.998 2.069-.894.241-1.89-.04-2.768-.781-.879-.742-1.568-1.884-1.917-3.174-.348-1.29-.327-2.624.058-3.707.386-1.083 1.105-1.827 1.999-2.068 1.861-.503 3.958 1.268 4.684 3.955zM198.153 133.99l-1.895-.47-2.134 1.127-4.579 2.377c1.099 2.434 3.607 3.735 6.775 3.008 2.008-.526 4.678-2.381 4.678-2.381l-2.845-3.661z" clip-rule="evenodd"/>
    <path fill="#363D63" fill-rule="evenodd" d="M198.153 133.99l.579 4.083 2.999-.067-.548-4.997-3.03.981z" clip-rule="evenodd"/>
    <path fill="#0CB" fill-rule="evenodd" d="M202.146 135.866h25.215a3.226 3.226 0 0 1 3.233 3.233v19.297a3.226 3.226 0 0 1-3.233 3.234h-25.215a3.226 3.226 0 0 1-3.233-3.234v-19.297a3.226 3.226 0 0 1 3.233-3.233z" clip-rule="evenodd"/>
    <path fill="#363D63" fill-rule="evenodd" d="M202.146 135.364a3.738 3.738 0 0 0-3.736 3.735v19.297a3.739 3.739 0 0 0 3.736 3.736h25.215a.5.5 0 0 0 .45-.759.502.502 0 0 0-.45-.245h-25.215a2.716 2.716 0 0 1-2.731-2.732v-19.297a2.715 2.715 0 0 1 2.731-2.731h25.215a2.715 2.715 0 0 1 2.731 2.731v11.39a.5.5 0 0 0 .754.438.5.5 0 0 0 .25-.438v-11.39a3.737 3.737 0 0 0-3.735-3.735h-25.215z" clip-rule="evenodd"/>
    <path fill="#fff" fill-rule="evenodd" d="M270.702 173.051h-27.398v3.751l1.857 3.876h23.559l1.982-3.955v-3.672z" clip-rule="evenodd"/>
    <path fill="#363D63" fill-rule="evenodd" d="M270.695 172.542a.502.502 0 0 0-.495.509v3.554l-1.929 3.647c-.301.6.598 1.05.899.45l1.982-3.754a.489.489 0 0 0 .052-.225v-3.672a.501.501 0 0 0-.509-.509zM243.296 172.542a.503.503 0 0 0-.495.509v3.751a.522.522 0 0 0 .05.217l1.857 3.675c.278.637 1.228.182.906-.433l-1.807-3.573v-3.637a.5.5 0 0 0-.511-.509z" clip-rule="evenodd"/>
    <path fill="#7F90FF" fill-rule="evenodd" d="M243.496 125.841a5.697 5.697 0 0 0-4.653 8.939s.435.602 1.377 2.682a3.575 3.575 0 0 0-1.552 2.942 3.575 3.575 0 0 0 2.631 3.443 3.572 3.572 0 0 0 1.558 5.678 3.577 3.577 0 0 0-1.315 2.765 3.578 3.578 0 0 0 3.574 3.575 3.604 3.604 0 0 0 1.056-.164l.128.52a5.697 5.697 0 1 0 11.077-2.673c-.124-.511-.247-1.011-.371-1.503a3.575 3.575 0 0 0 2.794-3.484 3.573 3.573 0 0 0-2.873-3.503 3.578 3.578 0 0 0 1.164-2.634 3.574 3.574 0 0 0-3.574-3.574l-.065.005a3.568 3.568 0 0 0-3.634-5.59c-1.41-3.129-2.512-4.829-2.512-4.829a5.71 5.71 0 0 0-4.81-2.595z" clip-rule="evenodd"/>
    <path fill="#363D63" fill-rule="evenodd" d="M247.366 139.483a.501.501 0 0 0-.448.707s6.308 14.68 6.942 31.67a.504.504 0 1 0 1.005-.038c-.643-17.216-7.024-32.029-7.024-32.029a.503.503 0 0 0-.475-.31z" clip-rule="evenodd"/>
    <path fill="#0CB" fill-rule="evenodd" d="M284.141 134.637a5.696 5.696 0 0 1 1.439 9.974s-.611.425-2.186 2.076c.695.949.88 2.179.492 3.29a3.573 3.573 0 0 1-3.621 2.38c.302.789.314 1.659.036 2.456a3.575 3.575 0 0 1-3.381 2.389 3.574 3.574 0 0 1-1.497 5.084 3.575 3.575 0 0 1-2.731.153 3.578 3.578 0 0 1-.942-.504l-.293.448a5.697 5.697 0 1 1-9.571-6.181c.285-.442.567-.873.846-1.297a3.575 3.575 0 0 1-1.486-4.211 3.573 3.573 0 0 1 3.869-2.358 3.577 3.577 0 0 1-.228-2.87 3.571 3.571 0 0 1 4.615-2.169 3.571 3.571 0 0 1 .046-2.209 3.575 3.575 0 0 1 4.554-2.192c.236.084.463.193.677.325 2.365-2.487 3.967-3.727 3.967-3.727a5.695 5.695 0 0 1 5.395-.857z" clip-rule="evenodd"/>
    <path fill="#363D63" fill-rule="evenodd" d="M271.97 152.482a.504.504 0 0 0-.309.115s-10.377 8.221-12.076 19.083a.504.504 0 0 0 .678.55.502.502 0 0 0 .315-.395c1.613-10.316 11.71-18.454 11.71-18.454a.502.502 0 0 0-.318-.899z" clip-rule="evenodd"/>
    <path fill="#7F90FF" fill-rule="evenodd" d="M268.931 168.886a2.269 2.269 0 0 1 2.274 2.273v2.846h-28.403v-2.846a2.268 2.268 0 0 1 2.273-2.273h23.856z" clip-rule="evenodd"/>
    <path fill="#fff" fill-rule="evenodd" d="M49.04 180.659h29.548v-6.944H49.04v6.944z" clip-rule="evenodd"/>
    <path fill="#363D63" fill-rule="evenodd" d="M78.058 172.193a.523.523 0 0 0-.516.53v7.726c0 .697 1.046.697 1.046 0v-7.726a.522.522 0 0 0-.53-.53zM49.554 172.193a.524.524 0 0 0-.514.53v7.726c0 .697 1.045.697 1.045 0v-7.726a.522.522 0 0 0-.53-.53zM61.66 132.964a.522.522 0 0 0-.515.53v36.807a.524.524 0 0 0 .785.456.526.526 0 0 0 .26-.456v-36.807a.522.522 0 0 0-.53-.53z" clip-rule="evenodd"/>
    <path fill="#0CB" fill-rule="evenodd" d="M58.94 129.502c4.11-.254 6.71 2.218 1.577 7.35-5.132 5.132-11.215 7.37-13.587 4.998-2.371-2.371-.133-8.454 4.999-13.586s7.561-2.717 7.01 1.238z" clip-rule="evenodd"/>
    <path fill="#363D63" fill-rule="evenodd" d="M68.557 106.049a.522.522 0 0 0-.515.53v63.795a.524.524 0 1 0 1.045 0v-63.795a.529.529 0 0 0-.153-.378.526.526 0 0 0-.377-.152zM65 114.17a.523.523 0 0 0-.514.53v55.601a.52.52 0 0 0 .79.467.522.522 0 0 0 .255-.467V114.7a.525.525 0 0 0-.53-.53zM72.205 132.964a.522.522 0 0 0-.514.53v36.807a.523.523 0 1 0 1.045 0v-36.807a.522.522 0 0 0-.53-.53zM57.483 151.132a.523.523 0 0 0-.515.53v18.639a.525.525 0 1 0 1.046 0v-18.639a.524.524 0 0 0-.53-.53z" clip-rule="evenodd"/>
    <path fill="#7F90FF" fill-rule="evenodd" d="M71.284 126.766c-4.31-.267-7.036 2.326-1.654 7.708s11.762 7.729 14.25 5.242c2.487-2.487.14-8.867-5.242-14.249-5.383-5.383-7.93-2.849-7.354 1.299z" clip-rule="evenodd"/>
    <path fill="#0CB" fill-rule="evenodd" d="M68.043 145.083c-4.975-.307-8.12 2.684-1.909 8.896 6.211 6.211 13.574 8.919 16.444 6.049 2.87-2.87.162-10.232-6.05-16.444-6.21-6.211-9.15-3.288-8.485 1.499z" clip-rule="evenodd"/>
    <path fill="#7F90FF" fill-rule="evenodd" d="M63.98 113.49c2.629-.163 4.291 1.418 1.009 4.7-3.282 3.282-7.173 4.714-8.69 3.197-1.516-1.517-.085-5.407 3.197-8.69 3.282-3.282 4.836-1.737 4.484.793z" clip-rule="evenodd"/>
    <path fill="#0CB" fill-rule="evenodd" d="M69.069 103.884c-2.63-.163-4.291 1.418-1.01 4.7 3.283 3.283 7.174 4.714 8.69 3.197 1.517-1.517.086-5.407-3.197-8.69-3.282-3.282-4.835-1.737-4.483.793z" clip-rule="evenodd"/>
    <path fill="#7F90FF" fill-rule="evenodd" d="M56.956 151.011c4.11-.254 6.71 2.218 1.578 7.35-5.133 5.132-11.215 7.37-13.587 4.998-2.372-2.371-.134-8.455 4.998-13.586 5.132-5.133 7.562-2.717 7.011 1.238z" clip-rule="evenodd"/>
    <path fill="#0CB" fill-rule="evenodd" d="M76.223 168.39a2.36 2.36 0 0 1 2.365 2.366v2.959H49.04v-2.959a2.36 2.36 0 0 1 2.364-2.366h24.819z" clip-rule="evenodd"/>
    <path fill="#363D63" fill-rule="evenodd" d="M8.578 180.176a.503.503 0 0 0 0 1.005h267.571a.504.504 0 0 0 .436-.754.504.504 0 0 0-.436-.251H8.578z" clip-rule="evenodd"/>
    <path fill="#fff" fill-rule="evenodd" d="M179.081 57.352h43.018v-9.084h-43.018v9.084z" clip-rule="evenodd"/>
    <path fill="#0CB" fill-rule="evenodd" d="M200.59 25.82a21.462 21.462 0 0 0-21.509 21.51v.938h43.018v-.939A21.462 21.462 0 0 0 200.59 25.82z" clip-rule="evenodd"/>
    <path fill="#7F90FF" fill-rule="evenodd" d="M179.081 57.352h43.018v-2.665h-43.018v2.665z" clip-rule="evenodd"/>
    <path fill="#363D63" fill-rule="evenodd" d="M179.081 54.185a.5.5 0 0 0-.438.755c.09.156.258.251.438.25h43.018a.505.505 0 0 0 .439-.755.504.504 0 0 0-.439-.25h-43.018z" clip-rule="evenodd"/>
</svg>
