<svg width="20" height="25" viewBox="0 0 20 25" fill="none" xmlns="http://www.w3.org/2000/svg">
<path fill-rule="evenodd" clip-rule="evenodd" d="M14.1988 15.1583C14.1988 12.5001 12.3182 10.6648 9.79017 10.6648C7.22926 10.6648 5.34924 12.5001 5.34924 15.1583C5.34924 17.8165 7.22926 19.684 9.79017 19.684C12.3182 19.684 14.1988 17.8165 14.1988 15.1583M5.51035 23.3864H5.47808L5.51035 23.5761V24.6837H0V0H5.51035V6.80397L5.47808 6.99363H5.51035C6.77466 5.9181 8.52497 5.38003 10.5676 5.38003C16.24 5.38003 20 9.33554 20 15.19C20 21.0445 16.24 25 10.5676 25C8.52497 25 6.77466 24.4625 5.51035 23.3864" fill="#6767E5"/>
</svg>
