 <svg width="48" height="53" viewBox="0 0 48 53" fill="none" xmlns="http://www.w3.org/2000/svg">
<path fill-rule="evenodd" clip-rule="evenodd" d="M27.1462 29.1907C27.1462 27.0263 25.6869 25.5319 23.7253 25.5319C21.7382 25.5319 20.2794 27.0263 20.2794 29.1907C20.2794 31.3551 21.7382 32.8757 23.7253 32.8757C25.6869 32.8757 27.1462 31.3551 27.1462 29.1907ZM20.2757 36.0418H20.2507L20.2757 36.1963V37.0981H16V17H20.2757V22.54L20.2507 22.6944H20.2757C21.2567 21.8187 22.6149 21.3806 24.1998 21.3806C28.6012 21.3806 31.5188 24.6012 31.5188 29.3681C31.5188 34.135 28.6012 37.3557 24.1998 37.3557C22.6149 37.3557 21.2567 36.918 20.2757 36.0418Z" fill="#6767E5"/>
</svg>
