<svg width="280" height="175" viewBox="0 0 280 175" fill="none" xmlns="http://www.w3.org/2000/svg">
<path fill-rule="evenodd" clip-rule="evenodd" d="M157.214 12.8447C139.863 12.8587 124.272 22.4536 117.86 37.0641C109.42 33.9895 100.512 32.4006 91.5299 32.3673C70.9095 32.3673 51.134 40.5587 36.5533 55.1396C10.7543 84.1739 12.0118 108.523 24.7924 139.181C13.4426 145.8 6.45525 157.943 6.43652 171.082C6.44256 172.21 6.49811 173.337 6.60573 174.46H272.524C271.778 164.979 268.23 155.933 262.33 148.474C266.636 141.576 268.929 133.611 268.948 125.479C268.926 108.511 259.065 93.0965 243.669 85.9641C245.883 80.7679 247.025 75.1777 247.027 69.5295C247.027 58.4016 242.607 47.7298 234.738 39.8612C226.87 31.9927 216.198 27.5723 205.07 27.5727C200.702 27.5901 196.362 28.2889 192.21 29.6454C184.325 19.1482 171.226 12.86 157.214 12.8447Z" fill="#E1E1FD"/>
<path fill-rule="evenodd" clip-rule="evenodd" d="M212.94 116.358L214.488 166.707L220.395 174.459H209.541L205.111 152.161L200.311 133.481L193.74 152.235L188.257 174.459H177.644L184.141 167.002L186.365 116.358H212.94Z" fill="#363D63"/>
<path fill-rule="evenodd" clip-rule="evenodd" d="M205.054 70.9355V72.267L201.559 75.7613H199.4L197.382 72.267V70.9359L195.028 73.0362C190.825 74.5041 184.828 77.5311 182.997 81.6755L175.62 93.6203L166.171 100.342L169.081 104.501C173.776 102.766 179.739 101.105 183.125 96.7422C183.379 96.2146 185.723 93.3355 186.892 91.5108V116.358H212.941V105.809C219.111 107.654 224.055 106.921 223.069 97.5048C223.069 97.5048 222.391 88.9479 221.66 86.1286C220.929 83.3092 219.206 81.8994 219.206 81.8994L210.397 75.5444L205.054 70.9355Z" fill="#00CCBB"/>
<path fill-rule="evenodd" clip-rule="evenodd" d="M197.381 69.902V72.2671L199.399 75.7617H201.558L205.053 72.2671V65.6338C205.053 65.6338 204.909 65.8344 204.61 66.1522C204.46 66.3109 204.271 66.4986 204.042 66.7059C203.813 66.9122 203.543 67.1379 203.232 67.3719C202.92 67.6055 202.567 67.8478 202.169 68.0871C201.772 68.3271 201.332 68.5649 200.846 68.7893C200.603 68.9017 200.35 69.0109 200.084 69.1157C199.819 69.2205 199.542 69.3208 199.253 69.4154C198.965 69.5097 198.665 69.5982 198.353 69.6795C198.041 69.7614 197.717 69.8357 197.381 69.9014C197.381 69.9014 197.381 69.9014 197.381 69.902Z" fill="#FEB8CA"/>
<path fill-rule="evenodd" clip-rule="evenodd" d="M197.942 71.0801C197.942 71.0801 197.942 71.0801 197.942 71.0798C198.269 70.9792 198.583 70.8716 198.885 70.7579C199.187 70.6443 199.476 70.5249 199.754 70.4011C200.031 70.2773 200.296 70.1484 200.549 70.0166C200.801 69.8846 201.043 69.7497 201.273 69.6125C201.732 69.3389 202.146 69.0563 202.515 68.7766C202.886 68.4966 203.212 68.2195 203.497 67.9544C203.783 67.689 204.027 67.4366 204.234 67.2074C204.44 66.9776 204.608 66.7713 204.741 66.5976C205.006 66.2506 205.127 66.0363 205.127 66.0363C205.548 65.3195 205.83 64.5643 205.919 63.7916L208.174 63.5554C209.689 63.3966 210.781 62.049 210.622 60.5338C210.464 59.0182 209.116 57.9262 207.6 58.0849L205.456 58.3093L205.109 54.9938C204.677 50.8706 201.023 47.8976 196.917 48.3274C192.81 48.7579 189.852 52.4233 190.284 56.5465L190.631 59.862C189.119 60.0236 188.03 61.37 188.188 62.8833C188.347 64.3986 189.695 65.4909 191.21 65.3322H191.222C191.741 68.9741 193.034 71.6754 196.808 71.2801C197.177 71.2414 197.556 71.1738 197.942 71.0801Z" fill="#FEB8CA"/>
<path fill-rule="evenodd" clip-rule="evenodd" d="M191.987 56.811L201.515 55.8133C201.515 55.8133 202.956 55.531 203.318 56.4904C203.682 57.4501 202.507 58.019 202.605 58.9536L202.88 61.5761C202.88 61.5761 202.859 62.6279 204.03 62.532C205.201 62.4352 206.645 58.1847 206.645 58.1847L208.229 58.019C208.229 58.019 210.516 57.2041 210.871 54.3831C211.224 51.5618 210.122 50.6012 209.077 50.3764C208.033 50.1514 207.093 49.5656 207.093 49.5656C207.093 49.5656 207.516 46.1885 204.496 44.9298C201.477 43.671 199.634 46.6202 197.165 45.8552C194.697 45.0901 191.258 43.1364 189.07 46.3053C186.882 49.4717 186.091 52.1101 186.433 53.1187C186.632 53.7066 188.346 57.0501 188.346 57.0501C188.346 57.0498 188.263 59.3304 189.09 60.4875C189.916 61.6444 190.854 61.9177 190.854 61.9177L190.34 57.0155C190.34 57.0155 190.736 56.9421 191.987 56.811Z" fill="#363D63"/>
<path fill-rule="evenodd" clip-rule="evenodd" d="M202.439 76.8203C202.246 76.8209 202.068 76.9289 201.978 77.1C201.888 77.2717 201.9 77.479 202.009 77.6387L205.193 82.4194C205.288 82.5619 205.447 82.6492 205.618 82.6524C205.789 82.6559 205.952 82.5749 206.052 82.4362L209.355 77.8733C209.473 77.7222 209.498 77.5197 209.422 77.3444C209.346 77.1695 209.18 77.0498 208.99 77.0321C208.8 77.0146 208.616 77.1022 208.509 77.2603L205.646 81.2133L202.88 77.0603C202.783 76.9108 202.617 76.8206 202.439 76.8203Z" fill="#363D63"/>
<path fill-rule="evenodd" clip-rule="evenodd" d="M192.089 75.1078C191.904 75.1145 191.737 75.2186 191.649 75.3811C191.561 75.5437 191.565 75.7408 191.66 75.8989L195.416 82.3907C195.506 82.5469 195.671 82.6456 195.851 82.6513C196.032 82.6573 196.203 82.5697 196.303 82.4192L199.487 77.6389C199.594 77.4831 199.609 77.2821 199.526 77.1126C199.443 76.9431 199.275 76.8316 199.087 76.8205C198.898 76.8097 198.719 76.9011 198.617 77.0596L195.9 81.1396L192.565 75.3748C192.469 75.2034 192.285 75.1002 192.089 75.1078Z" fill="#363D63"/>
<path fill-rule="evenodd" clip-rule="evenodd" d="M199.052 76.8274C198.861 76.8211 198.682 76.9192 198.585 77.0833C198.487 77.2478 198.487 77.4519 198.585 77.6163C198.682 77.7808 198.861 77.8789 199.052 77.8725H202.445C202.636 77.8789 202.815 77.7808 202.912 77.6163C203.009 77.4519 203.009 77.2478 202.912 77.0833C202.815 76.9192 202.636 76.8211 202.445 76.8274H199.052Z" fill="#363D63"/>
<path fill-rule="evenodd" clip-rule="evenodd" d="M202.187 68.3272C202.051 68.3247 201.92 68.3758 201.82 68.4685C199.985 70.1412 197.843 70.5672 197.843 70.5672C197.841 70.5672 197.838 70.5672 197.836 70.5672C197.836 70.5672 196.98 70.7463 196.065 70.7926C195.283 70.832 194.321 70.4285 194.321 70.4285C194.15 70.3495 193.95 70.3688 193.797 70.4783C193.644 70.5876 193.563 70.771 193.582 70.958C193.602 71.1447 193.72 71.3069 193.892 71.3818C193.892 71.3818 194.969 71.8949 196.118 71.8368C197.133 71.7853 198.043 71.5914 198.047 71.5904C198.052 71.5904 200.457 71.1244 202.525 69.2396C202.686 69.0964 202.743 68.8695 202.668 68.6672C202.594 68.465 202.402 68.3295 202.187 68.3272Z" fill="#363D63"/>
<path fill-rule="evenodd" clip-rule="evenodd" d="M193.488 60.4856C193.476 60.4869 193.463 60.4885 193.451 60.4907L192.717 60.5669C192.531 60.5863 192.37 60.7034 192.293 60.8742C192.217 61.0447 192.238 61.2434 192.348 61.3942C192.458 61.5456 192.64 61.6272 192.826 61.6075L193.56 61.5301C193.841 61.5021 194.049 61.2555 194.03 60.9736C194.01 60.6914 193.77 60.4764 193.488 60.4856Z" fill="#363D63"/>
<path fill-rule="evenodd" clip-rule="evenodd" d="M193.529 60.479C193.261 60.4673 193.028 60.6609 192.99 60.9263L192.429 64.4568C192.404 64.6174 192.454 64.7803 192.566 64.8984C192.678 65.0162 192.838 65.0755 193 65.0587L195.137 64.8349C195.324 64.8168 195.487 64.7 195.564 64.5285C195.64 64.3571 195.62 64.1578 195.509 64.006C195.399 63.8539 195.215 63.7736 195.028 63.7946L193.569 63.947L194.022 61.0898C194.048 60.9419 194.009 60.7898 193.914 60.673C193.819 60.5558 193.679 60.4851 193.529 60.479Z" fill="#363D63"/>
<path fill-rule="evenodd" clip-rule="evenodd" d="M185.72 86.2201C185.536 86.2274 185.369 86.3312 185.281 86.4935C185.193 86.6557 185.197 86.8522 185.292 87.0106L186.368 88.8769V116.359C186.368 116.546 186.468 116.719 186.63 116.813C186.792 116.906 186.991 116.906 187.153 116.813C187.315 116.719 187.414 116.546 187.414 116.359V88.7363C187.414 88.6442 187.39 88.5538 187.344 88.4744L186.197 86.4877C186.101 86.316 185.917 86.2125 185.72 86.2201Z" fill="#363D63"/>
<path fill-rule="evenodd" clip-rule="evenodd" d="M166.171 100.343L169.081 104.502L165.551 106.642L162.055 103.319L166.171 100.343Z" fill="#363D63"/>
<path fill-rule="evenodd" clip-rule="evenodd" d="M165.293 108.46C164.547 109.134 163.646 109.574 162.789 109.685C161.932 109.795 161.188 109.567 160.722 109.05C160.256 108.534 160.105 107.77 160.303 106.929C160.5 106.088 161.031 105.237 161.777 104.564C162.522 103.891 163.423 103.45 164.28 103.34C165.137 103.229 165.881 103.458 166.347 103.975C166.814 104.491 166.964 105.254 166.767 106.095C166.569 106.936 166.039 107.788 165.293 108.46Z" fill="#FEB8CA"/>
<path fill-rule="evenodd" clip-rule="evenodd" d="M150.855 102.12C150.042 102.12 149.298 102.758 149.189 103.549L148.62 107.639C148.097 107.816 147.584 108.021 147.083 108.255L143.807 105.778C143.169 105.296 142.193 105.372 141.618 105.946L138.093 109.472C137.518 110.047 137.442 111.023 137.924 111.66L140.27 114.764C139.976 115.329 139.719 115.914 139.501 116.513L135.695 117.042C134.904 117.152 134.267 117.895 134.267 118.709V123.694C134.267 124.508 134.904 125.251 135.695 125.361L139.201 125.849C139.419 126.576 139.693 127.285 140.02 127.97L137.924 130.743C137.442 131.38 137.518 132.357 138.093 132.932L141.618 136.457C142.193 137.032 143.169 137.107 143.807 136.626L146.408 134.659C147.157 135.056 147.938 135.388 148.743 135.652L149.189 138.855C149.298 139.646 150.042 140.283 150.855 140.283H155.841C156.655 140.283 157.398 139.646 157.508 138.855L157.955 135.643C158.758 135.381 159.538 135.051 160.285 134.657L162.889 136.626C163.527 137.107 164.503 137.032 165.078 136.457L168.603 132.932C169.178 132.357 169.254 131.38 168.772 130.743L166.674 127.967C167.003 127.283 167.281 126.574 167.502 125.848L171.001 125.361C171.793 125.251 172.429 124.508 172.429 123.694V118.709C172.429 117.895 171.793 117.152 171.001 117.042L167.204 116.514C166.984 115.913 166.724 115.328 166.428 114.761L168.772 111.66C169.254 111.023 169.178 110.047 168.603 109.472L165.078 105.946C164.503 105.371 163.527 105.296 162.889 105.778L159.611 108.255C159.112 108.02 158.599 107.812 158.076 107.635L157.508 103.549C157.398 102.758 156.655 102.12 155.841 102.12H150.855Z" fill="white"/>
<path fill-rule="evenodd" clip-rule="evenodd" d="M160.052 121.621C160.052 123.399 159.346 125.104 158.089 126.361C156.832 127.618 155.126 128.325 153.349 128.325C151.571 128.325 149.866 127.618 148.609 126.361C147.352 125.104 146.646 123.399 146.646 121.621C146.646 117.919 149.647 114.918 153.349 114.918C155.126 114.918 156.832 115.624 158.089 116.881C159.346 118.138 160.052 119.843 160.052 121.621Z" fill="#E1E1FD"/>
<path fill-rule="evenodd" clip-rule="evenodd" d="M214.473 92.4914C214.316 92.4956 214.17 92.5702 214.074 92.694C213.978 92.8184 213.943 92.9784 213.978 93.1311L215.03 98.0022L205.672 98.906C205.482 98.9194 205.315 99.0346 205.235 99.207C205.155 99.3794 205.175 99.5813 205.286 99.7346C205.398 99.8883 205.584 99.9692 205.773 99.9463L215.716 98.9863C215.864 98.9721 215.999 98.8946 216.087 98.7743C216.175 98.654 216.208 98.5013 216.176 98.3556L215 92.9108C214.95 92.6613 214.727 92.4841 214.473 92.4914Z" fill="#363D63"/>
<path fill-rule="evenodd" clip-rule="evenodd" d="M195.793 93.1532L198.191 92.0523C198.611 91.8596 199.104 92.0424 199.296 92.4618L206.125 107.335C206.318 107.755 206.135 108.248 205.715 108.44L203.317 109.541C202.898 109.734 202.405 109.551 202.212 109.132L195.383 94.2586C195.191 93.8389 195.373 93.3459 195.793 93.1532Z" fill="white"/>
<path fill-rule="evenodd" clip-rule="evenodd" d="M205.723 99.4256L201.889 94.4316C200.71 95.3374 201.087 96.3872 201.877 98.0818L196.599 96.9056C196.433 99.6789 197.841 103.239 201.111 104.103C203.213 104.59 206.571 104.175 206.571 104.175L205.723 99.4256Z" fill="#FEB8CA"/>
<path fill-rule="evenodd" clip-rule="evenodd" d="M210.308 99.1689L210.682 104.542L206.57 104.175L205.723 99.4258L210.308 99.1689Z" fill="#363D63"/>
<path fill-rule="evenodd" clip-rule="evenodd" d="M85.988 49.6172C86.8017 49.6172 87.5452 50.254 87.655 51.0454L88.2239 55.1359C88.7471 55.3121 89.2598 55.5178 89.7601 55.7512L93.0369 53.274C93.6744 52.7927 94.6503 52.868 95.2255 53.4432L98.7506 56.9683C99.3258 57.5435 99.401 58.5194 98.9195 59.1569L96.5737 62.26C96.8674 62.8261 97.1242 63.4102 97.3423 64.0096L101.149 64.5385C101.94 64.6486 102.577 65.3921 102.577 66.2054V71.1915C102.577 72.0045 101.94 72.7477 101.149 72.8581L97.643 73.3451C97.4249 74.0724 97.1509 74.7819 96.8236 75.467L98.9195 78.2397C99.401 78.8769 99.3258 79.8531 98.7506 80.4283L95.2255 83.9537C94.6503 84.5289 93.6744 84.6042 93.0369 84.1223L90.4353 82.1559C89.6871 82.5527 88.9058 82.8848 88.1007 83.148L87.655 86.3515C87.5452 87.1426 86.8017 87.7797 85.988 87.7797H81.003C80.1896 87.7797 79.4461 87.1426 79.336 86.3515L78.8893 83.1394C78.0858 82.8778 77.3064 82.5477 76.5591 82.1534L73.9541 84.1223C73.3166 84.6042 72.3407 84.5289 71.7655 83.9537L68.2404 80.4283C67.6655 79.8531 67.5899 78.8769 68.0718 78.2397L70.1703 75.4632C69.8401 74.7794 69.5633 74.0708 69.3423 73.3445L65.8423 72.8581C65.0512 72.7477 64.4141 72.0045 64.4141 71.1915V66.2054C64.4141 65.3921 65.0512 64.6486 65.8423 64.5385L69.6395 64.0108C69.8598 63.4102 70.1191 62.8248 70.4153 62.2575L68.0718 59.1569C67.5899 58.5197 67.6655 57.5435 68.2404 56.9683L71.7655 53.4432C72.3407 52.868 73.3166 52.7927 73.9541 53.274L77.2322 55.7518C77.7318 55.5166 78.2449 55.3093 78.7677 55.1315L79.336 51.0454C79.4461 50.254 80.1896 49.6172 81.003 49.6172H85.988ZM83.4957 62.414C79.7934 62.414 76.7922 65.4156 76.7922 69.1175C76.7922 72.8194 79.7934 75.8204 83.4957 75.8204C87.1976 75.8204 90.1988 72.8194 90.1988 69.1175C90.1985 65.4153 87.1976 62.414 83.4957 62.414Z" fill="#6767E5"/>
<path fill-rule="evenodd" clip-rule="evenodd" d="M134.259 123.164C133.971 123.169 133.74 123.406 133.744 123.695C133.744 124.781 134.552 125.73 135.624 125.879L138.826 126.324C138.998 126.855 139.198 127.376 139.429 127.886L137.507 130.428C136.855 131.291 136.955 132.533 137.724 133.301L141.249 136.827C142.017 137.595 143.259 137.695 144.122 137.043L146.484 135.258C147.062 135.548 147.657 135.801 148.266 136.016L148.671 138.928C148.82 139.999 149.769 140.806 150.855 140.806H155.841C156.927 140.806 157.876 139.999 158.025 138.928L158.432 136.007C159.039 135.794 159.633 135.543 160.209 135.256L162.574 137.043C163.438 137.695 164.68 137.596 165.448 136.828L168.973 133.302C169.741 132.534 169.841 131.291 169.189 130.429L167.266 127.885C167.545 127.27 167.805 126.646 168.002 126.001C168.06 125.821 168.016 125.624 167.888 125.485C167.76 125.347 167.567 125.288 167.383 125.332C167.199 125.375 167.054 125.515 167.002 125.696C166.788 126.397 166.521 127.081 166.203 127.74C166.118 127.917 166.138 128.127 166.257 128.283L168.355 131.059C168.667 131.471 168.616 132.181 168.233 132.563L164.709 136.088C164.326 136.47 163.617 136.521 163.205 136.21L160.6 134.24C160.438 134.118 160.22 134.101 160.041 134.195C159.32 134.576 158.568 134.894 157.793 135.146C157.603 135.208 157.464 135.373 157.437 135.572L156.99 138.784C156.919 139.295 156.382 139.761 155.841 139.761H150.855C150.315 139.761 149.778 139.295 149.707 138.784L149.261 135.581C149.234 135.383 149.096 135.218 148.906 135.156C148.129 134.901 147.375 134.582 146.653 134.198C146.474 134.103 146.255 134.12 146.093 134.243L143.492 136.209C143.079 136.52 142.37 136.47 141.988 136.088L138.463 132.562C138.081 132.18 138.031 131.47 138.342 131.059L140.438 128.286C140.555 128.13 140.576 127.922 140.492 127.745C140.177 127.084 139.912 126.4 139.701 125.699C139.643 125.503 139.475 125.359 139.272 125.331L135.767 124.844C135.256 124.773 134.79 124.236 134.79 123.695C134.792 123.553 134.737 123.417 134.636 123.317C134.537 123.218 134.4 123.163 134.259 123.164Z" fill="#363D63"/>
<path fill-rule="evenodd" clip-rule="evenodd" d="M94.1948 52.4323C93.6802 52.393 93.1538 52.5307 92.7221 52.8571L89.4449 55.3339C89.2938 55.4457 89.2145 55.6298 89.2373 55.8168C89.2599 56.0031 89.3808 56.1634 89.5541 56.2361C89.7275 56.3088 89.9265 56.2828 90.0754 56.1682L93.3529 53.6914C93.764 53.3799 94.4738 53.4301 94.856 53.8126L98.3818 57.338C98.5135 57.4714 98.7068 57.5241 98.8881 57.4761C99.0691 57.4279 99.211 57.2863 99.2592 57.105C99.3072 56.9234 99.2545 56.7304 99.1211 56.5987L95.5954 53.073C95.2113 52.6892 94.7091 52.472 94.1948 52.4323ZM68.0872 58.6288C67.884 58.6209 67.6948 58.732 67.6021 58.9126C67.5094 59.0936 67.5303 59.3117 67.6548 59.4723L69.8145 62.3279C69.6199 62.7219 69.4414 63.1234 69.2811 63.5326L65.771 64.0203C64.6995 64.1698 63.8916 65.119 63.8916 66.2053C63.8916 66.3923 63.9913 66.565 64.1532 66.6584C64.3148 66.7517 64.5141 66.7517 64.6757 66.6584C64.8376 66.565 64.9376 66.3923 64.9376 66.2053C64.9376 65.665 65.4033 65.1276 65.9145 65.0561L69.7119 64.5285C69.903 64.5019 70.0643 64.3726 70.131 64.1911C70.3437 63.6117 70.5929 63.0466 70.8789 62.4999C70.9722 62.3209 70.9545 62.1041 70.8329 61.9428L68.4894 58.8419C68.3948 58.713 68.2468 58.6345 68.0872 58.6288ZM96.5741 61.7304C96.3897 61.7292 96.2183 61.8257 96.123 61.9838C96.0278 62.1415 96.023 62.338 96.1103 62.5009C96.3938 63.0466 96.6414 63.6101 96.8522 64.1879C96.9183 64.3698 97.0795 64.5003 97.271 64.5269L101.077 65.0561C101.588 65.1276 102.054 65.665 102.054 66.2053V71.1907C102.054 71.7314 101.588 72.2685 101.077 72.3399L97.5716 72.8276C97.3691 72.8558 97.2018 72.9993 97.143 73.1949C96.9326 73.8965 96.6675 74.5806 96.3519 75.2412C96.2675 75.4177 96.2884 75.6263 96.4068 75.7825L98.503 78.5545C98.6132 78.7101 98.7995 78.7926 98.9884 78.7711C99.178 78.7492 99.3405 78.6266 99.4129 78.4504C99.4853 78.2739 99.4557 78.0723 99.3364 77.9241L97.4154 75.3825C97.6453 74.8733 97.8456 74.352 98.0183 73.8209L101.221 73.3755C102.293 73.2266 103.1 72.2771 103.1 71.1907V66.2053C103.1 65.1193 102.293 64.1698 101.221 64.0203L97.7027 63.532C97.503 63.0184 97.2922 62.5085 97.038 62.0193C96.95 61.8434 96.7706 61.7317 96.5741 61.7304ZM83.4957 61.8911C79.5113 61.8911 76.27 65.133 76.27 69.1177C76.2687 69.3053 76.3681 69.4793 76.5303 69.5733C76.6926 69.6676 76.8932 69.6676 77.0551 69.5733C77.2176 69.4793 77.3173 69.3053 77.3157 69.1177C77.3157 65.698 80.076 62.9368 83.4957 62.9368C86.9151 62.9368 89.6767 65.698 89.6767 69.1177C89.6767 72.5371 86.9151 75.2974 83.4957 75.2974C83.3087 75.2971 83.136 75.3968 83.0424 75.5587C82.9487 75.7206 82.9487 75.9203 83.0424 76.0819C83.136 76.2441 83.3087 76.3434 83.4957 76.3431C87.4802 76.3431 90.7214 73.1019 90.7214 69.1177C90.7214 65.133 87.4802 61.8911 83.4957 61.8911ZM65.8103 72.3345C65.5389 72.3469 65.3224 72.5653 65.3119 72.8368C65.3014 73.1082 65.5008 73.3425 65.7706 73.3755L68.9681 73.8203C69.143 74.3514 69.3459 74.8717 69.578 75.3799L67.6545 77.9241C67.0024 78.7872 67.1024 80.0301 67.8706 80.7984C68.0027 80.9304 68.1951 80.9822 68.3757 80.9336C68.5564 80.8853 68.6973 80.7444 68.7456 80.5641C68.7938 80.3834 68.7421 80.1911 68.61 80.0587C68.2278 79.6765 68.178 78.9663 68.4887 78.5545L70.5875 75.778C70.7056 75.6219 70.7259 75.4123 70.6408 75.2355C70.3224 74.5758 70.0551 73.8926 69.8418 73.192C69.7824 72.9974 69.6157 72.8552 69.4141 72.8269L65.9141 72.3399C65.8795 72.3345 65.8446 72.3323 65.8103 72.3345ZM90.4081 81.633C90.3322 81.6374 90.2576 81.658 90.1906 81.6939C89.4684 82.0765 88.7151 82.3968 87.9383 82.6507C87.7599 82.7079 87.6256 82.8565 87.5868 83.0399C87.5478 83.2228 87.61 83.4136 87.7497 83.538C87.8897 83.6631 88.0856 83.7038 88.263 83.6444C88.9865 83.4082 89.6799 83.0949 90.3595 82.7542L92.7221 84.5393C93.5849 85.1917 94.8275 85.0911 95.5954 84.3231C95.7287 84.1914 95.7808 83.9984 95.7326 83.8174C95.6843 83.6365 95.543 83.4952 95.3621 83.4466C95.1808 83.3984 94.9881 83.4507 94.856 83.5838C94.4738 83.966 93.7643 84.0158 93.3529 83.7047L90.7506 81.7387C90.6526 81.6641 90.5313 81.6269 90.4081 81.633Z" fill="#363D63"/>
<path fill-rule="evenodd" clip-rule="evenodd" d="M108.363 86.4199C109.176 86.4199 109.92 87.0564 110.03 87.8482L110.599 91.939C111.122 92.1148 111.635 92.3199 112.135 92.5539L115.412 90.0771C116.049 89.5955 117.025 89.6707 117.6 90.246L121.126 93.771C121.701 94.3463 121.776 95.3221 121.294 95.9596L118.949 99.0631C119.242 99.6288 119.499 100.213 119.717 100.812L123.524 101.341C124.315 101.451 124.952 102.195 124.952 103.008V107.994C124.952 108.807 124.315 109.55 123.524 109.661L120.018 110.148C119.8 110.875 119.526 111.585 119.199 112.27L121.294 115.042C121.776 115.68 121.701 116.656 121.126 117.231L117.6 120.756C117.025 121.331 116.049 121.407 115.412 120.925L112.811 118.959C112.062 119.356 111.281 119.687 110.475 119.951L110.03 123.154C109.92 123.945 109.176 124.582 108.363 124.582H103.378C102.564 124.582 101.821 123.945 101.711 123.154L101.264 119.942C100.461 119.681 99.6811 119.351 98.9341 118.956L96.3291 120.925C95.6919 121.407 94.7157 121.331 94.1408 120.756L90.6151 117.231C90.0402 116.656 89.9649 115.68 90.4465 115.042L92.5453 112.266C92.2148 111.582 91.9383 110.874 91.717 110.147L88.2173 109.661C87.4262 109.55 86.7891 108.807 86.7891 107.994V103.008C86.7891 102.195 87.4262 101.451 88.2173 101.341L92.0148 100.813C92.2351 100.213 92.4938 99.6272 92.7903 99.0606L90.4465 95.9596C89.9649 95.3221 90.0402 94.3463 90.6151 93.771L94.1408 90.246C94.7157 89.6707 95.6919 89.5955 96.3291 90.0771L99.6072 92.5548C100.107 92.3196 100.62 92.1123 101.143 91.9342L101.711 87.8482C101.821 87.0564 102.564 86.4199 103.378 86.4199H108.363ZM105.87 99.2167C102.168 99.2167 99.1672 102.218 99.1672 105.92C99.1672 109.622 102.168 112.623 105.87 112.623C109.573 112.623 112.574 109.622 112.574 105.92C112.574 102.218 109.573 99.2167 105.87 99.2167Z" fill="#00CCBB"/>
<path fill-rule="evenodd" clip-rule="evenodd" d="M116.569 89.2362C116.054 89.1962 115.528 89.3343 115.096 89.6603L111.819 92.1372C111.664 92.2476 111.581 92.434 111.602 92.6226C111.624 92.8121 111.747 92.9749 111.923 93.0473C112.099 93.1194 112.301 93.0902 112.45 92.9705L115.727 90.494C116.138 90.1829 116.848 90.2337 117.23 90.6159L120.755 94.141C120.887 94.2743 121.08 94.327 121.262 94.2791C121.442 94.2305 121.584 94.0892 121.632 93.9076C121.681 93.7264 121.628 93.5334 121.495 93.4016L117.969 89.8765C117.585 89.4924 117.083 89.2756 116.569 89.2362ZM90.4612 95.4315C90.258 95.4238 90.0692 95.5343 89.9765 95.7156C89.8838 95.8962 89.9041 96.1146 90.0292 96.2746L92.1876 99.1315C91.993 99.5254 91.8155 99.927 91.6555 100.336L88.145 100.823C87.0736 100.972 86.2657 101.922 86.2657 103.008C86.2634 103.196 86.3625 103.371 86.5253 103.466C86.6879 103.561 86.8892 103.561 87.052 103.466C87.2149 103.371 87.3139 103.196 87.3114 103.008C87.3114 102.468 87.7777 101.93 88.2885 101.859L92.086 101.331C92.2774 101.304 92.4384 101.175 92.5053 100.994C92.7174 100.415 92.9672 99.8495 93.253 99.3029C93.3466 99.1238 93.3285 98.907 93.2069 98.7454L90.8638 95.6442C90.7692 95.5159 90.6209 95.4372 90.4612 95.4315ZM118.948 98.5334C118.764 98.5321 118.592 98.6283 118.497 98.7864C118.402 98.9445 118.397 99.141 118.484 99.3035C118.768 99.8492 119.015 100.414 119.225 100.991C119.292 101.173 119.453 101.304 119.645 101.33L123.451 101.859C123.962 101.93 124.428 102.468 124.428 103.008V107.994C124.428 108.535 123.962 109.071 123.451 109.143L119.945 109.631C119.743 109.659 119.576 109.802 119.517 109.998C119.307 110.699 119.042 111.384 118.726 112.044C118.642 112.221 118.663 112.429 118.781 112.585L120.877 115.357C120.986 115.515 121.173 115.6 121.364 115.579C121.555 115.558 121.719 115.434 121.791 115.257C121.863 115.079 121.832 114.876 121.711 114.727L119.789 112.185C120.019 111.676 120.22 111.155 120.392 110.624L123.595 110.178C124.666 110.029 125.473 109.08 125.473 107.994V103.008C125.473 101.922 124.666 100.972 123.595 100.823L120.076 100.335C119.877 99.8207 119.666 99.3111 119.412 98.8219C119.324 98.6461 119.145 98.5346 118.948 98.5334ZM105.87 98.6946C101.885 98.6946 98.6441 101.936 98.6441 105.92C98.6374 106.111 98.7352 106.291 98.8996 106.389C99.0644 106.486 99.2688 106.486 99.4336 106.389C99.5977 106.291 99.6961 106.111 99.6888 105.92C99.6888 102.501 102.45 99.7394 105.87 99.7394C109.289 99.7394 112.05 102.501 112.051 105.92C112.051 109.34 109.289 112.1 105.87 112.1C105.682 112.099 105.508 112.198 105.414 112.361C105.32 112.523 105.32 112.723 105.414 112.886C105.508 113.048 105.682 113.147 105.87 113.146C109.855 113.146 113.096 109.905 113.096 105.92C113.096 101.936 109.855 98.6946 105.87 98.6946ZM88.1844 109.137C87.9133 109.15 87.6965 109.368 87.6863 109.64C87.6761 109.911 87.8755 110.145 88.145 110.178L91.3425 110.624C91.5174 111.155 91.7206 111.675 91.9523 112.183L90.0292 114.727C89.3768 115.591 89.4771 116.833 90.245 117.601C90.3768 117.735 90.5704 117.789 90.7523 117.741C90.9339 117.692 91.0758 117.551 91.1241 117.369C91.172 117.187 91.1187 116.993 90.9844 116.861C90.6025 116.479 90.5523 115.769 90.8634 115.357L92.9612 112.581C93.0793 112.425 93.1003 112.216 93.0152 112.039C92.6968 111.38 92.4298 110.695 92.2165 109.995C92.1571 109.8 91.9901 109.658 91.7888 109.63L88.2885 109.143C88.2542 109.137 88.2193 109.136 88.1844 109.137ZM112.835 118.436C112.741 118.432 112.648 118.453 112.564 118.497C111.843 118.88 111.089 119.2 110.312 119.454C110.129 119.508 109.99 119.657 109.949 119.843C109.907 120.029 109.97 120.223 110.114 120.349C110.257 120.475 110.458 120.513 110.637 120.447C111.36 120.211 112.054 119.898 112.734 119.557L115.096 121.342C115.959 121.994 117.201 121.894 117.969 121.126C118.102 120.994 118.154 120.801 118.105 120.621C118.057 120.44 117.916 120.299 117.736 120.251C117.555 120.203 117.362 120.254 117.23 120.386C116.848 120.769 116.138 120.819 115.727 120.508L113.125 118.541C113.041 118.477 112.94 118.441 112.835 118.436Z" fill="#363D63"/>
<path fill-rule="evenodd" clip-rule="evenodd" d="M257.002 149.973C256.713 149.977 256.482 150.215 256.487 150.503V164.1C256.48 164.291 256.578 164.47 256.742 164.567C256.907 164.664 257.111 164.664 257.276 164.567C257.44 164.47 257.538 164.291 257.532 164.1V150.503C257.534 150.362 257.479 150.226 257.379 150.126C257.279 150.026 257.142 149.97 257.002 149.973Z" fill="#363D63"/>
<path fill-rule="evenodd" clip-rule="evenodd" d="M250.104 99.8438C249.816 99.8483 249.585 100.085 249.589 100.373V164.174C249.587 164.362 249.687 164.536 249.849 164.63C250.011 164.724 250.212 164.724 250.374 164.63C250.537 164.536 250.636 164.362 250.635 164.174V100.373C250.637 100.232 250.581 100.096 250.481 99.9962C250.381 99.8965 250.245 99.8416 250.104 99.8438Z" fill="#363D63"/>
<path fill-rule="evenodd" clip-rule="evenodd" d="M253.659 115.912C253.371 115.917 253.141 116.154 253.145 116.442V164.1C253.143 164.288 253.243 164.463 253.405 164.557C253.567 164.652 253.768 164.652 253.93 164.557C254.093 164.463 254.192 164.288 254.191 164.1V116.442C254.193 116.301 254.137 116.165 254.037 116.065C253.937 115.965 253.801 115.91 253.659 115.912Z" fill="#363D63"/>
<path fill-rule="evenodd" clip-rule="evenodd" d="M246.454 136.067C246.166 136.072 245.936 136.309 245.939 136.597V164.1C245.938 164.288 246.037 164.462 246.2 164.557C246.362 164.651 246.563 164.651 246.725 164.557C246.887 164.462 246.987 164.288 246.986 164.1V136.597C246.987 136.456 246.932 136.32 246.832 136.22C246.732 136.12 246.595 136.065 246.454 136.067Z" fill="#363D63"/>
<path fill-rule="evenodd" clip-rule="evenodd" d="M261.178 135.102C260.889 135.106 260.659 135.344 260.663 135.632V164.1C260.662 164.287 260.762 164.46 260.924 164.554C261.086 164.648 261.286 164.648 261.448 164.554C261.61 164.46 261.709 164.287 261.709 164.1V135.632C261.711 135.491 261.656 135.355 261.555 135.255C261.456 135.155 261.319 135.1 261.178 135.102Z" fill="#363D63"/>
<path fill-rule="evenodd" clip-rule="evenodd" d="M240.087 174.459H269.638V167.516H240.087V174.459Z" fill="white"/>
<path fill-rule="evenodd" clip-rule="evenodd" d="M240.603 165.993C240.314 165.999 240.083 166.234 240.087 166.523V174.25C240.087 174.947 241.133 174.947 241.133 174.25V166.523C241.138 166.228 240.897 165.989 240.603 165.993Z" fill="#363D63"/>
<path fill-rule="evenodd" clip-rule="evenodd" d="M269.107 165.993C268.818 165.999 268.588 166.235 268.592 166.523V174.25C268.592 174.947 269.638 174.947 269.638 174.25V166.523C269.644 166.228 269.402 165.988 269.107 165.993Z" fill="#363D63"/>
<path fill-rule="evenodd" clip-rule="evenodd" d="M242.453 162.19C241.142 162.19 240.087 163.246 240.087 164.556V167.516H269.638V164.556C269.638 163.246 268.583 162.19 267.273 162.19H242.453Z" fill="#00CCBB"/>
<path fill-rule="evenodd" clip-rule="evenodd" d="M260.38 99.1099C260.381 101.841 259.295 104.461 257.364 106.392C255.433 108.324 252.813 109.409 250.082 109.409C247.35 109.409 244.731 108.324 242.799 106.392C240.868 104.461 239.783 101.841 239.783 99.1099C239.783 93.422 244.394 88.8115 250.082 88.8115C255.77 88.8115 260.38 93.422 260.38 99.1099Z" fill="#00CCBB"/>
<path fill-rule="evenodd" clip-rule="evenodd" d="M260.067 119.288C260.067 120.855 259.444 122.358 258.336 123.466C257.228 124.573 255.726 125.196 254.159 125.196C250.896 125.196 248.252 122.551 248.252 119.288C248.252 117.722 248.874 116.219 249.982 115.111C251.09 114.003 252.592 113.381 254.159 113.381C255.726 113.381 257.228 114.003 258.336 115.111C259.444 116.219 260.067 117.722 260.067 119.288Z" fill="#7F90FF"/>
<path fill-rule="evenodd" clip-rule="evenodd" d="M252.015 138.317C252.015 141.58 249.371 144.225 246.108 144.225C242.846 144.225 240.201 141.58 240.201 138.317C240.201 136.751 240.823 135.248 241.931 134.14C243.039 133.033 244.541 132.41 246.108 132.41C247.675 132.41 249.178 133.033 250.285 134.14C251.393 135.248 252.015 136.751 252.015 138.317Z" fill="#7F90FF"/>
<path fill-rule="evenodd" clip-rule="evenodd" d="M261.739 150.865C261.739 154.127 259.094 156.772 255.832 156.772C252.569 156.772 249.925 154.128 249.925 150.865C249.925 149.298 250.547 147.795 251.655 146.687C252.763 145.579 254.265 144.957 255.832 144.957C259.094 144.957 261.739 147.602 261.739 150.865Z" fill="#7F90FF"/>
<path fill-rule="evenodd" clip-rule="evenodd" d="M267.804 134.763C267.804 138.025 265.159 140.67 261.897 140.67C258.634 140.67 255.989 138.025 255.989 134.763C255.989 133.196 256.612 131.693 257.719 130.586C258.828 129.477 260.33 128.855 261.897 128.855C263.463 128.855 264.966 129.477 266.074 130.586C267.182 131.693 267.804 133.196 267.804 134.763Z" fill="#00CCBB"/>
<path fill-rule="evenodd" clip-rule="evenodd" d="M95.1772 161.843C98.755 161.847 102.09 163.655 104.044 166.653C106.089 164.861 108.713 163.872 111.432 163.869C117.384 163.871 122.3 168.517 122.639 174.46H57.7324C58.7632 170.984 61.9556 168.6 65.5807 168.598C68.614 168.6 71.3978 170.278 72.8159 172.959C73.8572 169.139 77.3267 166.488 81.2867 166.487C82.8404 166.491 84.3654 166.907 85.7061 167.692C87.5023 164.108 91.1677 161.844 95.1772 161.843Z" fill="#C3C3FC"/>
<path fill-rule="evenodd" clip-rule="evenodd" d="M152.288 68.1253C152.288 75.2075 146.546 80.9484 139.464 80.9484C132.382 80.9484 126.641 75.2075 126.641 68.1253C126.641 61.0437 132.382 55.3027 139.464 55.3027C146.546 55.3027 152.288 61.0437 152.288 68.1253Z" fill="#7F90FF"/>
<path fill-rule="evenodd" clip-rule="evenodd" d="M154.155 55.2774C153.489 55.2789 152.849 55.5399 152.371 56.005L138.829 68.824L135.156 65.0126C134.522 64.3443 133.578 64.0678 132.684 64.2872C131.79 64.5069 131.082 65.1891 130.829 66.0748C130.576 66.9605 130.818 67.9132 131.462 68.5723L136.899 74.2132C137.876 75.2269 139.487 75.264 140.509 74.2967L155.897 59.73C156.677 59.0135 156.936 57.8929 156.55 56.9075C156.164 55.9221 155.213 55.2748 154.155 55.2774Z" fill="white"/>
<path fill-rule="evenodd" clip-rule="evenodd" d="M154.154 54.7549C153.35 54.7549 152.58 55.072 152.006 55.6308C151.866 55.7593 151.806 55.9549 151.851 56.14C151.897 56.325 152.039 56.4711 152.223 56.5209C152.407 56.5708 152.603 56.5165 152.736 56.3797C153.116 56.0085 153.625 55.7997 154.155 55.7997C155.111 55.7952 155.774 56.3622 156.062 57.0981C156.349 57.8343 156.246 58.6984 155.542 59.3454C155.54 59.347 155.538 59.3489 155.537 59.3504L140.148 73.9168C139.33 74.6911 138.056 74.6619 137.274 73.8504L131.837 68.2092C131.835 68.2079 131.833 68.2063 131.831 68.2044C131.034 67.3895 131.053 66.0974 131.874 65.3063C132.014 65.1781 132.074 64.9838 132.03 64.799C131.985 64.6139 131.844 64.4676 131.661 64.4165C131.478 64.366 131.282 64.4184 131.148 64.5539C129.918 65.7387 129.889 67.7146 131.083 68.9352L136.518 74.5743C137.69 75.7901 139.637 75.8352 140.863 74.6749L156.246 60.1133C157.264 59.1765 157.46 57.812 157.031 56.7168C156.603 55.6212 155.533 54.7523 154.154 54.7549Z" fill="#363D63"/>
<path fill-rule="evenodd" clip-rule="evenodd" d="M166.96 143.145C166.608 143.159 166.37 143.509 166.487 143.841L176.786 174.431C177.001 175.103 178.01 174.766 177.778 174.099L167.478 143.509C167.407 143.285 167.195 143.136 166.96 143.145Z" fill="#363D63"/>
<path fill-rule="evenodd" clip-rule="evenodd" d="M155.486 143.145C155.135 143.159 154.897 143.509 155.013 143.841L165.312 174.431C165.529 175.1 166.533 174.765 166.304 174.099L156.004 143.509C155.933 143.285 155.721 143.136 155.486 143.145Z" fill="#363D63"/>
<path fill-rule="evenodd" clip-rule="evenodd" d="M171.519 133.963C172.54 133.963 173.362 134.645 173.362 135.493V140.646H67.334V135.493C67.334 134.645 68.1556 133.963 69.1762 133.963H171.519Z" fill="#00CCBB"/>
<path fill-rule="evenodd" clip-rule="evenodd" d="M67.334 143.466H173.362V140.646H67.334V143.466Z" fill="white"/>
<path fill-rule="evenodd" clip-rule="evenodd" d="M65.2653 142.942C65.0777 142.941 64.9037 143.041 64.8097 143.203C64.7158 143.366 64.7158 143.566 64.8097 143.728C64.9037 143.89 65.0777 143.99 65.2653 143.988H174.445C174.633 143.99 174.807 143.89 174.901 143.728C174.995 143.566 174.995 143.366 174.901 143.203C174.807 143.041 174.633 142.941 174.445 142.942H65.2653Z" fill="#363D63"/>
<path fill-rule="evenodd" clip-rule="evenodd" d="M127.144 133.44C126.956 133.439 126.782 133.538 126.688 133.7C126.594 133.863 126.594 134.064 126.688 134.226C126.782 134.388 126.956 134.487 127.144 134.486H171.519C171.707 134.487 171.881 134.388 171.975 134.226C172.069 134.064 172.069 133.863 171.975 133.7C171.881 133.538 171.707 133.439 171.519 133.44H127.144Z" fill="#363D63"/>
<path fill-rule="evenodd" clip-rule="evenodd" d="M153.349 114.396C149.364 114.396 146.123 117.637 146.123 121.621C146.123 125.606 149.364 128.847 153.349 128.847C157.334 128.847 160.575 125.606 160.575 121.621C160.575 117.637 157.334 114.396 153.349 114.396ZM153.349 115.441C156.768 115.441 159.529 118.202 159.529 121.621C159.529 125.041 156.768 127.802 153.349 127.802C149.929 127.802 147.169 125.041 147.169 121.621C147.169 118.202 149.929 115.441 153.349 115.441Z" fill="#363D63"/>
<path fill-rule="evenodd" clip-rule="evenodd" d="M69.7892 143.145C69.56 143.145 69.3568 143.291 69.2873 143.509L58.9876 174.177C58.7553 174.844 59.7645 175.181 59.9794 174.508L70.2791 143.84C70.3975 143.501 70.1476 143.147 69.7892 143.145Z" fill="#363D63"/>
<path fill-rule="evenodd" clip-rule="evenodd" d="M81.2632 143.145C81.0343 143.145 80.8308 143.291 80.7613 143.509L70.4616 174.177C70.2321 174.843 71.2368 175.178 71.4533 174.508L81.753 143.84C81.8714 143.501 81.6216 143.147 81.2632 143.145Z" fill="#363D63"/>
<path fill-rule="evenodd" clip-rule="evenodd" d="M45.5996 155.691C45.5996 158.418 46.6828 161.033 48.6107 162.961C50.539 164.889 53.1542 165.972 55.8806 165.972C58.6072 165.972 61.2221 164.889 63.1504 162.961C65.0783 161.033 66.1615 158.418 66.1615 155.691C66.1615 150.013 61.5587 145.41 55.8806 145.41C53.1542 145.41 50.539 146.493 48.611 148.421C46.6828 150.349 45.5996 152.964 45.5996 155.691Z" fill="#7F90FF"/>
<path fill-rule="evenodd" clip-rule="evenodd" d="M53.0202 155.691C53.0202 158.418 51.9367 161.033 50.0088 162.961C48.0809 164.889 45.4659 165.972 42.7393 165.972C40.0123 165.972 37.3974 164.889 35.4691 162.961C33.5412 161.033 32.458 158.418 32.458 155.691C32.458 152.964 33.5412 150.349 35.4691 148.421C37.3974 146.493 40.0123 145.41 42.7393 145.41C45.4659 145.41 48.0809 146.493 50.0088 148.421C51.9367 150.349 53.0202 152.964 53.0202 155.691Z" fill="#6767E5"/>
<path fill-rule="evenodd" clip-rule="evenodd" d="M39.8215 153.287C39.5599 153.284 39.3361 153.474 39.2977 153.733C39.2593 153.992 39.4183 154.24 39.6694 154.312C39.6694 154.312 40.7218 154.622 41.8501 155.922C42.978 157.223 44.144 159.501 44.144 163.5C44.1437 163.687 44.2434 163.86 44.4053 163.954C44.5672 164.047 44.7663 164.047 44.9282 163.954C45.0901 163.86 45.1898 163.687 45.1898 163.5C45.1898 159.295 43.9336 156.729 42.6396 155.237C41.3453 153.745 39.9761 153.313 39.9761 153.313C39.926 153.297 39.8739 153.288 39.8215 153.287Z" fill="#363D63"/>
<path fill-rule="evenodd" clip-rule="evenodd" d="M58.7831 153.289C58.7358 153.29 58.6891 153.299 58.644 153.313C58.644 153.313 57.2745 153.745 55.9808 155.237C54.6869 156.729 53.4307 159.296 53.4307 163.501C53.4294 163.689 53.5285 163.862 53.691 163.957C53.8535 164.051 54.0535 164.051 54.2161 163.957C54.3783 163.862 54.4777 163.689 54.4764 163.501C54.4764 159.501 55.6421 157.223 56.77 155.922C57.8983 154.622 58.9507 154.312 58.9507 154.312C59.204 154.238 59.3621 153.987 59.3196 153.726C59.277 153.466 59.0469 153.278 58.7831 153.289Z" fill="#363D63"/>
<path fill-rule="evenodd" clip-rule="evenodd" d="M45.9401 156.447C45.7677 156.445 45.6048 156.527 45.5054 156.668L43.8985 158.868C43.7864 159.019 43.7632 159.218 43.8391 159.39C43.9143 159.563 44.0766 159.681 44.2635 159.7C44.4502 159.72 44.6337 159.637 44.7426 159.485L46.3499 157.285C46.4683 157.128 46.4883 156.917 46.402 156.74C46.3153 156.564 46.1369 156.45 45.9401 156.447Z" fill="#363D63"/>
<path fill-rule="evenodd" clip-rule="evenodd" d="M66.9482 163.38C66.9482 169.058 71.5514 173.661 77.2292 173.661C79.9559 173.661 82.5711 172.578 84.499 170.65C86.4273 168.722 87.5101 166.107 87.5101 163.38C87.5101 160.653 86.427 158.038 84.499 156.11C82.5711 154.182 79.9559 153.099 77.2292 153.099C71.5514 153.099 66.9482 157.702 66.9482 163.38Z" fill="#B7D0F9"/>
<path fill-rule="evenodd" clip-rule="evenodd" d="M81.1662 167.42C83.1586 169.412 88.2484 167.554 92.5342 163.268C96.8202 158.982 98.6792 153.892 96.6862 151.899C95.7294 150.943 93.9942 150.842 91.8621 151.621C89.73 152.399 87.3761 153.993 85.318 156.051C81.0323 160.337 79.1732 165.427 81.1662 167.42Z" fill="#7F90FF"/>
<path fill-rule="evenodd" clip-rule="evenodd" d="M85.0829 165.791C83.888 166.426 82.1994 166.015 80.388 164.647C78.5772 163.279 76.7918 161.066 75.4254 158.496C72.5803 153.145 72.2908 147.734 74.7794 146.411C75.974 145.776 77.6629 146.187 79.4743 147.555C81.2854 148.923 83.0705 151.135 84.4368 153.705C85.8029 156.276 86.6387 158.993 86.76 161.259C86.8813 163.525 86.2778 165.156 85.0829 165.791Z" fill="#6767E5"/>
<path fill-rule="evenodd" clip-rule="evenodd" d="M77.6317 150.953C77.4383 150.961 77.2653 151.076 77.1821 151.251C77.0993 151.426 77.1199 151.632 77.2358 151.788C77.2358 151.788 80.8866 156.818 83.0275 164.346C83.0771 164.527 83.2202 164.668 83.4028 164.715C83.585 164.761 83.778 164.706 83.9082 164.57C84.039 164.435 84.0866 164.24 84.0332 164.06C81.8402 156.349 78.0815 151.173 78.0815 151.173C77.979 151.028 77.8094 150.945 77.6317 150.953Z" fill="#363D63"/>
<path fill-rule="evenodd" clip-rule="evenodd" d="M91.4124 157.078C91.2765 157.084 91.1489 157.144 91.0559 157.243C91.0559 157.243 86.6225 161.854 83.3927 169.191C83.3127 169.363 83.3317 169.565 83.4428 169.718C83.5536 169.872 83.739 169.954 83.9273 169.932C84.1159 169.91 84.2774 169.787 84.3495 169.612C87.5032 162.45 91.8101 157.968 91.8101 157.968C91.9619 157.814 92.0035 157.584 91.9155 157.387C91.8279 157.19 91.6279 157.067 91.4124 157.078Z" fill="#363D63"/>
<path fill-rule="evenodd" clip-rule="evenodd" d="M30.4965 162.073C29.1861 162.073 28.0876 163.129 28.1311 164.439V167.399H100.234V164.439C100.234 163.128 99.1797 162.073 97.8692 162.073H30.4965Z" fill="white"/>
<path fill-rule="evenodd" clip-rule="evenodd" d="M28.1318 174.342H100.235V167.398H28.1318V174.342Z" fill="#00CCBB"/>
<path fill-rule="evenodd" clip-rule="evenodd" d="M28.1313 166.876C27.9447 166.876 27.772 166.976 27.6786 167.137C27.585 167.299 27.585 167.499 27.6786 167.66C27.772 167.822 27.9447 167.922 28.1313 167.922H99.7123V174.343C99.7107 174.53 99.8101 174.704 99.9723 174.799C100.135 174.893 100.335 174.893 100.497 174.799C100.66 174.704 100.76 174.53 100.758 174.343V167.399C100.758 167.259 100.703 167.127 100.604 167.029C100.506 166.931 100.373 166.876 100.235 166.876H28.1313Z" fill="#363D63"/>
<path fill-rule="evenodd" clip-rule="evenodd" d="M163.228 105.546L159.582 110.356C159.582 110.356 157.604 106.942 158.56 105.081C159.516 103.22 161.336 102.249 162.625 102.911C163.915 103.573 163.228 105.546 163.228 105.546Z" fill="#FEB8CA"/>
<path fill-rule="evenodd" clip-rule="evenodd" d="M196.301 85.5557L196.614 86.1176L197.72 87.9674L196.197 91.3357L192.519 90.9706L191.47 89.0874L191.141 88.5392C190.368 90.1268 190.433 91.9947 191.314 93.5255C192.785 96.0712 196.04 96.9433 198.586 95.4738C201.132 94.0036 202.005 90.748 200.534 88.2023C199.65 86.6719 198.064 85.6801 196.301 85.5557Z" fill="white"/>
<path fill-rule="evenodd" clip-rule="evenodd" d="M72.9496 0.254935C72.6613 0.259697 72.4305 0.496523 72.435 0.784777V35.9337C72.4105 36.6553 73.5051 36.6553 73.4801 35.9337V0.784777C73.4845 0.490491 73.2442 0.250808 72.9496 0.254935Z" fill="#363D63"/>
<path fill-rule="evenodd" clip-rule="evenodd" d="M84.1732 12.5108C83.885 12.5168 83.6545 12.7527 83.6586 13.0413V35.9333C83.6342 36.6549 84.7288 36.6549 84.7034 35.9333V13.0413C84.7094 12.7467 84.4678 12.5067 84.1732 12.5108Z" fill="#363D63"/>
<path fill-rule="evenodd" clip-rule="evenodd" d="M149.001 0.254935C148.712 0.259697 148.482 0.496523 148.486 0.784777V35.9337C148.462 36.6543 149.556 36.6543 149.531 35.9337V0.784777C149.536 0.490491 149.295 0.250808 149.001 0.254935Z" fill="#363D63"/>
<path fill-rule="evenodd" clip-rule="evenodd" d="M160.224 12.5108C159.936 12.5168 159.705 12.7527 159.709 13.0413V35.9333C159.686 36.654 160.779 36.654 160.754 35.9333V13.0413C160.76 12.7467 160.519 12.5067 160.224 12.5108Z" fill="#363D63"/>
<path fill-rule="evenodd" clip-rule="evenodd" d="M63.5596 37.0963H165.891V32.4922H63.5596V37.0963Z" fill="white"/>
<path fill-rule="evenodd" clip-rule="evenodd" d="M63.5596 37.6097H165.891V34.79H63.5596V37.6097Z" fill="#00CCBB"/>
<path fill-rule="evenodd" clip-rule="evenodd" d="M65.0891 25.8105C64.2418 25.8105 63.5596 26.4928 63.5596 27.3401V32.4928H165.891V27.3401C165.891 26.4928 165.208 25.8105 164.361 25.8105H65.0891Z" fill="#7F90FF"/>
<path fill-rule="evenodd" clip-rule="evenodd" d="M63.5596 37.086C63.3713 37.0841 63.1961 37.1831 63.1015 37.346C63.0065 37.5082 63.0065 37.7095 63.1015 37.8723C63.1961 38.0349 63.3713 38.1339 63.5596 38.1317H167.959C168.147 38.1339 168.322 38.0349 168.417 37.8723C168.512 37.7095 168.512 37.5082 168.417 37.346C168.322 37.1831 168.147 37.0841 167.959 37.086H63.5596Z" fill="#363D63"/>
<path fill-rule="evenodd" clip-rule="evenodd" d="M0.809235 173.937C0.621616 173.935 0.447965 174.035 0.353679 174.197C0.259711 174.359 0.259711 174.559 0.353679 174.722C0.447965 174.884 0.621616 174.983 0.809235 174.982H279.191C279.379 174.983 279.553 174.884 279.647 174.722C279.741 174.559 279.741 174.359 279.647 174.197C279.553 174.035 279.379 173.935 279.191 173.937H0.809235Z" fill="#363D63"/>
</svg>
