<svg xmlns="http://www.w3.org/2000/svg" width="1280" height="700" viewBox="0 0 1280 700">
    <g fill="#848484" fill-rule="nonzero" opacity=".04">
        <path d="M1116.585 652.423c-48.269-4.778-54.028-22.644-61.342-45.288-8.228-25.282-18.375-56.735-92.242-81.817-37.025-12.541-72.496-20.405-108.515-24.038-32.18-3.235-64.176-3.035-97.636.647-62.165 6.868-120.856 25.182-177.72 42.85-53.205 16.572-108.24 33.742-167.48 42.202-31.814 4.579-62.165 6.27-92.79 5.275-34.374-1.144-68.2-5.673-103.304-13.885-61.343-14.332-122.32-19.31-181.194-14.83-10.878.846-21.666 1.99-32.362 3.484v1.542c10.879-1.493 21.758-2.687 32.82-3.533 58.417-4.48 118.845.498 179.73 14.681 43.241 10.103 83.283 14.283 121.04 14.283 91.145 0 168.942-24.236 244.912-47.876 59.24-18.463 115.097-35.882 176.897-42.7 33.093-3.682 64.724-3.882 96.538-.647 35.745 3.584 70.942 11.397 107.601 23.839 32.454 10.998 72.861 24.684 91.054 80.772 3.748 11.695 7.04 21.798 15.724 29.91 9.599 9.007 24.866 14.283 47.812 16.572 67.925 6.768 108.332 17.468 127.073 33.692 4.48 3.832 7.77 8.013 9.965 12.442H1256c-2.285-4.728-5.668-9.107-10.513-13.238-19.198-16.572-60.154-27.471-128.902-34.34z"/>
        <path d="M1063.519 668.662c-57.5-4.69-62.894-14.121-74.596-34.68-10.238-17.915-25.687-45.06-86.113-84.432-81.269-52.995-167.474-19.86-267.3 18.513-101.197 38.922-215.923 82.984-355.972 51.248-53.661-12.176-107.78-18.164-160.983-17.915-39.583.2-78.8 3.893-116.555 10.979v1.596c37.755-7.135 76.88-10.828 116.555-11.028 52.838-.3 106.59 5.739 159.886 17.815 63.077 14.321 126.793 14.57 194.624.848 59.329-12.026 112.533-32.485 164-52.246 49.364-18.962 95.986-36.876 139.591-43.264 48.176-7.086 87.576.699 124.051 24.502 60.06 39.172 75.418 66.118 85.565 83.932 11.702 20.56 17.644 30.889 76.88 35.73 34.647 2.844 56.313 9.83 64.449 20.758a19.566 19.566 0 0 1 3.657 8.982H1134c-.366-3.443-1.645-6.637-3.84-9.531-8.593-11.577-30.99-18.862-66.641-21.807z"/>
        <path d="M779.012 601.652c-25.418-9.18-59.522-8.882-101.306 1.042-33.19 7.84-71.317 21.734-113.376 41.185C521.357 663.827 482.955 685.659 459 700h3.657c23.955-14.34 61.443-35.578 103.41-55.03 41.876-19.401 79.729-33.196 112.644-40.986 40.87-9.676 74.06-10.073 98.656-1.141 57.145 20.692 87.5 55.624 114.29 86.439 3.2 3.622 6.217 7.195 9.326 10.668H904a575.918 575.918 0 0 1-9.875-11.313c-26.79-30.963-57.328-66.095-115.113-86.985z"/>
        <path d="M707.213 653.412c-11.852-4.648-27.17-4.547-45.495.303-14.406 3.84-30.726 10.612-48.505 20.162-16.958 9.145-32.184 19.1-42.213 26.123h3.556c28.446-19.656 93.635-60.028 131.016-45.375 24.161 9.5 38.293 28.347 50.51 45.375H759c-12.4-17.331-26.623-36.735-51.787-46.588zM256.093 653.154c-23.516-3.258-47.854-6.615-69.723-10.613-54.258-10.021-117.118-1.58-160.306 7.256A640.96 640.96 0 0 0 2 655.177v1.63a761.763 761.763 0 0 1 25.07-5.628c42.73-8.737 104.95-17.08 158.386-7.207 21.868 4.048 46.298 7.405 69.905 10.663 53.07 7.306 103.21 14.217 106.688 26.755 1.464 5.282-5.307 11.452-20.496 18.61h4.026c14.365-7.158 20.679-13.378 19.215-18.857-3.752-13.526-52.338-20.19-108.701-27.99z"/>
        <path d="M221.037 674.218c-18.086-1.72-40.1-1.618-60.377.303C123.119 678.06 49.68 689.384 2 697.017v1.567c47.68-7.633 121.575-19.008 159.208-22.597 20.004-1.87 41.652-2.022 59.463-.303 25.759 2.477 34.801 7.684 37.907 11.678 2.832 3.589 2.1 7.835-2.1 12.638h3.105c4.019-4.954 4.475-9.403 1.461-13.245-6.12-7.785-25.119-11.122-40.007-12.537zM114.524 398.93c41.35 15.158 68.338 36.897 92.032 56.093 26.896 21.74 50.224 40.537 86.634 43.578 3.385.3 6.861.399 10.338.399 28.085 0 61.476-8.825 103.833-27.423 31.744-13.96 58.183-26.625 81.51-37.844 49.219-23.683 84.805-40.785 124.143-46.32 40.161-5.684 84.256.3 152.136 20.592 55.439 16.604 121.58 28.022 181.32 31.312 27.81 1.546 53.06 1.247 73.094-.947 21.132-2.293 35.953-6.432 43.912-12.365 10.886-8.127 13.54-23.235-35.953-49.112-59.19-30.964-126.52-34.703-197.786-38.642-47.205-2.593-96.057-5.335-145.366-16.155-55.805-12.215-104.2-33.456-148.02-64.818-32.385-23.185-70.167-34.154-109.413-31.71-26.713 1.644-52.969 9.323-78.035 22.735-25.158 13.562-47.846 32.26-67.24 55.594-14.454 17.302-30.372 26.177-48.943 27.074-40.161 1.945-86.634-34.852-131.461-70.452-22.413-17.8-45.559-36.149-67.606-49.312C22.218 204.377 11.79 199.341 2 196v1.845c30.83 11.069 64.312 37.594 96.972 63.522 22.505 17.85 45.833 36.348 68.246 49.81 23.969 14.36 44.46 21.39 62.483 21.39 1.098 0 2.195-.05 3.293-.1 19.578-.947 36.319-10.072 51.14-27.922 19.302-23.184 41.715-41.732 66.69-55.145 24.609-13.213 50.316-20.742 76.388-22.337 38.149-2.344 75.2 8.426 106.944 31.162 44.095 31.612 92.946 52.952 149.117 65.267 49.675 10.92 98.71 13.612 146.098 16.255 70.808 3.939 137.682 7.628 196.23 38.242 48.12 25.18 45.925 39.54 35.679 47.168-15.003 11.119-57.817 15.856-114.536 12.714-59.373-3.29-125.149-14.658-180.313-31.162-68.52-20.493-113.165-26.476-154.149-20.692-39.978 5.634-75.748 22.836-125.24 46.669-23.328 11.219-49.675 23.883-81.42 37.794-47.022 20.642-82.609 29.118-112.066 26.675-35.221-2.892-58.183-21.44-84.805-42.93-23.877-19.295-50.956-41.134-92.763-56.49-34.672-12.715-67.698-19.097-98.527-19.097-5.215 0-10.338.2-15.461.548v1.496c34.672-2.543 72.454 3.59 112.524 18.249zM53.247 545.803c42.294.348 89.612 4.982 131.359 9.017 59.833 5.829 106.969 10.412 112.815-.15 8.77-15.842-19.731-28.944-67.05-50.615-33.89-15.544-76.184-34.873-121.402-62.672-33.982-20.874-67.872-30.34-100.575-28.048-2.01.15-4.11.35-6.394.598v1.545c2.192-.25 4.476-.499 6.76-.648 31.79-2.192 64.766 7.074 98.2 27.55 45.4 27.898 87.694 47.277 121.676 62.87 46.405 21.273 74.449 34.126 66.227 49.022-5.115 9.266-53.621 4.533-109.71-.897-60.563-5.878-131.632-12.803-183.062-6.825v1.544c14.433-1.693 31.516-2.49 51.156-2.291z"/>
        <path d="M173.894 538c23.747 0 37.082-2.357 39.64-7.122 5.662-10.381-41.558-29.088-70.329-39.32-40.644-14.494-89.052-28.135-115.083-32.499-8.677-1.454-17.445-2.457-26.03-3.059v1.505a273.49 273.49 0 0 1 25.208 3.009c25.848 4.313 73.982 17.854 114.352 32.298 47.038 16.801 72.886 30.844 69.142 37.615-3.654 6.62-36.17 7.824-91.61 3.41-44.937-3.56-91.793-9.73-117.184-13.641v1.554c25.574 3.963 72.155 10.031 116.727 13.592 22.377 1.755 40.645 2.658 55.167 2.658z"/>
        <path d="M56.408 511c11.01 0 17.157-1.165 18.35-3.496 2.569-4.662-15.781-12.415-31.654-18.09C29.434 484.5 13.836 479.838 2 477v1.672c11.56 2.838 26.516 7.347 39.636 12.06 20.368 7.296 32.02 13.58 30.46 16.366-2.476 4.51-39.268 1.977-70.096-1.824v1.52c9.267 1.115 19.634 2.23 29.727 3.04 10 .76 18.166 1.166 24.68 1.166zM307.13 471.502c2.464.349 5.02.498 7.666.498 27.104 0 60.23-17.391 98.103-37.274 25.644-13.454 54.664-28.653 85.327-40.314 35.135-13.305 67.167-19.832 98.013-20.082 40.884-.299 75.014-1.644 98.65-3.837 24.367-2.292 37.143-5.431 38.055-9.368 1.187-5.083-16.609-10.265-54.299-15.896-59.683-8.92-86.878-24.368-121.374-43.902-22.45-12.707-47.82-27.158-86.97-42.008-10.312-3.936-22.267-5.182-35.317-3.737-40.61 4.485-93.45 34.683-157.057 89.746-17.886 15.448-29.294 32.94-33.218 50.58-4.29 19.583-.456 37.074 10.951 50.628 11.316 13.305 29.112 21.926 51.47 24.966zm-59.592-75.395c3.833-17.441 15.149-34.733 32.762-49.981 63.242-54.715 115.534-84.664 155.323-89.099 3.285-.349 6.57-.548 9.673-.548 8.579 0 16.427 1.345 23.545 4.036 38.968 14.8 64.246 29.152 86.605 41.809 34.678 19.683 62.147 35.23 122.56 44.3 16.153 2.392 53.57 8.62 52.292 14.302-.456 1.794-5.658 5.232-35.865 8.072-23.453 2.193-57.402 3.538-98.194 3.837-31.394.25-63.973 6.927-99.564 20.381-30.937 11.71-60.048 26.96-85.692 40.464-37.416 19.633-70.178 36.825-96.096 36.825-2.373 0-4.745-.15-7.027-.448-21.537-2.89-38.694-11.262-49.553-24.169-11.225-13.305-14.967-30.497-10.769-49.781zM837.453 404.168c28.899 3.882 77.824 9.58 120.714 13.008 23.686 1.866 42.158 2.824 55.601 2.824 15.73 0 24.509-1.31 26.704-3.882 2.286-2.773-2.835-6.505-15.638-11.496-1.738-.857-37.312-18.303-80.842-32.572-26.154-8.57-50.023-14.319-70.965-17.092-26.429-3.53-48.194-2.269-64.929 3.63-30.636 10.84-43.987 19.06-41.884 25.866 2.378 7.512 23.045 13.26 71.24 19.714zm-27.8-44.37c10.06-3.529 22.04-5.344 35.94-5.344 8.321 0 17.283.655 26.886 1.916 20.667 2.723 44.261 8.42 70.142 16.89 44.17 14.471 80.11 32.27 80.475 32.42l.092.051c14.998 5.849 15.638 8.572 14.723 9.68-6.767 8.22-120.44-2.167-199.817-12.806-32.74-4.386-66.576-10.034-69.136-18.555-1.83-5.95 11.522-13.915 40.695-24.252zM1280 389.81c-6.496-3.684-13.908-7.467-22.325-11.25-32.024-14.385-72.649-26.232-120.776-35.242-60.114-11.25-132.122-18.118-214.012-20.408-46.847-1.294-136.697-5.824-212.548-21.703-79.877-16.675-124.162-41.314-131.481-73.221-8.51-36.934-.183-59.832 26.26-72.126 28.912-13.44 81.249-14.037 159.936-1.693 54.624 8.562 98.817 20.309 134.318 29.767 35.043 9.358 62.767 16.725 87.471 18.019 26.809 1.393 47.762-4.53 67.891-19.214 12.81-9.358 22.966-18.218 31.933-26.033 18.025-15.78 31.109-27.178 52.427-31.41 22.509-4.48 52.977-.696 102.02 12.644 13.999 3.783 26.9 8.014 38.886 12.394v-1.792a482.12 482.12 0 0 0-37.605-11.946c-49.775-13.54-80.884-17.322-104.216-12.743-22.233 4.43-35.409 15.978-53.8 32.007-8.875 7.765-19.031 16.575-31.75 25.933-41.356 30.215-82.987 19.114-151.976.747-35.592-9.507-79.969-21.305-134.775-29.866-79.694-12.444-132.854-11.797-162.5 1.99-27.174 12.644-35.775 35.99-27.174 73.471 7.503 32.504 52.336 57.542 133.22 74.466 76.217 15.929 166.433 20.458 213.371 21.802 81.616 2.24 153.258 9.11 213.097 20.31 47.762 8.959 88.112 20.706 119.861 34.942 9.333 4.182 17.385 8.363 24.247 12.345v-2.19z"/>
        <path d="M1280 358.054c-19.394-7.933-42.721-15.915-69.159-23.449-75.104-21.453-163.657-36.37-249.19-41.959-86.632-5.687-149.844-11.924-198.877-19.707-62.664-9.878-102.183-22.202-120.845-37.568-12.624-10.428-15.368-22.452-8.324-35.823 5.305-9.878 15.002-16.414 29.73-19.956 49.857-12.074 145.453 13.221 229.797 35.523 30.83 8.182 60.011 15.865 84.802 21.154 41.806 8.93 67.512 10.926 85.991 6.585 17.839-4.19 28.084-13.87 42.172-27.29 8.508-8.083 18.113-17.213 31.652-27.291 14.454-10.777 32.75-16.414 54.43-16.764 29.64-.449 61.75 9.08 87.821 19.558v-1.846c-40.525-16.115-69.708-19.458-87.82-19.208-22.505.349-41.532 6.186-56.535 17.362-13.63 10.128-23.236 19.358-31.835 27.44-27.627 26.193-40.25 38.167-124.87 20.057-24.7-5.289-53.79-12.972-84.618-21.104-84.894-22.452-181.13-47.896-232.084-35.523-15.369 3.692-25.89 10.776-31.286 20.954-7.319 13.77-4.483 26.243 8.599 37.07 19.119 15.616 59.096 28.139 122.491 38.117 49.216 7.783 112.611 14.02 199.334 19.707 85.168 5.588 173.354 20.456 248.185 41.81 26.803 7.683 50.77 15.915 70.439 24.097v-1.946z"/>
        <path d="M1279.908 335.954c-52.19-24.696-122.968-34.574-178.456-42.258-53.838-7.483-92.661-12.872-88.45-27.44 1.191-4.24 11.996-3.941 30.949-3.043 17.58.798 39.372 1.846 59.974-1.946 24.355-4.49 41.111-14.618 51.183-30.983 7.05-11.475 18.313-18.06 33.33-19.458 27.468-2.594 63.544 11.974 91.562 26.443v-2.095c-.733-.35-1.373-.749-2.106-1.098-36.991-18.56-67.207-26.892-89.915-24.746-16.115 1.496-28.018 8.382-35.434 20.455-22.159 35.972-73.983 33.527-108.32 31.93-18.678-.897-32.23-1.496-33.878 4.341-2.105 7.384 5.311 13.072 23.624 17.812 16.298 4.24 39.738 7.533 66.84 11.275 55.945 7.783 127.273 17.712 179.189 42.857v-2.046h-.092z"/>
        <path d="M1280 322.2c-17.599-6.1-36.921-14.75-53.522-24.05-24.856-13.95-39.643-26.849-41.548-36.399-.998-5.15 1.814-9.25 8.527-12.15 23.586-10.2 62.05 6.8 86.543 20.35v-2.15c-5.08-2.75-10.614-5.6-16.42-8.3-13.516-6.25-26.035-10.55-37.012-12.75-13.97-2.8-25.763-2.25-34.834 1.7-7.44 3.2-10.614 7.75-9.526 13.5 3.81 19.5 56.88 48.05 97.792 62.049v-1.8zM966.482 263.088c-.548-.2-50.87-19.933-108.954-38.325-78.176-24.805-132.516-35.641-161.376-32.112-8.95 1.094-15.526 3.579-19.453 7.456-14.704 14.416-.822 29.278 40.093 42.998 36.349 12.178 94.433 23.412 155.349 30.024 25.023 2.734 53.518 4.871 74.797 4.871 15.526 0 27.307-1.143 30.96-4.076 3.197-2.784-.548-6.412-11.416-10.836zm9.042 9.941c-1.736 1.392-8.494 3.728-33.792 3.38-18.54-.248-43.106-1.938-69.135-4.772-60.641-6.561-118.36-17.745-154.435-29.825-18.814-6.313-31.873-12.824-38.723-19.386-7.58-7.207-7.672-14.465-.365-21.623 3.561-3.48 9.498-5.716 17.626-6.71 3.38-.398 7.032-.597 11.05-.597 75.711 0 254.714 69.89 257.088 70.834 6.485 2.635 13.608 6.263 10.686 8.7z"/>
        <path d="M872.802 250.751c-.367-.099-27.06-9.21-56.872-17.677-40.268-11.438-66.686-16.439-78.61-14.756-2.936.397-5.138 1.238-6.422 2.476-5.32 5.2.55 10.696 17.52 16.34 16.878 5.596 45.222 11.29 75.768 15.251 5.87.743 28.894 3.615 42.47 3.615 4.954 0 8.623-.347 9.815-1.337 2.018-1.634-2.293-3.317-3.669-3.912zm1.376 3.07c-1.56 1.238-18.254 1.14-49.442-2.872-30.362-3.911-58.43-9.556-75.033-15.102-15.503-5.15-21.006-9.953-16.512-14.31.918-.842 2.385-1.436 4.679-1.733 1.375-.198 2.843-.297 4.586-.297 32.38 0 126.127 31.59 128.695 32.482 2.935 1.14 3.119 1.733 3.027 1.832zM309.866 437c6.12 0 13.609-.845 22.742-2.934 78.548-18.002 114.533-45.303 149.423-71.71l2.832-2.138c10.503-7.956 16.44-17.355 17.08-27.152.638-9.846-4.02-19.394-13.701-27.65-9.864-8.453-22.012-13.476-36.168-14.968-17.171-1.79-37.265 1.79-59.642 10.593-74.894 29.539-129.969 105.276-105.582 128.798 3.744 3.63 10.594 7.161 23.016 7.161zm-4.932-68.626c21.92-27.998 55.257-52.713 89.142-66.09 18.176-7.161 34.616-10.791 49.138-10.791 2.831 0 5.663.149 8.403.447 13.335 1.393 24.934 6.216 34.342 14.272 9.316 7.957 13.882 17.207 13.243 26.755-.64 9.498-6.393 18.598-16.623 26.306l-2.831 2.139c-34.616 26.257-70.419 53.36-148.236 71.212-20.733 4.774-34.89 3.58-42.288-3.53-11.051-10.643-4.84-34.463 15.71-60.72z"/>
        <path d="M344.188 402c3.736 0 8.382-.55 14.03-1.852 46.643-10.812 68.599-22.524 88.732-37.89 12.663-9.661 13.392-22.275 2.004-32.185-5.74-5.006-12.936-7.959-21.226-8.81-10.113-1.05-21.773 1.051-34.8 6.207-19.679 7.808-39.083 21.623-52.02 36.84-12.389 14.665-16.215 27.58-9.93 33.686 2.187 2.052 6.105 4.004 13.21 4.004zm-.728-37.04c12.754-15.016 31.885-28.58 51.107-36.239 10.385-4.104 19.678-6.206 27.968-6.206 1.64 0 3.188.1 4.737.25 7.561.8 14.03 3.554 19.405 8.159 10.84 9.36 10.112 21.323-1.914 30.482-19.86 15.167-41.45 26.73-87.547 37.39-11.934 2.754-19.951 2.253-23.777-1.501-5.74-5.656-1.822-18.32 10.02-32.335z"/>
        <path stroke="#575757" stroke-width="5" d="M379.466 373c1.166 0 2.602-.15 4.307-.549 13.278-3.095 19.469-6.489 25.21-10.93 3.77-2.896 4.038-6.739.629-9.684-1.794-1.547-3.948-2.445-6.55-2.745-3.05-.35-6.639.3-10.497 1.847-11.753 4.742-21.802 16.52-17.585 20.663.628.6 1.884 1.398 4.486 1.398z"/>
        <path d="M1279.726 656.6c-26.159-.649-51.585-2.498-74.085-5.496-29.633-3.947-54.51-9.894-73.9-17.589-23.78-9.444-39.42-21.637-46.646-36.328-10.061-20.637-25.976-40.125-46.006-56.415-23.505-19.139-52.316-33.88-85.791-43.873-61.554-18.44-136.461-20.188-222.527-5.197-104.267 18.139-185.393 37.177-244.66 51.118-75.64 17.74-117.346 27.534-126.858 16.79-.824-.95-.915-1.949-.183-3.048 5.396-8.145 50.12-19.238 101.98-32.03 38.597-9.544 82.407-20.388 116.888-31.88 39.878-13.293 60.822-25.335 64.023-36.778 4.482-16.09 16.372-27.384 34.299-32.63 20.396-5.947 48.292-4.398 83.047 4.597 63.84 16.49 219.692 36.178 314.355 36.178 32.652 0 58.078-2.349 69.877-7.995 7.134-3.398 9.146-7.846 5.945-13.242-10.518-17.84 1.646-36.278 28.262-42.824 33.383-8.195 70.242 3.698 101.98 22.736v-2.498c-12.44-7.296-25.061-12.993-37.774-17.09-23.323-7.545-46.554-9.144-65.304-4.497-27.896 6.846-40.7 26.034-29.725 44.622 2.835 4.798 1.097 8.645-5.122 11.643-19.664 9.395-83.23 10.194-174.51 2.149-78.84-6.946-163.808-19.488-206.703-30.581-35.58-9.195-64.298-10.694-85.426-4.547-18.75 5.446-31.097 17.139-35.761 33.729-6.952 24.835-102.53 48.52-179.357 67.509-54.512 13.491-97.59 24.135-103.352 32.88-1.006 1.499-.915 2.898.274 4.197 5.122 5.796 17.652 6.796 40.792 3.248 21.31-3.298 51.493-10.344 89.633-19.288 59.176-13.892 140.302-32.93 244.386-51.07 85.334-14.84 159.51-13.141 220.423 5.048 33.018 9.894 61.554 24.485 84.786 43.373 19.847 16.19 35.67 35.529 45.64 55.966 7.316 14.99 23.322 27.483 47.65 37.127 19.665 7.796 44.909 13.792 74.908 17.84 22.774 3.048 48.475 4.946 74.816 5.546v-1.4h-.274z"/>
        <path d="M1279.908 626.052c-42.9 5.448-76.727 4.598-102.76-2.549-38.41-10.595-55.277-33.684-67.744-57.073-13.2-24.688-51.06-42.93-81.494-57.573-20.442-9.845-36.575-17.592-37.309-23.789-.183-1.75.917-3.298 3.3-4.748 8.342-5.097 34.926-1.899 68.66 2.15 27.043 3.248 60.777 7.296 95.886 8.395 16.225.5 26.859-1 32.634-4.597 8.25-5.198 5.134-13.894 1.834-23.09-4.676-12.844-9.442-26.088 12.833-33.384 7.425-2.449 15.676-2.899 24.476-1.5 14.85 2.45 31.809 10.546 49.776 23.59v-2.55c-14.667-10.394-31.81-19.64-48.951-22.439-9.534-1.6-18.517-1.05-26.676 1.6-23.925 7.846-18.7 22.24-14.117 34.983 3.209 8.846 6.234 17.192-1.192 21.84-5.133 3.198-15.125 4.548-30.434 4.048-34.926-1.1-68.476-5.148-95.427-8.396-35.843-4.298-61.785-7.447-71.227-1.7-2.841 1.75-4.217 3.699-3.942 5.848.734 6.797 17.234 14.743 38.226 24.788 30.16 14.494 67.744 32.585 80.67 56.874 12.65 23.689 29.7 47.128 69.117 57.973 15.126 4.148 32.818 6.247 53.26 6.247 15.309 0 32.176-1.15 50.693-3.498v-1.45h-.092z"/>
        <path d="M1280 587.415c-21.554 3.04-47.856 4.784-69.227.348-15.708-3.24-27.125-9.52-33.883-18.59-9.315-12.56-25.663-24.223-38.814-33.593-12.969-9.221-24.111-17.196-20.64-20.784 2.191-2.243 10.137-3.09 24.293-2.642l4.749.15c42.376 1.395 63.747 2.093 74.25-3.14 5.114-2.542 7.58-6.53 7.854-12.86.457-8.722 8.95-15.999 21.188-18.142 9.133-1.595 19.453-.349 30.23 3.44v-1.845c-13.882-4.585-24.659-4.137-31.052-2.99-13.334 2.342-22.65 10.167-23.106 19.537-.274 5.882-2.466 9.52-6.94 11.763-9.682 4.835-31.874 4.087-72.242 2.741l-4.749-.15c-15.617-.498-24.11.599-26.942 3.44-4.292 4.436 6.21 11.962 20.823 22.429 13.06 9.32 29.317 20.883 38.45 33.244 7.032 9.47 18.996 15.999 35.435 19.438 9.68 1.994 20.275 2.791 30.87 2.791 13.972 0 27.854-1.346 39.362-2.94v-1.645h.091z"/>
        <path d="M1280 559.497c-22.203.3-53.658-1.203-59.579-11.727-3.608-6.415-1.11-12.629 6.846-17.49 10.732-6.565 29.697-9.972 52.733-9.772v-1.503c-23.868-.15-43.574 3.407-54.768 10.273-8.696 5.312-11.38 12.027-7.493 18.943 4.255 7.517 19.982 11.777 46.719 12.629 3.515.1 7.03.15 10.361.15 1.758 0 3.423 0 5.088-.05v-1.453h.093zM102.978 375.852c34.73 7.723 67.9 15.148 90.32 15.148 6.063 0 11.3-.548 15.619-1.744 6.064-1.694 9.923-4.734 11.577-8.97 3.95-9.966-15.62-19.583-45.298-34.133-29.402-14.401-69.646-34.085-105.204-63.584C45.92 262.587 23.132 249.73 2.092 244v1.644c20.306 5.73 42.265 18.288 65.603 37.722 35.834 29.7 76.17 49.432 105.664 63.883 28.943 14.202 48.146 23.57 44.47 32.689-1.562 3.837-4.87 6.428-10.198 7.923-19.02 5.431-60.09-3.738-103.55-13.455-28.668-6.378-58.345-13.005-84.072-15.995-6.432-.748-12.496-1.246-18.009-1.495v1.495c5.33.249 11.21.697 17.457 1.445 25.452 3.04 54.946 9.617 83.52 15.996z"/>
        <path d="M88.959 349c9.46 0 15.463-1.296 17.919-3.837 6.003-6.379-12.098-18.538-53.94-36.28C34.018 300.91 14.371 293.536 2 289v1.744c41.387 15.1 111.973 43.655 102.513 53.721-2.001 2.143-7.459 3.09-15.1 3.09-20.102 0-55.759-6.28-87.413-12.957v1.595c6.822 1.445 14.008 2.89 21.285 4.285C52.847 346.16 74.86 349 88.959 349zM498.988 453.325c-5.509 3.606-10.742 7.712-15.7 12.27-10.374 9.564-26.44 17.576-38.192 23.435-11.017 5.509-17.627 8.814-15.791 11.117.918 1.102 3.489 1.853 11.2 1.853 3.581 0 8.355-.15 14.598-.55 42.875-2.505 138.08-38.16 137.897-55.236-.092-5.157-7.988-8.162-23.595-9.013-26.533-1.403-52.882 4.607-70.417 16.124zm91.441-7.06c.092 7.21-19.83 19.48-51.872 31.898-31.123 12.069-63.899 20.632-83.546 21.784-17.81 1.051-22.31.35-22.952-.45-1.102-1.303 7.161-5.41 15.057-9.365 11.843-5.91 28.185-14.022 38.743-23.787 4.866-4.457 10.007-8.563 15.424-12.068 15.332-10.016 37.55-15.724 60.685-15.724 2.48 0 4.958.05 7.437.2 13.863.751 20.932 3.255 21.024 7.511zM91.396 199.041c20.588 20.715 42.64 42.03 64.142 57.59C179.236 273.695 199.824 282 218.582 282h.549c18.666-.15 35.136-8.356 50.325-24.968 31.934-34.875 69.723-56.19 109.343-61.544 27.084-3.652 54.9-.05 82.625 10.808 21.32 8.356 36.509 11.108 46.208 8.456 14.365-3.903 15.189-18.463 16.104-35.275 1.006-18.463 2.104-39.428 22.326-49.035 9.424-4.453 22.051-6.104 38.613-5.104 43.371 2.702 84.638-.9 119.317-10.307 32.94-8.956 58.468-22.616 73.749-39.528 14.549-16.061 18.758-34.174 12.353-52.287C787.44 15.66 782.957 8.256 776.826 1h-3.111c21.411 24.718 22.6 50.736 1.647 73.853-15.006 16.611-40.077 30.02-72.468 38.827-34.222 9.307-75.03 12.81-117.853 10.157-17.11-1.05-30.836.751-40.718 5.454-21.136 10.007-22.234 31.323-23.332 50.086-.824 15.661-1.647 30.472-14.549 33.974-8.784 2.402-22.967-.35-43.463-8.356-28.456-11.108-57.004-14.81-84.912-11.058-40.443 5.504-78.873 27.07-111.082 62.345-14.731 16.061-30.378 23.967-47.854 24.117h-.55c-39.802 0-83.448-40.579-124.806-82.209C68.429 172.672 37.594 155.16 2 145.853v1.651c34.679 9.407 64.69 26.62 89.396 51.537z"/>
        <path d="M125.67 135c15.824 0 29.728-1.244 41.162-3.783 26.069-5.774 39.058-17.57 38.6-35.191-.457-17.272 8.05-30.114 25.978-39.223 44.181-22.598 139.311-18.716 240.113-14.535 14.818.598 30.185 1.245 45.278 1.792 14.727.548 28.265.797 40.705.797 56.804 0 89.002-5.525 96.045-16.526 4.94-7.765-3.293-17.172-16.465-26.331h-3.567c13.538 9.109 22.136 18.417 17.47 25.883-8.049 12.643-53.053 17.62-133.913 14.734-15.093-.548-30.46-1.195-45.279-1.792-101.35-4.181-197.12-8.114-242.216 14.932-18.477 9.458-27.259 22.648-26.801 40.368.457 16.924-11.983 28.323-36.863 33.798-32.015 7.068-84.062 3.833-142.97-8.86-7.043-1.493-13.995-3.136-20.947-4.828v1.642a530.528 530.528 0 0 0 19.94 4.58C60.45 130.719 96.308 135 125.67 135z"/>
        <path d="M73.409 87.9c32.915-1.099 60.802-10.538 83.02-28.067l3.657-2.897c26.973-21.275 40.505-31.963 60.528-36.408 20.024-4.444 47.18-2.846 101.307.4 6.583.4 13.623.8 21.03 1.249 64.093 3.795 110.541 5.044 141.994 3.845 30.264-1.149 47.453-4.495 54.036-10.538 4.023-3.695 3.84-8.19.549-13.484h-2.835c3.292 5.094 3.658 9.34-.091 12.735-6.035 5.544-22.95 8.74-51.842 9.839-31.27 1.148-77.535-.1-141.537-3.896-7.406-.45-14.446-.849-21.03-1.248-54.585-3.296-81.923-4.945-102.678-.3-20.755 4.645-34.47 15.432-61.717 36.957l-3.657 2.897c-21.76 17.13-48.916 26.37-80.917 27.418-16.458.55-40.322-.999-71.226-8.89v1.648C29.155 86.002 50.916 88 67.1 88c2.194 0 4.297-.05 6.309-.1z"/>
        <path d="M110.278 52.377c13.012-3.326 21.929-8.984 26.387-16.826 6.642-11.415 8.098-22.93 7.006-33.551h-2.73c1.093 10.472-.363 21.838-6.914 33.105-4.277 7.445-12.74 12.805-25.023 15.932C79.796 58.53 34.301 52.377 2 46.322v1.588C23.747 51.98 51.226 56 75.975 56c12.466-.05 24.294-1.042 34.303-3.623zM675.557 37.855c-18.226 19.527-98.456 16.88-99.372 16.83-44.969 0-86.732-1.748-123.55-3.346-54.77-2.347-102.12-4.345-137.106.6-18.5 2.596-32.88 7.04-43.87 13.533-11.906 6.991-19.966 16.43-24.728 28.765-15.845 41.25-57.334 46.194-90.763 50.139-20.149 2.397-37.55 4.444-43.32 14.233-5.22 8.939.824 26.717 15.57 45.295 15.752 19.925 37.184 35.357 57.333 41.25 6.502 1.897 13.005 2.846 19.141 2.846 11.724 0 22.806-3.396 32.514-10.038 14.745-10.088 26.743-21.074 38.375-31.711 21.706-19.876 40.39-37.005 69.422-40.85 17.86-2.348 38.65.549 63.378 8.988 32.789 11.137 55.502 14.633 69.515 10.687 17.401-4.894 19.142-20.025 20.973-36.106 2.473-21.574 5.038-43.896 45.702-42.898 9.342.2 18.317.35 27.018.35 87.924 0 144.982-11.336 169.619-33.809 19.416-17.629 14.47-38.903 6.96-53.585-3.571-7.041-8.06-13.234-11.997-18.028h-3.023c4.03 4.794 8.701 11.236 12.365 18.478 13.28 26.118 3.663 42.897-6.686 52.386-26.56 24.17-91.953 35.207-194.164 32.76-19.508-.45-32.514 4.045-39.749 13.783-6.32 8.44-7.602 19.677-8.792 30.563-1.74 15.631-3.48 30.363-19.508 34.858-13.097 3.695-34.895.2-66.859-10.637-25.46-8.64-46.892-11.636-65.484-9.139-30.132 3.995-49.182 21.374-71.163 41.55-11.54 10.587-23.538 21.523-38.192 31.511-14.287 9.738-30.498 11.986-48.266 6.792-19.6-5.743-40.665-20.875-56.143-40.5-14.196-17.979-20.424-35.757-15.478-44.247 5.312-8.99 21.156-10.887 41.306-13.234 16.852-1.998 35.902-4.245 52.937-11.336 19.69-8.19 32.788-21.274 39.932-40.002 8.884-23.221 29.399-35.906 66.583-41.15 15.57-2.197 33.796-2.996 54.036-2.996 24.546 0 52.297 1.198 82.154 2.447 36.91 1.548 78.673 3.346 123.642 3.346h.092c.183 0 20.881.749 43.503-1.049 30.774-2.397 50.373-7.99 58.433-16.58 8.7-9.338 3.114-21.923-16.67-37.554h-3.296c20.149 15.481 26.01 27.816 17.676 36.805z"/>
        <path d="M681.242 56.2c-15.013 10.268-60.42 14.526-131.185 12.322-53.738-1.653-103.539-6.512-103.996-6.562-.275-.05-30.668-3.006-64.906.651-20.232 2.104-37.809 6.06-52.365 11.771-18.217 7.113-31.675 16.93-39.914 29.153-15.929 23.692-33.78 39.872-54.653 49.489-18.126 8.365-35.794 10.569-52.272 12.122-24.077 2.254-32.224 10.669-34.788 17.331-5.126 13.023 7.232 30.605 26.457 37.668 5.218 1.903 10.528 2.855 15.654 2.855 4.76 0 9.43-.801 13.824-2.454 18.034-6.713 36.527-19.636 56.117-33.26 37.26-25.997 75.8-52.846 114.524-39.371a952.395 952.395 0 0 1 16.387 5.81c28.38 10.169 50.9 18.233 65.09 14.426 8.421-2.254 13.182-8.215 14.921-18.834 3.57-21.94 10.162-38.47 30.76-47.786 14.647-6.662 35.52-9.116 63.899-7.614 79.462 4.258 131.826-3.456 155.72-22.84 19.132-15.529 15.837-35.715 9.703-49.94C726.74 13.071 721.98 5.958 718.227 1h-2.93c3.754 4.909 8.697 12.172 12.267 20.487 5.95 13.925 9.155 33.66-9.337 48.738-23.253 18.884-74.793 26.347-153.157 22.19-29.111-1.553-50.625 1.052-65.913 7.964-21.238 9.667-28.104 26.498-31.766 48.838-1.648 9.918-5.95 15.678-13.366 17.632-12.816 3.406-34.696-4.408-62.343-14.326a1365.056 1365.056 0 0 0-16.478-5.81c-18.4-6.412-38.266-4.81-60.695 4.908-19.59 8.416-38.815 21.84-57.4 34.813-19.407 13.575-37.808 26.348-55.476 32.96-10.345 3.856-20.049 1.903-26.457-.451-18.4-6.762-30.21-23.643-25.358-36.115 2.472-6.212 10.07-14.076 32.59-16.18 16.845-1.602 34.88-3.856 53.555-12.472 21.238-9.818 39.365-26.197 55.477-50.14 8.056-11.972 21.147-21.54 38.815-28.452 14.19-5.56 31.492-9.417 51.266-11.52 12.816-1.353 25.083-1.804 35.428-1.804 16.844 0 28.38 1.152 28.562 1.152.458.05 50.442 4.91 104.363 6.562 72.687 2.254 117.636-2.053 133.474-12.873 15.654-10.67 19.316-24.995 10.527-41.575-3.02-5.66-6.957-10.67-10.436-14.526h-3.112c3.57 3.807 7.781 9.016 10.894 14.927 5.95 11.27 9.063 27.3-9.979 40.272z"/>
        <path d="M419.843 73.934c-9.975-1.646-20.767-1.098-30.471 1.498-10.883 2.944-42.352 14.223-43.35 27.448-.543 7.586 8.707 14.523 27.48 20.712 11.245 3.693 20.586 8.933 28.839 13.574 8.706 4.891 15.689 8.834 21.765 8.834.544 0 1.088-.05 1.632-.1 3.719-.449 6.53-2.445 8.797-6.238 8.706-14.373 21.221-40.774 7.074-55.796-4.716-4.99-12.062-8.335-21.766-9.932zm12.153 65.279c-1.905 3.194-4.172 4.89-6.802 5.24-4.988.599-12.334-3.544-20.858-8.335-7.981-4.491-17.866-10.08-29.384-13.824-17.865-5.839-26.753-12.377-26.209-19.364.907-12.476 31.288-23.306 41.808-26.15 5.623-1.498 11.608-2.247 17.594-2.247 3.718 0 7.345.3 10.882.899 8.978 1.497 15.78 4.591 20.133 9.183 5.895 6.188 12.787 21.56-7.164 54.598z"/>
        <path d="M404.695 98.314c-3.255-.561-6.781-.357-9.945.51-.09.052-13.38 3.83-13.742 9.036-.181 2.603 2.802 4.951 8.86 6.993 3.345 1.123 6.147 2.757 8.588 4.186 2.894 1.685 5.063 2.961 7.324 2.961.27 0 .452 0 .723-.051 1.989-.255 2.893-1.43 3.345-2.297 2.712-4.594 6.6-13.017 2.08-17.918-1.538-1.735-3.979-2.858-7.233-3.42zm2.621 20.827c-.542.868-1.084 1.277-1.356 1.277-.994.153-3.526-1.328-5.515-2.45-2.44-1.43-5.514-3.217-9.13-4.442-5.154-1.735-7.685-3.624-7.505-5.564.272-3.726 9.764-7.045 12.205-7.76 1.628-.459 3.255-.663 4.973-.663.994 0 2.08.102 3.074.255 2.531.409 4.34 1.277 5.605 2.604 4.068 4.543-.362 13.221-2.35 16.743zM1280 116.835c-50.497-19.69-111.312-36.08-159.526-26.885-34.882 6.646-59.08 26.035-71.773 57.617-5.844 14.592-20.454 23.787-43.374 27.335-42.918 6.696-111.586-8.695-159.526-35.83-38.443-21.688-53.875-45.524-42.37-65.363 10.684-18.39 13.697-38.378 9.04-59.317-1.004-4.447-2.374-8.895-4.017-13.392h-2.831c1.735 4.597 3.104 9.095 4.109 13.592 4.657 20.739 1.644 40.527-8.858 58.717-11.87 20.389 3.836 44.725 43.01 66.862 22.828 12.893 51.5 23.737 80.813 30.533 20.82 4.847 40.908 7.296 58.623 7.296 8.218 0 15.889-.55 22.829-1.6 23.559-3.647 39.265-13.491 45.292-28.483 12.51-31.032 35.977-50.022 69.946-56.518 47.666-9.095 108.39 7.596 158.613 27.334v-1.898z"/>
        <path d="M1280 78.109c-37.283-17.475-95.766-32.947-143.284-27.69-29.516 3.255-51.995 14.02-66.708 31.896-20.377 24.734-46.238 42.059-76.942 51.572-32.896 10.164-62.138 8.462-80.871 5.258-22.662-3.906-42.218-12.117-55.102-23.133-13.342-11.366-18.276-24.785-13.799-37.753 9.23-26.938 12.794-52.875 10.51-77.259h-2.742c2.193 24.234-1.28 50.12-10.418 76.958-4.569 13.37.457 27.139 14.164 38.805 13.25 11.316 33.354 19.728 56.656 23.733 9.778 1.703 19.83 2.504 29.881 2.504 18.002 0 36.187-2.654 53.092-7.861 31.252-9.664 57.478-27.238 78.13-52.274 14.347-17.424 36.095-27.839 64.697-31.043 23.21-2.554 51.082-.25 80.598 6.76 22.113 5.257 44.41 12.967 62.138 21.48v-1.953zM683.255 682.58c-2.345-1.24-5.322-1.736-8.75-1.538-11.634.695-27.509 9.872-39.505 17.958h3.518c11.455-7.64 26.066-15.825 36.258-16.47 2.616-.148 4.78.199 6.585 1.142 6.223 3.224 13.168 9.127 19.482 15.328H704c-6.584-6.548-14.07-12.898-20.745-16.42z"/>
        <path d="M1280 49.301c-7.524.35-15.874.35-24.775-.1-31.29-1.596-69.094-8.182-103.779-18.161-40.19-11.576-73.773 5.688-112.587 25.646-29.546 15.218-63.038 32.433-104.513 38.67-14.59 2.195-25.876 1.047-33.675-3.294-26.519-14.919-8.81-63.767 3.303-90.062h-2.845c-3.67 8.033-7.89 18.062-11.194 28.54-10.185 32.583-7.25 53.639 8.717 62.62 5.78 3.243 13.213 4.84 22.205 4.84 4.405 0 9.085-.4 14.223-1.148 42.025-6.287 75.884-23.65 105.614-39.018 38.08-19.56 70.93-36.474 109.376-25.397 35.419 10.228 72.673 16.715 104.788 18.311 8.993.45 17.434.5 25.05.15v-1.597h.092z"/>
        <path d="M942.159 67.85c1.456.1 2.82.15 4.276.15 24.205 0 51.23-14.589 65.699-23.682 19.2-11.991 37.854-27.58 50.866-42.318h-3.003c-12.83 14.39-31.12 29.578-49.865 41.319-25.843 16.187-49.865 24.381-67.61 23.032-7.37-.55-12.193-2.398-14.74-5.546-9.555-11.99 16.288-39.87 36.58-58.755h-3.185c-4.004 3.797-8.281 7.894-12.376 12.14-22.294 23.033-30.21 38.921-23.476 47.215 2.82 3.647 8.553 5.846 16.834 6.445z"/>
        <path d="M978.15 33.95c.555.05 1.203.05 1.85.05 5.552 0 14.342-1.8 26.555-9.35 9.068-5.55 17.765-13.1 22.854-19.7.833-1.1 1.758-2.45 2.591-3.9h-2.868a53.931 53.931 0 0 1-2.22 3.3c-10.456 13.6-34.328 29.15-48.3 28.05-2.59-.2-4.255-.8-5.18-1.9-4.72-5.8 14.433-22.95 22.668-29.5h-3.33c-5.922 4.85-27.48 23.1-21.837 30.1 1.203 1.6 3.609 2.55 7.217 2.85zM1279.909 29.113c-12.513 3.756-27.035 5.126-43.292 3.959-18.175-1.269-38.542-5.532-60.644-12.687C1156.702 14.143 1139.44 6.735 1127.2 1H1123c12.513 5.937 30.87 14.006 51.603 20.704 22.467 7.257 43.2 11.621 61.74 12.89 3.836.254 7.58.406 11.325.406 11.874 0 22.65-1.37 32.332-4.161v-1.726h-.091zM784.667 447.959c-42.156-5.419-72.359-5.267-89.787.405-23.45 7.646-44.893 20.204-40.24 28.053 2.555 4.355 12.319 6.583 29.017 6.583 4.38 0 9.216-.152 14.6-.456l7.39-.405c29.747-1.67 70.534-4 104.751-6.836 55.113-4.557 62.413-7.95 62.595-10.431.183-1.823-3.193-4.305-30.294-7.09-2.19-.455-27.92-5.924-58.032-9.823zm85.406 16.862c-.09 1.215-6.113 4.507-60.222 9.014-34.126 2.835-74.822 5.114-104.569 6.836l-7.482.354c-23.815 1.367-37.867-.405-40.696-5.064-1.825-3.14 1.46-7.646 9.216-12.76 7.391-4.81 18.25-9.723 29.838-13.52 9.216-2.988 21.808-4.153 35.403-4.153 17.337 0 36.408 1.823 52.376 3.9 31.024 4 57.394 9.722 57.668 9.772l.273.05c26.37 2.735 28.287 4.963 28.195 5.571zM744.328 117.974c-20.132 5.22-30.016 9.805-29.29 13.708.453 2.83 6.166 5.025 17.501 6.635 12.515 1.805 24.485 2.683 34.732 2.683 15.326 0 26.843-1.951 30.47-5.659 4.716-4.78-4.715-10.538-13.421-14.587-11.064-5.122-26.752-6.195-39.992-2.78zm50.965 16.684c-5.35 5.415-33.19 6.44-62.119 2.244-9.794-1.415-15.144-3.268-15.507-5.366-.544-3.122 9.34-7.464 27.75-12.245 4.715-1.22 9.793-1.805 14.872-1.805 7.98 0 15.87 1.512 22.217 4.39 11.426 5.27 15.87 9.709 12.787 12.782zM1003.29 683.629c-47.631-3.273-75.606-25.19-110.896-52.956-9.873-7.735-20.112-15.768-31.632-24.098-28.89-20.875-61.253-33.42-96.085-37.288-39.586-4.363-83.103 2.38-129.271 20.032-50.74 19.388-124.152 50.576-187.142 79.534C430.62 676.985 407.581 687.793 385 699h4.023c17.918-8.826 38.306-18.545 60.978-29.007 62.899-28.908 136.22-60.096 186.868-79.434 86.028-32.875 160.629-27.172 221.608 16.958 11.428 8.28 21.667 16.313 31.54 24.048 35.747 28.065 63.996 50.18 112.816 53.551 34.649 2.38 54.488 7.041 59.241 13.884H1065c-4.48-7.686-25.233-12.842-61.71-15.371z"/>
        <path d="M742.453 625.768c-17.353-4.129-35.165-3.631-52.976 1.443-44.162 12.537-84.193 27.362-118.99 44.128C549.095 681.637 532.936 691.09 521 699h3.673c27.176-17.76 79.693-45.969 165.997-70.495 17.077-4.826 34.063-5.324 50.59-1.393 33.327 7.91 59.402 32.287 75.377 51.391 6.152 7.264 11.293 14.378 15.425 20.497H835c-4.223-6.268-9.457-13.582-15.792-21.094-23.504-28.109-49.395-45.67-76.755-52.138z"/>
        <path stroke="#575757" stroke-width="5" d="M1115.671 393.49a53.74 53.74 0 0 0 7.346.51c12.46 0 21.2-4.838 24.454-10.033 3.906-6.367.837-14.923-15.156-18.59-25.849-5.96-43.98-7.742-54.023-5.348-4.556 1.07-6.695 3.616-6.23 7.181.651 4.533 5.58 10.186 13.204 15.178 8.554 5.602 19.34 9.524 30.405 11.103z"/>
        <path d="M320.152 513.44c-9.028 2.841-9.58 7.937-6.356 11.464 2.58 2.744 7.922 5.096 14.74 5.096 2.118 0 4.421-.245 6.724-.735 15.66-3.38 24.873-6.81 27.268-10.142 1.198-1.568.092-3.234-3.04-4.655-7.278-3.331-25.702-5.291-39.336-1.029zm39.889 5.144c-2.12 2.89-11.055 6.124-25.794 9.31-8.291 1.812-15.108-.638-17.964-3.675-2.856-3.038-2.303-7.154 5.251-9.506 5.067-1.568 10.87-2.204 16.49-2.204 8.106 0 15.752 1.322 19.622 3.086 1.658.686 3.316 1.764 2.395 2.989zM403.865 667.14c12.736-2.86 51.216-13.699 54.764-18.667.819-1.104.273-2.158-1.546-2.96-8.733-4.116-52.49-3.162-70.684 2.76-10.37 3.362-11.098 9.434-7.277 13.649 3.002 3.312 9.097 6.072 16.92 6.072 2.547.05 5.094-.2 7.823-.853zm-22.287-5.87c-3.366-3.714-2.73-8.782 6.186-11.693 16.647-5.42 59.676-6.574 67.5-2.91 1.09.501 1 .903.727 1.254-2.82 3.914-37.116 14.151-53.217 17.815-9.734 2.258-17.83-.753-21.196-4.467zM76.161 35.255C90.902 29.72 85.99 12.119 81.166 1h-2.821c1.274 2.792 2.457 6.033 3.458 9.424 2.366 8.626 3.094 19.745-7.189 23.634C62.603 38.546 38.216 32.662 2 16.557V18.5C29.936 30.817 51.137 37 65.333 37c4.185-.05 7.825-.598 10.828-1.745zM581.236 363.12c10.289 2.135 24.711 2.88 38.215 2.88 6.063 0 11.942-.149 17.179-.397 16.81-.794 35.918-2.979 38.95-6.702 1.01-1.29.734-3.277-6.982-5.362-.184-.05-15.158-3.872-33.255-6.9-24.527-4.071-42.9-4.716-54.566-1.986-6.522 1.539-10.84 4.12-12.953 7.645-2.02 3.277-1.286 7.794 13.412 10.823zm-10.84-10.375c1.838-3.128 5.696-5.411 11.483-6.752 4.593-1.092 10.105-1.489 16.076-1.489 28.662 0 68.53 10.128 69.449 10.376 3.123.844 6.706 2.134 5.695 3.425-2.02 2.482-17.086 4.865-36.653 5.809-21.22.992-41.981.099-54.107-2.383-10.289-2.085-14.24-5.114-11.943-8.986zM1114.585 651.423c-48.269-4.778-54.028-22.644-61.342-45.288-8.228-25.282-18.375-56.735-92.242-81.817-37.025-12.541-72.496-20.405-108.515-24.038-32.18-3.235-64.176-3.035-97.636.647-62.165 6.868-120.856 25.182-177.72 42.85-53.205 16.572-108.24 33.742-167.48 42.202-31.814 4.579-62.165 6.27-92.79 5.275-34.374-1.144-68.2-5.673-103.304-13.885-61.343-14.332-122.32-19.31-181.194-14.83-10.878.846-21.666 1.99-32.362 3.484v1.542c10.879-1.493 21.758-2.687 32.82-3.533 58.417-4.48 118.845.498 179.73 14.681 43.242 10.103 83.283 14.283 121.04 14.283 91.145 0 168.942-24.236 244.912-47.876 59.24-18.463 115.097-35.882 176.897-42.7 33.093-3.682 64.724-3.882 96.538-.647 35.745 3.584 70.942 11.397 107.601 23.839 32.454 10.998 72.861 24.684 91.054 80.772 3.748 11.695 7.04 21.798 15.724 29.91 9.599 9.007 24.866 14.283 47.812 16.572 67.925 6.768 108.332 17.468 127.073 33.692 4.48 3.832 7.77 8.013 9.965 12.442H1254c-2.285-4.728-5.668-9.107-10.513-13.238-19.198-16.572-60.154-27.521-128.902-34.34z"/>
        <path d="M1061.519 667.662c-57.5-4.69-62.894-14.121-74.596-34.68-10.238-17.915-25.687-45.06-86.113-84.432-81.269-52.995-167.474-19.86-267.3 18.513-101.197 38.922-215.923 82.984-355.972 51.248-53.661-12.176-107.78-18.164-160.983-17.915-39.583.2-78.8 3.893-116.555 10.979v1.596c37.755-7.135 76.88-10.828 116.555-11.028 52.838-.3 106.59 5.739 159.886 17.815 63.077 14.321 126.793 14.57 194.624.848 59.329-12.026 112.533-32.485 164-52.246 49.364-18.962 95.986-36.876 139.591-43.264 48.176-7.086 87.576.699 124.051 24.502 60.06 39.172 75.418 66.118 85.565 83.932 11.702 20.56 17.644 30.889 76.88 35.73 34.647 2.844 56.313 9.83 64.449 20.758a19.566 19.566 0 0 1 3.657 8.982H1132c-.366-3.443-1.645-6.637-3.84-9.531-8.593-11.577-30.99-18.862-66.641-21.807z"/>
        <path d="M778.012 600.652c-25.418-9.18-59.522-8.882-101.306 1.042-33.19 7.84-71.317 21.734-113.376 41.185C520.357 662.827 481.955 684.659 458 699h3.657c23.955-14.34 61.443-35.578 103.41-55.03 41.876-19.401 79.729-33.196 112.644-40.986 40.87-9.676 74.06-10.073 98.656-1.141 57.145 20.692 87.5 55.624 114.29 86.439 3.2 3.622 6.217 7.195 9.326 10.668H903a575.918 575.918 0 0 1-9.875-11.313c-26.79-30.963-57.328-66.095-115.113-86.985z"/>
        <path d="M703.213 653.412c-11.852-4.648-27.17-4.547-45.495.303-14.406 3.84-30.726 10.612-48.505 20.162-16.958 9.145-32.184 19.1-42.213 26.123h3.556c28.446-19.656 93.635-60.028 131.016-45.375 24.161 9.5 38.293 28.347 50.51 45.375H755c-12.4-17.331-26.714-36.735-51.787-46.588zM254.093 652.154c-23.516-3.258-47.854-6.615-69.723-10.613-54.258-10.021-117.118-1.58-160.306 7.256A640.96 640.96 0 0 0 0 654.177v1.63a761.763 761.763 0 0 1 25.07-5.628c42.73-8.737 104.95-17.08 158.386-7.207 21.868 4.048 46.298 7.405 69.905 10.663 53.07 7.306 103.21 14.217 106.688 26.755 1.464 5.282-5.307 11.452-20.496 18.61h4.026c14.365-7.158 20.679-13.378 19.215-18.857-3.843-13.526-52.43-20.239-108.701-27.99z"/>
        <path d="M219.037 674.218c-18.086-1.72-40.1-1.618-60.377.303C121.119 678.06 47.68 689.384 0 697.017v1.567c47.68-7.633 121.575-19.008 159.208-22.597 20.004-1.87 41.652-2.022 59.463-.303 25.759 2.477 34.801 7.684 37.907 11.678 2.832 3.589 2.1 7.835-2.1 12.638h3.105c4.019-4.954 4.475-9.403 1.461-13.245-6.12-7.785-25.119-11.122-40.007-12.537zM112.337 398.964c41.315 15.152 68.28 36.884 91.953 56.074 26.873 21.732 50.182 40.523 86.56 43.563 3.383.3 6.856.399 10.33.399 28.06 0 61.424-8.822 103.744-27.414 31.718-13.956 58.134-26.617 81.442-37.831 49.176-23.676 84.733-40.773 124.037-46.305 40.127-5.682 84.184.299 152.006 20.585 55.392 16.598 121.478 28.012 181.165 31.302 27.787 1.545 53.015 1.246 73.033-.947 21.114-2.293 35.922-6.43 43.874-12.361 10.877-8.125 13.528-23.227-35.922-49.096-59.139-30.953-126.413-34.692-197.618-38.63-47.165-2.591-95.975-5.332-145.242-16.149-55.757-12.211-104.11-33.445-147.894-64.796-32.357-23.178-70.107-34.143-109.32-31.701-26.69 1.645-52.924 9.32-77.969 22.729-25.136 13.557-47.804 32.249-67.182 55.576-14.442 17.295-30.347 26.167-48.902 27.065-40.127 1.944-86.56-34.841-131.349-70.43-22.394-17.794-45.52-36.136-67.548-49.295C20.109 204.374 9.689 199.34 0 196v1.844c30.803 11.066 64.258 37.582 96.89 63.501 22.485 17.844 45.793 36.336 68.187 49.794 23.949 14.355 44.423 21.383 62.43 21.383 1.097 0 2.194-.05 3.29-.1 19.561-.947 36.289-10.068 51.096-27.912 19.287-23.178 41.68-41.72 66.634-55.127 24.588-13.209 50.273-20.735 76.324-22.33 38.115-2.343 75.135 8.423 106.852 31.152 44.057 31.6 92.868 52.934 148.99 65.245 49.633 10.916 98.626 13.608 145.974 16.25 70.748 3.937 137.565 7.626 196.064 38.23 48.079 25.17 45.885 39.526 35.648 47.152-14.99 11.115-57.768 15.85-114.44 12.71-59.321-3.29-125.041-14.654-180.159-31.152-68.462-20.486-113.068-26.467-154.017-20.686-39.944 5.633-75.683 22.829-125.134 46.654-23.308 11.215-49.632 23.875-81.35 37.782-46.982 20.635-82.539 29.108-111.971 26.666-35.191-2.89-58.134-21.433-84.733-42.915-23.856-19.29-50.912-41.121-92.684-56.473-34.643-12.71-67.64-19.09-98.444-19.09-5.21 0-10.328.199-15.447.548v1.495c34.643-2.442 72.301 3.639 112.337 18.343zM51.247 545.798c42.294.348 89.612 4.983 131.359 9.02 59.833 5.83 106.969 10.415 112.815-.15 8.77-15.847-19.731-28.954-67.05-50.632-33.89-15.549-76.184-34.885-121.402-62.693-33.982-20.831-67.872-30.3-100.575-28.008-2.01.15-4.11.35-6.394.599v1.544c2.192-.249 4.476-.498 6.76-.647 31.79-2.193 64.766 7.076 98.2 27.558 45.4 27.908 87.694 47.294 121.676 62.893 46.405 21.28 74.449 34.137 66.227 49.037-5.115 9.27-53.621 4.535-109.71-.897C122.59 547.492 51.43 540.565 0 546.595v1.545c14.616-1.744 31.607-2.492 51.247-2.342z"/>
        <path d="M171.877 538c23.757 0 37.098-2.357 39.656-7.122 5.666-10.381-41.575-29.088-70.358-39.32-40.662-14.494-89.091-28.135-115.133-32.499C17.362 457.605 8.589 456.602 0 456v1.505a273.721 273.721 0 0 1 25.22 3.009c25.859 4.313 74.013 17.854 114.401 32.298 47.058 16.801 72.918 30.844 69.171 37.615-3.655 6.62-36.184 7.824-91.65 3.41-44.864-3.51-91.74-9.68-117.05-13.591v1.555c25.584 3.962 72.186 10.03 116.777 13.591 22.204 1.755 40.57 2.608 55.008 2.608z"/>
        <path d="M54.408 511c11.01 0 17.157-1.165 18.35-3.496 2.569-4.662-15.781-12.415-31.654-18.09C27.434 484.5 11.836 479.838 0 477v1.672c11.56 2.838 26.516 7.347 39.636 12.06 20.368 7.296 32.02 13.58 30.46 16.366-2.476 4.51-39.268 1.977-70.096-1.824v1.52c9.267 1.115 19.634 2.23 29.727 3.04 10.092.76 18.258 1.166 24.68 1.166zM303.13 470.502c2.464.349 5.02.498 7.666.498 27.104 0 60.23-17.391 98.103-37.274 25.644-13.454 54.664-28.653 85.327-40.314 35.135-13.305 67.167-19.832 98.013-20.082 40.884-.299 75.014-1.644 98.65-3.837 24.367-2.292 37.143-5.431 38.055-9.368 1.187-5.083-16.609-10.265-54.299-15.896-59.683-8.92-86.878-24.368-121.374-43.902-22.45-12.707-47.82-27.158-86.97-42.008-10.312-3.936-22.267-5.182-35.317-3.737-40.61 4.485-93.45 34.683-157.057 89.746-17.886 15.448-29.294 32.94-33.218 50.58-4.29 19.583-.456 37.074 10.951 50.628 11.316 13.305 29.112 21.976 51.47 24.966zm-59.592-75.395c3.833-17.441 15.149-34.733 32.762-49.981 63.242-54.715 115.534-84.664 155.323-89.049 3.285-.349 6.57-.548 9.673-.548 8.579 0 16.427 1.345 23.545 4.036 38.968 14.8 64.246 29.152 86.605 41.809 34.678 19.683 62.147 35.23 122.56 44.3 16.153 2.392 53.57 8.62 52.292 14.302-.456 1.793-5.658 5.232-35.865 8.072-23.453 2.193-57.402 3.538-98.194 3.837-31.394.25-63.973 6.927-99.564 20.381-30.937 11.71-60.048 26.96-85.692 40.463-37.416 19.634-70.178 36.826-96.096 36.826-2.373 0-4.745-.15-7.027-.449-21.537-2.89-38.694-11.262-49.553-24.168-11.225-13.305-14.967-30.547-10.769-49.831zM835.453 403.168c28.899 3.882 77.824 9.58 120.714 13.008 23.686 1.866 42.158 2.824 55.601 2.824 15.73 0 24.509-1.31 26.704-3.882 2.286-2.773-2.835-6.505-15.638-11.496-1.738-.857-37.312-18.303-80.842-32.572-26.154-8.57-50.023-14.319-70.965-17.092-26.429-3.53-48.194-2.269-64.929 3.63-30.636 10.84-43.987 19.06-41.884 25.866 2.286 7.563 22.954 13.26 71.24 19.714zm-27.892-44.32c10.06-3.529 22.04-5.344 35.94-5.344 8.322 0 17.284.656 26.886 1.916 20.668 2.723 44.262 8.42 70.142 16.891 44.17 14.47 80.11 32.269 80.476 32.42l.091.05c14.998 5.85 15.638 8.572 14.724 9.681-6.768 8.219-120.44-2.168-199.818-12.807-32.739-4.386-66.575-10.033-69.136-18.554-1.737-5.95 11.523-13.916 40.695-24.252z"/>
        <path d="M875.764 392.098c10.954 1.438 29.576 3.57 45.825 4.86 9.767.744 16.522 1.042 21.27 1.042 8.032 0 10.132-.843 10.862-1.736 1.37-1.637-2.556-3.472-6.207-4.86-1.005-.497-14.423-6.945-30.763-12.202-23.004-7.44-40.713-9.126-52.398-5.01-12.14 4.216-17.161 7.341-16.248 10.119 1.186 3.57 11.867 5.704 27.659 7.787zm-9.859-16.616c3.834-1.34 8.307-1.934 13.145-1.934 27.568 0 66.273 18.847 66.73 19.046l.09.05c5.843 2.28 5.295 3.025 5.295 3.025-1.734 2.033-34.05.347-74.853-5.06-12.141-1.586-24.647-3.62-25.56-6.546-.548-1.984 4.564-4.91 15.153-8.58zM1135.805 122.878c-22.22 4.44-35.386 16.01-53.765 32.07-8.87 7.78-19.019 16.608-31.728 25.985-41.33 30.274-82.933 19.151-151.876.748-35.57-9.526-79.916-21.347-134.686-29.925-79.641-12.469-132.766-11.82-162.391 1.995-27.157 12.668-35.752 36.06-27.157 73.615 7.498 32.568 52.302 57.655 133.131 74.613 76.167 15.96 166.323 20.498 213.23 21.845 81.562 2.244 153.156 9.127 212.956 20.349 47.73 8.977 88.053 20.748 119.782 35.012 10.423 4.688 19.293 9.326 26.699 13.815v-2.194c-7.04-4.09-15.178-8.38-24.688-12.669-32.003-14.413-72.6-26.284-120.696-35.311-60.074-11.272-132.034-18.154-213.87-20.449-46.815-1.296-136.606-5.835-212.407-21.745-79.824-16.708-124.079-41.396-131.394-73.366-8.503-37.007-.183-59.95 26.242-72.268 28.894-13.467 81.196-14.065 159.831-1.696 54.588 8.578 98.752 20.349 134.229 29.825 35.02 9.376 62.725 16.758 87.413 18.055 26.791 1.396 47.73-4.539 67.846-19.252 12.801-9.376 22.95-18.254 31.911-26.084 18.013-15.81 31.089-27.232 52.394-31.471 22.493-4.49 52.941-.699 101.951 12.668 14.904 4.09 28.62 8.578 41.238 13.316v-1.895c-12.252-4.588-25.602-8.878-40.05-12.818-49.832-13.566-80.92-17.406-104.145-12.768z"/>
        <path d="M1189.932 170.017c-22.494.35-41.514 6.185-56.51 17.358-13.624 10.125-23.225 19.352-31.82 27.433-27.615 26.186-40.234 38.156-124.816 20.05-24.688-5.287-53.766-12.968-84.581-21.098-84.856-22.445-181.05-47.883-231.983-35.513-15.362 3.691-25.877 10.774-31.272 20.949-7.315 13.766-4.48 26.236 8.595 37.06 19.02 15.71 59.07 28.18 122.346 38.156 49.195 7.78 112.563 14.016 199.247 19.702 85.13 5.586 173.278 20.45 248.076 41.797 27.89 7.98 52.67 16.56 72.786 25.089v-1.995c-19.842-8.28-43.982-16.56-71.597-24.44-75.072-21.448-163.586-36.361-249.082-41.948-86.593-5.686-149.778-11.92-198.79-19.702-62.636-9.875-102.138-22.195-120.791-37.558-12.619-10.424-15.362-22.445-8.321-35.812 5.303-9.876 14.996-16.41 29.718-19.951 49.834-12.07 145.389 13.217 229.696 35.513 30.815 8.18 59.984 15.861 84.764 21.148 41.788 8.928 67.483 10.923 85.954 6.584 17.83-4.19 28.072-13.866 42.153-27.283 8.504-8.08 18.105-17.208 31.639-27.283 14.447-10.774 32.735-16.41 54.406-16.76 30.54-.448 63.734 9.727 90.16 20.55v-1.895c-41.514-16.959-71.506-20.45-89.977-20.15z"/>
        <path d="M1185.67 208.332c-16.086 1.506-27.969 8.437-35.372 20.59-22.12 36.207-73.855 33.746-108.132 32.14-18.646-.905-32.174-1.507-33.82 4.368-2.101 7.432 5.302 13.157 23.583 17.928 16.27 4.269 39.67 7.583 66.725 11.35 56.67 7.934 129.246 18.128 181.255 44.292v-2.059c-52.284-25.712-124.31-35.806-180.615-43.69-53.746-7.533-92.501-12.956-88.296-27.62 1.188-4.269 11.974-3.967 30.894-3.063 17.55.803 39.304 1.858 59.87-1.959 24.313-4.52 41.04-14.714 51.095-31.185 7.038-11.55 18.28-18.18 33.27-19.586 28.245-2.711 65.446 12.907 93.873 27.872v-2.11c-1.462-.803-3.016-1.556-4.57-2.36-36.927-18.681-67.09-27.067-89.76-24.908z"/>
        <path d="M1224.41 246.756c-13.921-2.807-25.672-2.256-34.711 1.704-7.412 3.208-10.576 7.77-9.491 13.534 3.887 19.95 58.754 49.322 99.792 63.006v-1.804c-18.169-6.166-38.416-15.188-55.772-24.962-24.767-13.985-39.5-26.917-41.399-36.49-.994-5.164 1.808-9.274 8.497-12.181 24.315-10.576 64.359 7.97 88.674 21.704v-2.156c-5.604-3.157-12.022-6.466-18.801-9.623-13.469-6.216-25.852-10.527-36.79-12.732zM964.446 262.962c-.548-.201-50.863-20.168-108.94-38.777-78.168-25.147-132.501-36.061-161.357-32.54-8.95 1.106-15.524 3.62-19.45 7.544-14.703 14.585-.822 29.623 40.087 43.504 36.345 12.322 94.422 23.689 155.33 30.378 25.021 2.766 53.512 4.929 74.789 4.929 15.523 0 27.303-1.157 30.956-4.124 3.287-2.766-.548-6.438-11.415-10.914zm9.04 10.009c-1.734 1.408-8.492 3.772-33.786 3.42-18.538-.252-43.102-1.962-69.127-4.829-60.635-6.639-118.347-17.955-154.417-30.176-18.811-6.388-31.87-12.976-38.718-19.615-7.58-7.293-7.67-14.636-.365-21.878 3.561-3.52 9.497-5.784 17.624-6.79 3.379-.402 7.031-.604 11.05-.604 75.7 0 254.681 70.714 257.056 71.67 6.574 2.666 13.697 6.387 10.684 8.802z"/>
        <path d="M870.852 249.75c-.366-.1-27.052-9.214-56.855-17.684-40.257-11.443-66.759-16.396-78.68-14.762-2.935.397-5.136 1.239-6.42 2.477-5.318 5.201.55 10.7 17.516 16.346 16.873 5.598 45.209 11.294 75.746 15.257 5.869.743 28.886 3.616 42.458 3.616 4.952 0 8.62-.347 9.812-1.337 2.109-1.635-2.201-3.369-3.577-3.914zm1.376 3.021c-1.559 1.238-18.249 1.14-49.427-2.873-30.354-3.913-58.415-9.56-75.013-15.108-15.497-5.152-21-9.956-16.506-14.315.917-.843 2.384-1.437 4.677-1.734 1.375-.198 2.842-.297 4.585-.297 32.37 0 126.09 31.603 128.658 32.494 2.934 1.189 3.21 1.783 3.026 1.833zM307.866 436c6.12 0 13.609-.845 22.742-2.934 78.548-18.002 114.533-45.303 149.423-71.71l2.832-2.138c10.503-7.956 16.44-17.355 17.08-27.152.638-9.846-4.02-19.394-13.701-27.65-9.864-8.453-22.012-13.476-36.168-14.968-17.171-1.79-37.265 1.79-59.642 10.593-74.894 29.539-129.969 105.276-105.582 128.798 3.836 3.68 10.594 7.161 23.016 7.161zm-4.932-68.576c21.92-27.998 55.257-52.713 89.142-66.09 18.176-7.161 34.616-10.792 49.138-10.792 2.831 0 5.663.15 8.403.448 13.335 1.392 24.934 6.216 34.342 14.272 9.316 7.957 13.882 17.206 13.243 26.754-.64 9.499-6.393 18.6-16.623 26.307l-2.831 2.138c-34.616 26.257-70.419 53.36-148.236 71.213-20.733 4.774-34.89 3.58-42.288-3.531-10.96-10.642-4.84-34.512 15.71-60.72z"/>
        <path d="M343.188 401c3.736 0 8.382-.55 14.03-1.852 46.643-10.812 68.599-22.524 88.732-37.89 12.663-9.661 13.392-22.275 2.004-32.185-5.74-5.006-12.936-7.959-21.226-8.81-10.113-1.05-21.773 1.051-34.8 6.207-19.679 7.808-39.083 21.623-52.02 36.84-12.389 14.665-16.215 27.58-9.93 33.686 2.096 2.052 6.013 4.004 13.21 4.004zm-.728-37.04c12.754-15.016 31.885-28.58 51.107-36.239 10.385-4.104 19.678-6.206 27.968-6.206 1.64 0 3.188.1 4.737.25 7.561.8 14.03 3.554 19.405 8.159 10.84 9.36 10.112 21.323-1.914 30.482-19.86 15.167-41.45 26.73-87.547 37.39-11.934 2.754-19.951 2.253-23.777-1.501-5.83-5.656-1.914-18.37 10.02-32.335zM1239.59 403.105c-23.313-7.544-46.535-9.143-65.277-4.497-27.884 6.845-40.684 26.03-29.713 44.614 2.834 4.797 1.097 8.644-5.12 11.641-19.656 9.393-83.196 10.192-174.438 2.148-78.808-6.944-163.741-19.484-206.62-30.575-35.564-9.193-64.271-10.691-85.39-4.546-18.742 5.445-31.084 17.136-35.747 33.722-6.948 24.83-102.487 48.512-179.284 67.496-54.489 13.49-97.55 24.13-103.31 32.874-1.005 1.499-.914 2.898.275 4.197 5.12 5.795 17.645 6.794 40.775 3.247 21.302-3.297 51.472-10.342 89.596-19.285 59.152-13.888 140.246-32.923 244.287-51.059 85.299-14.838 159.444-13.139 220.333 5.046 33.004 9.892 61.529 24.48 84.75 43.366 19.84 16.187 35.656 35.521 45.622 55.955 7.314 14.988 23.313 27.478 47.632 37.12 19.656 7.794 44.89 13.789 74.877 17.835 23.404 3.148 50.009 5.046 77.162 5.596v-1.499c-26.97-.55-53.3-2.448-76.522-5.595-29.622-3.947-54.49-9.892-73.871-17.586-23.77-9.443-39.405-21.633-46.627-36.321-10.057-20.633-25.965-40.118-45.987-56.405-23.496-19.134-52.295-33.873-85.756-43.865-61.529-18.435-136.405-20.133-222.436-5.195-104.224 18.135-185.318 37.17-244.56 51.109-75.61 17.735-117.299 27.528-126.807 16.786-.823-.95-.914-1.948-.183-3.047 5.394-8.144 50.101-19.235 101.939-32.025 38.58-9.542 82.373-20.383 116.84-31.874 39.862-13.29 60.798-25.33 63.998-36.77 4.48-16.088 16.365-27.379 34.284-32.624 20.388-5.946 48.272-4.397 83.013 4.596 63.815 16.487 219.602 36.17 314.227 36.17 32.638 0 58.055-2.347 69.848-7.993 7.131-3.397 9.143-7.843 5.943-13.24-10.514-17.835 1.646-36.27 28.25-42.815 34.193-8.393 72.043 4.297 104.316 24.18v-2.547c-13.348-7.744-26.788-13.939-40.319-18.335z"/>
        <path d="M1228.657 426.895c-9.518-1.6-18.488-1.05-26.633 1.6-23.887 7.846-18.67 22.24-14.094 34.983 3.203 8.846 6.223 17.192-1.19 21.84-5.125 3.198-15.1 4.548-30.385 4.048-34.87-1.1-68.366-5.148-95.273-8.396-35.785-4.298-61.686-7.447-71.112-1.7-2.837 1.75-4.21 3.699-3.936 5.848.733 6.797 17.206 14.743 38.165 24.788 30.11 14.494 67.634 32.585 80.538 56.874 12.63 23.689 29.653 47.128 69.007 57.973 15.101 4.148 32.765 6.247 53.174 6.247 15.924 0 33.588-1.25 52.99-3.798v-1.55c-43.93 5.798-78.525 5.048-104.974-2.248-38.347-10.596-55.187-33.685-67.634-57.074-13.18-24.688-50.977-42.93-81.362-57.573-20.41-9.845-36.517-17.592-37.25-23.789-.183-1.75.916-3.298 3.295-4.748 8.329-5.097 34.87-1.899 68.55 2.15 26.998 3.248 60.678 7.296 95.73 8.395 16.2.5 26.816-1 32.582-4.597 8.237-5.198 5.125-13.894 1.83-23.09-4.667-12.844-9.426-26.088 12.813-33.384 7.414-2.449 15.65-2.899 24.437-1.5 15.467 2.55 33.313 11.295 52.075 25.339v-2.599c-15.192-10.945-33.314-21.09-51.343-24.039z"/>
        <path d="M1246.648 476.747c-13.304 2.343-22.599 10.17-23.055 19.541-.273 5.883-2.46 9.522-6.925 11.765-9.66 4.835-31.803 4.088-72.08 2.742l-4.739-.15c-15.582-.498-24.057.598-26.882 3.44-4.283 4.436 6.197 11.964 20.777 22.432 13.03 9.322 29.251 20.887 38.364 33.25 7.016 9.471 18.954 16.002 35.356 19.441 9.66 1.994 20.23 2.792 30.8 2.792 14.945 0 29.799-1.545 41.736-3.29v-1.595c-21.87 3.24-49.299 5.284-71.533.698-15.674-3.24-27.065-9.522-33.808-18.594-9.295-12.562-25.606-24.227-38.728-33.6-12.94-9.221-24.057-17.197-20.594-20.786 2.187-2.244 10.114-3.091 24.239-2.642l4.738.15c42.283 1.395 63.606 2.093 74.085-3.141 5.103-2.543 7.564-6.53 7.837-12.862.456-8.723 8.93-16.001 21.141-18.145 9.75-1.695 20.959-.15 32.623 4.287v-1.894c-14.945-5.434-26.517-5.035-33.352-3.839z"/>
        <path d="M1223.176 528.33c-8.643 5.303-11.31 12.008-7.448 18.912 4.23 7.505 19.86 11.757 46.434 12.608 3.494.1 6.988.15 10.298.15 2.575 0 5.15-.05 7.54-.1v-1.501c-22.16.45-55.629-.75-61.698-11.657-3.586-6.404-1.103-12.608 6.805-17.462 11.034-6.754 30.802-10.206 54.801-9.756v-1.5c-24.642-.35-45.147 3.251-56.732 10.306zM101.027 374.852C135.744 382.575 168.9 390 191.31 390c6.061 0 11.296-.548 15.613-1.744 6.062-1.694 9.92-4.734 11.572-8.97 3.95-9.966-15.613-19.583-45.278-34.133-29.39-14.401-69.617-34.085-105.16-63.584C43.9 261.587 21.216 248.73.092 243v1.644c20.297 5.73 42.248 18.288 65.576 37.722 35.818 29.7 76.137 49.432 105.619 63.883 28.93 14.202 48.126 23.57 44.452 32.689-1.561 3.837-4.868 6.428-10.195 7.923-19.011 5.431-60.065-3.738-103.507-13.455-28.655-6.378-58.32-13.005-84.036-15.995-6.429-.748-12.49-1.246-18.001-1.495v1.495c5.327.249 11.205.697 17.45 1.445 25.532 3.04 55.106 9.617 83.577 15.996z"/>
        <path d="M86.959 348c9.46 0 15.463-1.296 17.919-3.837 6.003-6.379-12.098-18.538-53.94-36.28C32.018 299.91 12.371 292.536 0 288v1.744c41.387 15.1 111.973 43.655 102.513 53.721-2.001 2.143-7.459 3.09-15.1 3.09-20.102 0-55.759-6.28-87.413-12.957v1.595c6.822 1.445 14.008 2.89 21.285 4.285C50.756 345.16 72.769 348 86.959 348zM494.988 453.325c-5.509 3.606-10.742 7.712-15.7 12.27-10.374 9.564-26.44 17.576-38.192 23.435-11.017 5.509-17.627 8.814-15.791 11.117.918 1.102 3.489 1.853 11.2 1.853 3.581 0 8.355-.15 14.598-.55 42.875-2.505 138.08-38.16 137.897-55.236-.092-5.157-7.988-8.162-23.595-9.013-26.533-1.403-52.974 4.607-70.417 16.124zm91.35-7.06c.091 7.21-19.831 19.48-51.873 31.898-31.123 12.069-63.899 20.632-83.546 21.784-17.81 1.051-22.31.35-22.952-.45-1.101-1.303 7.161-5.41 15.057-9.365 11.843-5.91 28.185-14.022 38.743-23.787 4.866-4.457 10.007-8.563 15.424-12.068 15.332-10.016 37.55-15.724 60.686-15.724 2.478 0 4.957.05 7.436.2 13.863.701 21.025 3.255 21.025 7.511zM89.283 198.041c20.562 20.715 42.585 42.03 64.06 57.59 23.67 17.063 44.23 25.369 62.965 25.369h.548c18.643-.15 35.092-8.356 50.262-24.968 31.893-34.875 69.635-56.19 109.205-61.544 27.05-3.652 54.83-.05 82.52 10.808 21.293 8.356 36.463 11.108 46.15 8.456 14.347-3.903 15.17-18.463 16.083-35.275 1.005-18.463 2.102-39.428 22.298-49.035 9.413-4.453 22.024-6.104 38.564-5.104 43.317 2.702 84.531-.9 119.166-10.307 32.899-8.956 58.395-22.616 73.656-39.528 14.53-16.061 18.734-34.174 12.337-52.287-2.65-7.556-7.128-14.96-13.25-22.216h-3.108c21.384 24.718 22.572 50.736 1.645 73.853-14.987 16.611-40.026 30.02-72.376 38.827-34.178 9.307-74.936 12.81-117.704 10.157-17.089-1.05-30.797.751-40.666 5.454-21.11 10.007-22.207 31.323-23.303 50.086-.823 15.661-1.645 30.472-14.53 33.974-8.774 2.402-22.938-.35-43.408-8.356-28.421-11.108-56.933-14.81-84.805-11.058-40.393 5.504-78.774 27.07-110.942 62.345-14.713 16.061-30.34 23.967-47.794 24.117h-.548c-39.753 0-83.343-40.579-124.649-82.209C66.345 171.822 35.64 154.31 0 145.003v1.651c34.543 9.257 64.518 26.47 89.283 51.387z"/>
        <path d="M123.67 134c15.824 0 29.728-1.244 41.162-3.783 26.069-5.774 39.058-17.57 38.6-35.191-.457-17.272 8.05-30.114 25.978-39.223 44.181-22.598 139.311-18.716 240.113-14.535 14.818.598 30.185 1.245 45.278 1.792 14.727.548 28.265.797 40.705.797 56.804 0 89.002-5.525 96.045-16.526 4.94-7.765-3.293-17.172-16.465-26.331h-3.567c13.538 9.109 22.136 18.417 17.47 25.883-8.049 12.643-53.053 17.62-133.913 14.734-15.093-.548-30.46-1.195-45.279-1.792-101.35-4.181-197.12-8.114-242.216 14.932-18.477 9.458-27.259 22.648-26.801 40.368.457 16.924-11.983 28.323-36.863 33.798-32.015 7.068-84.062 3.833-142.97-8.86-7.043-1.493-13.995-3.136-20.947-4.828v1.642a530.528 530.528 0 0 0 19.94 4.58C58.543 129.719 94.4 134 123.67 134z"/>
        <path d="M71.409 86.9c32.915-1.099 60.802-10.538 83.02-28.067l3.657-2.897c26.973-21.275 40.505-31.963 60.528-36.408 20.024-4.444 47.18-2.846 101.307.4 6.583.4 13.623.8 21.03 1.249 64.185 3.745 110.632 5.044 141.994 3.845 30.264-1.149 47.453-4.495 54.036-10.538 4.023-3.695 3.84-8.19.549-13.484h-2.835c3.292 5.094 3.658 9.34-.091 12.735-6.035 5.444-22.95 8.69-51.842 9.789-31.27 1.198-77.535-.05-141.537-3.846-7.406-.45-14.446-.849-21.03-1.248-54.585-3.296-81.923-4.945-102.678-.3-20.755 4.645-34.47 15.432-61.717 36.957l-3.657 2.897c-21.76 17.13-48.916 26.37-80.917 27.418-16.458.55-40.322-.999-71.226-8.89v1.648C27.155 85.002 48.916 87 65.1 87c2.285 0 4.388-.05 6.309-.1z"/>
        <path d="M108.278 51.423c13.012-3.328 21.929-8.992 26.387-16.84 6.642-11.427 8.098-22.952 7.006-33.583h-2.73c1.093 10.482-.363 21.858-6.914 33.135-4.277 7.452-12.74 12.817-25.023 15.947C77.796 57.534 32.392 51.423 0 45.312v1.59C21.747 50.976 49.226 55 73.975 55c12.466 0 24.294-1.043 34.303-3.577zM673.557 37.855c-18.134 19.527-98.456 16.88-99.372 16.83-44.969 0-86.732-1.748-123.55-3.346-54.77-2.347-102.12-4.345-137.106.6-18.5 2.596-32.88 7.04-43.87 13.533-11.906 6.991-19.966 16.43-24.728 28.765-15.845 41.25-57.334 46.194-90.763 50.139-20.149 2.397-37.55 4.444-43.32 14.233-5.22 8.939.824 26.717 15.57 45.295 15.752 19.925 37.184 35.357 57.333 41.25 6.502 1.897 13.005 2.846 19.141 2.846 11.724 0 22.806-3.396 32.514-10.038 14.745-10.088 26.743-21.074 38.375-31.711 21.706-19.876 40.39-37.005 69.422-40.85 17.86-2.348 38.65.549 63.378 8.988 32.789 11.137 55.502 14.633 69.515 10.687 17.401-4.894 19.142-20.025 20.973-36.106 2.473-21.574 5.038-43.896 45.702-42.898 9.342.2 18.317.35 27.018.35 87.924 0 144.982-11.336 169.619-33.809 19.416-17.629 14.47-38.903 6.96-53.585-3.571-7.041-8.06-13.234-11.997-18.028h-3.023c4.03 4.794 8.701 11.236 12.365 18.478 13.28 26.118 3.663 42.897-6.686 52.386-26.56 24.17-91.953 35.207-194.164 32.76-19.508-.45-32.514 4.045-39.749 13.783-6.32 8.44-7.602 19.677-8.792 30.563-1.74 15.631-3.48 30.363-19.508 34.858-13.097 3.695-34.895.2-66.859-10.637-25.46-8.64-46.892-11.636-65.484-9.139-30.132 3.995-49.182 21.374-71.163 41.55-11.54 10.587-23.538 21.523-38.192 31.511-14.287 9.738-30.498 11.986-48.266 6.792-19.6-5.743-40.665-20.875-56.143-40.5-14.196-17.979-20.424-35.757-15.478-44.247 5.312-8.99 21.156-10.887 41.306-13.234 16.852-1.998 35.902-4.245 52.937-11.336 19.69-8.19 32.788-21.274 39.932-40.002 8.884-23.221 29.399-35.906 66.583-41.15 15.57-2.197 33.796-2.996 54.036-2.996 24.546 0 52.297 1.198 82.154 2.447 36.91 1.548 78.673 3.346 123.642 3.346h.092c.183 0 20.881.749 43.503-1.049 30.774-2.397 50.373-7.99 58.433-16.58 8.7-9.338 3.114-21.923-16.67-37.554h-3.296c20.149 15.431 26.01 27.816 17.676 36.805z"/>
        <path d="M679.242 55.2c-15.013 10.268-60.42 14.526-131.185 12.322-53.738-1.653-103.539-6.512-103.996-6.562-.275-.05-30.668-3.006-64.906.651-20.232 2.104-37.809 6.06-52.365 11.771-18.217 7.113-31.675 16.93-39.914 29.153-15.929 23.692-33.78 39.872-54.653 49.489-18.126 8.365-35.794 10.569-52.272 12.122-24.077 2.254-32.224 10.669-34.788 17.331-5.126 13.023 7.232 30.605 26.457 37.668 5.218 1.903 10.528 2.855 15.654 2.855 4.76 0 9.43-.801 13.824-2.454 18.034-6.713 36.527-19.636 56.117-33.26 37.26-25.997 75.8-52.846 114.524-39.371a952.395 952.395 0 0 1 16.387 5.81c28.38 10.169 50.9 18.233 65.09 14.426 8.421-2.254 13.182-8.215 14.921-18.834 3.57-21.94 10.162-38.47 30.76-47.786 14.647-6.662 35.52-9.116 63.899-7.614 79.462 4.258 131.826-3.456 155.72-22.84 19.132-15.529 15.837-35.715 9.703-49.94C724.74 12.071 719.98 4.958 716.227 0h-2.93c3.754 4.909 8.697 12.172 12.267 20.487 5.95 13.925 9.155 33.66-9.337 48.738-23.253 18.884-74.793 26.347-153.157 22.19-29.111-1.553-50.625 1.052-65.913 7.964-21.238 9.667-28.104 26.498-31.766 48.838-1.648 9.918-5.95 15.678-13.366 17.632-12.816 3.406-34.696-4.408-62.343-14.326a1365.056 1365.056 0 0 0-16.478-5.81c-18.4-6.412-38.266-4.81-60.695 4.908-19.59 8.416-38.815 21.84-57.4 34.813-19.407 13.575-37.808 26.348-55.476 32.96-10.345 3.856-20.049 1.903-26.457-.451-18.4-6.762-30.21-23.643-25.358-36.115 2.472-6.212 10.07-14.076 32.59-16.18 16.845-1.602 34.88-3.856 53.555-12.472 21.238-9.818 39.365-26.197 55.477-50.14 8.056-11.972 21.147-21.54 38.815-28.452 14.19-5.56 31.492-9.417 51.266-11.52 12.816-1.353 25.083-1.804 35.428-1.804 16.844 0 28.38 1.152 28.562 1.152.458.05 50.442 4.91 104.363 6.562 72.687 2.254 117.636-2.053 133.474-12.873 15.654-10.62 19.316-24.995 10.527-41.525-3.02-5.66-6.957-10.669-10.436-14.526h-3.112c3.57 3.807 7.781 9.016 10.894 14.927 5.95 11.17 8.971 27.25-9.979 40.222z"/>
        <path d="M416.843 73.934c-9.975-1.646-20.767-1.098-30.471 1.498-10.883 2.944-42.352 14.223-43.35 27.448-.543 7.586 8.707 14.523 27.48 20.712 11.245 3.693 20.586 8.933 28.839 13.574 8.706 4.891 15.689 8.834 21.765 8.834.544 0 1.088-.05 1.632-.1 3.719-.449 6.53-2.445 8.797-6.238 8.706-14.373 21.221-40.774 7.074-55.796-4.625-4.99-11.971-8.335-21.766-9.932zm12.153 65.279c-1.905 3.194-4.172 4.89-6.802 5.24-4.988.599-12.334-3.544-20.858-8.335-7.981-4.491-17.866-10.08-29.384-13.824-17.865-5.839-26.753-12.377-26.209-19.364.907-12.476 31.288-23.306 41.808-26.15 5.623-1.498 11.608-2.247 17.594-2.247 3.718 0 7.345.3 10.882.899 8.978 1.497 15.78 4.591 20.133 9.183 5.986 6.188 12.878 21.56-7.164 54.598z"/>
        <path d="M400.695 98.314c-3.255-.561-6.781-.357-9.945.51-.09.052-13.38 3.83-13.742 9.036-.181 2.603 2.802 4.951 8.86 6.993 3.345 1.123 6.147 2.757 8.588 4.186 2.894 1.685 5.063 2.961 7.324 2.961.27 0 .452 0 .723-.051 1.989-.255 2.893-1.43 3.345-2.297 2.712-4.594 6.6-13.017 2.08-17.918-1.628-1.735-4.07-2.858-7.233-3.42zm2.531 20.827c-.542.868-1.085 1.277-1.356 1.277-.995.153-3.526-1.328-5.515-2.45-2.441-1.43-5.515-3.217-9.131-4.442-5.153-1.735-7.685-3.624-7.504-5.564.271-3.726 9.764-7.045 12.205-7.76 1.627-.459 3.255-.663 4.972-.663.995 0 2.08.102 3.074.255 2.532.409 4.34 1.277 5.606 2.604 4.068 4.543-.272 13.221-2.351 16.743zM1117.558 89.95c-35 6.646-59.279 26.035-72.014 57.617-5.863 14.592-20.523 23.787-43.52 27.335-43.06 6.696-111.959-8.695-160.06-35.83-38.572-21.688-54.055-45.524-42.511-65.363 10.72-18.39 13.743-38.378 9.07-59.317-1.008-4.397-2.382-8.895-4.031-13.392h-2.84c1.74 4.597 3.115 9.095 4.123 13.592 4.672 20.739 1.649 40.527-8.888 58.717-11.91 20.389 3.848 44.725 43.153 66.862 22.906 12.893 51.674 23.737 81.084 30.533 20.89 4.847 41.046 7.296 58.82 7.296 8.246 0 15.942-.55 22.905-1.6 23.638-3.647 39.397-13.491 45.444-28.483 12.552-31.032 36.098-50.022 70.18-56.518 48.56-9.245 110.77 8.145 161.527 28.284v-1.849c-51.124-20.139-113.334-37.179-162.442-27.884z"/>
        <path d="M1134.464 50.42c-29.491 3.254-51.952 14.02-66.651 31.895-20.36 24.734-46.2 42.059-76.877 51.572-32.87 10.164-62.086 8.462-80.803 5.258-22.643-3.906-42.182-12.117-55.056-23.133-13.33-11.366-18.26-24.785-13.786-37.753C850.512 51.32 853.98 25.334 851.79 1h-2.74c2.192 24.234-1.278 50.12-10.408 76.958-4.565 13.37.456 27.139 14.152 38.805 13.239 11.316 33.325 19.728 56.608 23.733 9.769 1.703 19.812 2.504 29.855 2.504 17.987 0 36.156-2.654 53.047-7.861 31.226-9.664 57.43-27.238 78.064-52.274 14.335-17.424 36.065-27.839 64.642-31.043 23.191-2.554 51.039-.25 80.53 6.76 23.099 5.457 46.472 13.668 64.459 22.631V79.21c-37.16-17.925-97.055-34.148-145.536-28.79zM681.255 682.668c-2.345-1.31-5.322-1.833-8.75-1.623-11.634.733-27.509 10.42-39.505 18.955h3.518c11.455-8.064 26.066-16.704 36.258-17.384 2.616-.157 4.78.21 6.585 1.204 6.223 3.404 13.168 9.635 19.482 16.18H702c-6.584-6.912-13.98-13.667-20.745-17.332z"/>
        <path d="M1252.843 48.252c-31.181-1.597-68.854-8.183-103.418-18.163-40.05-11.575-73.517 5.689-112.196 25.647-29.444 15.218-62.82 32.432-104.15 38.67-14.538 2.195-25.785 1.047-33.558-3.294-26.426-14.919-8.687-63.767 3.383-90.112h-2.834c-3.658 8.033-7.864 18.062-11.156 28.54-10.15 32.583-7.223 53.639 8.687 62.62 5.76 3.243 13.167 4.84 22.128 4.84 4.39 0 9.053-.4 14.173-1.148 41.88-6.287 75.62-23.65 105.247-39.018 37.947-19.56 70.683-36.474 108.996-25.397 35.295 10.228 72.42 16.715 104.423 18.311 9.967.5 19.111.5 27.432 0v-1.496c-8.138.499-17.282.499-27.157 0z"/>
        <path d="M940.159 66.85c1.456.1 2.82.15 4.276.15 24.205 0 51.23-14.589 65.699-23.682 19.2-11.991 37.854-27.58 50.866-42.318h-3.003c-12.83 14.39-31.12 29.578-49.865 41.319-25.843 16.187-49.865 24.381-67.61 23.032-7.37-.55-12.193-2.398-14.74-5.546-9.555-11.99 16.288-39.87 36.58-58.755h-3.185c-4.004 3.797-8.281 7.894-12.376 12.14-22.294 23.033-30.21 38.921-23.476 47.215 2.911 3.647 8.553 5.796 16.834 6.445z"/>
        <path d="M976.15 33.95c.555.05 1.203.05 1.85.05 5.552 0 14.342-1.8 26.555-9.35 9.068-5.55 17.765-13.1 22.854-19.7.833-1.1 1.758-2.45 2.591-3.9h-2.868a53.931 53.931 0 0 1-2.22 3.3c-10.456 13.6-34.328 29.15-48.3 28.05-2.59-.2-4.255-.8-5.18-1.9-4.72-5.8 14.433-22.95 22.668-29.5h-3.33c-5.922 4.85-27.48 23.1-21.837 30.1 1.203 1.65 3.701 2.6 7.217 2.85zM1233.998 32.072c-18.236-1.269-38.672-5.532-60.848-12.687-19.336-6.242-36.655-13.65-48.935-19.385H1120c12.554 5.937 30.974 14.006 51.775 20.704 22.543 7.257 43.345 11.621 61.948 12.89 3.849.254 7.606.406 11.363.406 12.92 0 24.559-1.624 34.914-4.872v-1.776c-13.288 4.314-28.591 5.938-46.002 4.72zM781.667 447.959c-42.156-5.419-72.359-5.267-89.787.405-23.45 7.646-44.893 20.204-40.24 28.053 2.555 4.355 12.319 6.583 29.017 6.583 4.38 0 9.216-.152 14.6-.456l7.39-.405c29.747-1.67 70.534-4 104.751-6.836 55.113-4.557 62.413-7.95 62.595-10.431.183-1.823-3.193-4.305-30.294-7.09-2.098-.455-27.83-5.924-58.032-9.823zm85.498 16.862c-.092 1.215-6.114 4.507-60.223 9.014-34.126 2.835-74.822 5.114-104.568 6.836l-7.391.405c-23.816 1.367-37.868-.405-40.696-5.064-1.825-3.14 1.46-7.646 9.216-12.76 7.39-4.811 18.249-9.723 29.837-13.521 9.216-2.988 21.808-4.152 35.404-4.152 17.337 0 36.407 1.823 52.375 3.899 31.024 4 57.394 9.722 57.668 9.773l.274.05c26.187 2.684 28.104 4.912 28.104 5.52zM742.328 117.974c-20.132 5.22-30.016 9.805-29.29 13.708.453 2.83 6.166 5.025 17.501 6.635 12.515 1.805 24.485 2.683 34.732 2.683 15.326 0 26.843-1.951 30.47-5.659 4.716-4.78-4.715-10.538-13.421-14.587-10.973-5.122-26.752-6.195-39.992-2.78zm51.055 16.684c-5.35 5.415-33.19 6.44-62.118 2.244-9.794-1.415-15.145-3.268-15.507-5.366-.544-3.122 9.34-7.464 27.75-12.245 4.715-1.22 9.793-1.805 14.871-1.805 7.98 0 15.87 1.512 22.218 4.39 11.426 5.27 15.779 9.66 12.786 12.782zM1001.29 684.511c-47.631-3.297-75.606-25.38-110.896-53.36-9.873-7.794-20.112-15.888-31.632-24.282-28.89-21.034-61.253-33.675-96.085-37.572-39.586-4.397-83.103 2.398-129.271 20.185-50.74 19.536-124.152 50.962-187.142 80.14C428.62 677.817 405.581 688.709 383 700h4.023c17.918-8.893 38.306-18.686 60.978-29.228 62.899-29.129 136.22-60.555 186.868-80.04 86.028-33.126 160.629-27.38 221.608 17.086 11.428 8.344 21.667 16.438 31.54 24.232 35.747 28.28 63.996 50.563 112.816 53.96 34.649 2.399 54.488 7.095 59.241 13.99H1063c-4.48-7.744-25.233-12.94-61.71-15.489z"/>
        <path d="M740.042 625.805c-17.242-4.184-34.94-3.68-52.638 1.462-43.881 12.701-83.657 27.722-118.232 44.708C547.916 682.41 531.86 691.985 520 700h3.65c27.003-17.994 79.185-46.574 164.94-71.423 16.968-4.89 33.845-5.393 50.266-1.411 33.116 8.014 59.025 32.712 74.898 52.067 6.113 7.36 11.221 14.567 15.327 20.767H832c-4.196-6.35-9.396-13.76-15.691-21.371-23.355-28.479-49.08-46.272-76.267-52.824zM318.152 513.44c-9.028 2.841-9.58 7.937-6.356 11.464 2.58 2.744 7.922 5.096 14.74 5.096 2.118 0 4.421-.245 6.724-.735 15.66-3.38 24.873-6.81 27.268-10.142 1.198-1.568.092-3.234-3.04-4.655-7.278-3.331-25.794-5.291-39.336-1.029zm39.797 5.144c-2.12 2.89-11.055 6.124-25.794 9.31-8.291 1.812-15.108-.638-17.964-3.675-2.856-3.038-2.303-7.154 5.251-9.506 5.067-1.568 10.87-2.204 16.49-2.204 8.106 0 15.752 1.322 19.621 3.086 1.659.637 3.317 1.764 2.396 2.989zM402.865 667.141c12.736-2.86 51.216-13.7 54.764-18.668.819-1.104.273-2.158-1.546-2.96-8.733-4.116-52.49-3.162-70.684 2.76-10.37 3.362-11.098 9.434-7.277 13.65 3.002 3.312 9.097 6.072 16.92 6.072 2.456.05 5.094-.251 7.823-.854zm-22.287-5.871c-3.366-3.714-2.73-8.782 6.186-11.693 16.647-5.42 59.676-6.574 67.5-2.91 1.09.501 1 .903.727 1.254-2.82 3.915-37.116 14.152-53.217 17.815-9.825 2.259-17.83-.752-21.196-4.466zM74.12 34.302C88.871 28.76 84.045 11.135 79.128 0h-2.822c1.274 2.796 2.458 6.042 3.46 9.437 2.367 8.638 3.096 19.772-7.103 23.667C60.643 37.598 36.241 31.706 0 15.578v1.898C27.954 29.809 49.17 36 63.375 36c4.19 0 7.74-.6 10.745-1.698zM578.27 363.12c10.285 2.135 24.702 2.88 38.201 2.88 6.061 0 11.938-.149 17.172-.397 16.805-.794 35.906-2.979 38.937-6.702 1.01-1.29.734-3.277-6.98-5.362-.183-.05-15.152-3.872-33.242-6.9-24.519-4.071-42.885-4.716-54.547-1.986-6.52 1.539-10.836 4.12-12.948 7.645-2.113 3.277-1.286 7.844 13.407 10.823zm-10.928-10.325c1.837-3.128 5.693-5.412 11.479-6.752 4.591-1.092 10.101-1.49 16.07-1.49 28.651 0 68.505 10.128 69.424 10.376 3.122.844 6.703 2.135 5.693 3.426-2.02 2.482-17.08 4.865-36.64 5.808-21.213.993-41.966.1-54.088-2.383-10.285-2.134-14.234-5.163-11.938-8.985z"/>
    </g>
</svg>
