<svg width="296" height="190" viewBox="0 0 296 190" fill="none" xmlns="http://www.w3.org/2000/svg">
<path fill-rule="evenodd" clip-rule="evenodd" d="M166.486 20.3057C149.307 20.3195 133.872 29.818 127.523 44.2831C119.169 41.239 110.349 39.6656 101.457 39.633C81.0425 39.633 61.4643 47.7426 47.0293 62.1776C21.4882 90.9222 22.7328 115.029 35.386 145.379C24.1491 151.932 17.232 163.954 17.2139 176.962C17.2182 178.079 17.2744 179.195 17.3812 180.306H280.643C279.905 170.92 276.391 161.965 270.55 154.58C274.814 147.751 277.084 139.866 277.102 131.815C277.082 115.017 267.319 99.7557 252.076 92.6943C254.269 87.5502 255.399 82.0159 255.401 76.4239C255.401 65.4072 251.025 54.8418 243.235 47.0521C235.445 39.2622 224.88 34.8859 213.863 34.8859C209.538 34.9034 205.242 35.5954 201.131 36.938C193.325 26.5461 180.357 20.3207 166.486 20.3057Z" fill="#E1E1FD"/>
<path fill-rule="evenodd" clip-rule="evenodd" d="M29.6797 31.1821H111.532C114.054 31.1821 116.084 33.2124 116.084 35.7343V95.2054C116.084 97.7273 114.054 99.7576 111.532 99.7576H29.6797C27.1579 99.7576 25.1279 97.7273 25.1279 95.2054V35.7343C25.1279 33.2124 27.1579 31.1821 29.6797 31.1821Z" fill="white"/>
<path fill-rule="evenodd" clip-rule="evenodd" d="M109.158 164.186C104.484 164.19 100.128 166.553 97.5751 170.469C94.9044 168.129 91.475 166.837 87.924 166.833C80.1485 166.836 73.7257 172.905 73.2827 180.667H158.073C156.727 176.128 152.556 173.013 147.821 173.01C143.859 173.013 140.222 175.205 138.369 178.707C137.009 173.717 132.477 170.254 127.304 170.253C125.274 170.257 123.282 170.801 121.53 171.828C119.184 167.145 114.396 164.187 109.158 164.186Z" fill="#C3C3FC"/>
<path fill-rule="evenodd" clip-rule="evenodd" d="M29.6797 30.6646C26.8804 30.6646 24.6096 32.9346 24.6096 35.7343V95.2055C24.6096 98.0052 26.8804 100.276 29.6797 100.276C29.8649 100.276 30.0356 100.177 30.1283 100.017C30.2207 99.8565 30.2207 99.6591 30.1283 99.4991C30.0356 99.3389 29.8649 99.24 29.6797 99.24C27.4361 99.24 25.6449 97.4495 25.6449 95.2055V35.7343C25.6449 33.4903 27.4361 31.6998 29.6797 31.6998H111.532C113.776 31.6998 115.567 33.4903 115.567 35.7343C115.561 35.9235 115.658 36.1006 115.82 36.197C115.983 36.2931 116.185 36.2931 116.348 36.197C116.51 36.1006 116.608 35.9235 116.602 35.7343C116.602 32.9346 114.332 30.6646 111.532 30.6646H29.6797Z" fill="#363D63"/>
<path fill-rule="evenodd" clip-rule="evenodd" d="M71.4593 48.6482C71.4593 53.8586 75.6832 58.0822 80.8936 58.0822C86.1037 58.0822 90.3277 53.8586 90.3277 48.6482C90.3277 46.146 89.3339 43.7464 87.5645 41.977C85.7952 40.2077 83.3958 39.2139 80.8936 39.2139V48.6482H71.4593Z" fill="#7F90FF"/>
<path fill-rule="evenodd" clip-rule="evenodd" d="M70.0424 46.6655H79.4768V37.2314C76.9746 37.2314 74.5749 38.2253 72.8056 39.9946C71.0362 41.7636 70.0424 44.1636 70.0424 46.6655Z" fill="#6767E5"/>
<path fill-rule="evenodd" clip-rule="evenodd" d="M38.1961 74.7891H45.5568C46.469 74.7891 47.2031 75.5231 47.2031 76.435V89.9781C47.2031 90.8903 46.469 91.6247 45.5568 91.6247H38.1961C37.2843 91.6247 36.5499 90.8903 36.5499 89.9781V76.435C36.5499 75.5231 37.2843 74.7891 38.1961 74.7891Z" fill="#00CCBB"/>
<path fill-rule="evenodd" clip-rule="evenodd" d="M55.5976 80.1201H62.9583C63.8704 80.1201 64.6048 80.8542 64.6048 81.7663V89.9778C64.6048 90.89 63.8704 91.6244 62.9583 91.6244H55.5976C54.6854 91.6244 53.9513 90.89 53.9513 89.9778V81.7663C53.9513 80.8542 54.6854 80.1201 55.5976 80.1201Z" fill="#6767E5"/>
<path fill-rule="evenodd" clip-rule="evenodd" d="M73.8329 68.875H81.1936C82.1058 68.875 82.8398 69.6094 82.8398 70.5212V89.9778C82.8398 90.89 82.1058 91.6244 81.1936 91.6244H73.8329C72.921 91.6244 72.1863 90.89 72.1863 89.9778V70.5212C72.1863 69.6094 72.921 68.875 73.8329 68.875Z" fill="#7F90FF"/>
<path fill-rule="evenodd" clip-rule="evenodd" d="M92.5244 63.4048H99.8848C100.797 63.4048 101.531 64.1389 101.531 65.051V89.9781C101.531 90.8902 100.797 91.6246 99.8848 91.6246H92.5244C91.6119 91.6246 90.8776 90.8902 90.8776 89.9781V65.051C90.8776 64.1389 91.6119 63.4048 92.5244 63.4048Z" fill="#00CCBB"/>
<path fill-rule="evenodd" clip-rule="evenodd" d="M31.6999 90.6294C31.5151 90.6291 31.3441 90.7279 31.2514 90.8882C31.1586 91.0485 31.1586 91.2459 31.2514 91.4061C31.3441 91.5664 31.5151 91.6647 31.6999 91.6647H105.835C106.019 91.6647 106.19 91.5664 106.283 91.4061C106.376 91.2459 106.376 91.0485 106.283 90.8882C106.19 90.7279 106.019 90.6291 105.835 90.6294H31.6999Z" fill="#363D63"/>
<path fill-rule="evenodd" clip-rule="evenodd" d="M95.9424 65.3066C95.861 65.3115 95.7818 65.3364 95.7115 65.3776L58.3825 86.6787L42.7728 79.6146C42.5748 79.5252 42.3424 79.5688 42.1904 79.7239L31.3303 90.7842C31.1995 90.9159 31.1497 91.1075 31.1989 91.2865C31.2483 91.4651 31.3898 91.6039 31.5694 91.65C31.749 91.696 31.94 91.6423 32.0689 91.5094L42.6755 80.7073L58.1971 87.7303C58.3478 87.7987 58.5228 87.7908 58.6668 87.7088L96.2249 66.2765C96.437 66.1592 96.5396 65.9108 96.4717 65.6784C96.4039 65.446 96.184 65.2919 95.9424 65.3066Z" fill="#363D63"/>
<path fill-rule="evenodd" clip-rule="evenodd" d="M40.2249 43.23H55.9491C56.1011 43.23 56.2233 43.3525 56.2233 43.5041V45.0162C56.2233 45.1679 56.1011 45.2904 55.9491 45.2904H40.2249C40.0729 45.2904 39.9504 45.1679 39.9504 45.0162V43.5041C39.9504 43.3525 40.0729 43.23 40.2249 43.23Z" fill="#363D63"/>
<path fill-rule="evenodd" clip-rule="evenodd" d="M41.1094 52.1318C40.924 52.1315 40.7533 52.2301 40.6605 52.3903C40.5678 52.5506 40.5678 52.7483 40.6605 52.9083C40.7533 53.0685 40.924 53.1674 41.1094 53.1674H62.6593C62.8444 53.1674 63.0154 53.0685 63.1081 52.9083C63.2005 52.7483 63.2005 52.5506 63.1081 52.3903C63.0154 52.2301 62.8444 52.1315 62.6593 52.1318H41.1094Z" fill="#363D63"/>
<path fill-rule="evenodd" clip-rule="evenodd" d="M41.1094 56.5923C40.9243 56.5923 40.7533 56.6911 40.6608 56.8511C40.5681 57.0114 40.5681 57.2088 40.6608 57.3687C40.7533 57.5293 40.9243 57.6279 41.1094 57.6279H49.0888C49.2736 57.6279 49.4449 57.5293 49.5373 57.3687C49.6301 57.2088 49.6301 57.0114 49.5373 56.8511C49.4449 56.6911 49.2736 56.5923 49.0888 56.5923H41.1094Z" fill="#363D63"/>
<path fill-rule="evenodd" clip-rule="evenodd" d="M153.313 87.9242H204.774V50.9854H153.313V87.9242Z" fill="white"/>
<path fill-rule="evenodd" clip-rule="evenodd" d="M236.148 168.177C232.606 168.18 229.304 169.971 227.37 172.939C225.346 171.165 222.747 170.186 220.056 170.183C214.163 170.185 209.295 174.784 208.96 180.667H273.219C272.198 177.227 269.037 174.866 265.449 174.865C262.446 174.866 259.69 176.528 258.286 179.182C257.255 175.4 253.82 172.776 249.9 172.775C248.361 172.778 246.852 173.19 245.524 173.968C243.746 170.42 240.118 168.178 236.148 168.177Z" fill="#C3C3FC"/>
<path fill-rule="evenodd" clip-rule="evenodd" d="M25.9602 172.811H54.1807V176.675L52.268 180.668H28.0019L25.9602 176.593V172.811Z" fill="white"/>
<path fill-rule="evenodd" clip-rule="evenodd" d="M25.9523 172.286C25.6667 172.291 25.4389 172.525 25.4426 172.811V176.593C25.4429 176.674 25.462 176.753 25.4979 176.825L27.5398 180.692C27.8432 181.326 28.7909 180.851 28.4646 180.228L26.4773 176.471V172.811C26.4831 172.52 26.2442 172.282 25.9523 172.286Z" fill="#363D63"/>
<path fill-rule="evenodd" clip-rule="evenodd" d="M54.1724 172.286C53.8869 172.291 53.6587 172.525 53.6627 172.811V176.557L51.8016 180.237C51.5035 180.859 52.4368 181.306 52.7352 180.684L54.6476 176.898C54.6805 176.828 54.6983 176.752 54.6983 176.674V172.811C54.7032 172.519 54.4644 172.282 54.1724 172.286Z" fill="#363D63"/>
<path fill-rule="evenodd" clip-rule="evenodd" d="M53.9829 124.185C56.1591 124.197 58.1495 125.413 59.154 127.343C60.1589 129.273 60.0134 131.601 58.7758 133.391C58.7758 133.391 58.3269 134.012 57.3577 136.154C58.3564 136.84 58.9545 137.972 58.9557 139.184C58.9542 140.842 57.8446 142.293 56.246 142.731C56.8072 143.395 57.1148 144.236 57.1151 145.106C57.1136 146.672 56.121 148.065 54.6415 148.579C55.4975 149.277 55.9942 150.323 55.9951 151.428C55.9951 152.404 55.6071 153.34 54.9169 154.03C54.2264 154.721 53.29 155.109 52.314 155.109C51.9453 155.107 51.5784 155.05 51.2265 154.94C51.1826 155.12 51.1387 155.293 51.0948 155.475C50.6309 157.543 49.0885 159.2 47.0591 159.811C45.0297 160.422 42.8287 159.89 41.301 158.422C39.7732 156.953 39.1555 154.775 39.6858 152.723C39.8129 152.197 39.94 151.682 40.0671 151.174C38.3874 150.798 37.1918 149.308 37.1897 147.586C37.19 145.832 38.4282 144.322 40.1487 143.978C39.3864 143.281 38.9514 142.297 38.9498 141.265C38.9498 140.288 39.3379 139.352 40.0281 138.662C40.7186 137.971 41.655 137.583 42.6313 137.583C42.6537 137.585 42.6758 137.587 42.6979 137.589C42.2398 136.96 41.9924 136.203 41.9911 135.425C41.9911 133.393 43.6392 131.745 45.672 131.745C45.9308 131.746 46.1884 131.775 46.4411 131.831C47.8933 128.608 49.0289 126.856 49.0289 126.856C50.1182 125.181 51.9849 124.175 53.9829 124.185Z" fill="#00CCBB"/>
<path fill-rule="evenodd" clip-rule="evenodd" d="M49.9813 138.235C49.7734 138.237 49.5871 138.363 49.5076 138.555C49.5076 138.555 42.9352 153.812 42.273 171.545C42.2641 171.731 42.3559 171.907 42.5131 172.007C42.6706 172.106 42.8689 172.114 43.0332 172.026C43.1977 171.939 43.3021 171.77 43.3076 171.584C43.9613 154.084 50.4581 138.964 50.4581 138.964C50.5299 138.804 50.5152 138.617 50.4188 138.47C50.3221 138.322 50.1575 138.234 49.9813 138.235Z" fill="#363D63"/>
<path fill-rule="evenodd" clip-rule="evenodd" d="M12.1177 133.244C10.0681 133.976 8.59163 135.781 8.28093 137.935C7.97023 140.088 8.87685 142.237 10.6364 143.517C10.6364 143.517 11.2651 143.955 12.8874 145.656C12.1711 146.633 11.9817 147.9 12.3802 149.045C12.9295 150.608 14.4563 151.612 16.1099 151.496C15.7995 152.309 15.7869 153.205 16.0743 154.025C16.5931 155.503 17.9904 156.49 19.5565 156.486C18.9796 157.428 18.8561 158.579 19.2203 159.622C19.5426 160.544 20.2181 161.299 21.0977 161.723C21.9773 162.146 22.9892 162.203 23.9109 161.88C24.2587 161.757 24.5857 161.582 24.8814 161.362C24.9824 161.517 25.0812 161.666 25.1829 161.824C26.3035 163.623 28.3071 164.678 30.4249 164.584C32.5421 164.489 34.4447 163.261 35.4013 161.37C36.358 159.478 36.2204 157.218 35.0415 155.456C34.7477 155.001 34.4579 154.557 34.1699 154.12C35.6313 153.21 36.2671 151.409 35.7004 149.783C35.1204 148.128 33.4524 147.111 31.715 147.355C32.2043 146.445 32.2897 145.373 31.9498 144.398C31.6275 143.477 30.952 142.721 30.0721 142.298C29.1925 141.874 28.1806 141.817 27.2592 142.14C27.2383 142.148 27.2178 142.156 27.1969 142.164C27.4219 141.42 27.4051 140.623 27.1493 139.889C26.4776 137.97 24.3776 136.959 22.459 137.631C22.2152 137.718 21.9816 137.83 21.7615 137.966C19.3259 135.404 17.6754 134.126 17.6754 134.126C16.0936 132.905 13.9994 132.573 12.1177 133.244Z" fill="#7F90FF"/>
<path fill-rule="evenodd" clip-rule="evenodd" d="M24.6373 151.625C24.4175 151.628 24.2237 151.769 24.1534 151.978C24.0834 152.186 24.1528 152.416 24.3263 152.551C24.3263 152.551 34.7262 160.933 36.3881 171.558C36.4145 171.742 36.5382 171.898 36.7117 171.967C36.8854 172.034 37.0822 172.004 37.2268 171.886C37.3718 171.769 37.4418 171.582 37.411 171.398C35.661 160.211 24.9728 151.742 24.9728 151.742C24.8783 151.665 24.7595 151.623 24.6373 151.625Z" fill="#363D63"/>
<path fill-rule="evenodd" clip-rule="evenodd" d="M27.7842 168.521C26.4871 168.521 25.4426 169.566 25.4426 170.863V173.793H54.6983V170.863C54.6983 169.566 53.6538 168.521 52.3564 168.521H27.7842Z" fill="#7F90FF"/>
<path fill-rule="evenodd" clip-rule="evenodd" d="M204.248 49.9424C203.963 49.947 203.735 50.1819 203.739 50.4674V86.8886H184.662C184.477 86.8886 184.306 86.9872 184.213 87.1474C184.121 87.3077 184.121 87.5051 184.213 87.6654C184.306 87.8256 184.477 87.9242 184.662 87.9242H204.257C204.394 87.9242 204.526 87.8692 204.623 87.7722C204.72 87.6749 204.774 87.5435 204.774 87.406V50.4674C204.776 50.3274 204.721 50.1927 204.622 50.0938C204.523 49.9949 204.388 49.9403 204.248 49.9424Z" fill="#363D63"/>
<path fill-rule="evenodd" clip-rule="evenodd" d="M155.506 44.8452C154.291 44.8452 153.313 45.8234 153.313 47.0382V50.9853H204.774V47.0382C204.774 45.8234 203.796 44.8452 202.581 44.8452H155.506Z" fill="#00CCBB"/>
<path fill-rule="evenodd" clip-rule="evenodd" d="M158.742 47.797C158.742 48.3966 158.256 48.8823 157.657 48.8827C157.057 48.8823 156.571 48.3966 156.571 47.797C156.571 47.1977 157.057 46.7114 157.657 46.7114C158.256 46.7114 158.742 47.1977 158.742 47.797Z" fill="#ECECEC"/>
<path fill-rule="evenodd" clip-rule="evenodd" d="M162.154 47.797C162.154 48.3966 161.668 48.8823 161.068 48.8827C160.469 48.8827 159.983 48.3966 159.983 47.797C159.983 47.5091 160.097 47.233 160.301 47.0295C160.504 46.8259 160.781 46.7114 161.068 46.7114C161.668 46.7117 162.154 47.1977 162.154 47.797Z" fill="#ECECEC"/>
<path fill-rule="evenodd" clip-rule="evenodd" d="M165.825 47.797C165.825 48.085 165.71 48.361 165.506 48.5646C165.303 48.7681 165.027 48.8827 164.739 48.8827C164.139 48.8823 163.654 48.3966 163.654 47.797C163.654 47.1977 164.139 46.7117 164.739 46.7114C165.027 46.7114 165.303 46.8259 165.506 47.0295C165.71 47.233 165.825 47.5091 165.825 47.797Z" fill="#ECECEC"/>
<path fill-rule="evenodd" clip-rule="evenodd" d="M172.143 69.5432C171.628 71.2247 170.105 72.4218 168.232 72.4218C165.923 72.4218 164.119 70.6175 164.119 68.3093C164.119 67.7416 164.23 67.2053 164.43 66.7177L158.428 65.1099C158.095 66.1196 157.908 67.1936 157.908 68.3093C157.908 73.9741 162.567 78.6325 168.232 78.6325C172.338 78.6325 175.907 76.1782 177.564 72.6732L172.143 69.5432Z" fill="#6767E5"/>
<path fill-rule="evenodd" clip-rule="evenodd" d="M172.143 69.5433L177.564 72.6733C178.193 71.3436 178.555 69.8672 178.555 68.3094C178.555 65.5029 177.41 62.9449 175.566 61.0767L171.199 65.4431C171.909 66.1787 172.345 67.1817 172.345 68.3094C172.345 68.7444 172.262 69.1528 172.143 69.5433Z" fill="#00CCBB"/>
<path fill-rule="evenodd" clip-rule="evenodd" d="M158.428 65.1102L164.43 66.718C165.039 65.2238 166.491 64.1965 168.232 64.1965C169.412 64.1965 170.456 64.673 171.199 65.4433L175.566 61.0769C173.689 59.1737 171.09 57.9858 168.232 57.9858C163.682 57.9858 159.788 60.9931 158.428 65.1102Z" fill="#7F90FF"/>
<path fill-rule="evenodd" clip-rule="evenodd" d="M174.843 68.3093C174.843 70.0623 174.146 71.7439 172.907 72.9836C171.667 74.2233 169.985 74.9196 168.232 74.9196C164.581 74.9196 161.621 71.96 161.621 68.3093C161.621 66.5559 162.318 64.8743 163.558 63.6346C164.797 62.3946 166.478 61.6982 168.232 61.6982C169.985 61.6982 171.667 62.3946 172.907 63.6346C174.146 64.8743 174.843 66.5559 174.843 68.3093Z" fill="white"/>
<path fill-rule="evenodd" clip-rule="evenodd" d="M185.489 58.7803H201.213C201.365 58.7803 201.487 58.9025 201.487 59.0544V60.5665C201.487 60.7185 201.365 60.8407 201.213 60.8407H185.489C185.337 60.8407 185.215 60.7185 185.215 60.5665V59.0544C185.215 58.9025 185.337 58.7803 185.489 58.7803Z" fill="#363D63"/>
<path fill-rule="evenodd" clip-rule="evenodd" d="M186.374 67.6827C186.187 67.6805 186.014 67.7787 185.921 67.9399C185.827 68.1005 185.827 68.2998 185.921 68.4606C186.014 68.6218 186.187 68.7201 186.374 68.7179H196.678C196.865 68.7201 197.038 68.6218 197.131 68.4606C197.225 68.2998 197.225 68.1005 197.131 67.9399C197.038 67.7787 196.865 67.6805 196.678 67.6827H186.374Z" fill="#363D63"/>
<path fill-rule="evenodd" clip-rule="evenodd" d="M186.374 72.1429C186.184 72.1364 186.007 72.2335 185.91 72.3962C185.813 72.5589 185.813 72.7615 185.91 72.9245C186.007 73.0873 186.184 73.1843 186.374 73.1778H191.009C191.199 73.1843 191.377 73.0873 191.473 72.9245C191.57 72.7615 191.57 72.5589 191.473 72.3962C191.377 72.2335 191.199 72.1364 191.009 72.1429H186.374Z" fill="#363D63"/>
<path fill-rule="evenodd" clip-rule="evenodd" d="M141.769 122.92L143.652 172.992L149.5 180.667H138.754L134.368 158.592L129.617 140.098L123.111 158.665L119.449 173.509L122.748 180.667H113.172L113.609 173.285L116.339 122.92H141.769Z" fill="#363D63"/>
<path fill-rule="evenodd" clip-rule="evenodd" d="M135.872 66.6575C135.689 66.6514 135.516 66.7419 135.418 66.8961C135.319 67.0502 135.309 67.2445 135.391 67.4079L136.641 69.9844L135.214 70.2588C135.028 70.2889 134.873 70.4176 134.809 70.595C134.745 70.7731 134.783 70.9711 134.908 71.1127C135.033 71.2542 135.225 71.3165 135.409 71.2751L137.499 70.8741C137.657 70.8437 137.792 70.7412 137.864 70.5972C137.936 70.4535 137.937 70.2843 137.867 70.14L136.323 66.9562C136.241 66.7797 136.066 66.6643 135.872 66.6575Z" fill="#363D63"/>
<path fill-rule="evenodd" clip-rule="evenodd" d="M123.324 76.1572L122.621 81.3971H130.227L130.3 78.5802C130.3 78.5802 129.196 78.2683 127.771 77.8093C127.059 77.5796 126.267 77.3138 125.493 77.0313C124.719 76.7492 123.963 76.451 123.324 76.1572Z" fill="#FEB8CA"/>
<path fill-rule="evenodd" clip-rule="evenodd" d="M122.992 77.5154C123.675 77.6834 124.474 77.8341 125.287 77.9652C126.1 78.0966 126.928 78.2084 127.671 78.2996C129.156 78.4816 130.3 78.5799 130.3 78.5799C130.692 78.5575 133.242 78.5793 133.602 78.5102C137.292 77.8019 137.742 74.8714 137.189 71.2716L136.18 65.92L135.11 60.3437C134.336 56.3128 130.93 56.0236 126.915 56.7942C122.901 57.5651 120.286 61.8978 122.825 65.1233L125.122 68.0427L123.025 68.4452C121.544 68.7295 120.58 70.1513 120.865 71.6327C121.149 73.114 122.571 74.0778 124.052 73.7935L126.256 73.3704C126.562 74.0765 126.666 75.1453 125.975 75.5914L122.992 77.5154Z" fill="#FEB8CA"/>
<path fill-rule="evenodd" clip-rule="evenodd" d="M124.941 51.2023C126.621 50.8846 128.333 50.5999 129.757 50.4428C134.312 49.9405 135.183 52.3414 136.013 53.3729C136.844 54.4042 137.9 53.1221 138.661 56.6976C139.422 60.2735 136.985 60.952 136.985 60.952C136.985 60.952 138.044 65.4409 136.377 66.9658L136.18 65.9201L135.289 61.2774L132.999 61.7171C132.999 61.7171 129.958 61.7554 130.467 64.4093C130.976 67.0638 129.263 69.1644 128.35 70.5122C127.436 71.8597 126.555 70.8564 126.555 70.8564L125.983 67.8774L123.025 68.4453C121.544 68.7296 120.58 70.1514 120.865 71.6328C121.149 73.1142 122.571 74.0779 124.052 73.7936L126.043 73.4114C126.112 73.4021 126.181 73.3889 126.256 73.3705C128.143 76.4109 129.168 77.5153 125.464 78.2481C118.46 78.4842 116.808 72.7144 115.331 65.0203C114.567 63.9727 114.026 62.8939 114.113 62.0057C114.377 59.3125 116.74 59.6032 116.217 56.8754C115.693 54.1475 117.697 52.758 117.697 52.758C117.697 52.758 121.244 51.9011 124.941 51.2023Z" fill="#363D63"/>
<path fill-rule="evenodd" clip-rule="evenodd" d="M160.9 78.3125C160.9 78.3125 154.238 84.2226 152.734 85.5658C147.205 87.7757 138.803 84.5861 132.463 82.6783L131.061 80.7625H122.621L120.681 83.5198C120.681 83.5198 114.723 86.0051 111.068 88.9292C107.414 91.8532 106.974 95.8005 106.974 95.8005L104.562 107.876C104.562 107.876 104.097 111.47 106.39 114.089C108.683 116.708 116.298 118.497 116.298 118.497L116.339 122.92H141.77L141.527 108.562L141.29 96.0421C147.272 95.6667 154.646 95.9344 157.355 91.7979L165.135 79.4475L160.9 78.3125ZM116.339 100.186V109.648L112.976 107.707L116.339 100.186Z" fill="#6767E5"/>
<path fill-rule="evenodd" clip-rule="evenodd" d="M123.531 83.293C123.345 83.2918 123.173 83.39 123.08 83.5509C122.986 83.7114 122.986 83.9098 123.08 84.071C123.173 84.2312 123.345 84.3298 123.531 84.3282H130.99C131.175 84.3298 131.348 84.2312 131.441 84.071C131.534 83.9098 131.534 83.7114 131.441 83.5509C131.348 83.39 131.175 83.2918 130.99 83.293H123.531Z" fill="#363D63"/>
<path fill-rule="evenodd" clip-rule="evenodd" d="M207.769 115.95C211.244 115.95 213.673 118.674 213.215 122.06L208.766 154.937C208.308 158.322 205.141 161.048 201.666 161.048H170.131C166.656 161.048 164.226 158.322 164.685 154.937L164.753 152.443H176.451L180.833 122.06C181.291 118.674 184.457 115.95 187.933 115.95H207.769Z" fill="white"/>
<path fill-rule="evenodd" clip-rule="evenodd" d="M213.246 120.729C213.285 121.157 213.277 121.602 213.215 122.06L208.766 154.937C208.308 158.323 205.141 161.048 201.666 161.048H180.986L185.51 127.619C186.027 123.801 189.597 120.729 193.516 120.729H213.246Z" fill="#00CCBB"/>
<path fill-rule="evenodd" clip-rule="evenodd" d="M207.769 115.432C211.515 115.432 214.224 118.467 213.728 122.129L209.278 155.007C208.782 158.67 205.411 161.565 201.665 161.565H170.131C166.385 161.565 163.676 158.53 164.172 154.868L164.24 154.366C164.26 154.178 164.381 154.017 164.554 153.944C164.728 153.871 164.927 153.898 165.075 154.015C165.223 154.131 165.296 154.319 165.265 154.505L165.198 155.007C164.777 158.114 166.926 160.53 170.131 160.53H201.665C204.87 160.53 207.832 157.975 208.253 154.868L212.702 121.99C213.123 118.883 210.974 116.467 207.769 116.467H200.426C200.237 116.473 200.059 116.376 199.963 116.213C199.867 116.051 199.867 115.848 199.963 115.686C200.059 115.523 200.237 115.425 200.426 115.432H207.769Z" fill="#363D63"/>
<path fill-rule="evenodd" clip-rule="evenodd" d="M168.202 151.968C167.489 151.944 167.489 153.027 168.202 153.003H202.924C203.638 153.026 203.638 151.944 202.924 151.968H168.202Z" fill="#363D63"/>
<path fill-rule="evenodd" clip-rule="evenodd" d="M186.187 160.73C185.839 160.724 185.584 161.056 185.68 161.39L190.937 180.481C191.119 181.147 192.118 180.874 191.935 180.208L186.678 161.118C186.62 160.893 186.419 160.734 186.187 160.73Z" fill="#363D63"/>
<path fill-rule="evenodd" clip-rule="evenodd" d="M190.792 160.73C190.565 160.741 190.372 160.898 190.316 161.118L185.059 180.208C184.877 180.874 185.875 181.147 186.057 180.481L191.314 161.39C191.413 161.049 191.146 160.713 190.792 160.73Z" fill="#363D63"/>
<path fill-rule="evenodd" clip-rule="evenodd" d="M170.761 160.73C170.515 160.719 170.295 160.881 170.234 161.12L164.977 180.43C164.797 181.096 165.797 181.366 165.977 180.699L171.234 161.389C171.325 161.068 171.094 160.746 170.761 160.73Z" fill="#363D63"/>
<path fill-rule="evenodd" clip-rule="evenodd" d="M155.725 129.513H174.006C174.67 129.513 175.204 130.047 175.204 130.711V132.052C175.204 132.716 174.67 133.25 174.006 133.25H155.725C155.062 133.25 154.527 132.716 154.527 132.052V130.711C154.527 130.047 155.062 129.513 155.725 129.513Z" fill="white"/>
<path fill-rule="evenodd" clip-rule="evenodd" d="M214.471 142.339C214.123 142.332 213.868 142.664 213.963 142.999L224.159 180.524C224.339 181.19 225.339 180.92 225.159 180.254L214.962 142.729C214.905 142.504 214.704 142.345 214.471 142.339Z" fill="#363D63"/>
<path fill-rule="evenodd" clip-rule="evenodd" d="M203.112 142.339C202.764 142.332 202.509 142.664 202.604 142.999L212.8 180.524C212.98 181.19 213.98 180.92 213.8 180.254L203.603 142.729C203.545 142.504 203.345 142.345 203.112 142.339Z" fill="#363D63"/>
<path fill-rule="evenodd" clip-rule="evenodd" d="M132.017 113.365H157.563C158.521 113.365 159.436 114.136 159.615 115.093L162.69 131.522C162.87 132.479 162.244 133.25 161.286 133.25H135.739C134.782 133.25 133.867 132.479 133.687 131.522L130.612 115.093C130.433 114.136 131.059 113.365 132.017 113.365Z" fill="white"/>
<path fill-rule="evenodd" clip-rule="evenodd" d="M218.953 133.25C219.964 133.25 220.778 133.925 220.778 134.765V139.866H83.6126V134.765C83.6126 133.925 84.4262 133.25 85.4366 133.25H218.953Z" fill="#00CCBB"/>
<path fill-rule="evenodd" clip-rule="evenodd" d="M145.062 120.481C144.81 120.481 144.559 120.517 144.317 120.586C144.587 120.884 144.736 121.272 144.737 121.673C144.737 122.104 144.565 122.518 144.261 122.823C143.956 123.128 143.542 123.299 143.111 123.299C142.848 123.298 142.589 123.234 142.356 123.112C142.354 123.138 142.352 123.164 142.352 123.191C142.352 124.687 143.565 125.9 145.061 125.9C146.557 125.9 147.771 124.687 147.771 123.191C147.771 122.472 147.485 121.783 146.977 121.275C146.469 120.766 145.779 120.481 145.062 120.481Z" fill="#363D63"/>
<path fill-rule="evenodd" clip-rule="evenodd" d="M132.016 112.848C131.828 112.842 131.65 112.939 131.553 113.102C131.457 113.264 131.457 113.467 131.553 113.629C131.65 113.792 131.828 113.889 132.016 113.883H157.564C158.244 113.883 158.977 114.496 159.107 115.189L162.182 131.617C162.247 131.964 162.167 132.229 162.014 132.418C161.86 132.607 161.626 132.733 161.286 132.733H154.776C154.59 132.73 154.417 132.828 154.323 132.99C154.229 133.15 154.229 133.35 154.323 133.511C154.417 133.672 154.59 133.77 154.776 133.768H161.286C161.903 133.768 162.462 133.508 162.816 133.072C163.171 132.636 163.313 132.037 163.199 131.427L160.124 114.998C159.896 113.777 158.799 112.848 157.564 112.848H132.016Z" fill="#363D63"/>
<path fill-rule="evenodd" clip-rule="evenodd" d="M83.6126 142.657H220.778V139.866H83.6126V142.657Z" fill="white"/>
<path fill-rule="evenodd" clip-rule="evenodd" d="M81.5648 142.14C81.38 142.139 81.2086 142.238 81.1159 142.398C81.0232 142.558 81.0232 142.756 81.1159 142.916C81.2086 143.077 81.38 143.175 81.5648 143.175H221.851C222.035 143.175 222.207 143.077 222.299 142.916C222.392 142.756 222.392 142.558 222.299 142.398C222.207 142.238 222.035 142.139 221.851 142.14H81.5648Z" fill="#363D63"/>
<path fill-rule="evenodd" clip-rule="evenodd" d="M86.0128 142.34C85.7863 142.351 85.5938 142.51 85.5385 142.73L75.3412 180.193C75.145 180.868 76.1714 181.145 76.3406 180.462L86.5378 142.999C86.6349 142.657 86.3674 142.321 86.0128 142.34Z" fill="#363D63"/>
<path fill-rule="evenodd" clip-rule="evenodd" d="M97.3719 142.34C97.1453 142.351 96.9531 142.51 96.8976 142.73L86.7006 180.193C86.5026 180.869 87.5314 181.146 87.7002 180.462L97.8969 142.999C97.9942 142.657 97.7265 142.321 97.3719 142.34Z" fill="#363D63"/>
<path fill-rule="evenodd" clip-rule="evenodd" d="M96.189 126.206V129.378C96.189 131.523 97.9156 133.25 100.06 133.25H102.534C104.678 133.25 106.405 131.523 106.405 129.378V126.206H96.189Z" fill="#7F90FF"/>
<path fill-rule="evenodd" clip-rule="evenodd" d="M96.1929 132.732C96.0066 132.73 95.8334 132.828 95.7392 132.989C95.6455 133.15 95.6455 133.35 95.7392 133.511C95.8334 133.672 96.0066 133.77 96.1929 133.768H106.071C106.258 133.77 106.431 133.672 106.525 133.511C106.619 133.35 106.619 133.15 106.525 132.989C106.431 132.828 106.258 132.73 106.071 132.732H96.1929Z" fill="#363D63"/>
<path fill-rule="evenodd" clip-rule="evenodd" d="M97.8825 118.09C97.3176 118.09 96.8352 118.466 96.5988 118.975C96.3621 119.484 96.3621 120.071 96.5988 120.58C96.8352 121.089 97.3176 121.464 97.8825 121.464C98.0682 121.465 98.2405 121.367 98.3338 121.206C98.4271 121.046 98.4271 120.847 98.3338 120.686C98.2405 120.526 98.0682 120.427 97.8825 120.429C97.775 120.429 97.6365 120.358 97.5371 120.144C97.4373 119.929 97.4373 119.625 97.5371 119.411C97.6365 119.197 97.775 119.126 97.8825 119.126C98.0673 119.126 98.2386 119.027 98.3307 118.867C98.4234 118.707 98.4234 118.509 98.3307 118.349C98.2386 118.189 98.0673 118.09 97.8825 118.09Z" fill="#363D63"/>
<path fill-rule="evenodd" clip-rule="evenodd" d="M97.8825 120.429C97.6964 120.427 97.5245 120.526 97.4311 120.687C97.3378 120.847 97.3378 121.046 97.4311 121.206C97.5245 121.367 97.6964 121.466 97.8825 121.464C97.9896 121.464 98.1287 121.535 98.2288 121.749C98.3283 121.964 98.3283 122.267 98.2288 122.482C98.1287 122.696 97.9896 122.767 97.8825 122.767C97.5966 122.767 97.3645 122.999 97.3645 123.285C97.3645 123.57 97.5966 123.802 97.8825 123.802C98.4471 123.802 98.9303 123.427 99.1667 122.918C99.4034 122.409 99.4034 121.822 99.1667 121.313C98.9303 120.804 98.4471 120.429 97.8825 120.429Z" fill="#363D63"/>
<path fill-rule="evenodd" clip-rule="evenodd" d="M101.351 118.09C100.786 118.09 100.303 118.466 100.067 118.975C99.8305 119.484 99.8305 120.071 100.067 120.58C100.303 121.089 100.786 121.464 101.351 121.464C101.537 121.465 101.709 121.367 101.802 121.206C101.895 121.046 101.895 120.847 101.802 120.686C101.709 120.526 101.537 120.427 101.351 120.429C101.243 120.429 101.105 120.358 101.005 120.144C100.906 119.929 100.906 119.625 101.005 119.411C101.105 119.197 101.243 119.126 101.351 119.126C101.536 119.126 101.707 119.027 101.799 118.867C101.892 118.707 101.892 118.509 101.799 118.349C101.707 118.189 101.536 118.09 101.351 118.09Z" fill="#363D63"/>
<path fill-rule="evenodd" clip-rule="evenodd" d="M101.351 120.429C101.165 120.427 100.993 120.526 100.899 120.687C100.806 120.847 100.806 121.046 100.899 121.206C100.993 121.367 101.165 121.466 101.351 121.464C101.458 121.464 101.596 121.535 101.696 121.749C101.796 121.964 101.796 122.267 101.696 122.482C101.596 122.696 101.458 122.767 101.351 122.767C101.065 122.767 100.833 122.999 100.833 123.285C100.833 123.57 101.065 123.802 101.351 123.802C101.915 123.802 102.399 123.427 102.635 122.918C102.872 122.409 102.872 121.822 102.635 121.313C102.399 120.804 101.915 120.429 101.351 120.429Z" fill="#363D63"/>
<path fill-rule="evenodd" clip-rule="evenodd" d="M104.9 118.09C104.335 118.09 103.852 118.466 103.615 118.975C103.379 119.484 103.379 120.071 103.615 120.58C103.852 121.089 104.335 121.464 104.9 121.464C105.086 121.465 105.258 121.367 105.351 121.206C105.445 121.046 105.445 120.847 105.351 120.686C105.258 120.526 105.086 120.427 104.9 120.429C104.793 120.429 104.654 120.358 104.555 120.144C104.455 119.929 104.455 119.625 104.555 119.411C104.654 119.197 104.793 119.126 104.9 119.126C105.085 119.126 105.256 119.027 105.349 118.867C105.441 118.707 105.441 118.509 105.349 118.349C105.256 118.189 105.085 118.09 104.9 118.09Z" fill="#363D63"/>
<path fill-rule="evenodd" clip-rule="evenodd" d="M104.899 120.429C104.714 120.427 104.541 120.526 104.448 120.687C104.355 120.847 104.355 121.046 104.448 121.206C104.541 121.367 104.714 121.466 104.899 121.464C105.007 121.464 105.145 121.535 105.244 121.749C105.344 121.964 105.344 122.267 105.244 122.482C105.145 122.696 105.007 122.767 104.899 122.767C104.614 122.767 104.382 122.999 104.382 123.285C104.382 123.57 104.614 123.802 104.899 123.802C105.464 123.802 105.947 123.427 106.184 122.918C106.42 122.409 106.42 121.822 106.184 121.313C105.947 120.804 105.464 120.429 104.899 120.429Z" fill="#363D63"/>
<path fill-rule="evenodd" clip-rule="evenodd" d="M161.085 132.732C160.899 132.73 160.726 132.828 160.632 132.989C160.538 133.15 160.538 133.35 160.632 133.511C160.726 133.672 160.899 133.77 161.085 133.768H198.386C198.573 133.77 198.746 133.672 198.84 133.511C198.934 133.35 198.934 133.15 198.84 132.989C198.746 132.828 198.573 132.73 198.386 132.732H161.085Z" fill="#363D63"/>
<path fill-rule="evenodd" clip-rule="evenodd" d="M166.146 77.6271L162.875 75.936L160.9 78.3127L165.135 79.4477L166.146 77.6271Z" fill="#363D63"/>
<path fill-rule="evenodd" clip-rule="evenodd" d="M166.146 77.6272C167.437 75.9859 170.375 72.1218 172.143 69.5435C169.573 68.5607 165.793 68.8312 164.005 71.6619C162.919 73.5021 162.875 75.9362 162.875 75.9362L166.146 77.6272Z" fill="#FEB8CA"/>
<path fill-rule="evenodd" clip-rule="evenodd" d="M164.785 72.8177C164.633 72.4753 163.645 70.4619 163.645 70.4619C163.645 70.4619 162.582 71.7158 162.164 73.3113C161.746 74.9069 162.875 75.936 162.875 75.936L164.785 72.8177Z" fill="#FEB8CA"/>
<path fill-rule="evenodd" clip-rule="evenodd" d="M114.93 95.6792C114.756 95.6718 114.591 95.7522 114.489 95.8929C114.387 96.0335 114.363 96.2158 114.424 96.3783L115.821 100.276L115.78 118.496C115.778 118.682 115.875 118.855 116.036 118.949C116.196 119.044 116.395 119.045 116.556 118.952C116.717 118.859 116.816 118.687 116.816 118.501L116.856 100.19C116.856 100.13 116.846 100.07 116.826 100.014L115.398 96.0316C115.329 95.8293 115.143 95.6905 114.93 95.6792Z" fill="#363D63"/>
<path fill-rule="evenodd" clip-rule="evenodd" d="M254.347 133.446C254.061 133.45 253.833 133.685 253.837 133.97V170.412C253.835 170.598 253.934 170.77 254.094 170.863C254.255 170.956 254.453 170.956 254.614 170.863C254.775 170.77 254.873 170.598 254.872 170.412V133.97C254.874 133.83 254.819 133.696 254.72 133.597C254.621 133.498 254.486 133.444 254.347 133.446Z" fill="#363D63"/>
<path fill-rule="evenodd" clip-rule="evenodd" d="M257.055 130.018C252.985 129.767 250.412 132.214 255.493 137.295C260.574 142.377 266.597 144.593 268.945 142.244C271.293 139.896 269.078 133.873 263.996 128.792C258.915 123.711 256.51 126.102 257.055 130.018Z" fill="#00CCBB"/>
<path fill-rule="evenodd" clip-rule="evenodd" d="M247.518 106.797C247.381 106.799 247.25 106.855 247.154 106.954C247.059 107.052 247.006 107.184 247.008 107.322V170.485C247.006 170.671 247.105 170.843 247.266 170.937C247.426 171.03 247.625 171.03 247.786 170.937C247.946 170.843 248.045 170.671 248.043 170.485V107.322C248.045 107.182 247.99 107.047 247.892 106.949C247.793 106.849 247.658 106.795 247.518 106.797Z" fill="#363D63"/>
<path fill-rule="evenodd" clip-rule="evenodd" d="M251.038 114.838C250.753 114.842 250.525 115.077 250.529 115.363V170.412C250.523 170.601 250.62 170.778 250.782 170.875C250.945 170.971 251.147 170.971 251.31 170.875C251.473 170.778 251.57 170.601 251.563 170.412V115.363C251.566 115.223 251.511 115.088 251.412 114.989C251.313 114.89 251.178 114.836 251.038 114.838Z" fill="#363D63"/>
<path fill-rule="evenodd" clip-rule="evenodd" d="M243.906 133.446C243.62 133.45 243.392 133.685 243.395 133.97V170.412C243.392 170.599 243.49 170.772 243.652 170.867C243.813 170.961 244.013 170.961 244.174 170.867C244.335 170.772 244.434 170.599 244.431 170.412V133.97C244.432 133.831 244.377 133.696 244.279 133.598C244.18 133.499 244.045 133.444 243.906 133.446Z" fill="#363D63"/>
<path fill-rule="evenodd" clip-rule="evenodd" d="M258.482 151.433C258.344 151.435 258.213 151.491 258.118 151.59C258.022 151.688 257.969 151.821 257.971 151.958V170.412C257.969 170.598 258.067 170.772 258.228 170.866C258.389 170.959 258.589 170.959 258.75 170.866C258.911 170.772 259.009 170.598 259.007 170.412V151.958C259.009 151.818 258.954 151.684 258.855 151.585C258.756 151.486 258.622 151.431 258.482 151.433Z" fill="#363D63"/>
<path fill-rule="evenodd" clip-rule="evenodd" d="M244.832 127.309C249.101 127.045 251.8 129.612 246.47 134.941C241.142 140.27 234.825 142.593 232.363 140.131C229.9 137.668 232.223 131.352 237.552 126.023C242.882 120.694 245.404 123.202 244.832 127.309Z" fill="#7F90FF"/>
<path fill-rule="evenodd" clip-rule="evenodd" d="M248.041 145.444C252.967 145.14 256.082 148.102 249.932 154.252C243.782 160.402 236.493 163.083 233.651 160.241C230.809 157.399 233.491 150.11 239.64 143.961C245.79 137.811 248.701 140.705 248.041 145.444Z" fill="#00CCBB"/>
<path fill-rule="evenodd" clip-rule="evenodd" d="M252.065 114.164C249.462 114.004 247.816 115.569 251.066 118.818C254.316 122.068 258.167 123.485 259.669 121.983C261.171 120.482 259.754 116.63 256.504 113.38C253.255 110.13 251.716 111.66 252.065 114.164Z" fill="#7F90FF"/>
<path fill-rule="evenodd" clip-rule="evenodd" d="M247.026 104.654C249.629 104.493 251.275 106.058 248.025 109.308C244.776 112.558 240.924 113.975 239.422 112.473C237.921 110.971 239.337 107.119 242.587 103.87C245.837 100.62 247.375 102.15 247.026 104.654Z" fill="#00CCBB"/>
<path fill-rule="evenodd" clip-rule="evenodd" d="M237.602 180.668H266.857V173.793H237.602V180.668Z" fill="white"/>
<path fill-rule="evenodd" clip-rule="evenodd" d="M238.112 172.286C237.826 172.29 237.598 172.525 237.602 172.811V180.668C237.595 180.857 237.693 180.88 237.855 180.977C238.018 181.073 238.22 181.073 238.383 180.977C238.545 180.88 238.643 180.857 238.637 180.668V172.811C238.638 172.671 238.584 172.537 238.485 172.438C238.386 172.339 238.251 172.284 238.112 172.286Z" fill="#363D63"/>
<path fill-rule="evenodd" clip-rule="evenodd" d="M266.331 172.286C266.046 172.291 265.818 172.525 265.822 172.811V180.668C265.82 180.854 265.919 180.872 266.08 180.966C266.24 181.059 266.439 181.059 266.599 180.966C266.76 180.872 266.858 180.854 266.857 180.668V172.811C266.859 172.671 266.804 172.536 266.705 172.438C266.606 172.339 266.471 172.284 266.331 172.286Z" fill="#363D63"/>
<path fill-rule="evenodd" clip-rule="evenodd" d="M239.943 168.521C238.646 168.521 237.602 169.565 237.602 170.863V173.793H266.857V170.863C266.857 169.565 265.813 168.521 264.516 168.521H239.943Z" fill="#00CCBB"/>
<path fill-rule="evenodd" clip-rule="evenodd" d="M259.019 151.314C254.949 151.063 252.376 153.51 257.457 158.591C262.538 163.672 268.562 165.888 270.909 163.54C273.257 161.192 271.042 155.169 265.961 150.088C260.879 145.007 258.474 147.398 259.019 151.314Z" fill="#7F90FF"/>
<path fill-rule="evenodd" clip-rule="evenodd" d="M11.6422 180.15C11.4534 180.144 11.2759 180.241 11.1795 180.404C11.0834 180.566 11.0834 180.769 11.1795 180.931C11.2759 181.094 11.4534 181.191 11.6422 181.185H287.244C287.433 181.191 287.61 181.094 287.707 180.931C287.803 180.769 287.803 180.566 287.707 180.404C287.61 180.241 287.433 180.144 287.244 180.15H11.6422Z" fill="#363D63"/>
<path fill-rule="evenodd" clip-rule="evenodd" d="M218.23 68.0312L212.607 73.6537V100.855H240.72V71.3747C240.72 69.5221 239.229 68.0312 237.377 68.0312H218.23Z" fill="white"/>
<path fill-rule="evenodd" clip-rule="evenodd" d="M218.23 67.5132C218.093 67.5135 217.961 67.5681 217.864 67.6655L212.241 73.2879C212.144 73.3849 212.09 73.5166 212.09 73.6535V100.855C212.089 101.04 212.188 101.211 212.348 101.304C212.509 101.396 212.706 101.396 212.866 101.304C213.027 101.211 213.125 101.04 213.125 100.855V73.8684L218.444 68.5488H237.377C238.951 68.5488 240.203 69.8002 240.203 71.3745C240.196 71.5637 240.293 71.7414 240.456 71.8381C240.619 71.9349 240.822 71.9349 240.984 71.8381C241.147 71.7414 241.244 71.5637 241.237 71.3745C241.237 69.2445 239.507 67.5132 237.377 67.5132H218.23Z" fill="#363D63"/>
<path fill-rule="evenodd" clip-rule="evenodd" d="M218.229 67.5063C218.092 67.5063 217.96 67.5613 217.863 67.6583C217.766 67.7553 217.712 67.8874 217.712 68.0246L217.643 73.1364H212.607C212.418 73.13 212.241 73.2273 212.145 73.39C212.048 73.5528 212.048 73.7548 212.145 73.9175C212.241 74.0799 212.418 74.1772 212.607 74.1711H218.154C218.437 74.1708 218.667 73.9436 218.671 73.6605L218.747 68.0381C218.751 67.8984 218.698 67.763 218.601 67.6629C218.503 67.5625 218.369 67.5063 218.229 67.5063Z" fill="#363D63"/>
<path fill-rule="evenodd" clip-rule="evenodd" d="M233.654 81.5596L228.722 88.1261H231.26V98.1953H236.047V88.1261H238.585L233.654 81.5596Z" fill="#00CCBB"/>
<path fill-rule="evenodd" clip-rule="evenodd" d="M222.423 88.854L217.492 95.4202H220.03V98.1953H224.816V95.4202H227.355L222.423 88.854Z" fill="#7F90FF"/>
<path fill-rule="evenodd" clip-rule="evenodd" d="M224.26 73.1787H236.461C236.579 73.1787 236.673 73.3012 236.673 73.4529V74.9649C236.673 75.1169 236.579 75.2391 236.461 75.2391H224.26C224.143 75.2391 224.048 75.1169 224.048 74.9649V73.4529C224.048 73.3012 224.143 73.1787 224.26 73.1787Z" fill="#363D63"/>
<path fill-rule="evenodd" clip-rule="evenodd" d="M217.001 79.5736C216.812 79.5668 216.634 79.6641 216.537 79.8269C216.441 79.9896 216.441 80.1919 216.537 80.3546C216.634 80.5173 216.812 80.6147 217.001 80.6079H227.306C227.495 80.6147 227.673 80.5173 227.769 80.3546C227.866 80.1919 227.866 79.9896 227.769 79.8269C227.673 79.6641 227.495 79.5668 227.306 79.5736H217.001Z" fill="#363D63"/>
<path fill-rule="evenodd" clip-rule="evenodd" d="M222.669 84.0337C222.485 84.0334 222.314 84.1322 222.221 84.2922C222.128 84.4525 222.128 84.6499 222.221 84.8101C222.314 84.9704 222.485 85.0693 222.669 85.0693H227.306C227.491 85.0693 227.662 84.9704 227.755 84.8101C227.847 84.6499 227.847 84.4525 227.755 84.2922C227.662 84.1322 227.491 84.0334 227.306 84.0337H222.669Z" fill="#363D63"/>
<path fill-rule="evenodd" clip-rule="evenodd" d="M202.41 160.73C202.062 160.724 201.807 161.056 201.903 161.39L207.16 180.481C207.342 181.147 208.34 180.874 208.159 180.208L202.902 161.118C202.843 160.893 202.642 160.734 202.41 160.73Z" fill="#363D63"/>
</svg>
