<svg width="296" height="190" viewBox="0 0 296 190" fill="none" xmlns="http://www.w3.org/2000/svg">
<path fill-rule="evenodd" clip-rule="evenodd" d="M165.214 19.8447C147.863 19.8587 132.272 29.4536 125.859 44.0641C117.42 40.9895 108.511 39.4006 99.5295 39.3673C78.9092 39.3673 59.1336 47.5587 44.553 62.1396C18.754 91.1739 20.0114 115.523 32.7921 146.181C21.4422 152.8 14.4549 164.943 14.4362 178.082C14.4422 179.21 14.4978 180.337 14.6054 181.46H280.524C279.778 171.979 276.229 162.933 270.329 155.474C274.636 148.576 276.928 140.611 276.947 132.479C276.926 115.511 267.065 100.096 251.669 92.9641C253.883 87.7679 255.025 82.1777 255.027 76.5295C255.027 65.4016 250.606 54.7298 242.738 46.8612C234.87 38.9927 224.197 34.5723 213.07 34.5727C208.701 34.5901 204.362 35.2889 200.209 36.6454C192.325 26.1482 179.226 19.86 165.214 19.8447Z" fill="#E1E1FD"/>
<path fill-rule="evenodd" clip-rule="evenodd" d="M220.94 123.359L222.488 173.708L228.395 181.46H217.541L213.11 159.162L208.311 140.482L201.74 159.236L196.257 181.46H185.643L192.141 174.003L194.365 123.359H220.94Z" fill="white"/>
<path fill-rule="evenodd" clip-rule="evenodd" d="M213.053 77.9365V79.268L209.558 82.7622H207.399L205.382 79.268V77.9368L203.028 80.0372C198.824 81.5051 192.827 84.5321 190.996 88.6765L183.62 100.621L174.17 107.343L177.081 111.502C181.776 109.767 187.738 108.106 191.124 103.743C191.378 103.216 193.722 100.337 194.891 98.5118V123.359H220.941V112.81C227.111 114.655 232.055 113.922 231.069 104.506C231.069 104.506 230.39 95.9489 229.66 93.1295C228.929 90.3102 227.206 88.9003 227.206 88.9003L218.397 82.5454L213.053 77.9365Z" fill="#00CCBB"/>
<path fill-rule="evenodd" clip-rule="evenodd" d="M205.38 76.9025V79.2676L207.398 82.7622H209.557L213.052 79.2676V72.6343C213.052 72.6343 212.908 72.8349 212.609 73.1527C212.459 73.3114 212.27 73.499 212.041 73.7063C211.812 73.9127 211.543 74.1384 211.231 74.3724C210.919 74.606 210.566 74.8482 210.169 75.0876C209.772 75.3276 209.331 75.5654 208.846 75.7898C208.603 75.9022 208.349 76.0114 208.083 76.1162C207.818 76.2209 207.541 76.3213 207.252 76.4159C206.964 76.5102 206.664 76.5987 206.352 76.68C206.04 76.7619 205.716 76.8362 205.38 76.9019C205.38 76.9019 205.38 76.9019 205.38 76.9025Z" fill="#363D63"/>
<path fill-rule="evenodd" clip-rule="evenodd" d="M205.942 78.0806C205.942 78.0806 205.942 78.0806 205.942 78.0803C206.269 77.9797 206.583 77.8721 206.885 77.7584C207.187 77.6448 207.476 77.5254 207.753 77.4016C208.031 77.2778 208.296 77.1489 208.549 77.0171C208.801 76.8851 209.043 76.7502 209.273 76.613C209.732 76.3394 210.145 76.0568 210.515 75.7771C210.885 75.4971 211.211 75.22 211.497 74.9549C211.783 74.6895 212.027 74.4371 212.234 74.2079C212.44 73.9781 212.608 73.7717 212.74 73.5981C213.005 73.2511 213.127 73.0368 213.127 73.0368C213.548 72.32 213.83 71.5648 213.919 70.7921L216.173 70.5559C217.689 70.3971 218.781 69.0495 218.622 67.5343C218.464 66.0187 217.116 64.9267 215.6 65.0854L213.456 65.3098L213.109 61.9943C212.677 57.8711 209.023 54.8981 204.917 55.3279C200.81 55.7584 197.852 59.4238 198.284 63.547L198.631 66.8625C197.119 67.0241 196.03 68.3705 196.188 69.8838C196.347 71.399 197.695 72.4914 199.21 72.3327H199.222C199.741 75.9746 201.034 78.6759 204.808 78.2806C205.177 78.2419 205.556 78.1743 205.942 78.0806Z" fill="#FEB8CA"/>
<path fill-rule="evenodd" clip-rule="evenodd" d="M199.987 63.8115L209.515 62.8137C209.515 62.8137 210.956 62.5315 211.318 63.4909C211.681 64.4506 210.507 65.0195 210.605 65.9541L210.88 68.5766C210.88 68.5766 210.859 69.6284 212.03 69.5325C213.201 69.4357 214.645 65.1852 214.645 65.1852L216.229 65.0195C216.229 65.0195 218.516 64.2045 218.87 61.3836C219.224 58.5623 218.121 57.6017 217.077 57.3769C216.033 57.1518 215.093 56.5661 215.093 56.5661C215.093 56.5661 215.515 53.189 212.496 51.9303C209.477 50.6715 207.634 53.6207 205.165 52.8557C202.696 52.0906 199.258 50.1369 197.07 53.3058C194.882 56.4722 194.09 59.1106 194.433 60.1191C194.632 60.7071 196.346 64.0506 196.346 64.0506C196.346 64.0503 196.263 66.3309 197.089 67.488C197.915 68.6449 198.853 68.9182 198.853 68.9182L198.34 64.016C198.34 64.016 198.736 63.9426 199.987 63.8115Z" fill="#363D63"/>
<path fill-rule="evenodd" clip-rule="evenodd" d="M210.439 83.8213C210.245 83.8219 210.068 83.9299 209.977 84.101C209.887 84.2727 209.899 84.48 210.009 84.6397L213.192 89.4203C213.287 89.5629 213.446 89.6502 213.617 89.6534C213.789 89.6568 213.951 89.5759 214.051 89.4372L217.355 84.8743C217.472 84.7232 217.497 84.5207 217.421 84.3454C217.345 84.1705 217.18 84.0508 216.99 84.033C216.8 84.0156 216.615 84.1032 216.509 84.2613L213.646 88.2143L210.879 84.0613C210.783 83.9118 210.617 83.8216 210.439 83.8213Z" fill="#363D63"/>
<path fill-rule="evenodd" clip-rule="evenodd" d="M200.088 82.1088C199.904 82.1155 199.737 82.2196 199.648 82.3821C199.56 82.5447 199.565 82.7418 199.659 82.8999L203.415 89.3917C203.506 89.5478 203.671 89.6466 203.851 89.6523C204.031 89.6583 204.203 89.5707 204.303 89.4202L207.487 84.6399C207.594 84.484 207.608 84.2831 207.525 84.1136C207.442 83.944 207.275 83.8326 207.086 83.8215C206.898 83.8107 206.718 83.9021 206.616 84.0605L203.899 88.1405L200.565 82.3758C200.469 82.2043 200.284 82.1012 200.088 82.1088Z" fill="#363D63"/>
<path fill-rule="evenodd" clip-rule="evenodd" d="M207.051 83.8274C206.86 83.8211 206.682 83.9192 206.584 84.0833C206.487 84.2478 206.487 84.4519 206.584 84.6163C206.682 84.7808 206.86 84.8789 207.051 84.8725H210.444C210.635 84.8789 210.814 84.7808 210.911 84.6163C211.009 84.4519 211.009 84.2478 210.911 84.0833C210.814 83.9192 210.635 83.8211 210.444 83.8274H207.051Z" fill="#363D63"/>
<path fill-rule="evenodd" clip-rule="evenodd" d="M210.187 75.3282C210.051 75.3257 209.919 75.3768 209.82 75.4695C207.984 77.1422 205.843 77.5682 205.843 77.5682C205.84 77.5682 205.837 77.5682 205.835 77.5682C205.835 77.5682 204.98 77.7473 204.065 77.7936C203.282 77.833 202.32 77.4295 202.32 77.4295C202.149 77.3504 201.949 77.3698 201.797 77.4793C201.644 77.5885 201.562 77.772 201.581 77.959C201.601 78.1457 201.72 78.3079 201.892 78.3828C201.891 78.3828 202.969 78.8958 204.118 78.8377C205.133 78.7863 206.042 78.5923 206.046 78.5914C206.052 78.5914 208.456 78.1254 210.524 76.2406C210.686 76.0974 210.743 75.8704 210.668 75.6682C210.593 75.466 210.402 75.3304 210.187 75.3282Z" fill="#363D63"/>
<path fill-rule="evenodd" clip-rule="evenodd" d="M201.487 67.4866C201.475 67.4879 201.463 67.4895 201.45 67.4917L200.717 67.5679C200.53 67.5872 200.369 67.7044 200.292 67.8752C200.217 68.0457 200.237 68.2444 200.347 68.3952C200.457 68.5466 200.639 68.6282 200.825 68.6085L201.559 68.5311C201.84 68.5031 202.049 68.2565 202.029 67.9745C202.01 67.6923 201.769 67.4774 201.487 67.4866Z" fill="#363D63"/>
<path fill-rule="evenodd" clip-rule="evenodd" d="M201.529 67.48C201.261 67.4683 201.028 67.6619 200.99 67.9273L200.429 71.4578C200.404 71.6184 200.454 71.7813 200.566 71.8994C200.677 72.0171 200.838 72.0765 200.999 72.0597L203.137 71.8359C203.324 71.8178 203.486 71.701 203.563 71.5295C203.64 71.3581 203.619 71.1587 203.509 71.007C203.398 70.8549 203.215 70.7746 203.028 70.7956L201.568 70.9479L202.022 68.0908C202.048 67.9429 202.008 67.7908 201.914 67.674C201.819 67.5568 201.679 67.486 201.529 67.48Z" fill="#363D63"/>
<path fill-rule="evenodd" clip-rule="evenodd" d="M193.72 93.2206C193.536 93.2279 193.369 93.3317 193.281 93.4939C193.192 93.6562 193.197 93.8527 193.291 94.0111L194.368 95.8774V123.359C194.367 123.546 194.467 123.719 194.629 123.813C194.791 123.907 194.99 123.907 195.152 123.813C195.315 123.719 195.414 123.546 195.414 123.359V95.7368C195.414 95.6447 195.39 95.5543 195.343 95.4749L194.197 93.4882C194.101 93.3165 193.917 93.213 193.72 93.2206Z" fill="#363D63"/>
<path fill-rule="evenodd" clip-rule="evenodd" d="M174.17 107.343L177.081 111.502L173.55 113.643L170.054 110.32L174.17 107.343Z" fill="#363D63"/>
<path fill-rule="evenodd" clip-rule="evenodd" d="M173.292 115.461C172.546 116.135 171.645 116.575 170.788 116.686C169.931 116.796 169.188 116.568 168.721 116.051C168.255 115.535 168.104 114.771 168.302 113.93C168.5 113.089 169.03 112.238 169.776 111.565C170.522 110.892 171.422 110.451 172.279 110.341C173.137 110.23 173.88 110.459 174.347 110.976C174.813 111.492 174.964 112.255 174.766 113.096C174.568 113.937 174.038 114.789 173.292 115.461Z" fill="#363D63"/>
<path fill-rule="evenodd" clip-rule="evenodd" d="M158.855 109.121C158.042 109.121 157.298 109.758 157.189 110.549L156.62 114.64C156.097 114.816 155.584 115.021 155.083 115.255L151.807 112.778C151.169 112.296 150.193 112.372 149.618 112.947L146.093 116.472C145.518 117.047 145.443 118.023 145.924 118.661L148.27 121.764C147.976 122.33 147.719 122.914 147.501 123.513L143.695 124.042C142.904 124.153 142.267 124.896 142.267 125.709V130.695C142.267 131.508 142.904 132.252 143.695 132.362L147.201 132.849C147.419 133.576 147.693 134.286 148.02 134.971L145.924 137.743C145.443 138.381 145.518 139.357 146.093 139.932L149.618 143.457C150.193 144.033 151.169 144.108 151.807 143.626L154.408 141.66C155.157 142.057 155.938 142.389 156.743 142.652L157.189 145.856C157.298 146.647 158.042 147.283 158.855 147.283H163.841C164.655 147.283 165.398 146.647 165.508 145.856L165.955 142.643C166.758 142.382 167.538 142.052 168.285 141.657L170.89 143.626C171.527 144.108 172.503 144.033 173.078 143.457L176.603 139.932C177.178 139.357 177.254 138.381 176.772 137.743L174.674 134.967C175.003 134.283 175.281 133.575 175.502 132.848L179.001 132.362C179.793 132.252 180.43 131.508 180.43 130.695V125.709C180.43 124.896 179.793 124.153 179.001 124.042L175.204 123.515C174.984 122.914 174.724 122.329 174.428 121.762L176.772 118.661C177.254 118.023 177.178 117.047 176.603 116.472L173.078 112.947C172.503 112.372 171.527 112.296 170.89 112.778L167.611 115.256C167.112 115.021 166.599 114.813 166.076 114.635L165.508 110.549C165.398 109.758 164.655 109.121 163.841 109.121H158.855Z" fill="white"/>
<path fill-rule="evenodd" clip-rule="evenodd" d="M168.052 128.621C168.052 130.399 167.345 132.104 166.088 133.361C164.831 134.619 163.126 135.325 161.349 135.325C159.57 135.325 157.866 134.618 156.609 133.361C155.351 132.104 154.645 130.399 154.645 128.621C154.645 124.919 157.646 121.918 161.349 121.918C163.126 121.918 164.831 122.625 166.088 123.882C167.345 125.139 168.052 126.844 168.052 128.621Z" fill="#E1E1FD"/>
<path fill-rule="evenodd" clip-rule="evenodd" d="M222.473 99.4914C222.316 99.4956 222.17 99.5702 222.074 99.694C221.978 99.8184 221.943 99.9784 221.978 100.131L223.03 105.002L213.672 105.906C213.482 105.919 213.315 106.035 213.235 106.207C213.155 106.379 213.175 106.581 213.286 106.735C213.398 106.888 213.584 106.969 213.773 106.946L223.716 105.986C223.864 105.972 223.999 105.895 224.087 105.774C224.175 105.654 224.208 105.501 224.177 105.356L223 99.9108C222.95 99.6613 222.727 99.4841 222.473 99.4914Z" fill="white"/>
<path fill-rule="evenodd" clip-rule="evenodd" d="M203.793 100.154L206.191 99.0528C206.61 98.8601 207.104 99.0429 207.296 99.4623L214.124 114.335C214.317 114.755 214.134 115.248 213.715 115.441L211.317 116.542C210.897 116.735 210.404 116.552 210.211 116.132L203.383 101.259C203.19 100.839 203.373 100.346 203.793 100.154Z" fill="#363D63"/>
<path fill-rule="evenodd" clip-rule="evenodd" d="M213.723 106.426L209.888 101.432C208.71 102.338 209.086 103.388 209.877 105.082L204.598 103.906C204.432 106.679 205.84 110.239 209.11 111.103C211.213 111.591 214.57 111.175 214.57 111.175L213.723 106.426Z" fill="#363D63"/>
<path fill-rule="evenodd" clip-rule="evenodd" d="M218.308 106.169L218.682 111.542L214.57 111.175L213.723 106.426L218.308 106.169Z" fill="#363D63"/>
<path fill-rule="evenodd" clip-rule="evenodd" d="M93.9876 56.6172C94.8013 56.6172 95.5448 57.254 95.6546 58.0454L96.2235 62.1359C96.7467 62.3121 97.2594 62.5178 97.7597 62.7512L101.037 60.274C101.674 59.7927 102.65 59.868 103.225 60.4432L106.75 63.9683C107.325 64.5435 107.401 65.5194 106.919 66.1569L104.573 69.26C104.867 69.8261 105.124 70.4102 105.342 71.0096L109.148 71.5385C109.939 71.6486 110.577 72.3921 110.577 73.2054V78.1915C110.577 79.0045 109.939 79.7477 109.148 79.8581L105.643 80.3451C105.424 81.0724 105.15 81.7819 104.823 82.467L106.919 85.2397C107.401 85.8769 107.325 86.8531 106.75 87.4283L103.225 90.9537C102.65 91.5289 101.674 91.6042 101.037 91.1223L98.4349 89.1559C97.6867 89.5527 96.9054 89.8848 96.1003 90.148L95.6546 93.3515C95.5448 94.1426 94.8013 94.7797 93.9876 94.7797H89.0026C88.1892 94.7797 87.4457 94.1426 87.3356 93.3515L86.8889 90.1394C86.0854 89.8778 85.306 89.5477 84.5587 89.1534L81.9537 91.1223C81.3162 91.6042 80.3403 91.5289 79.7651 90.9537L76.24 87.4283C75.6651 86.8531 75.5895 85.8769 76.0714 85.2397L78.1699 82.4632C77.8397 81.7794 77.5629 81.0708 77.3419 80.3445L73.8419 79.8581C73.0508 79.7477 72.4137 79.0045 72.4137 78.1915V73.2054C72.4137 72.3921 73.0508 71.6486 73.8419 71.5385L77.6391 71.0108C77.8594 70.4102 78.1187 69.8248 78.4149 69.2575L76.0714 66.1569C75.5895 65.5197 75.6651 64.5435 76.24 63.9683L79.7651 60.4432C80.3403 59.868 81.3162 59.7927 81.9537 60.274L85.2318 62.7518C85.7314 62.5166 86.2445 62.3093 86.7673 62.1315L87.3356 58.0454C87.4457 57.254 88.1892 56.6172 89.0026 56.6172H93.9876ZM91.4953 69.414C87.793 69.414 84.7918 72.4156 84.7918 76.1175C84.7918 79.8194 87.793 82.8204 91.4953 82.8204C95.1972 82.8204 98.1984 79.8194 98.1984 76.1175C98.1981 72.4153 95.1972 69.414 91.4953 69.414Z" fill="#363D63"/>
<path fill-rule="evenodd" clip-rule="evenodd" d="M142.259 130.165C141.97 130.17 141.74 130.407 141.744 130.696C141.744 131.782 142.552 132.731 143.624 132.88L146.826 133.325C146.998 133.856 147.198 134.377 147.429 134.887L145.507 137.429C144.855 138.292 144.955 139.534 145.724 140.302L149.249 143.828C150.017 144.596 151.259 144.696 152.122 144.044L154.484 142.259C155.062 142.549 155.657 142.802 156.266 143.017L156.671 145.929C156.82 147 157.769 147.807 158.855 147.807H163.841C164.927 147.807 165.876 147 166.025 145.929L166.431 143.008C167.039 142.795 167.633 142.544 168.209 142.257L170.574 144.044C171.437 144.696 172.68 144.597 173.448 143.829L176.973 140.303C177.741 139.535 177.841 138.292 177.189 137.43L175.266 134.886C175.545 134.271 175.805 133.647 176.002 133.002C176.06 132.822 176.016 132.625 175.888 132.486C175.76 132.348 175.567 132.289 175.383 132.333C175.199 132.376 175.054 132.516 175.002 132.697C174.788 133.398 174.521 134.082 174.203 134.741C174.118 134.918 174.138 135.128 174.257 135.284L176.355 138.06C176.667 138.472 176.616 139.182 176.233 139.563L172.709 143.089C172.326 143.471 171.617 143.522 171.205 143.211L168.6 141.241C168.438 141.119 168.22 141.102 168.041 141.196C167.32 141.577 166.568 141.895 165.793 142.147C165.603 142.209 165.464 142.374 165.437 142.573L164.99 145.785C164.919 146.296 164.382 146.762 163.841 146.762H158.855C158.315 146.762 157.778 146.296 157.707 145.785L157.261 142.582C157.234 142.383 157.096 142.219 156.906 142.157C156.129 141.902 155.375 141.583 154.653 141.199C154.474 141.104 154.255 141.121 154.093 141.243L151.491 143.21C151.079 143.521 150.37 143.471 149.988 143.089L146.463 139.563C146.081 139.181 146.03 138.471 146.342 138.06L148.437 135.287C148.555 135.131 148.576 134.923 148.492 134.746C148.177 134.085 147.912 133.401 147.701 132.7C147.643 132.504 147.475 132.36 147.272 132.332L143.767 131.845C143.256 131.774 142.79 131.237 142.79 130.696C142.792 130.554 142.737 130.418 142.636 130.318C142.537 130.219 142.4 130.163 142.259 130.165Z" fill="#363D63"/>
<path fill-rule="evenodd" clip-rule="evenodd" d="M102.194 59.4323C101.679 59.393 101.153 59.5307 100.721 59.8571L97.4441 62.3339C97.293 62.4457 97.2137 62.6298 97.2365 62.8168C97.2591 63.0031 97.38 63.1634 97.5533 63.2361C97.7267 63.3088 97.9257 63.2828 98.0746 63.1682L101.352 60.6914C101.763 60.3799 102.473 60.4301 102.855 60.8126L106.381 64.338C106.513 64.4714 106.706 64.5241 106.887 64.4761C107.068 64.4279 107.21 64.2863 107.258 64.105C107.306 63.9234 107.254 63.7304 107.12 63.5987L103.595 60.073C103.21 59.6892 102.708 59.472 102.194 59.4323ZM76.0864 65.6288C75.8832 65.6209 75.694 65.732 75.6013 65.9126C75.5086 66.0936 75.5295 66.3117 75.654 66.4723L77.8137 69.3279C77.6191 69.7219 77.4406 70.1234 77.2803 70.5326L73.7702 71.0203C72.6987 71.1698 71.8908 72.119 71.8908 73.2053C71.8908 73.3923 71.9905 73.565 72.1524 73.6584C72.314 73.7517 72.5133 73.7517 72.6749 73.6584C72.8368 73.565 72.9368 73.3923 72.9368 73.2053C72.9368 72.665 73.4026 72.1276 73.9137 72.0561L77.7111 71.5285C77.9022 71.5019 78.0635 71.3726 78.1302 71.1911C78.3429 70.6117 78.5921 70.0466 78.8781 69.4999C78.9714 69.3209 78.9537 69.1041 78.8321 68.9428L76.4886 65.8419C76.394 65.713 76.246 65.6345 76.0864 65.6288ZM104.573 68.7304C104.389 68.7292 104.217 68.8257 104.122 68.9838C104.027 69.1415 104.022 69.338 104.11 69.5009C104.393 70.0466 104.641 70.6101 104.851 71.1879C104.917 71.3698 105.079 71.5003 105.27 71.5269L109.076 72.0561C109.587 72.1276 110.053 72.665 110.053 73.2053V78.1907C110.053 78.7314 109.587 79.2685 109.076 79.3399L105.571 79.8276C105.368 79.8558 105.201 79.9993 105.142 80.1949C104.932 80.8965 104.667 81.5806 104.351 82.2412C104.267 82.4177 104.288 82.6263 104.406 82.7825L106.502 85.5545C106.612 85.7101 106.799 85.7926 106.988 85.7711C107.177 85.7492 107.34 85.6266 107.412 85.4504C107.484 85.2739 107.455 85.0723 107.336 84.9241L105.415 82.3825C105.644 81.8733 105.845 81.352 106.017 80.8209L109.221 80.3755C110.292 80.2266 111.099 79.2771 111.099 78.1907V73.2053C111.099 72.1193 110.292 71.1698 109.221 71.0203L105.702 70.532C105.502 70.0184 105.291 69.5085 105.037 69.0193C104.949 68.8434 104.77 68.7317 104.573 68.7304ZM91.4949 68.8911C87.5105 68.8911 84.2692 72.133 84.2692 76.1177C84.268 76.3053 84.3673 76.4793 84.5295 76.5733C84.6918 76.6676 84.8924 76.6676 85.0543 76.5733C85.2168 76.4793 85.3165 76.3053 85.3149 76.1177C85.3149 72.698 88.0753 69.9368 91.4949 69.9368C94.9143 69.9368 97.6759 72.698 97.6759 76.1177C97.6759 79.5371 94.9143 82.2974 91.4949 82.2974C91.308 82.2971 91.1353 82.3968 91.0416 82.5587C90.948 82.7206 90.948 82.9203 91.0416 83.0819C91.1353 83.2441 91.308 83.3434 91.4949 83.3431C95.4794 83.3431 98.7206 80.1019 98.7206 76.1177C98.7206 72.133 95.4794 68.8911 91.4949 68.8911ZM73.8095 79.3345C73.5381 79.3469 73.3216 79.5653 73.3111 79.8368C73.3006 80.1082 73.5 80.3425 73.7699 80.3755L76.9673 80.8203C77.1422 81.3514 77.3451 81.8717 77.5772 82.3799L75.6537 84.9241C75.0016 85.7872 75.1016 87.0301 75.8699 87.7984C76.0019 87.9304 76.1943 87.9822 76.3749 87.9336C76.5556 87.8853 76.6965 87.7444 76.7448 87.5641C76.793 87.3834 76.7413 87.1911 76.6092 87.0587C76.227 86.6765 76.1772 85.9663 76.488 85.5545L78.5867 82.778C78.7048 82.6219 78.7251 82.4123 78.64 82.2355C78.3216 81.5758 78.0543 80.8926 77.841 80.192C77.7816 79.9974 77.6149 79.8552 77.4133 79.8269L73.9133 79.3399C73.8787 79.3345 73.8438 79.3323 73.8095 79.3345ZM98.4073 88.633C98.3314 88.6374 98.2568 88.658 98.1899 88.6939C97.4676 89.0765 96.7143 89.3968 95.9375 89.6507C95.7591 89.7079 95.6248 89.8565 95.586 90.0399C95.547 90.2228 95.6092 90.4136 95.7489 90.538C95.8889 90.6631 96.0848 90.7038 96.2622 90.6444C96.9857 90.4082 97.6791 90.0949 98.3587 89.7542L100.721 91.5393C101.584 92.1917 102.827 92.0911 103.595 91.3231C103.728 91.1914 103.78 90.9984 103.732 90.8174C103.684 90.6365 103.542 90.4952 103.361 90.4466C103.18 90.3984 102.987 90.4507 102.855 90.5838C102.473 90.966 101.764 91.0158 101.352 90.7047L98.7499 88.7387C98.6518 88.6641 98.5305 88.6269 98.4073 88.633Z" fill="#363D63"/>
<path fill-rule="evenodd" clip-rule="evenodd" d="M116.363 93.4209C117.176 93.4209 117.92 94.0574 118.03 94.8492L118.598 98.9399C119.122 99.1158 119.634 99.3209 120.134 99.5549L123.411 97.078C124.049 96.5965 125.025 96.6717 125.6 97.2469L129.125 100.772C129.7 101.347 129.776 102.323 129.294 102.961L126.948 106.064C127.242 106.63 127.499 107.214 127.717 107.813L131.523 108.342C132.314 108.452 132.951 109.196 132.951 110.009V114.995C132.951 115.808 132.314 116.551 131.523 116.662L128.017 117.149C127.799 117.876 127.525 118.586 127.198 119.271L129.294 122.043C129.776 122.681 129.7 123.657 129.125 124.232L125.6 127.757C125.025 128.332 124.049 128.408 123.411 127.926L120.81 125.96C120.061 126.357 119.28 126.688 118.475 126.952L118.03 130.155C117.92 130.946 117.176 131.583 116.363 131.583H111.377C110.564 131.583 109.82 130.946 109.71 130.155L109.263 126.943C108.46 126.682 107.681 126.352 106.934 125.957L104.329 127.926C103.691 128.408 102.715 128.332 102.14 127.757L98.6146 124.232C98.0397 123.657 97.9644 122.681 98.446 122.043L100.545 119.267C100.214 118.583 99.9378 117.875 99.7165 117.148L96.2168 116.662C95.4257 116.551 94.7886 115.808 94.7886 114.995V110.009C94.7886 109.196 95.4257 108.452 96.2168 108.342L100.014 107.814C100.235 107.214 100.493 106.628 100.79 106.062L98.446 102.961C97.9644 102.323 98.0397 101.347 98.6146 100.772L102.14 97.2469C102.715 96.6717 103.691 96.5965 104.329 97.078L107.607 99.5558C108.107 99.3206 108.619 99.1133 109.142 98.9352L109.71 94.8492C109.82 94.0574 110.564 93.4209 111.377 93.4209H116.363ZM113.87 106.218C110.168 106.218 107.167 109.219 107.167 112.921C107.167 116.623 110.168 119.624 113.87 119.624C117.572 119.624 120.573 116.623 120.573 112.921C120.573 109.219 117.572 106.218 113.87 106.218Z" fill="#00CCBB"/>
<path fill-rule="evenodd" clip-rule="evenodd" d="M124.569 96.2372C124.054 96.1972 123.528 96.3353 123.096 96.6613L119.819 99.1381C119.664 99.2486 119.581 99.435 119.603 99.6235C119.624 99.8131 119.747 99.9759 119.923 100.048C120.099 100.12 120.301 100.091 120.45 99.9715L123.727 97.495C124.138 97.1839 124.848 97.2347 125.23 97.6169L128.755 101.142C128.887 101.275 129.08 101.328 129.262 101.28C129.443 101.231 129.584 101.09 129.632 100.909C129.681 100.727 129.628 100.534 129.495 100.403L125.97 96.8775C125.585 96.4934 125.083 96.2766 124.569 96.2372ZM98.4612 102.432C98.2581 102.425 98.0692 102.535 97.9765 102.717C97.8838 102.897 97.9041 103.116 98.0292 103.276L100.188 106.132C99.993 106.526 99.8155 106.928 99.6555 107.337L96.1451 107.824C95.0736 107.973 94.2657 108.923 94.2657 110.009C94.2635 110.197 94.3625 110.372 94.5254 110.467C94.6879 110.562 94.8892 110.562 95.052 110.467C95.2149 110.372 95.3139 110.197 95.3114 110.009C95.3114 109.469 95.7778 108.931 96.2885 108.86L100.086 108.332C100.277 108.305 100.438 108.176 100.505 107.995C100.717 107.416 100.967 106.851 101.253 106.304C101.347 106.125 101.329 105.908 101.207 105.746L98.8638 102.645C98.7692 102.517 98.6209 102.438 98.4612 102.432ZM126.948 105.534C126.764 105.533 126.592 105.629 126.497 105.787C126.402 105.945 126.397 106.142 126.484 106.304C126.768 106.85 127.015 107.415 127.225 107.992C127.292 108.174 127.453 108.305 127.645 108.331L131.451 108.86C131.962 108.931 132.428 109.469 132.428 110.009V114.995C132.428 115.536 131.962 116.072 131.451 116.144L127.945 116.631C127.743 116.66 127.576 116.803 127.517 116.999C127.307 117.7 127.042 118.385 126.726 119.045C126.642 119.222 126.663 119.43 126.781 119.586L128.877 122.358C128.986 122.516 129.173 122.601 129.364 122.58C129.555 122.559 129.719 122.435 129.791 122.258C129.863 122.08 129.832 121.877 129.711 121.728L127.79 119.186C128.019 118.677 128.22 118.156 128.392 117.625L131.595 117.179C132.666 117.03 133.473 116.081 133.473 114.995V110.009C133.473 108.923 132.666 107.973 131.595 107.824L128.076 107.336C127.877 106.822 127.666 106.312 127.412 105.823C127.324 105.647 127.145 105.536 126.948 105.534ZM113.87 105.696C109.885 105.696 106.644 108.937 106.644 112.921C106.637 113.112 106.735 113.292 106.9 113.39C107.064 113.487 107.269 113.487 107.434 113.39C107.598 113.292 107.696 113.112 107.689 112.921C107.689 109.502 110.45 106.74 113.87 106.74C117.29 106.74 120.05 109.502 120.051 112.921C120.051 116.341 117.29 119.101 113.87 119.101C113.682 119.1 113.508 119.199 113.414 119.362C113.32 119.524 113.32 119.724 113.414 119.887C113.508 120.049 113.682 120.148 113.87 120.147C117.855 120.147 121.096 116.906 121.096 112.921C121.096 108.937 117.855 105.696 113.87 105.696ZM96.1844 116.138C95.9133 116.151 95.6965 116.369 95.6863 116.641C95.6762 116.912 95.8755 117.146 96.1451 117.179L99.3425 117.625C99.5174 118.156 99.7206 118.676 99.9524 119.184L98.0292 121.728C97.3768 122.591 97.4771 123.834 98.2451 124.602C98.3768 124.736 98.5705 124.79 98.7524 124.742C98.9339 124.693 99.0759 124.551 99.1241 124.37C99.172 124.188 99.1187 123.994 98.9844 123.862C98.6025 123.48 98.5524 122.77 98.8635 122.358L100.961 119.582C101.079 119.426 101.1 119.217 101.015 119.04C100.697 118.381 100.43 117.696 100.216 116.996C100.157 116.801 99.9901 116.659 99.7889 116.631L96.2885 116.144C96.2543 116.138 96.2193 116.137 96.1844 116.138ZM120.835 125.437C120.741 125.433 120.648 125.454 120.564 125.498C119.843 125.881 119.089 126.201 118.312 126.455C118.129 126.509 117.99 126.658 117.949 126.844C117.907 127.03 117.97 127.224 118.114 127.35C118.257 127.476 118.458 127.514 118.637 127.448C119.36 127.212 120.054 126.899 120.734 126.558L123.096 128.343C123.959 128.995 125.201 128.895 125.97 128.127C126.102 127.995 126.154 127.802 126.105 127.622C126.057 127.441 125.916 127.3 125.736 127.252C125.555 127.204 125.362 127.255 125.23 127.387C124.848 127.77 124.138 127.82 123.727 127.509L121.125 125.542C121.041 125.478 120.94 125.442 120.835 125.437Z" fill="#363D63"/>
<path fill-rule="evenodd" clip-rule="evenodd" d="M265.001 156.973C264.712 156.978 264.482 157.215 264.486 157.504V171.101C264.48 171.292 264.578 171.471 264.742 171.568C264.906 171.665 265.11 171.665 265.275 171.568C265.439 171.471 265.537 171.292 265.531 171.101V157.504C265.533 157.362 265.478 157.226 265.378 157.126C265.278 157.027 265.142 156.971 265.001 156.973Z" fill="#363D63"/>
<path fill-rule="evenodd" clip-rule="evenodd" d="M258.103 106.845C257.815 106.849 257.584 107.086 257.588 107.374V171.175C257.587 171.363 257.686 171.537 257.849 171.631C258.011 171.725 258.211 171.725 258.374 171.631C258.536 171.537 258.635 171.363 258.634 171.175V107.374C258.636 107.233 258.581 107.097 258.48 106.997C258.38 106.897 258.244 106.843 258.103 106.845Z" fill="#363D63"/>
<path fill-rule="evenodd" clip-rule="evenodd" d="M261.659 122.912C261.37 122.917 261.14 123.154 261.144 123.442V171.1C261.142 171.288 261.242 171.463 261.404 171.557C261.567 171.652 261.767 171.652 261.93 171.557C262.092 171.463 262.191 171.288 262.19 171.1V123.442C262.192 123.301 262.137 123.165 262.037 123.065C261.936 122.965 261.8 122.91 261.659 122.912Z" fill="#363D63"/>
<path fill-rule="evenodd" clip-rule="evenodd" d="M254.454 143.067C254.166 143.072 253.935 143.309 253.939 143.597V171.1C253.938 171.288 254.037 171.462 254.199 171.557C254.362 171.651 254.562 171.651 254.724 171.557C254.887 171.462 254.986 171.288 254.985 171.1V143.597C254.987 143.456 254.931 143.32 254.831 143.22C254.731 143.12 254.595 143.065 254.454 143.067Z" fill="#363D63"/>
<path fill-rule="evenodd" clip-rule="evenodd" d="M269.177 142.103C268.889 142.107 268.658 142.344 268.663 142.633V171.101C268.662 171.288 268.761 171.461 268.923 171.555C269.085 171.649 269.285 171.649 269.447 171.555C269.609 171.461 269.709 171.288 269.708 171.101V142.633C269.71 142.492 269.655 142.356 269.555 142.256C269.455 142.156 269.318 142.101 269.177 142.103Z" fill="#363D63"/>
<path fill-rule="evenodd" clip-rule="evenodd" d="M248.086 181.46H277.637V174.517H248.086V181.46Z" fill="white"/>
<path fill-rule="evenodd" clip-rule="evenodd" d="M248.602 172.994C248.313 173 248.082 173.235 248.086 173.524V181.251C248.086 181.948 249.132 181.948 249.132 181.251V173.524C249.137 173.229 248.897 172.99 248.602 172.994Z" fill="#363D63"/>
<path fill-rule="evenodd" clip-rule="evenodd" d="M277.107 172.994C276.818 173 276.588 173.235 276.592 173.524V181.251C276.592 181.948 277.637 181.948 277.637 181.251V173.524C277.643 173.229 277.402 172.989 277.107 172.994Z" fill="white"/>
<path fill-rule="evenodd" clip-rule="evenodd" d="M250.452 169.19C249.142 169.19 248.086 170.246 248.086 171.556V174.516H277.637V171.556C277.637 170.246 276.583 169.19 275.272 169.19H250.452Z" fill="#363D63"/>
<path fill-rule="evenodd" clip-rule="evenodd" d="M268.38 106.11C268.38 108.841 267.295 111.461 265.364 113.392C263.432 115.324 260.812 116.409 258.081 116.409C255.35 116.409 252.73 115.324 250.799 113.392C248.867 111.461 247.782 108.841 247.783 106.11C247.783 100.422 252.393 95.8115 258.081 95.8115C263.769 95.8115 268.38 100.422 268.38 106.11Z" fill="#363D63"/>
<path fill-rule="evenodd" clip-rule="evenodd" d="M268.066 126.289C268.066 127.856 267.444 129.359 266.336 130.467C265.228 131.574 263.726 132.197 262.159 132.197C258.896 132.197 256.252 129.552 256.252 126.289C256.251 124.723 256.874 123.22 257.982 122.112C259.09 121.004 260.592 120.382 262.159 120.382C263.726 120.382 265.228 121.004 266.336 122.112C267.444 123.22 268.066 124.723 268.066 126.289Z" fill="#363D63"/>
<path fill-rule="evenodd" clip-rule="evenodd" d="M260.015 145.318C260.015 148.581 257.371 151.226 254.108 151.226C250.846 151.226 248.201 148.581 248.201 145.318C248.201 143.752 248.823 142.249 249.931 141.141C251.039 140.034 252.541 139.411 254.108 139.411C255.675 139.411 257.177 140.034 258.285 141.141C259.393 142.249 260.015 143.752 260.015 145.318Z" fill="#363D63"/>
<path fill-rule="evenodd" clip-rule="evenodd" d="M269.739 157.865C269.739 161.128 267.094 163.772 263.832 163.772C260.569 163.772 257.925 161.128 257.925 157.865C257.925 156.298 258.547 154.796 259.655 153.688C260.763 152.58 262.265 151.958 263.832 151.958C267.094 151.958 269.739 154.602 269.739 157.865Z" fill="#363D63"/>
<path fill-rule="evenodd" clip-rule="evenodd" d="M275.804 141.764C275.804 145.026 273.158 147.671 269.896 147.671C266.634 147.671 263.989 145.026 263.989 141.764C263.989 140.197 264.611 138.694 265.719 137.587C266.827 136.478 268.329 135.856 269.896 135.856C271.463 135.856 272.965 136.478 274.073 137.587C275.181 138.694 275.804 140.197 275.804 141.764Z" fill="#00CCBB"/>
<path fill-rule="evenodd" clip-rule="evenodd" d="M103.177 168.843C106.755 168.847 110.09 170.656 112.044 173.653C114.088 171.862 116.713 170.873 119.431 170.87C125.384 170.872 130.3 175.518 130.639 181.46H65.7321C66.7629 177.985 69.9553 175.6 73.5803 175.599C76.6137 175.6 79.3975 177.279 80.8156 179.959C81.8568 176.139 85.3264 173.488 89.2864 173.487C90.84 173.491 92.3651 173.907 93.7057 174.693C95.5019 171.109 99.1673 168.845 103.177 168.843Z" fill="#C3C3FC"/>
<path fill-rule="evenodd" clip-rule="evenodd" d="M160.287 75.1258C160.287 82.208 154.546 87.9489 147.464 87.9489C140.382 87.9489 134.64 82.208 134.64 75.1258C134.64 68.0442 140.382 62.3032 147.464 62.3032C154.546 62.3032 160.287 68.0442 160.287 75.1258Z" fill="#363D63"/>
<path fill-rule="evenodd" clip-rule="evenodd" d="M162.155 62.2778C161.488 62.2794 160.848 62.5404 160.371 63.0055L146.828 75.8245L143.156 72.0131C142.522 71.3448 141.578 71.0683 140.684 71.2877C139.789 71.5074 139.081 72.1896 138.828 73.0753C138.576 73.961 138.817 74.9137 139.462 75.5728L144.899 81.2137C145.876 82.2274 147.486 82.2645 148.509 81.2972L163.897 66.7305C164.676 66.014 164.935 64.8934 164.55 63.908C164.164 62.9226 163.213 62.2753 162.155 62.2778Z" fill="white"/>
<path fill-rule="evenodd" clip-rule="evenodd" d="M162.153 61.7549C161.35 61.7549 160.58 62.072 160.006 62.6308C159.865 62.7593 159.806 62.9549 159.851 63.14C159.896 63.325 160.038 63.4711 160.223 63.5209C160.406 63.5708 160.603 63.5165 160.735 63.3797C161.116 63.0085 161.625 62.7997 162.155 62.7997C163.111 62.7952 163.773 63.3622 164.061 64.0981C164.349 64.8343 164.245 65.6984 163.542 66.3454C163.54 66.347 163.538 66.3489 163.536 66.3504L148.148 80.9168C147.33 81.6911 146.055 81.6619 145.274 80.8504L139.836 75.2092C139.834 75.2079 139.832 75.2063 139.831 75.2044C139.034 74.3895 139.053 73.0974 139.873 72.3063C140.014 72.1781 140.074 71.9838 140.03 71.799C139.985 71.6139 139.844 71.4676 139.661 71.4165C139.478 71.366 139.281 71.4184 139.148 71.5539C137.918 72.7387 137.888 74.7146 139.083 75.9352L144.517 81.5743C145.689 82.7901 147.637 82.8352 148.863 81.6749L164.246 67.1133C165.264 66.1765 165.459 64.812 165.031 63.7168C164.602 62.6212 163.532 61.7523 162.153 61.7549Z" fill="#363D63"/>
<path fill-rule="evenodd" clip-rule="evenodd" d="M174.96 150.145C174.608 150.159 174.37 150.509 174.487 150.841L184.786 181.431C185.001 182.104 186.01 181.767 185.777 181.1L175.478 150.509C175.406 150.285 175.195 150.137 174.96 150.145Z" fill="white"/>
<path fill-rule="evenodd" clip-rule="evenodd" d="M163.486 150.145C163.135 150.159 162.897 150.509 163.013 150.841L173.312 181.431C173.529 182.101 174.533 181.766 174.304 181.1L164.004 150.509C163.932 150.285 163.721 150.137 163.486 150.145Z" fill="#363D63"/>
<path fill-rule="evenodd" clip-rule="evenodd" d="M179.518 140.964C180.539 140.964 181.361 141.646 181.361 142.494V147.647H75.3333V142.494C75.3333 141.646 76.1549 140.964 77.1756 140.964H179.518Z" fill="#363D63"/>
<path fill-rule="evenodd" clip-rule="evenodd" d="M75.3333 150.466H181.361V147.646H75.3333V150.466Z" fill="#363D63"/>
<path fill-rule="evenodd" clip-rule="evenodd" d="M73.2648 149.943C73.0772 149.942 72.9032 150.041 72.8092 150.204C72.7152 150.366 72.7152 150.566 72.8092 150.728C72.9032 150.89 73.0772 150.99 73.2648 150.989H182.445C182.633 150.99 182.806 150.89 182.9 150.728C182.994 150.566 182.994 150.366 182.9 150.204C182.806 150.041 182.633 149.942 182.445 149.943H73.2648Z" fill="#363D63"/>
<path fill-rule="evenodd" clip-rule="evenodd" d="M135.143 140.441C134.956 140.439 134.782 140.538 134.687 140.701C134.593 140.863 134.593 141.064 134.687 141.226C134.782 141.389 134.956 141.488 135.143 141.487H179.518C179.706 141.488 179.88 141.389 179.975 141.226C180.069 141.064 180.069 140.863 179.975 140.701C179.88 140.538 179.706 140.439 179.518 140.441H135.143Z" fill="#363D63"/>
<path fill-rule="evenodd" clip-rule="evenodd" d="M161.348 121.396C157.364 121.396 154.123 124.637 154.123 128.621C154.122 132.606 157.364 135.847 161.348 135.847C165.333 135.847 168.575 132.606 168.575 128.621C168.575 124.637 165.333 121.396 161.348 121.396ZM161.348 122.441C164.768 122.441 167.529 125.202 167.529 128.621C167.529 132.041 164.768 134.802 161.348 134.802C157.928 134.802 155.168 132.041 155.168 128.621C155.168 125.202 157.928 122.441 161.348 122.441Z" fill="#363D63"/>
<path fill-rule="evenodd" clip-rule="evenodd" d="M77.7892 150.145C77.56 150.145 77.3568 150.291 77.2873 150.509L66.9876 181.177C66.7553 181.844 67.7645 182.181 67.9794 181.509L78.2791 150.841C78.3975 150.502 78.1476 150.147 77.7892 150.145Z" fill="white"/>
<path fill-rule="evenodd" clip-rule="evenodd" d="M89.2629 150.145C89.034 150.145 88.8305 150.291 88.761 150.509L78.4613 181.177C78.2318 181.843 79.2365 182.178 79.453 181.509L89.7527 150.841C89.8711 150.502 89.6213 150.147 89.2629 150.145Z" fill="#363D63"/>
<path fill-rule="evenodd" clip-rule="evenodd" d="M53.5997 162.692C53.5997 165.419 54.6829 168.034 56.6108 169.962C58.5391 171.89 61.1543 172.973 63.8807 172.973C66.6073 172.973 69.2222 171.89 71.1505 169.962C73.0784 168.034 74.1616 165.419 74.1616 162.692C74.1616 157.014 69.5587 152.411 63.8807 152.411C61.1543 152.411 58.5391 153.494 56.6111 155.422C54.6829 157.35 53.5997 159.965 53.5997 162.692Z" fill="#363D63"/>
<path fill-rule="evenodd" clip-rule="evenodd" d="M61.0203 162.692C61.0203 165.419 59.9368 168.034 58.0089 169.962C56.081 171.89 53.466 172.973 50.7394 172.973C48.0124 172.973 45.3975 171.89 43.4692 169.962C41.5413 168.034 40.4581 165.419 40.4581 162.692C40.4581 159.965 41.5413 157.35 43.4692 155.422C45.3975 153.494 48.0124 152.411 50.7394 152.411C53.466 152.411 56.081 153.494 58.0089 155.422C59.9368 157.35 61.0203 159.965 61.0203 162.692Z" fill="white"/>
<path fill-rule="evenodd" clip-rule="evenodd" d="M47.8216 160.288C47.56 160.285 47.3362 160.475 47.2978 160.734C47.2594 160.993 47.4184 161.241 47.6695 161.313C47.6695 161.313 48.7219 161.623 49.8502 162.923C50.9781 164.224 52.1441 166.502 52.1441 170.501C52.1438 170.688 52.2435 170.861 52.4054 170.955C52.5673 171.048 52.7664 171.048 52.9283 170.955C53.0902 170.861 53.1899 170.688 53.1899 170.501C53.1899 166.296 51.9337 163.73 50.6397 162.238C49.3454 160.746 47.9762 160.314 47.9762 160.314C47.926 160.298 47.874 160.289 47.8216 160.288Z" fill="#363D63"/>
<path fill-rule="evenodd" clip-rule="evenodd" d="M66.7829 160.289C66.7356 160.29 66.6889 160.299 66.6438 160.313C66.6438 160.313 65.2743 160.745 63.9807 162.237C62.6867 163.729 61.4305 166.296 61.4305 170.501C61.4292 170.689 61.5283 170.862 61.6908 170.957C61.8534 171.051 62.0534 171.051 62.2159 170.957C62.3781 170.862 62.4775 170.689 62.4762 170.501C62.4762 166.501 63.6419 164.223 64.7699 162.922C65.8981 161.622 66.9505 161.312 66.9505 161.312C67.2038 161.238 67.3619 160.987 67.3194 160.726C67.2768 160.466 67.0467 160.278 66.7829 160.289Z" fill="#363D63"/>
<path fill-rule="evenodd" clip-rule="evenodd" d="M53.94 163.448C53.7676 163.446 53.6048 163.528 53.5054 163.669L51.8984 165.868C51.7864 166.019 51.7632 166.219 51.8391 166.391C51.9143 166.563 52.0765 166.681 52.2635 166.701C52.4502 166.72 52.6337 166.638 52.7426 166.485L54.3499 164.286C54.4683 164.128 54.4883 163.918 54.4019 163.741C54.3153 163.564 54.1368 163.451 53.94 163.448Z" fill="#363D63"/>
<path fill-rule="evenodd" clip-rule="evenodd" d="M74.9479 170.381C74.9479 176.059 79.5511 180.662 85.2289 180.662C87.9556 180.662 90.5708 179.579 92.4987 177.651C94.427 175.723 95.5098 173.108 95.5098 170.381C95.5098 167.654 94.4267 165.039 92.4987 163.111C90.5708 161.183 87.9556 160.1 85.2289 160.1C79.5511 160.1 74.9479 164.703 74.9479 170.381Z" fill="white"/>
<path fill-rule="evenodd" clip-rule="evenodd" d="M89.1663 174.42C91.1587 176.413 96.2486 174.554 100.534 170.268C104.82 165.983 106.679 160.893 104.686 158.9C103.73 157.943 101.994 157.843 99.8622 158.621C97.7302 159.4 95.3762 160.994 93.3181 163.052C89.0324 167.338 87.1733 172.428 89.1663 174.42Z" fill="#363D63"/>
<path fill-rule="evenodd" clip-rule="evenodd" d="M93.0825 172.791C91.8876 173.426 90.199 173.015 88.3876 171.647C86.5768 170.279 84.7914 168.066 83.4251 165.496C80.58 160.145 80.2905 154.734 82.779 153.411C83.9737 152.776 85.6625 153.187 87.474 154.555C89.2851 155.923 91.0702 158.135 92.4365 160.705C93.8025 163.276 94.6384 165.993 94.7597 168.259C94.881 170.525 94.2775 172.156 93.0825 172.791Z" fill="#363D63"/>
<path fill-rule="evenodd" clip-rule="evenodd" d="M85.6314 157.954C85.4381 157.962 85.2651 158.077 85.1819 158.252C85.0991 158.427 85.1197 158.633 85.2356 158.789C85.2356 158.789 88.8864 163.819 91.0273 171.347C91.0768 171.528 91.22 171.669 91.4026 171.716C91.5848 171.762 91.7778 171.707 91.9079 171.571C92.0387 171.436 92.0864 171.241 92.033 171.061C89.84 163.35 86.0813 158.174 86.0813 158.174C85.9787 158.029 85.8092 157.946 85.6314 157.954Z" fill="#363D63"/>
<path fill-rule="evenodd" clip-rule="evenodd" d="M99.4121 164.079C99.2762 164.085 99.1486 164.145 99.0556 164.244C99.0556 164.244 94.6222 168.855 91.3924 176.192C91.3124 176.364 91.3314 176.566 91.4425 176.719C91.5533 176.873 91.7387 176.955 91.927 176.933C92.1156 176.91 92.2771 176.788 92.3492 176.613C95.5029 169.45 99.8098 164.969 99.8098 164.969C99.9616 164.815 100.003 164.585 99.9152 164.388C99.8276 164.191 99.6276 164.068 99.4121 164.079Z" fill="#363D63"/>
<path fill-rule="evenodd" clip-rule="evenodd" d="M38.4965 169.074C37.1861 169.074 36.0876 170.129 36.1311 171.439V174.399H108.234V171.439C108.234 170.128 107.18 169.074 105.869 169.074H38.4965Z" fill="#363D63"/>
<path fill-rule="evenodd" clip-rule="evenodd" d="M36.1311 181.343H108.234V174.399H36.1311V181.343Z" fill="#363D63"/>
<path fill-rule="evenodd" clip-rule="evenodd" d="M36.1308 173.876C35.9441 173.876 35.7715 173.976 35.6781 174.137C35.5845 174.299 35.5845 174.499 35.6781 174.66C35.7715 174.822 35.9441 174.922 36.1308 174.922H107.712V181.343C107.71 181.53 107.81 181.704 107.972 181.799C108.134 181.893 108.335 181.893 108.497 181.799C108.659 181.704 108.759 181.53 108.757 181.343V174.399C108.757 174.259 108.702 174.127 108.604 174.029C108.506 173.931 108.373 173.876 108.234 173.876H36.1308Z" fill="#363D63"/>
<path fill-rule="evenodd" clip-rule="evenodd" d="M171.229 112.546L167.582 117.357C167.582 117.357 165.604 113.943 166.56 112.082C167.516 110.221 169.337 109.249 170.625 109.912C171.915 110.574 171.229 112.546 171.229 112.546Z" fill="#363D63"/>
<path fill-rule="evenodd" clip-rule="evenodd" d="M204.301 92.5557L204.614 93.1176L205.72 94.9674L204.197 98.3357L200.518 97.9706L199.469 96.0874L199.141 95.5392C198.368 97.1268 198.433 98.9947 199.314 100.526C200.784 103.071 204.04 103.943 206.586 102.474C209.132 101.004 210.004 97.748 208.534 95.2023C207.65 93.6719 206.064 92.6801 204.301 92.5557Z" fill="#363D63"/>
<path fill-rule="evenodd" clip-rule="evenodd" d="M80.9495 7.25542C80.6613 7.26019 80.4305 7.49701 80.4349 7.78526V42.9342C80.4105 43.6557 81.5051 43.6557 81.48 42.9342V7.78526C81.4844 7.49098 81.2441 7.2513 80.9495 7.25542Z" fill="#363D63"/>
<path fill-rule="evenodd" clip-rule="evenodd" d="M92.1724 19.5118C91.8841 19.5178 91.6537 19.7537 91.6578 20.0422V42.9343C91.6333 43.6559 92.7279 43.6559 92.7025 42.9343V20.0422C92.7086 19.7476 92.467 19.5076 92.1724 19.5118Z" fill="#363D63"/>
<path fill-rule="evenodd" clip-rule="evenodd" d="M157.001 7.25542C156.712 7.26019 156.482 7.49701 156.485 7.78526V42.9342C156.462 43.6548 157.555 43.6548 157.531 42.9342V7.78526C157.536 7.49098 157.295 7.2513 157.001 7.25542Z" fill="#363D63"/>
<path fill-rule="evenodd" clip-rule="evenodd" d="M168.223 19.5118C167.935 19.5178 167.704 19.7537 167.709 20.0422V42.9343C167.685 43.6549 168.778 43.6549 168.754 42.9343V20.0422C168.759 19.7476 168.518 19.5076 168.223 19.5118Z" fill="#363D63"/>
<path fill-rule="evenodd" clip-rule="evenodd" d="M71.5597 44.0968H173.891V39.4927H71.5597V44.0968Z" fill="white"/>
<path fill-rule="evenodd" clip-rule="evenodd" d="M71.5597 44.6102H173.891V41.7905H71.5597V44.6102Z" fill="#00CCBB"/>
<path fill-rule="evenodd" clip-rule="evenodd" d="M73.0892 32.8105C72.2419 32.8105 71.5597 33.4928 71.5597 34.3401V39.4928H173.891V34.3401C173.891 33.4928 173.209 32.8105 172.361 32.8105H73.0892Z" fill="#363D63"/>
<path fill-rule="evenodd" clip-rule="evenodd" d="M71.5597 44.0865C71.3714 44.0845 71.1962 44.1836 71.1016 44.3465C71.0067 44.5087 71.0067 44.7099 71.1016 44.8728C71.1962 45.0353 71.3714 45.1344 71.5597 45.1322H175.959C176.148 45.1344 176.323 45.0353 176.417 44.8728C176.512 44.7099 176.512 44.5087 176.417 44.3465C176.323 44.1836 176.148 44.0845 175.959 44.0865H71.5597Z" fill="#363D63"/>
<path fill-rule="evenodd" clip-rule="evenodd" d="M8.8089 180.938C8.62128 180.936 8.44763 181.036 8.35334 181.198C8.25938 181.36 8.25938 181.56 8.35334 181.723C8.44763 181.885 8.62128 181.984 8.8089 181.983H287.191C287.379 181.984 287.553 181.885 287.647 181.723C287.74 181.56 287.74 181.36 287.647 181.198C287.553 181.036 287.379 180.936 287.191 180.938H8.8089Z" fill="#363D63"/>
</svg>
