<svg width="296" height="190" viewBox="0 0 296 190" fill="none" xmlns="http://www.w3.org/2000/svg">
<path fill-rule="evenodd" clip-rule="evenodd" d="M164.189 19.7666C146.939 19.7807 131.439 29.3195 125.064 43.8447C116.674 40.7883 107.817 39.2081 98.8881 39.1758C78.388 39.1758 58.7279 47.3188 44.2321 61.8145C18.5837 90.6798 19.8338 114.887 32.5399 145.365C21.2561 151.945 14.3098 164.018 14.2916 177.081C14.2961 178.202 14.3524 179.322 14.4594 180.439H278.826C278.084 171.013 274.556 162.02 268.691 154.604C272.972 147.747 275.251 139.829 275.27 131.745C275.249 114.875 265.445 99.5503 250.139 92.4592C252.341 87.2933 253.476 81.7361 253.478 76.1208C253.478 65.0579 249.083 54.4482 241.26 46.6255C233.438 38.8031 222.828 34.4084 211.766 34.4084C207.423 34.4263 203.109 35.1212 198.98 36.4694C191.142 26.034 178.119 19.7819 164.189 19.7666Z" fill="#E1E1FD"/>
<path fill-rule="evenodd" clip-rule="evenodd" d="M159.968 76.3552L169.917 74.416H144.019L126.966 77.0482L126.743 81.2837L126.098 101.162L118.321 108.576H130.931L136.265 85.8299L159.965 89.995L159.968 76.3552Z" fill="#363D63"/>
<path fill-rule="evenodd" clip-rule="evenodd" d="M171.06 74.4161L150.062 72.7441L152.497 81.8809L158.764 104.372L166.321 123.114L158.544 130.527H174.564L170.917 104.007L171.06 74.4161Z" fill="#363D63"/>
<path fill-rule="evenodd" clip-rule="evenodd" d="M114.376 108.129C109.85 108.129 106.206 111.772 106.206 116.298V130.527H151.313V116.298C151.313 111.772 147.669 108.129 143.143 108.129H114.376Z" fill="white"/>
<path fill-rule="evenodd" clip-rule="evenodd" d="M154.449 29.2581L149.21 33.9321H144.02V46.9546L143.497 47.5648V74.416H171.06V35.6651H169.916L167.387 33.8407L162.076 29.2581V30.5817L158.602 34.0567H156.455L154.449 30.5817V29.2581Z" fill="#00CCBB"/>
<path fill-rule="evenodd" clip-rule="evenodd" d="M144.02 33.932H130.877L133.241 25.2351L125.924 25.6513L120.293 34.2299C120.293 34.2299 117.592 39.602 124.5 41.7315C132.553 43.2369 143.497 47.5648 143.497 47.5648L146.315 46.6637L147.341 38.0218L144.02 33.932Z" fill="#00CCBB"/>
<path fill-rule="evenodd" clip-rule="evenodd" d="M144.012 52.0877C143.725 52.0919 143.496 52.3281 143.5 52.6148V74.4161C143.499 74.6031 143.598 74.7764 143.759 74.8703C143.92 74.964 144.12 74.964 144.282 74.8703C144.443 74.7764 144.542 74.6031 144.54 74.4161V52.6148C144.542 52.4742 144.487 52.3386 144.388 52.2396C144.288 52.1405 144.153 52.0852 144.012 52.0877Z" fill="#363D63"/>
<path fill-rule="evenodd" clip-rule="evenodd" d="M89.1712 130.527C85.2397 130.527 82.0747 133.693 82.0747 137.624V167.552H186.87V137.624C186.87 133.693 183.705 130.527 179.774 130.527H89.1712Z" fill="#C3C3FC"/>
<path fill-rule="evenodd" clip-rule="evenodd" d="M135.941 130.007C135.755 130.007 135.583 130.106 135.49 130.267C135.397 130.428 135.397 130.626 135.49 130.787C135.583 130.948 135.755 131.048 135.941 131.047H179.774C183.426 131.047 186.351 133.972 186.351 137.624V149.05C186.349 149.237 186.448 149.41 186.609 149.504C186.771 149.598 186.97 149.598 187.132 149.504C187.294 149.41 187.392 149.237 187.391 149.05V137.624C187.391 133.414 183.984 130.007 179.774 130.007H135.941Z" fill="#363D63"/>
<path fill-rule="evenodd" clip-rule="evenodd" d="M154.449 28.2307V30.5819L156.455 34.0564H158.602L162.076 30.5819V23.9875C162.076 23.9879 161.903 24.1832 161.569 24.4945C161.402 24.6498 161.193 24.8349 160.946 25.0382C160.699 25.2412 160.413 25.4633 160.088 25.6938C159.763 25.9239 159.401 26.1633 159.002 26.4014C158.602 26.6396 158.166 26.8754 157.694 27.1002C157.223 27.3252 156.716 27.5387 156.175 27.7305C155.904 27.826 155.625 27.9165 155.337 28.0002C155.049 28.084 154.754 28.1613 154.449 28.2307Z" fill="#FEB8CA"/>
<path fill-rule="evenodd" clip-rule="evenodd" d="M154.449 29.2553C154.755 29.1968 155.054 29.1306 155.345 29.0571C155.635 28.9842 155.918 28.904 156.191 28.818C156.739 28.646 157.254 28.4514 157.733 28.2439C158.213 28.0362 158.657 27.8156 159.065 27.5928C159.473 27.3694 159.844 27.1434 160.176 26.9248C160.509 26.7065 160.804 26.4952 161.058 26.3009C161.312 26.1072 161.527 25.9301 161.7 25.7805C162.045 25.4817 162.225 25.2924 162.225 25.2924C162.739 24.6452 163.122 23.941 163.317 23.1934L165.569 23.2752C167.083 23.3305 168.346 22.1562 168.401 20.6424C168.457 19.1286 167.282 17.8654 165.768 17.8101L163.626 17.7321L163.746 14.4204C163.896 10.3016 160.715 6.86549 156.612 6.71623C152.511 6.56664 149.087 9.76266 148.937 13.8815L148.817 17.1935C147.306 17.1418 146.046 18.3148 145.991 19.8267C145.936 21.3405 147.11 22.6033 148.624 22.6583L148.636 22.6634C148.641 26.3204 149.534 29.16 153.306 29.2968C153.674 29.3106 154.057 29.2968 154.449 29.2553Z" fill="#FEB8CA"/>
<path fill-rule="evenodd" clip-rule="evenodd" d="M150.576 14.3791L160.094 14.7252C160.094 14.7252 161.551 14.6488 161.775 15.6439C161.998 16.6389 160.763 17.0356 160.729 17.9689L160.633 20.5886C160.633 20.5886 160.466 21.621 161.632 21.6894C162.798 21.7582 164.813 17.7755 164.813 17.7755L166.395 17.833C166.395 17.833 168.76 17.3501 169.502 14.6226C170.244 11.8949 169.292 10.7953 168.295 10.4287C167.299 10.0614 166.455 9.35346 166.455 9.35346C166.455 9.35346 167.342 6.08839 164.546 4.42853C161.75 2.76834 159.524 5.41428 157.201 4.31665C154.877 3.21935 151.765 0.816973 149.17 3.63072C146.574 6.44286 145.428 8.92898 145.623 9.96971C145.737 10.5764 146.959 14.1064 146.959 14.1064C146.959 14.1064 146.558 16.34 147.21 17.5936C147.863 18.8482 148.748 19.2474 148.748 19.2474L148.926 14.3509C148.926 14.3509 149.326 14.3334 150.576 14.3791Z" fill="#363D63"/>
<path fill-rule="evenodd" clip-rule="evenodd" d="M159.477 35.1084C159.284 35.109 159.108 35.2161 159.018 35.3868C158.929 35.5575 158.941 35.764 159.05 35.9225L162.215 40.6745C162.31 40.8161 162.467 40.9027 162.637 40.9059C162.807 40.9091 162.968 40.8295 163.069 40.6915L166.353 36.1555C166.469 36.0053 166.494 35.8042 166.418 35.6304C166.343 35.4568 166.178 35.3382 165.99 35.3206C165.801 35.3031 165.618 35.3897 165.511 35.5463L162.666 39.4768L159.915 35.3465C159.819 35.1979 159.654 35.1081 159.477 35.1084Z" fill="#363D63"/>
<path fill-rule="evenodd" clip-rule="evenodd" d="M149.186 33.4067C149.003 33.4137 148.837 33.5169 148.75 33.678C148.662 33.8394 148.666 34.0347 148.76 34.192L152.495 40.6467C152.585 40.8024 152.749 40.9002 152.928 40.9059C153.108 40.9117 153.278 40.8241 153.377 40.6745L156.542 35.9225C156.65 35.7684 156.666 35.5671 156.583 35.3977C156.501 35.2276 156.333 35.1161 156.145 35.1055C155.957 35.0946 155.778 35.1873 155.677 35.3465L152.975 39.403L149.66 33.6719C149.565 33.5016 149.382 33.399 149.186 33.4067Z" fill="#363D63"/>
<path fill-rule="evenodd" clip-rule="evenodd" d="M156.11 35.1153C155.92 35.1089 155.742 35.2064 155.645 35.37C155.548 35.5334 155.548 35.736 155.645 35.8994C155.742 36.063 155.92 36.1605 156.11 36.1541H159.483C159.672 36.1605 159.85 36.063 159.947 35.8994C160.044 35.736 160.044 35.5334 159.947 35.37C159.85 35.2064 159.672 35.1089 159.483 35.1153H156.11Z" fill="#363D63"/>
<path fill-rule="evenodd" clip-rule="evenodd" d="M158.906 27.1311C158.807 27.1356 158.711 27.1679 158.629 27.2248C156.589 28.6149 154.421 28.7354 154.421 28.7354C154.419 28.7354 154.416 28.7354 154.414 28.7354C154.414 28.7354 153.547 28.7926 152.64 28.7105C151.864 28.6401 150.974 28.1096 150.974 28.1096C150.816 28.0105 150.618 28.0022 150.453 28.0885C150.289 28.1751 150.183 28.3429 150.176 28.5286C150.168 28.7146 150.261 28.8901 150.418 28.9892C150.418 28.9892 151.407 29.6432 152.546 29.7464C153.551 29.8375 154.47 29.7739 154.477 29.7736C154.477 29.7736 156.915 29.6515 159.215 28.0837C159.41 27.9548 159.495 27.7119 159.423 27.4895C159.351 27.2673 159.139 27.1206 158.906 27.1311Z" fill="#363D63"/>
<path fill-rule="evenodd" clip-rule="evenodd" d="M150.718 18.177C150.438 18.1898 150.219 18.4225 150.222 18.7028C150.226 18.9838 150.452 19.2107 150.732 19.2162L151.466 19.2417C151.656 19.2555 151.838 19.1647 151.941 19.0046C152.044 18.8444 152.051 18.6415 151.96 18.4746C151.869 18.3071 151.694 18.2036 151.503 18.2036L150.77 18.1767C150.753 18.1761 150.735 18.1761 150.718 18.177Z" fill="#363D63"/>
<path fill-rule="evenodd" clip-rule="evenodd" d="M151.479 18.1961C151.251 18.1996 151.052 18.3511 150.989 18.5698L149.944 21.9665C149.897 22.1209 149.924 22.2887 150.017 22.4204C150.111 22.5521 150.261 22.633 150.422 22.639L152.558 22.7164C152.743 22.7231 152.918 22.6301 153.017 22.4728C153.116 22.3153 153.123 22.1174 153.036 21.9534C152.949 21.7891 152.781 21.6837 152.595 21.6773L151.137 21.6245L151.982 18.875C152.034 18.7155 152.005 18.5413 151.905 18.4064C151.805 18.2716 151.647 18.1932 151.479 18.1961Z" fill="#363D63"/>
<path fill-rule="evenodd" clip-rule="evenodd" d="M138.525 16.8086L152.382 18.1278C153.453 18.23 154.323 18.994 154.323 20.0695V20.7897C154.323 21.8649 153.453 22.6365 152.382 22.7311L138.525 23.9537C137.454 24.0487 136.584 23.0878 136.584 22.0126V18.7504C136.584 17.6745 137.455 16.707 138.525 16.8086Z" fill="white"/>
<path fill-rule="evenodd" clip-rule="evenodd" d="M134.365 19.2398C132.331 19.6742 130.438 18.8844 130.136 17.4754C129.835 16.0661 131.24 14.5719 133.274 14.1368C135.308 13.7024 137.201 14.4919 137.503 15.9009C137.647 16.5779 137.398 17.3095 136.809 17.936C136.221 18.5619 135.341 19.0311 134.365 19.2398Z" fill="#FEB8CA"/>
<path fill-rule="evenodd" clip-rule="evenodd" d="M107.537 12.9427L135.668 15.6213C137.843 15.8281 139.61 17.3796 139.61 19.563V21.0247C139.61 23.2084 137.844 24.7743 135.668 24.9664L107.537 27.449C105.362 27.6408 103.595 25.691 103.595 23.5076V16.8845C103.595 14.701 105.363 12.7359 107.537 12.9427Z" fill="#00CCBB"/>
<path fill-rule="evenodd" clip-rule="evenodd" d="M152.379 17.6073C152.096 17.6009 151.86 17.8215 151.848 18.1034C151.835 18.3857 152.05 18.6267 152.332 18.6458C153.185 18.7267 153.803 19.2749 153.803 20.0698V20.7896C153.803 21.5849 153.185 22.1388 152.336 22.2139L138.479 23.4362C137.74 23.5011 137.103 22.8081 137.103 22.0129C137.109 21.823 137.012 21.6443 136.848 21.5478C136.685 21.4509 136.482 21.4509 136.318 21.5478C136.155 21.6443 136.057 21.823 136.064 22.0129C136.064 23.3688 137.168 24.5958 138.571 24.4718L152.427 23.2489C153.72 23.1348 154.842 22.1455 154.842 20.7896V20.0698C154.843 19.9934 154.827 19.918 154.796 19.8486C154.675 18.6158 153.643 17.7259 152.43 17.6105C152.413 17.608 152.396 17.6067 152.379 17.6073Z" fill="#363D63"/>
<path fill-rule="evenodd" clip-rule="evenodd" d="M105.016 13.0255L135.384 15.9221C137.731 16.1458 139.64 17.8233 139.64 20.185V21.7656C139.64 24.1274 137.733 25.8208 135.384 26.0286L105.016 28.7132C102.668 28.9213 100.761 26.8127 100.761 24.4506V17.2882C100.761 14.9267 102.669 12.8015 105.016 13.0255Z" fill="#00CCBB"/>
<path fill-rule="evenodd" clip-rule="evenodd" d="M128.349 16.9156C128.349 16.916 128.5 14.1112 130.248 12.9838C131.997 11.8568 134.047 11.9249 134.828 13.136C135.608 14.3471 134.687 16.432 134.687 16.432C131.97 18.0567 128.375 18.8622 128.349 16.9156Z" fill="#FEB8CA"/>
<path fill-rule="evenodd" clip-rule="evenodd" d="M139.632 21.2383C139.345 21.2425 139.116 21.4787 139.12 21.7654C139.12 23.8475 137.464 25.3226 135.339 25.5106L104.97 28.1955C104.784 28.2115 104.622 28.3256 104.543 28.4941C104.464 28.6628 104.482 28.8604 104.589 29.0128C104.697 29.1653 104.877 29.2484 105.062 29.2315L135.43 26.5456C138.001 26.3186 140.16 24.4069 140.16 21.7654C140.162 21.6248 140.107 21.4896 140.007 21.3902C139.908 21.2911 139.772 21.2361 139.632 21.2383Z" fill="#363D63"/>
<path fill-rule="evenodd" clip-rule="evenodd" d="M112.738 20.897C112.738 25.7577 109.296 29.6985 105.05 29.6985C100.804 29.6985 97.3612 25.7577 97.3612 20.897C97.3612 18.5624 98.1712 16.324 99.613 14.6727C101.055 13.0225 103.011 12.0952 105.05 12.0952C109.296 12.0952 112.738 16.0357 112.738 20.897Z" fill="#00CCBB"/>
<path fill-rule="evenodd" clip-rule="evenodd" d="M109.676 20.8971C109.676 23.8221 107.605 26.1931 105.05 26.1931C102.495 26.1931 100.424 23.8221 100.424 20.8971C100.424 19.4926 100.911 18.1454 101.779 17.1519C102.646 16.1588 103.823 15.6011 105.05 15.6011C106.277 15.6011 107.453 16.1588 108.321 17.1519C109.189 18.1454 109.676 19.4926 109.676 20.8971Z" fill="white"/>
<path fill-rule="evenodd" clip-rule="evenodd" d="M105.05 11.5755C100.482 11.5755 96.8418 15.7902 96.8418 20.897C96.8418 26.0031 100.482 30.2182 105.05 30.2182C109.618 30.2182 113.259 26.0031 113.259 20.897C113.26 20.7097 113.162 20.5358 113 20.4412C112.839 20.3475 112.638 20.3475 112.477 20.4412C112.315 20.5358 112.217 20.7097 112.219 20.897C112.219 25.5128 108.974 29.1793 105.05 29.1793C101.125 29.1793 97.8806 25.5128 97.8806 20.897C97.8806 16.2811 101.125 12.6149 105.05 12.6149C105.24 12.6207 105.417 12.5232 105.514 12.3602C105.611 12.1965 105.611 11.9935 105.514 11.8302C105.417 11.6669 105.24 11.5694 105.05 11.5755Z" fill="#363D63"/>
<path fill-rule="evenodd" clip-rule="evenodd" d="M165.275 32.3623L172.699 36.0368C176.62 37.5033 180.141 50.5425 171.082 50.7368L164.688 52.795L167.628 36.3309L165.275 32.3623Z" fill="#00CCBB"/>
<path fill-rule="evenodd" clip-rule="evenodd" d="M164.863 41.6267L152.073 46.8895L133.284 49.7071L133.848 55.0322C133.848 55.0325 165.024 52.6541 169.938 51.2806C174.852 49.9065 174.597 46.2403 174.597 46.2403L164.863 41.6267Z" fill="#00CCBB"/>
<path fill-rule="evenodd" clip-rule="evenodd" d="M164.852 41.1041C164.787 41.1066 164.724 41.1207 164.665 41.1459L151.933 46.3841L133.207 49.1931C133.022 49.2193 132.866 49.3423 132.796 49.5159C132.728 49.6895 132.757 49.8867 132.874 50.0324C132.991 50.1782 133.177 50.2501 133.361 50.221L152.15 47.4025C152.192 47.3967 152.232 47.3858 152.271 47.3705L165.061 42.1071C165.297 42.0144 165.431 41.7654 165.379 41.5174C165.327 41.2696 165.105 41.0954 164.852 41.1041Z" fill="#363D63"/>
<path fill-rule="evenodd" clip-rule="evenodd" d="M128.738 50.1265L124.75 45.3013C123.611 46.2432 124.023 47.2731 124.868 48.9285L116.36 48.832C116.333 49.9293 119.807 51.4274 120.294 52.5356C121.032 54.2168 122.345 54.4911 124.322 54.9373C126.428 55.3474 129.749 54.8142 129.749 54.8142L128.738 50.1265Z" fill="#FEB8CA"/>
<path fill-rule="evenodd" clip-rule="evenodd" d="M133.284 49.707L133.848 55.0321L129.749 54.8142L128.738 50.1264L133.284 49.707Z" fill="#363D63"/>
<path fill-rule="evenodd" clip-rule="evenodd" d="M114.376 107.609C109.571 107.609 105.686 111.493 105.686 116.298V130.527C105.684 130.714 105.783 130.888 105.944 130.982C106.106 131.075 106.306 131.075 106.467 130.982C106.628 130.888 106.727 130.714 106.726 130.527V116.298C106.726 112.051 110.129 108.648 114.376 108.648H143.144C143.33 108.65 143.503 108.551 143.597 108.389C143.691 108.228 143.691 108.029 143.597 107.867C143.503 107.706 143.33 107.607 143.144 107.609H114.376Z" fill="#363D63"/>
<path fill-rule="evenodd" clip-rule="evenodd" d="M185.982 144.597C174.662 144.597 165.549 153.71 165.549 165.03V180.801H224.937V165.03C224.937 153.71 215.824 144.597 204.504 144.597H185.982Z" fill="white"/>
<path fill-rule="evenodd" clip-rule="evenodd" d="M185.982 144.077C174.383 144.077 165.029 153.432 165.029 165.03V180.802C165.029 181.088 165.262 181.001 165.548 181.001H224.937C225.127 181.008 225.305 181.23 225.402 181.067C225.499 180.903 225.499 180.7 225.402 180.537C225.305 180.373 225.127 180.276 224.937 180.282H166.069V165.03C166.069 153.989 174.941 145.117 185.982 145.117H210.117C210.307 145.122 210.485 145.025 210.582 144.862C210.679 144.699 210.679 144.495 210.582 144.332C210.485 144.168 210.307 144.071 210.117 144.077H185.982Z" fill="#363D63"/>
<path fill-rule="evenodd" clip-rule="evenodd" d="M66.0264 162.28C62.0946 162.28 58.9296 165.445 58.9296 169.376V180.801H179.602V169.376C179.602 165.445 176.437 162.28 172.505 162.28H66.0264Z" fill="#00CCBB"/>
<path fill-rule="evenodd" clip-rule="evenodd" d="M236.907 55.2349C224.458 55.2349 214.435 65.2573 214.435 77.7065V126.975C214.435 139.424 224.458 149.447 236.907 149.447C249.356 149.447 259.379 139.424 259.379 126.975V77.7065C259.379 65.2573 249.356 55.2349 236.907 55.2349Z" fill="#C3C3FC"/>
<path fill-rule="evenodd" clip-rule="evenodd" d="M242.027 78.0669V158.085C240.24 158.95 238.349 159.398 236.442 159.406C236.439 159.406 236.435 159.406 236.432 159.406V78.0682L242.027 78.0669Z" fill="#E1E1FD"/>
<path fill-rule="evenodd" clip-rule="evenodd" d="M236.423 77.5399C236.137 77.5456 235.908 77.7802 235.912 78.0666V180.594C235.912 181.287 236.951 181.287 236.951 180.594V78.0666C236.957 77.7735 236.717 77.5351 236.423 77.5399Z" fill="#363D63"/>
<path fill-rule="evenodd" clip-rule="evenodd" d="M226.231 85.7931C226.02 85.7973 225.832 85.9302 225.757 86.1284C225.681 86.3263 225.734 86.55 225.889 86.6938L236.073 96.4229C236.206 96.5558 236.401 96.6067 236.583 96.5552C236.764 96.5041 236.903 96.3583 236.946 96.1748C236.99 95.9914 236.93 95.7983 236.791 95.6711L226.607 85.9424C226.507 85.8436 226.372 85.7899 226.231 85.7931Z" fill="#363D63"/>
<path fill-rule="evenodd" clip-rule="evenodd" d="M246.59 118.937C246.455 118.938 246.326 118.991 246.229 119.086L236.047 128.816C235.907 128.943 235.847 129.136 235.891 129.319C235.934 129.503 236.073 129.649 236.255 129.7C236.436 129.752 236.632 129.7 236.765 129.567L246.948 119.838C247.105 119.692 247.157 119.464 247.077 119.265C246.998 119.066 246.805 118.935 246.59 118.937Z" fill="#363D63"/>
<path fill-rule="evenodd" clip-rule="evenodd" d="M264.763 133.499C264.625 133.5 264.493 133.557 264.397 133.656C264.301 133.754 264.248 133.888 264.25 134.025V170.62C264.25 170.907 264.483 171.14 264.77 171.14C265.057 171.14 265.29 170.907 265.29 170.62V134.025C265.292 133.885 265.237 133.75 265.137 133.65C265.038 133.551 264.903 133.497 264.763 133.499Z" fill="#363D63"/>
<path fill-rule="evenodd" clip-rule="evenodd" d="M262.058 130.057C266.145 129.804 268.729 132.262 263.626 137.364C258.524 142.467 252.476 144.692 250.118 142.334C247.76 139.976 249.985 133.928 255.087 128.826C260.19 123.723 262.605 126.124 262.058 130.057Z" fill="#00CCBB"/>
<path fill-rule="evenodd" clip-rule="evenodd" d="M271.619 106.739C271.332 106.743 271.103 106.979 271.107 107.266V170.693C271.107 170.879 271.206 171.052 271.367 171.145C271.528 171.238 271.727 171.238 271.888 171.145C272.049 171.052 272.148 170.879 272.147 170.693V107.266C272.149 107.125 272.094 106.99 271.995 106.89C271.895 106.791 271.76 106.736 271.619 106.739Z" fill="#363D63"/>
<path fill-rule="evenodd" clip-rule="evenodd" d="M268.084 114.813C267.797 114.817 267.568 115.053 267.572 115.34V170.62C267.566 170.81 267.663 170.989 267.827 171.086C267.99 171.183 268.194 171.183 268.357 171.086C268.521 170.989 268.618 170.81 268.611 170.62V115.34C268.614 115.199 268.559 115.065 268.459 114.965C268.36 114.866 268.225 114.811 268.084 114.813Z" fill="#363D63"/>
<path fill-rule="evenodd" clip-rule="evenodd" d="M275.247 133.499C274.96 133.503 274.731 133.739 274.735 134.025V170.62C274.729 170.81 274.826 170.989 274.99 171.085C275.153 171.182 275.356 171.182 275.52 171.085C275.683 170.989 275.781 170.81 275.774 170.62V134.025C275.776 133.885 275.722 133.75 275.622 133.65C275.523 133.551 275.387 133.497 275.247 133.499Z" fill="#363D63"/>
<path fill-rule="evenodd" clip-rule="evenodd" d="M260.61 151.562C260.323 151.566 260.094 151.802 260.098 152.089V170.62C260.092 170.81 260.189 170.989 260.353 171.085C260.516 171.182 260.719 171.182 260.883 171.085C261.046 170.989 261.143 170.81 261.137 170.62V152.089C261.139 151.949 261.084 151.813 260.985 151.714C260.885 151.615 260.75 151.56 260.61 151.562Z" fill="#363D63"/>
<path fill-rule="evenodd" clip-rule="evenodd" d="M274.331 127.336C270.045 127.071 267.336 129.649 272.687 135C278.038 140.351 284.381 142.685 286.854 140.212C289.327 137.739 286.993 131.396 281.642 126.044C276.291 120.693 273.757 123.212 274.331 127.336Z" fill="#7F90FF"/>
<path fill-rule="evenodd" clip-rule="evenodd" d="M271.109 145.548C266.163 145.242 263.036 148.216 269.211 154.392C275.387 160.567 282.706 163.26 285.56 160.407C288.414 157.553 285.721 150.233 279.545 144.058C273.37 137.882 270.447 140.789 271.109 145.548Z" fill="#00CCBB"/>
<path fill-rule="evenodd" clip-rule="evenodd" d="M267.069 114.136C269.683 113.975 271.336 115.547 268.072 118.81C264.809 122.073 260.941 123.496 259.433 121.988C257.925 120.48 259.348 116.613 262.611 113.349C265.874 110.086 267.419 111.622 267.069 114.136Z" fill="#7F90FF"/>
<path fill-rule="evenodd" clip-rule="evenodd" d="M272.128 104.586C269.515 104.425 267.862 105.996 271.125 109.259C274.389 112.523 278.257 113.946 279.765 112.438C281.273 110.93 279.85 107.062 276.586 103.798C273.323 100.535 271.778 102.071 272.128 104.586Z" fill="#00CCBB"/>
<path fill-rule="evenodd" clip-rule="evenodd" d="M252.215 180.919H281.593V174.015H252.215V180.919Z" fill="white"/>
<path fill-rule="evenodd" clip-rule="evenodd" d="M281.066 172.502C280.779 172.507 280.55 172.743 280.554 173.029V180.503C280.529 181.22 281.617 181.22 281.593 180.503V173.029C281.598 172.736 281.358 172.499 281.066 172.502Z" fill="#363D63"/>
<path fill-rule="evenodd" clip-rule="evenodd" d="M252.726 172.502C252.44 172.507 252.211 172.742 252.215 173.029V180.503C252.215 181.196 253.254 181.196 253.254 180.503V173.029C253.26 172.736 253.019 172.498 252.726 172.502Z" fill="#363D63"/>
<path fill-rule="evenodd" clip-rule="evenodd" d="M279.241 168.721C280.544 168.721 281.593 169.77 281.593 171.072V174.015H252.215V171.072C252.215 169.77 253.263 168.721 254.566 168.721H279.241Z" fill="#00CCBB"/>
<path fill-rule="evenodd" clip-rule="evenodd" d="M260.086 151.442C264.172 151.189 266.757 153.647 261.654 158.749C256.551 163.852 250.504 166.077 248.145 163.719C245.787 161.361 248.012 155.313 253.115 150.21C258.217 145.108 260.633 147.51 260.086 151.442Z" fill="#7F90FF"/>
<path fill-rule="evenodd" clip-rule="evenodd" d="M43.7124 68.3069C56.1622 68.3069 66.1846 79.3771 66.1846 93.1278V126.433C66.1846 140.184 56.1622 151.254 43.7124 151.254C31.2629 151.254 21.2405 140.184 21.2405 126.433V93.1278C21.2405 79.3771 31.2629 68.3069 43.7124 68.3069Z" fill="#C3C3FC"/>
<path fill-rule="evenodd" clip-rule="evenodd" d="M44.1881 93.4268V173.444C42.4016 174.309 40.5107 174.757 38.6031 174.765C38.5996 174.765 38.5964 174.765 38.5925 174.765V93.4274L44.1881 93.4268Z" fill="#E1E1FD"/>
<path fill-rule="evenodd" clip-rule="evenodd" d="M44.1803 92.8992C44.0426 92.9011 43.9109 92.9577 43.8147 93.0568C43.7188 93.1556 43.6657 93.2882 43.6677 93.4266V180.439C43.6661 180.626 43.7648 180.799 43.9262 180.893C44.088 180.987 44.2874 180.987 44.4488 180.893C44.6103 180.799 44.709 180.626 44.7074 180.439V93.4266C44.7097 93.286 44.6547 93.1508 44.5553 93.0517C44.4559 92.952 44.3207 92.8973 44.1803 92.8992Z" fill="#363D63"/>
<path fill-rule="evenodd" clip-rule="evenodd" d="M54.3732 94.3438C54.238 94.345 54.1082 94.3984 54.012 94.4937L43.829 104.222C43.6213 104.421 43.6136 104.75 43.8121 104.958C44.0103 105.165 44.3395 105.173 44.5473 104.974L54.7302 95.2448C54.8874 95.0994 54.9389 94.8718 54.86 94.6723C54.781 94.4729 54.5876 94.3428 54.3732 94.3438Z" fill="#363D63"/>
<path fill-rule="evenodd" clip-rule="evenodd" d="M33.9876 121.834C33.7763 121.839 33.5887 121.971 33.5135 122.169C33.4384 122.366 33.4905 122.59 33.6452 122.734L43.8291 132.464C43.9634 132.592 44.1561 132.64 44.3348 132.588C44.5134 132.536 44.6509 132.392 44.6947 132.211C44.7385 132.03 44.6822 131.839 44.5473 131.711L34.3634 121.983C34.2634 121.884 34.1279 121.83 33.9876 121.834Z" fill="#363D63"/>
<path fill-rule="evenodd" clip-rule="evenodd" d="M107.993 105.559C110.178 105.572 112.176 106.794 113.185 108.732C114.194 110.669 114.048 113.007 112.805 114.805C112.805 114.805 112.355 115.428 111.381 117.579C112.384 118.267 112.985 119.405 112.986 120.622C112.984 122.286 111.87 123.744 110.265 124.183C110.828 124.85 111.138 125.695 111.138 126.568C111.136 128.141 110.14 129.54 108.654 130.056C109.513 130.758 110.012 131.808 110.013 132.917C110.013 133.897 109.623 134.837 108.93 135.531C108.237 136.224 107.297 136.613 106.316 136.613C105.946 136.612 105.578 136.555 105.225 136.444C105.18 136.624 105.136 136.799 105.092 136.981C104.627 139.058 103.077 140.722 101.04 141.335C99.0016 141.948 96.7913 141.415 95.2571 139.941C93.7228 138.466 93.103 136.278 93.6356 134.218C93.7628 133.689 93.8906 133.172 94.0182 132.662C92.3311 132.285 91.1309 130.789 91.1287 129.06C91.129 127.298 92.3724 125.781 94.1 125.435C93.3348 124.736 92.8978 123.748 92.8966 122.711C92.8966 121.731 93.2859 120.79 93.9792 120.097C94.6725 119.404 95.6128 119.014 96.5931 119.014C96.6155 119.016 96.6379 119.018 96.6603 119.02C96.2 118.389 95.9516 117.629 95.95 116.848C95.9504 114.806 97.6051 113.152 99.6466 113.152C99.9065 113.153 100.165 113.182 100.419 113.238C101.877 110.001 103.017 108.242 103.017 108.242C104.111 106.56 105.986 105.551 107.993 105.559Z" fill="#00CCBB"/>
<path fill-rule="evenodd" clip-rule="evenodd" d="M79.8519 154.39H108.191V158.269L106.27 162.28H81.9024L79.8519 158.189V154.39Z" fill="white"/>
<path fill-rule="evenodd" clip-rule="evenodd" d="M108.183 153.863C107.896 153.867 107.667 154.103 107.671 154.39V158.152L105.801 162.055C105.721 162.222 105.735 162.42 105.84 162.574C105.945 162.728 106.125 162.814 106.31 162.799C106.496 162.785 106.66 162.672 106.739 162.504L108.66 158.494C108.693 158.424 108.711 158.347 108.71 158.269V154.39C108.712 154.25 108.657 154.114 108.558 154.015C108.459 153.915 108.323 153.861 108.183 153.863Z" fill="#363D63"/>
<path fill-rule="evenodd" clip-rule="evenodd" d="M103.974 119.669C103.765 119.671 103.578 119.797 103.498 119.99C103.498 119.99 96.8983 135.311 96.2331 153.119C96.2242 153.306 96.3159 153.483 96.4738 153.583C96.632 153.683 96.8315 153.691 96.9968 153.603C97.162 153.515 97.2672 153.345 97.2723 153.158C97.9285 135.585 104.453 120.401 104.453 120.401C104.525 120.24 104.51 120.053 104.413 119.905C104.316 119.757 104.151 119.668 103.974 119.669Z" fill="#363D63"/>
<path fill-rule="evenodd" clip-rule="evenodd" d="M65.9516 114.658C63.8935 115.391 62.4104 117.204 62.0987 119.367C61.7867 121.53 62.6971 123.687 64.4637 124.973C64.4637 124.973 65.0953 125.413 66.7245 127.121C66.0053 128.102 65.8148 129.375 66.2153 130.524C66.7667 132.094 68.2999 133.102 69.9604 132.986C69.6488 133.802 69.636 134.701 69.9243 135.525C70.446 137.009 71.8488 138 73.4214 137.996C72.842 138.942 72.7183 140.098 73.0839 141.146C73.4077 142.071 74.086 142.83 74.9694 143.255C75.8526 143.68 76.8687 143.737 77.7941 143.413C78.1434 143.289 78.472 143.114 78.7689 142.892C78.8703 143.048 78.969 143.198 79.0713 143.356C80.1971 145.162 82.2088 146.221 84.3347 146.126C86.4609 146.032 88.3704 144.798 89.3313 142.899C90.2921 141 90.1543 138.731 88.9714 136.962C88.6763 136.505 88.3851 136.06 88.0962 135.62C89.564 134.707 90.2023 132.898 89.6333 131.266C89.0509 129.602 87.3757 128.581 85.6312 128.826C86.1225 127.914 86.2081 126.836 85.8671 125.858C85.543 124.932 84.8647 124.174 83.9815 123.748C83.0981 123.323 82.082 123.266 81.1566 123.59C81.1355 123.598 81.1147 123.606 81.094 123.614C81.3199 122.866 81.303 122.067 81.0463 121.329C80.3716 119.402 78.263 118.388 76.3359 119.062C76.0914 119.149 75.8567 119.262 75.6356 119.399C73.1897 116.825 71.5327 115.543 71.5327 115.543C69.9441 114.316 67.8413 113.982 65.9516 114.658Z" fill="#7F90FF"/>
<path fill-rule="evenodd" clip-rule="evenodd" d="M78.5239 133.115C78.303 133.118 78.108 133.26 78.0377 133.469C77.9674 133.678 78.0371 133.909 78.2116 134.045C78.2116 134.045 88.655 142.462 90.3235 153.132C90.3513 153.316 90.4753 153.471 90.6492 153.539C90.8231 153.607 91.0197 153.576 91.1648 153.459C91.3099 153.342 91.3805 153.156 91.3511 152.971C89.5938 141.737 78.8604 133.233 78.8604 133.233C78.7658 133.155 78.6463 133.113 78.5239 133.115Z" fill="#363D63"/>
<path fill-rule="evenodd" clip-rule="evenodd" d="M81.6837 150.082C80.3812 150.082 79.3322 151.13 79.3322 152.433V155.376H108.71V152.433C108.71 151.13 107.662 150.082 106.359 150.082H81.6837Z" fill="#7F90FF"/>
<path fill-rule="evenodd" clip-rule="evenodd" d="M82.5145 161.759C81.8215 161.759 81.8215 162.799 82.5145 162.799H172.505C176.158 162.799 179.082 165.724 179.082 169.376V180.594C179.057 181.311 180.146 181.311 180.121 180.594V169.376C180.121 165.166 176.715 161.759 172.505 161.759H82.5145Z" fill="#363D63"/>
<path fill-rule="evenodd" clip-rule="evenodd" d="M8.69676 180.282C8.5069 180.276 8.32854 180.373 8.23169 180.537C8.13452 180.7 8.13452 180.903 8.23169 181.067C8.32854 181.23 8.5069 181.328 8.69676 181.321H285.455C285.645 181.328 285.823 181.23 285.92 181.067C286.017 180.903 286.017 180.7 285.92 180.537C285.823 180.373 285.645 180.276 285.455 180.282H8.69676Z" fill="#363D63"/>
</svg>
