<svg xmlns="http://www.w3.org/2000/svg" width="296" height="190" viewBox="0 0 296 190">
    <g fill="none" fill-rule="evenodd">
        <path fill="#E1E1FD" d="M165.214 19.158c-17.351.014-32.942 9.608-39.354 24.218a77.758 77.758 0 0 0-26.33-4.696A77.747 77.747 0 0 0 44.555 61.45c-25.798 29.034-24.54 53.384-11.76 84.04a36.989 36.989 0 0 0-18.356 31.9 36.9 36.9 0 0 0 .17 3.379H280.52a47.949 47.949 0 0 0-10.195-25.986 43.611 43.611 0 0 0 6.618-22.994 43.608 43.608 0 0 0-25.278-39.514 41.962 41.962 0 0 0 3.359-16.435 41.956 41.956 0 0 0-41.957-41.956 41.959 41.959 0 0 0-12.86 2.073c-7.884-10.497-20.983-16.785-34.994-16.8"/>
        <path fill="#C3C3FC" d="M144.303 165.187a13.396 13.396 0 0 0-11.208 6.08 14.193 14.193 0 0 0-9.337-3.519c-7.524.003-13.738 5.875-14.167 13.387h82.041a10.353 10.353 0 0 0-9.92-7.41 10.354 10.354 0 0 0-9.145 5.513 11.1 11.1 0 0 0-10.707-8.181c-1.964.005-3.891.53-5.586 1.524a13.395 13.395 0 0 0-11.97-7.394M231.488 168.518a10.597 10.597 0 0 0-8.867 4.81 11.23 11.23 0 0 0-7.388-2.784 11.23 11.23 0 0 0-11.207 10.59h64.906a8.19 8.19 0 0 0-7.849-5.861 8.19 8.19 0 0 0-7.235 4.36 8.781 8.781 0 0 0-8.47-6.471 8.777 8.777 0 0 0-4.42 1.206 10.597 10.597 0 0 0-9.47-5.85"/>
        <path fill="#FFF" d="M205.056 115.764c3.51 0 5.963 2.753 5.5 6.172l-4.494 33.209c-.463 3.419-3.66 6.171-7.171 6.171h-31.852c-3.51 0-5.964-2.752-5.502-6.171l.07-2.52h11.815l4.426-30.689c.463-3.42 3.661-6.172 7.172-6.172h20.036"/>
        <path fill="#0CB" d="M210.587 120.591c.04.433.032.883-.03 1.345l-4.495 33.209c-.463 3.419-3.66 6.171-7.171 6.171h-20.888l4.57-33.765c.521-3.856 4.128-6.96 8.086-6.96h19.928"/>
        <path fill="#1F2233" d="M205.056 115.242c3.783 0 6.52 3.066 6.019 6.765l-4.495 33.208c-.5 3.7-3.906 6.624-7.69 6.624h-31.852c-3.783 0-6.519-3.065-6.018-6.765l.068-.506a.523.523 0 1 1 1.036.14l-.068.507c-.425 3.139 1.746 5.578 4.982 5.578h31.853c3.236 0 6.228-2.58 6.653-5.719l4.495-33.208c.424-3.139-1.746-5.58-4.983-5.58h-7.418a.523.523 0 1 1 0-1.044h7.418"/>
        <path fill="#6767E5" d="M179.23 95.656l-5.27 4.7s-2.718 1.095-5.851 2.765c-3.172 1.456-4.203 3.07-4.77 6.162l-2.222 12.108-5.274 5.896.193 1.518-4.24 4.434h10.18c.062-1.103 1.798-3.243 3.111-4.747 2.016-2.307 3.885-4.312 5.52-7.098v19.683h24.18v-7.704s6.786-1.8 9.553-3.784c2.767-1.984 2.193-6.056 2.193-6.056s-2.296-9.865-3.026-12.685c-.732-2.819-2.454-4.229-2.454-4.229l-8.81-6.355-5.342-4.608v1.331l-3.494 3.494h-2.16l-2.017-3.494v-1.331"/>
        <path fill="#FEB8CA" d="M179.23 94.622v2.365l2.018 3.494h2.158l3.495-3.494v-6.633s-.176.208-.516.534a14.718 14.718 0 0 1-2.595 1.969c-.402.241-.84.478-1.314.7a14.122 14.122 0 0 1-2.36.862c-.288.075-.583.144-.886.203"/>
        <path fill="#FEB8CA" d="M180.2 95.984a13.369 13.369 0 0 0 1.647-.68 14.651 14.651 0 0 0 2.637-1.678 15.033 15.033 0 0 0 1.76-1.65c.22-.243.403-.462.55-.646a7.96 7.96 0 0 0 .44-.6c.4-.728.659-1.491.725-2.266l2.246-.302a2.744 2.744 0 0 0 2.36-3.093 2.744 2.744 0 0 0-3.093-2.359l-2.138.288-.444-3.304c-.553-4.109-4.292-6.972-8.384-6.422-4.092.551-6.941 4.301-6.388 8.41l.445 3.304a2.744 2.744 0 0 0-2.353 3.092 2.744 2.744 0 0 0 3.092 2.359h.012c.626 3.625 1.998 6.287 5.76 5.78a8.392 8.392 0 0 0 1.126-.233"/>
        <path fill="#1F2233" d="M178.644 68.983c-6.744.484-10.593 7.03-14.017 6.547-3.424-.484-.103 3.631 1.523 5.291.569.67 2.485 1.968 2.999 2.892 1.428 2.567 1.401 5.047 3.554 4.625.106-.03.21-.066.311-.11l-.624-4.584h-.006l-.201-1.494s.394-.086 1.64-.253l9.495-1.278s1.43-.325 1.822.624c.04.1.064.185.074.26l.542 4.282a2.399 2.399 0 0 0 3.016-3.09s1.102-5.367.687-7.65c-.415-2.282-2.733-2.767-2.733-2.767-.419-2.925-3.535-3.616-8.082-3.295M169.352 110.939a.525.525 0 0 0-.43.79l1.078 1.867v22.002a.524.524 0 0 0 1.046 0v-22.143a.52.52 0 0 0-.07-.262l-1.148-1.986a.524.524 0 0 0-.476-.268M184.287 101.54a.52.52 0 0 0-.43.818l3.184 4.78a.52.52 0 0 0 .859.017l3.303-4.563a.524.524 0 1 0-.847-.613l-2.862 3.954-2.767-4.155a.522.522 0 0 0-.44-.238M173.936 99.828a.524.524 0 0 0-.428.791l3.755 6.491a.523.523 0 0 0 .888.029l3.184-4.78a.523.523 0 1 0-.87-.58l-2.717 4.08-3.335-5.765a.521.521 0 0 0-.477-.266"/>
        <path fill="#1F2233" d="M180.9 101.546a.524.524 0 0 0-.469.79.522.522 0 0 0 .468.255h3.393a.522.522 0 1 0 0-1.045H180.9M184.36 93.108a.52.52 0 0 0-.362.152c-1.786 1.725-3.913 2.214-3.913 2.214l-.009.004s-.85.204-1.762.277c-.782.063-1.754-.312-1.754-.312a.522.522 0 1 0-.4.965s1.09.48 2.237.389c1.014-.081 1.922-.303 1.923-.303h.005c.013-.004 2.394-.54 4.403-2.481a.524.524 0 0 0-.368-.905M176.327 85.411c-.03 0-.06.001-.088.006l-1.452.195a.522.522 0 1 0 .139 1.037l1.451-.196a.523.523 0 0 0-.05-1.042M194.278 112.941a.522.522 0 0 0-.515.666l2.086 7.785-1.62 1.11a.524.524 0 1 0 .591.862l1.925-1.318a.522.522 0 0 0 .21-.567l-2.183-8.143a.522.522 0 0 0-.494-.395M198.76 142.856c-.81 8.713-5.038 9.812-8.444 9.812h-25.469l-10.14 28.467h-10.853l5.906-7.753 2.43-23.95c.977-7.101 5.609-6.59 8.029-6.59h33.007l5.534.014"/>
        <path fill="#1F2233" d="M195.08 142.856l-4.526 9.812h-10.617l.648 28.467H169.73l4.366-7.753-6.818-22.323c.977-7.102 5.61-8.218 8.03-8.218h14.238l5.533.015"/>
        <path fill="#1F2233" d="M179.937 152.146a.524.524 0 1 0 0 1.045h20.226a.525.525 0 0 0 .456-.785.524.524 0 0 0-.456-.26h-20.226M198.724 160.996a.523.523 0 0 0-.513.665l5.31 19.415c.18.676 1.194.403 1.01-.272l-5.31-19.415a.523.523 0 0 0-.497-.393M183.257 160.996a.523.523 0 0 0-.514.665l5.311 19.415c.162.707 1.224.42 1.009-.272l-5.31-19.415a.524.524 0 0 0-.496-.393"/>
        <path fill="#1F2233" d="M187.959 160.996a.523.523 0 0 0-.533.393l-5.31 19.415c-.215.692.848.979 1.01.272l5.31-19.415a.523.523 0 0 0-.477-.665M167.675 160.996a.523.523 0 0 0-.532.393l-5.31 19.415c-.184.675.83.948 1.01.272l5.31-19.415a.522.522 0 0 0-.478-.665M176.316 85.405a.524.524 0 0 0-.527.463l-.55 4.285a.523.523 0 0 0 .587.585l1.827-.245a.523.523 0 1 0-.14-1.037l-1.15.155.464-3.61a.522.522 0 0 0-.51-.596M233.209 142.42a.523.523 0 0 0-.515.666l10.3 37.863c.171.69 1.207.411 1.01-.271l-10.3-37.863a.523.523 0 0 0-.495-.395M221.736 142.42a.523.523 0 0 0-.515.666l10.3 37.863c.17.69 1.207.411 1.009-.271l-10.3-37.863a.523.523 0 0 0-.494-.395M150.914 133.24h12.002c-1.402-7.796-10.82-8.488-12.002 0"/>
        <path fill="#FEB8CA" d="M149.634 133.239h10.55c-1.106-6.143-9.619-6.689-10.55 0"/>
        <path fill="#0CB" d="M237.735 133.239c1.02 0 1.842.683 1.842 1.53v5.153H37.342v-5.153c0-.847.822-1.53 1.843-1.53h198.55"/>
        <path fill="#FFF" d="M37.342 142.741h202.235v-2.82H37.342z"/>
        <path fill="#1F2233" d="M35.274 142.218a.522.522 0 1 0 0 1.046h205.388a.523.523 0 1 0 0-1.046H35.274"/>
        <path fill="#1F2233" d="M39.65 142.42a.524.524 0 0 0-.48.395L28.87 180.853c-.184.675.83.949 1.01.273l10.3-38.04a.523.523 0 0 0-.531-.665M51.124 142.42a.523.523 0 0 0-.48.395l-10.3 38.038c-.184.675.83.949 1.01.273l10.3-38.04a.523.523 0 0 0-.53-.665"/>
        <path fill="#7F90FF" d="M219.84 126.125v3.204a3.901 3.901 0 0 0 3.91 3.91h2.498a3.901 3.901 0 0 0 3.91-3.91v-3.204H219.84"/>
        <path fill="#1F2233" d="M219.843 132.716a.521.521 0 0 0-.453.785.522.522 0 0 0 .453.261h9.979a.523.523 0 1 0 0-1.046h-9.979M221.55 117.927c-.57 0-1.058.38-1.297.893a1.925 1.925 0 0 0 0 1.621c.239.515.727.894 1.297.894a.523.523 0 1 0 0-1.046c-.108 0-.248-.071-.349-.288a.947.947 0 0 1 0-.74c.1-.216.24-.288.35-.288a.524.524 0 1 0 0-1.046"/>
        <path fill="#1F2233" d="M221.55 120.289a.524.524 0 0 0-.453.784.523.523 0 0 0 .453.262c.109 0 .248.071.35.287.1.217.1.524 0 .74-.102.217-.241.289-.35.289a.522.522 0 1 0 0 1.046c.57 0 1.058-.38 1.298-.894a1.925 1.925 0 0 0 0-1.621c-.24-.514-.727-.893-1.298-.893M225.054 117.927c-.571 0-1.059.38-1.298.893a1.92 1.92 0 0 0 0 1.621c.24.515.727.894 1.298.894a.523.523 0 1 0 0-1.046c-.11 0-.25-.071-.35-.288a.947.947 0 0 1 0-.74c.1-.216.24-.288.35-.288a.524.524 0 1 0 0-1.046"/>
        <path fill="#1F2233" d="M225.054 120.289a.524.524 0 1 0 0 1.046c.108 0 .247.071.348.287.1.217.1.524 0 .74-.1.217-.24.289-.348.289a.522.522 0 1 0 0 1.046c.57 0 1.057-.38 1.296-.894a1.925 1.925 0 0 0 0-1.621c-.239-.514-.726-.893-1.296-.893M228.638 117.927c-.571 0-1.059.38-1.298.893a1.923 1.923 0 0 0 0 1.621c.24.515.727.894 1.298.894a.523.523 0 1 0 0-1.046c-.11 0-.249-.071-.35-.288a.947.947 0 0 1 0-.74c.101-.216.24-.288.35-.288a.523.523 0 1 0 0-1.046"/>
        <path fill="#1F2233" d="M228.638 120.289a.525.525 0 0 0-.454.784.524.524 0 0 0 .454.262c.108 0 .248.071.349.287.1.217.1.524 0 .74-.101.217-.24.289-.35.289a.522.522 0 1 0 0 1.046c.571 0 1.059-.38 1.298-.894a1.925 1.925 0 0 0 0-1.621c-.24-.514-.727-.893-1.297-.893M174.61 129.496c1.429.021 2.726.872 2.726.872l.407 2.871h-7.25c.275-1.89 1.658-3.618 3.978-3.742l.139-.001"/>
        <path fill="#FEB8CA" d="M179.888 127.792c2.08.031 3.967 1.268 3.967 1.268l.592 4.179h-10.549c.4-2.75 2.411-5.265 5.788-5.446l.202-.001"/>
        <path fill="#1F2233" d="M183.855 129.06l.602 4.248 3.12-.069-.57-5.199-3.152 1.02"/>
        <path fill="#1F2233" d="M169.086 132.716a.523.523 0 0 0 0 1.046h37.676a.524.524 0 0 0 .454-.784.524.524 0 0 0-.454-.262h-37.676"/>
        <path fill="#0CB" d="M111.262 83.479a3.118 3.118 0 0 0-3.125 3.125v34.799a3.118 3.118 0 0 0 3.125 3.125h43.321a3.118 3.118 0 0 0 3.125-3.125v-34.8a3.118 3.118 0 0 0-3.125-3.124h-43.321"/>
        <path fill="#0CB" d="M124.556 106.96c-1.057 0-2.108.828-2.358 1.855l-5.275 22.57c-.248 1.027.106 1.854 1.163 1.854h20.005v-.734a2.84 2.84 0 0 0-2.847-2.847h-6.006l4.857-20.843c.25-1.027-.401-1.855-1.459-1.855h-8.08"/>
        <path fill="#1F2233" d="M108.129 116.674a.523.523 0 0 0-.515.53v4.198a3.651 3.651 0 0 0 3.648 3.648.523.523 0 1 0 0-1.045 2.586 2.586 0 0 1-2.602-2.603v-4.198a.52.52 0 0 0-.531-.53"/>
        <path fill="#1F2233" d="M111.262 82.956a3.651 3.651 0 0 0-3.648 3.648v30.6a.524.524 0 0 0 1.046 0v-30.6a2.585 2.585 0 0 1 2.602-2.602.524.524 0 1 0 0-1.046M145.57 133.239h22.208c.084-2.153-1.33-2.455-2.847-2.462h-17.234c-1.387 0-2.126 1.15-2.126 2.462"/>
        <path fill="#FFF" d="M63.557 108.905h11.27c1.15 0 2.075.926 2.075 2.076v20.183c0 1.15-.925 2.076-2.075 2.076h-11.27a2.072 2.072 0 0 1-2.076-2.076V110.98c0-1.15.926-2.076 2.076-2.076"/>
        <path fill="#0CB" d="M70.28 133.24H85.7v-24.335H70.28z"/>
        <path fill="#FFF" d="M78.978 108.905h11.27c1.15 0 2.076.926 2.076 2.076v20.183c0 1.15-.926 2.076-2.076 2.076h-11.27a2.072 2.072 0 0 1-2.076-2.076V110.98c0-1.15.927-2.076 2.076-2.076"/>
        <path fill="#0CB" d="M85.7 133.24h15.422v-24.335H85.7z"/>
        <path fill="#1F2233" d="M58.302 132.716a.523.523 0 0 0 0 1.046h45.363a.523.523 0 1 0 0-1.046H58.302"/>
        <path fill="#7F90FF" d="M67.829 126.94a2.25 2.25 0 1 1-4.499.001 2.25 2.25 0 0 1 4.499 0M83.276 126.94a2.25 2.25 0 1 1-4.498 0 2.25 2.25 0 0 1 4.498 0"/>
        <path fill="#0CB" d="M64.392 113.048h3.355c.465 0 .84.374.84.839v3.705a.837.837 0 0 1-.84.839h-3.355a.837.837 0 0 1-.839-.839v-3.705c0-.465.375-.839.839-.839M79.63 113.048h3.356c.464 0 .839.374.839.839v3.705a.837.837 0 0 1-.84.839H79.63a.837.837 0 0 1-.838-.839v-3.705c0-.465.374-.839.838-.839"/>
        <path fill="#1F2233" d="M85.693 108.375a.523.523 0 0 0-.515.53v24.334a.522.522 0 1 0 1.046 0v-24.335a.524.524 0 0 0-.531-.529"/>
        <path fill="#7F90FF" d="M65.482 162.484a10.28 10.28 0 1 0 10.28-10.281c-5.677 0-10.28 4.603-10.28 10.28"/>
        <path fill="#6767E5" d="M72.902 162.484a10.279 10.279 0 0 1-10.28 10.28 10.279 10.279 0 0 1-10.282-10.28c0-5.678 4.603-10.281 10.281-10.281 5.679 0 10.281 4.603 10.281 10.28"/>
        <path fill="#1F2233" d="M59.704 160.08a.523.523 0 0 0-.151 1.026s1.051.309 2.18 1.61c1.127 1.3 2.294 3.578 2.294 7.577a.522.522 0 1 0 1.045 0c0-4.205-1.256-6.77-2.55-8.263-1.293-1.492-2.664-1.924-2.664-1.924a.53.53 0 0 0-.154-.025M78.665 160.081a.528.528 0 0 0-.14.025s-1.369.431-2.663 1.924c-1.294 1.492-2.55 4.057-2.55 8.263a.523.523 0 1 0 1.046 0c0-4 1.166-6.277 2.294-7.578 1.128-1.3 2.18-1.61 2.18-1.61a.523.523 0 0 0-.167-1.024"/>
        <path fill="#1F2233" d="M65.822 163.24a.524.524 0 0 0-.435.22l-1.606 2.2a.521.521 0 0 0 .365.833c.187.02.37-.063.48-.217l1.606-2.2a.523.523 0 0 0-.41-.836"/>
        <path fill="#B7D0F9" d="M86.83 170.173c0 5.678 4.603 10.28 10.28 10.28a10.282 10.282 0 1 0 20.56 0 10.282 10.282 0 0 0-30.84-10.28"/>
        <path fill="#7F90FF" d="M101.048 174.212c1.993 1.993 7.082.133 11.368-4.152 4.286-4.286 6.144-9.375 4.152-11.368-.957-.957-2.693-1.057-4.824-.279-2.132.78-4.486 2.372-6.544 4.43-2.058 2.059-3.652 4.413-4.43 6.545-.78 2.132-.679 3.867.278 4.824"/>
        <path fill="#6767E5" d="M104.964 172.583c-2.488 1.323-6.812-1.943-9.657-7.294-2.846-5.352-3.135-10.763-.646-12.086 2.487-1.323 6.811 1.943 9.657 7.295 1.366 2.57 2.202 5.287 2.323 7.553.12 2.267-.482 3.897-1.677 4.532"/>
        <path fill="#1F2233" d="M97.513 157.745a.522.522 0 0 0-.396.836s3.65 5.03 5.791 12.558a.523.523 0 1 0 1.006-.287c-2.193-7.71-5.951-12.885-5.951-12.885a.523.523 0 0 0-.45-.222M111.293 163.87a.524.524 0 0 0-.356.166s-4.433 4.61-7.663 11.947a.522.522 0 1 0 .957.422c3.153-7.163 7.46-11.645 7.46-11.645a.522.522 0 0 0-.398-.89"/>
        <path fill="#FFF" d="M50.379 168.865c-1.31 0-2.41 1.056-2.365 2.366v2.96h72.101v-2.96a2.36 2.36 0 0 0-2.365-2.366H50.38"/>
        <path fill="#0CB" d="M48.014 181.135h72.101v-6.944H48.014z"/>
        <path fill="#1F2233" d="M48.014 173.668a.523.523 0 1 0 0 1.045h71.578v6.209a.523.523 0 1 0 1.046 0v-6.731a.522.522 0 0 0-.522-.523H48.014M205.85 32.329a.523.523 0 0 0-.515.53v52.17c0 .29.234.524.523.524h48.745c.697 0 .697-1.046 0-1.046H206.38V32.86a.522.522 0 0 0-.53-.53"/>
        <path fill="#0CB" d="M210.37 33.378c6.958 0 13.052 1.3 18.38 3.471v44.577h-18.38V33.378zm22.894 5.608c23.376 12.676 29.838 42.44 29.838 42.44h-29.838v-42.44z"/>
        <path fill="#1F2233" d="M233.326 41.612a.523.523 0 0 0-.515.53V85.03a.523.523 0 1 0 1.046 0V42.143a.523.523 0 0 0-.53-.53"/>
        <path fill="#1F2233" d="M205.858 61.33a.523.523 0 1 0 0 1.046h51.39a.522.522 0 0 0 .454-.784.522.522 0 0 0-.453-.262h-51.391"/>
        <path fill="#FFF" d="M38.708 64.54l55.569-.088v28.256l-55.57.088V64.54"/>
        <path fill="#1F2233" d="M42.604 72.635a.523.523 0 1 0 0 1.046h31.157a.523.523 0 1 0 0-1.046H42.604M94.269 63.487a.523.523 0 0 0-.515.53v28.168H46.929a.521.521 0 0 0-.453.785.524.524 0 0 0 .453.261h47.347a.524.524 0 0 0 .524-.522V64.017a.525.525 0 0 0-.531-.53"/>
        <path fill="#0CB" d="M40.923 58.338a2.21 2.21 0 0 0-2.215 2.215v3.987H94.8v-3.987a2.21 2.21 0 0 0-2.215-2.215H40.923"/>
        <path fill="#ECECEC" d="M44.192 61.32a1.097 1.097 0 1 1-2.193 0 1.097 1.097 0 0 1 2.193 0M47.637 61.32a1.096 1.096 0 1 1-2.192 0 1.096 1.096 0 0 1 2.192 0M51.345 61.32a1.096 1.096 0 1 1-2.193 0 1.096 1.096 0 0 1 2.193 0"/>
        <path fill="#1F2233" d="M42.35 67.922h15.883c.153 0 .276.124.276.277v1.527a.276.276 0 0 1-.276.277H42.35a.276.276 0 0 1-.277-.277v-1.527c0-.153.124-.277.277-.277"/>
        <path fill="#7F90FF" d="M54.182 82.903a4.824 4.824 0 1 1-9.648 0 4.824 4.824 0 0 1 9.648 0"/>
        <path fill="#1F2233" d="M59.853 79.64a.522.522 0 1 0 0 1.044h27.962a.524.524 0 0 0 .468-.79.522.522 0 0 0-.468-.255H59.853M59.853 84.144a.523.523 0 1 0 0 1.046h23.062a.523.523 0 1 0 0-1.046H59.853M53.865 78.587a.521.521 0 0 0-.39.208s-1.113 1.434-2.236 2.848c-.561.707-1.125 1.41-1.55 1.92-.143.173-.239.281-.344.401l-.035-.035a81.785 81.785 0 0 0-.79-.74c-.564-.52-1.117-1.021-1.117-1.021a.523.523 0 1 0-.703.772s.55.5 1.11 1.018c.28.258.563.522.778.727a13.579 13.579 0 0 1 .33.326c.012.014.024.047-.027-.042.107.184.404.276.53.259.127-.017.17-.05.208-.072.073-.042.1-.07.13-.098.064-.056.12-.117.192-.195.14-.155.324-.37.542-.631.435-.523 1.001-1.229 1.565-1.939a367.314 367.314 0 0 0 2.243-2.858.523.523 0 0 0-.436-.848M257.047 106.52a.523.523 0 0 0-.514.53v63.8a.523.523 0 1 0 1.045 0v-63.8a.524.524 0 0 0-.53-.53M260.603 114.641a.524.524 0 0 0-.515.53v55.604a.523.523 0 1 0 1.045 0v-55.603a.52.52 0 0 0-.53-.53M253.399 133.437a.523.523 0 0 0-.515.53v36.808a.521.521 0 0 0 .789.468.522.522 0 0 0 .256-.468v-36.807a.523.523 0 0 0-.53-.53M268.121 151.605a.523.523 0 0 0-.514.53v18.64a.523.523 0 1 0 1.044 0v-18.64a.523.523 0 0 0-.53-.53M263.944 133.437a.524.524 0 0 0-.515.53v36.808a.523.523 0 1 0 1.046 0v-36.807a.523.523 0 0 0-.53-.53"/>
        <path fill="#0CB" d="M254.335 127.239c4.311-.267 7.037 2.326 1.654 7.708-5.382 5.383-11.762 7.73-14.25 5.243-2.487-2.488-.14-8.867 5.243-14.25 5.382-5.383 7.93-2.85 7.353 1.299"/>
        <path fill="#7F90FF" d="M257.576 145.557c4.975-.308 8.121 2.684 1.91 8.896-6.212 6.211-13.575 8.92-16.445 6.05-2.87-2.871-.162-10.233 6.05-16.445 6.21-6.212 9.15-3.288 8.485 1.499"/>
        <path fill="#0CB" d="M268.664 151.485c-4.11-.254-6.71 2.218-1.578 7.35 5.133 5.133 11.216 7.37 13.588 5 2.372-2.373.134-8.456-4.999-13.589-5.132-5.132-7.561-2.716-7.01 1.239M266.68 129.975c-4.11-.254-6.71 2.218-1.577 7.35 5.132 5.133 11.215 7.371 13.587 4.999 2.372-2.372.134-8.455-4.998-13.587-5.133-5.133-7.562-2.717-7.012 1.238"/>
        <path fill="#7F90FF" d="M261.64 113.962c-2.63-.163-4.292 1.418-1.01 4.7 3.283 3.283 7.174 4.714 8.69 3.197 1.518-1.517.086-5.407-3.196-8.69-3.283-3.282-4.836-1.737-4.484.793M256.551 104.355c2.629-.162 4.291 1.419 1.009 4.701-3.283 3.283-7.173 4.714-8.69 3.197-1.517-1.517-.086-5.407 3.197-8.69 3.282-3.283 4.836-1.738 4.484.792"/>
        <path fill="#FFF" d="M247.031 181.135h29.55v-6.944h-29.55z"/>
        <path fill="#1F2233" d="M247.546 172.669a.523.523 0 0 0-.515.53v7.936a.522.522 0 1 0 1.046 0v-7.936a.525.525 0 0 0-.531-.53M276.05 172.669a.52.52 0 0 0-.515.53v7.936a.525.525 0 0 0 .786.457.523.523 0 0 0 .26-.457v-7.936a.52.52 0 0 0-.53-.53"/>
        <path fill="#7F90FF" d="M249.396 168.865a2.36 2.36 0 0 0-2.365 2.366v2.96h29.55v-2.96a2.36 2.36 0 0 0-2.365-2.366h-24.82"/>
        <path fill="#1F2233" d="M91.433 4.292a.523.523 0 0 0-.515.53V37.88c0 .697 1.046.697 1.046 0V4.823a.523.523 0 0 0-.53-.53"/>
        <path fill="#0CB" d="M82.044 47.384h102.329v-2.82H82.043z"/>
        <path fill="#1F2233" d="M102.656 16.549a.522.522 0 0 0-.515.53V37.88c0 .697 1.046.697 1.046 0v-20.8a.522.522 0 0 0-.53-.531M167.482 4.292a.523.523 0 0 0-.514.53V37.88c0 .697 1.045.697 1.045 0V4.823a.523.523 0 0 0-.53-.53M178.705 16.549a.522.522 0 0 0-.514.53V37.88c0 .697 1.045.697 1.045 0v-20.8a.523.523 0 0 0-.53-.531"/>
        <path fill="#7F90FF" d="M83.574 35.585c-.848 0-1.53.683-1.53 1.53v5.153h102.329v-5.153c0-.847-.683-1.53-1.53-1.53h-99.27"/>
        <path fill="#1F2233" d="M82.044 46.861a.523.523 0 1 0 0 1.046H186.44a.523.523 0 1 0 0-1.046H82.044"/>
        <path fill="#FFF" d="M82.044 44.565h102.329v-2.297H82.043z"/>
        <path fill="#1F2233" d="M145.617 120.555a1.022 1.022 0 1 1-2.044-.001 1.022 1.022 0 0 1 2.044.001M148.956 120.555a1.022 1.022 0 1 1-2.043-.001 1.022 1.022 0 0 1 2.043.001M124.556 106.437c-.065 0-.13.011-.19.034a2.975 2.975 0 0 0-2.596 2.04.517.517 0 0 0-.08.185l-5.276 22.57v-.005c-.145.6-.136 1.196.144 1.693.281.497.861.807 1.526.807h20.005a.52.52 0 0 0 .523-.523v-.734a3.374 3.374 0 0 0-3.37-3.37h-5.346l1.046-4.494a.523.523 0 1 0-1.018-.237l-1.176 5.053a.523.523 0 0 0 .074.527l.022.026c.118.135.298.2.476.17h5.923a2.307 2.307 0 0 1 2.324 2.325v.211h-19.483c-.392 0-.518-.103-.616-.277-.098-.173-.142-.504-.039-.932v-.005l5.272-22.56v-.005c.185-.762 1.065-1.455 1.85-1.455h8.08c.392 0 .65.14.808.343.159.202.235.484.143.866v.004l-.005.01-1.438 6.172a.522.522 0 1 0 1.018.238l1.438-6.172v-.01a.519.519 0 0 0 .006-.221c.08-.567-.019-1.121-.343-1.534-.325-.412-.839-.638-1.408-.695a.515.515 0 0 0-.222-.047l-8.072.002M8.811 180.612a.524.524 0 1 0 0 1.045H287.19a.523.523 0 1 0 0-1.045H8.81"/>
    </g>
</svg>
