<svg width="32" height="32" viewBox="0 0 32 32" fill="none" xmlns="http://www.w3.org/2000/svg">
<path d="M20 15.993C19.9992 14.8041 19.7818 13.6658 19.3856 12.6151C18.335 12.2186 17.1963 12.0007 16.0069 11.9999H15.9931C14.8043 12.0007 13.6659 12.2179 12.6154 12.6143C12.219 13.6647 12.0008 14.8034 12 15.9927V16.0066C12.0008 17.1955 12.2186 18.3338 12.6142 19.3844C13.6653 19.7807 14.8038 19.9988 15.9931 19.9996H16.0069C17.1963 19.9988 18.335 19.7807 19.3855 19.3844C19.7815 18.3337 19.9991 17.1954 19.9999 16.0065V15.9926V15.9928L20 15.993ZM31.7776 18.6666H22.4379L29.0419 25.2706C28.5234 25.9988 27.9451 26.6825 27.313 27.3145L27.3126 27.3151C26.6811 27.9465 25.9981 28.5243 25.2707 29.0423L18.6667 22.4383V31.7774C17.7883 31.925 16.8991 31.9995 16.0083 32H15.9914C15.1007 31.9995 14.2116 31.9251 13.3333 31.7776V22.4378L6.72928 29.0418C6.00151 28.5236 5.31821 27.9456 4.68648 27.3138L4.68408 27.3117C4.05322 26.6804 3.476 25.9977 2.9584 25.2707L9.5624 18.6667H0.2224C0.2224 18.6667 0.00032 16.9123 0 16.0059V15.9943C0.000333282 15.1026 0.0747223 14.2124 0.2224 13.333H9.56208L2.95808 6.72904C3.99662 5.27095 5.27119 3.99638 6.72928 2.95784L13.3333 9.56168V0.222401C14.2108 0.0750487 15.099 0.000660987 15.9888 7.15256e-07H16.0117C16.9014 0.00071275 17.7895 0.0751002 18.6669 0.222401V9.56216L25.2709 2.95816C25.9984 3.47624 26.6815 4.05403 27.3131 4.68552L27.3147 4.68672C27.9461 5.31834 28.5238 6.00142 29.0419 6.72888L22.4379 13.333H31.7776C31.9249 14.2104 31.9993 15.0986 32 15.9882V16.0112C31.9993 16.9009 31.9249 17.789 31.7776 18.6664V18.6666Z" fill="#FF4A00"/>
</svg>
